<?xml version="1.0" encoding="utf-8"?>
<!-- Generator: Adobe Illustrator 26.0.1, SVG Export Plug-In . SVG Version: 6.00 Build 0)  -->
<svg version="1.1" id="Layer_1" xmlns="http://www.w3.org/2000/svg" xmlns:xlink="http://www.w3.org/1999/xlink" x="0px" y="0px"
	 viewBox="0 0 1920 517.9" style="enable-background:new 0 0 1920 517.9;" xml:space="preserve">
<style type="text/css">
	.st0{fill:#FFFFFF;stroke:#000000;stroke-width:4;stroke-miterlimit:10;}
	.st1{opacity:0.5;fill:#F07D00;enable-background:new    ;}
	.st2{fill:none;stroke:#000000;stroke-width:4;stroke-miterlimit:10;}
	.st3{fill:none;stroke:#000000;stroke-width:4;stroke-linecap:round;stroke-miterlimit:10;}
	.st4{fill:#FFF59F;stroke:#000000;stroke-width:4;stroke-linecap:round;stroke-miterlimit:10;}
	.st5{fill:none;stroke:#000000;stroke-width:3;stroke-miterlimit:10;}
	.st6{enable-background:new    ;}
	.st7{fill:none;stroke:#000000;stroke-width:3.69;stroke-linecap:round;stroke-miterlimit:10;}
	.st8{fill:#FFFFFF;stroke:#000000;stroke-width:4.2;stroke-miterlimit:10;}
	.st9{fill:#9BFF94;}
</style>
<path class="st0" d="M689.2,299.4c-65.1,0-117.9-52.8-117.9-117.9c0-65.1,52.8-117.9,117.9-117.9c65.1,0,117.9,52.8,117.9,117.9
	C807,246.6,754.3,299.3,689.2,299.4z"/>
<path class="st1" d="M791.1,181.5H689.2V79.7C745.4,79.7,791.1,125.3,791.1,181.5C791.1,181.5,791.1,181.5,791.1,181.5z"/>
<circle class="st2" cx="689.2" cy="181.5" r="101.9"/>
<line class="st3" x1="689.2" y1="79.7" x2="689.2" y2="95"/>
<line class="st3" x1="689.2" y1="268.1" x2="689.2" y2="283.4"/>
<line class="st3" x1="791.1" y1="181.5" x2="775.7" y2="181.5"/>
<line class="st3" x1="602.6" y1="181.5" x2="587.3" y2="181.5"/>
<path class="st4" d="M689.2,135L689.2,135c2.4,0,4.4,2,4.4,4.4v38.1c0,2.4-2,4.4-4.4,4.4l0,0c-2.4,0-4.4-2-4.4-4.4v-38.1
	C684.8,136.9,686.8,135,689.2,135z"/>
<path class="st4" d="M767.1,181.8L767.1,181.8c0,2.4-2,4.4-4.4,4.4h-69.1c-2.4,0-4.4-2-4.4-4.4l0,0c0-2.4,2-4.4,4.4-4.4h69.1
	C765.1,177.4,767.1,179.4,767.1,181.8z"/>
<circle cx="689.2" cy="181.5" r="10.7"/>
<path class="st0" d="M638.4,460.4H525c-7.3,0-13.2-5.9-13.2-13.2V224.6c0-7.3,5.9-13.2,13.2-13.2h113.4c7.3,0,13.2,5.9,13.2,13.2
	v222.6C651.6,454.5,645.7,460.4,638.4,460.4z"/>
<rect x="527.2" y="229.1" class="st2" width="109" height="191.7"/>
<circle class="st5" cx="581.7" cy="439.8" r="10.5"/>
<g class="st6">
	<path d="M553.5,253.6v6.4h0.8c0.5,0,0.9,0.1,1.1,0.3c0.2,0.2,0.3,0.5,0.3,0.8c0,0.3-0.1,0.6-0.3,0.8c-0.2,0.2-0.6,0.3-1.1,0.3h-2.8
		c-0.5,0-0.9-0.1-1.1-0.3c-0.2-0.2-0.3-0.5-0.3-0.8c0-0.3,0.1-0.6,0.3-0.8c0.2-0.2,0.5-0.3,1-0.3v-8.2h-0.3c-0.5,0-0.9-0.1-1.1-0.3
		s-0.3-0.5-0.3-0.8c0-0.3,0.1-0.6,0.3-0.8s0.6-0.3,1.1-0.3l2.4,0l5.4,8.4v-6.3h-0.8c-0.5,0-0.9-0.1-1.1-0.3
		c-0.2-0.2-0.3-0.5-0.3-0.8c0-0.3,0.1-0.6,0.3-0.8c0.2-0.2,0.6-0.3,1.1-0.3l2.8,0c0.5,0,0.9,0.1,1.1,0.3c0.2,0.2,0.3,0.4,0.3,0.8
		c0,0.3-0.1,0.6-0.3,0.8c-0.2,0.2-0.5,0.3-1,0.3V262h-2.1L553.5,253.6z"/>
	<path d="M570.8,256.8v3.1h5.4v-1.1c0-0.5,0.1-0.9,0.3-1.1c0.2-0.2,0.5-0.3,0.8-0.3c0.3,0,0.6,0.1,0.8,0.3c0.2,0.2,0.3,0.6,0.3,1.1
		v3.2h-9.9c-0.5,0-0.9-0.1-1.1-0.3c-0.2-0.2-0.3-0.5-0.3-0.8c0-0.3,0.1-0.6,0.3-0.8c0.2-0.2,0.6-0.3,1.1-0.3h0.3v-8.2h-0.3
		c-0.5,0-0.9-0.1-1.1-0.3c-0.2-0.2-0.3-0.5-0.3-0.8c0-0.3,0.1-0.6,0.3-0.8c0.2-0.2,0.6-0.3,1.1-0.3l9.4,0v3.2c0,0.5-0.1,0.9-0.3,1.1
		c-0.2,0.2-0.4,0.3-0.8,0.3c-0.3,0-0.6-0.1-0.8-0.3c-0.2-0.2-0.3-0.6-0.3-1.1v-1.1h-4.9v3h1.8c0-0.5,0.1-0.9,0.2-1.1
		c0.2-0.3,0.5-0.5,0.9-0.5c0.3,0,0.6,0.1,0.8,0.3c0.2,0.2,0.3,0.6,0.3,1.1v2.4c0,0.5-0.1,0.8-0.2,0.9c-0.2,0.3-0.5,0.5-0.9,0.5
		c-0.4,0-0.7-0.2-0.9-0.5c-0.1-0.2-0.2-0.5-0.2-1.1H570.8z"/>
	<path d="M589.8,256.1l-2,6h-2.4l-1.3-10.3c-0.3,0-0.6-0.2-0.7-0.3c-0.2-0.2-0.2-0.4-0.2-0.7c0-0.3,0.1-0.6,0.3-0.8
		c0.2-0.2,0.6-0.3,1.1-0.3l2.8,0c0.5,0,0.9,0.1,1.1,0.3c0.2,0.2,0.3,0.4,0.3,0.8c0,0.3-0.1,0.6-0.3,0.8c-0.2,0.2-0.6,0.3-1.1,0.3
		h-1.1l0.7,5.9l1.7-4.9h2.2l1.6,4.9l0.7-5.9h-1.1c-0.5,0-0.9-0.1-1.1-0.3c-0.2-0.2-0.3-0.5-0.3-0.8c0-0.3,0.1-0.6,0.3-0.8
		c0.2-0.2,0.6-0.3,1.1-0.3l2.8,0c0.5,0,0.9,0.1,1.1,0.3c0.2,0.2,0.3,0.4,0.3,0.8c0,0.3-0.1,0.5-0.3,0.7c-0.2,0.2-0.4,0.3-0.7,0.4
		l-1.2,10.3h-2.3L589.8,256.1z"/>
	<path d="M603.6,261.5c-0.2,0.2-0.3,0.4-0.4,0.4c-0.1,0.1-0.3,0.1-0.4,0.1c-0.3,0-0.6-0.1-0.8-0.3c-0.2-0.2-0.3-0.6-0.3-1.1v-1.4
		c0-0.5,0.1-0.9,0.3-1.1c0.2-0.2,0.5-0.3,0.8-0.3c0.2,0,0.5,0.1,0.6,0.2c0.2,0.1,0.3,0.3,0.4,0.7s0.2,0.5,0.3,0.6
		c0.2,0.2,0.6,0.4,1.1,0.6c0.5,0.2,1.1,0.3,1.7,0.3c0.9,0,1.7-0.2,2.3-0.7c0.4-0.3,0.6-0.6,0.6-1c0-0.3-0.1-0.5-0.3-0.7
		c-0.2-0.2-0.5-0.4-0.9-0.6c-0.3-0.1-0.9-0.2-1.8-0.4c-1.1-0.2-2-0.5-2.6-0.8c-0.6-0.3-1.1-0.7-1.4-1.3c-0.3-0.5-0.5-1.1-0.5-1.8
		c0-1,0.4-1.9,1.3-2.6c0.8-0.8,1.9-1.1,3.3-1.1c0.5,0,1,0.1,1.5,0.2c0.5,0.1,0.9,0.3,1.3,0.5c0.3-0.3,0.5-0.4,0.8-0.4
		c0.3,0,0.6,0.1,0.8,0.3c0.2,0.2,0.3,0.6,0.3,1.1v1.6c0,0.5-0.1,0.9-0.3,1.1c-0.2,0.2-0.4,0.3-0.8,0.3c-0.3,0-0.5-0.1-0.7-0.2
		c-0.2-0.1-0.3-0.3-0.3-0.7c-0.1-0.3-0.2-0.6-0.3-0.7c-0.2-0.3-0.5-0.5-0.9-0.7s-0.9-0.3-1.4-0.3c-0.8,0-1.4,0.2-1.8,0.5
		c-0.4,0.4-0.7,0.7-0.7,1.1c0,0.3,0.1,0.5,0.3,0.8c0.2,0.2,0.4,0.4,0.8,0.6c0.2,0.1,0.9,0.2,2,0.5c1.1,0.2,1.9,0.4,2.5,0.7
		c0.6,0.3,1.1,0.7,1.4,1.2c0.4,0.5,0.6,1.2,0.6,1.9c0,1-0.4,1.9-1.1,2.5c-1,0.8-2.2,1.2-3.7,1.2c-0.6,0-1.1-0.1-1.7-0.2
		C604.6,262,604.1,261.8,603.6,261.5z"/>
</g>
<rect x="540.3" y="275.7" width="82.9" height="49.2"/>
<line class="st7" x1="543.1" y1="388.8" x2="620.4" y2="388.8"/>
<line class="st7" x1="543.1" y1="373.4" x2="620.4" y2="373.4"/>
<line class="st7" x1="543.1" y1="404.3" x2="620.4" y2="404.3"/>
<line class="st7" x1="543.1" y1="342.5" x2="620.4" y2="342.5"/>
<line class="st7" x1="543.1" y1="358" x2="620.4" y2="358"/>
<path class="st0" d="M1402.5,299.4c-65.1,0-117.9-52.8-117.9-117.9s52.8-117.9,117.9-117.9c65.1,0,117.9,52.8,117.9,117.9
	C1520.3,246.6,1467.5,299.3,1402.5,299.4z"/>
<path class="st1" d="M1504.3,181.5h-101.9V79.7C1458.7,79.7,1504.3,125.3,1504.3,181.5C1504.3,181.5,1504.3,181.5,1504.3,181.5z"/>
<circle class="st2" cx="1402.5" cy="181.5" r="101.9"/>
<line class="st3" x1="1402.5" y1="79.7" x2="1402.5" y2="95"/>
<line class="st3" x1="1402.5" y1="268.1" x2="1402.5" y2="283.4"/>
<line class="st3" x1="1504.3" y1="181.5" x2="1489" y2="181.5"/>
<line class="st3" x1="1315.9" y1="181.5" x2="1300.6" y2="181.5"/>
<path class="st4" d="M1402.5,135L1402.5,135c2.4,0,4.4,2,4.4,4.4v38.1c0,2.4-2,4.4-4.4,4.4l0,0c-2.4,0-4.4-2-4.4-4.4v-38.1
	C1398.1,136.9,1400.1,135,1402.5,135z"/>
<path class="st4" d="M1480.4,181.8L1480.4,181.8c0,2.4-2,4.4-4.4,4.4h-69.2c-2.4,0-4.4-2-4.4-4.4l0,0c0-2.4,2-4.4,4.4-4.4h69.2
	C1478.4,177.4,1480.4,179.4,1480.4,181.8z"/>
<circle cx="1402.5" cy="181.5" r="10.7"/>
<polygon class="st8" points="1357.6,460.4 1116.8,460.4 1116.8,217.7 1357.6,217.7 1357.6,436.8 1367.1,436.8 1367.1,460.4 "/>
<path class="st0" d="M1369.1,460.4L1369.1,460.4c-6.3,0-11.5-5.1-11.6-11.5V366h23.1v83C1380.6,455.3,1375.4,460.4,1369.1,460.4z"/>
<g class="st6">
	<path d="M1179.9,252.2v11.9h1.4c1,0,1.6,0.2,2,0.5c0.4,0.4,0.6,0.8,0.6,1.4c0,0.6-0.2,1.1-0.6,1.4c-0.4,0.4-1.1,0.5-2,0.5h-5.2
		c-1,0-1.6-0.2-2-0.5c-0.4-0.4-0.6-0.8-0.6-1.4c0-0.6,0.2-1,0.6-1.4c0.4-0.4,1-0.6,1.8-0.6v-15.5h-0.6c-1,0-1.6-0.2-2-0.5
		c-0.4-0.4-0.6-0.8-0.6-1.4s0.2-1.1,0.6-1.4c0.4-0.4,1.1-0.5,2-0.5l4.6,0l10.1,15.8v-11.9h-1.4c-1,0-1.6-0.2-2-0.5
		c-0.4-0.4-0.6-0.8-0.6-1.4s0.2-1.1,0.6-1.4c0.4-0.4,1.1-0.5,2-0.5l5.2,0c1,0,1.6,0.2,2,0.5c0.4,0.4,0.6,0.8,0.6,1.4
		c0,0.6-0.2,1.1-0.6,1.4c-0.4,0.4-1,0.6-1.8,0.6v19.4h-3.9L1179.9,252.2z"/>
	<path d="M1216.3,258.3v5.8h10.1V262c0-1,0.2-1.6,0.5-2c0.4-0.4,0.8-0.6,1.4-0.6c0.6,0,1.1,0.2,1.4,0.6c0.4,0.4,0.5,1.1,0.5,2v6.1
		h-18.6c-1,0-1.6-0.2-2-0.5s-0.6-0.8-0.6-1.4c0-0.6,0.2-1,0.6-1.4s1.1-0.5,2-0.5h0.6v-15.5h-0.6c-1,0-1.6-0.2-2-0.5
		s-0.6-0.8-0.6-1.4s0.2-1.1,0.6-1.4s1.1-0.5,2-0.5l17.7,0v6c0,0.9-0.2,1.6-0.5,2c-0.4,0.4-0.8,0.6-1.4,0.6s-1.1-0.2-1.4-0.6
		s-0.5-1.1-0.5-2v-2.1h-9.2v5.7h3.5c0-1,0.1-1.7,0.3-2c0.4-0.6,1-0.9,1.7-0.9c0.6,0,1.1,0.2,1.4,0.6c0.4,0.4,0.5,1.1,0.5,2v4.5
		c0,0.9-0.1,1.4-0.3,1.7c-0.4,0.6-1,0.9-1.7,0.9c-0.7,0-1.3-0.3-1.7-0.9c-0.2-0.3-0.3-1-0.3-2H1216.3z"/>
	<path d="M1255.9,256.9l-3.7,11.2h-4.4l-2.4-19.4c-0.6-0.1-1.1-0.3-1.4-0.6c-0.3-0.3-0.5-0.8-0.5-1.3c0-0.6,0.2-1.1,0.6-1.5
		c0.4-0.4,1.1-0.6,2-0.6l5.3,0c1,0,1.6,0.2,2,0.5s0.6,0.8,0.6,1.4s-0.2,1.1-0.6,1.4s-1.1,0.5-2,0.5h-2.1l1.3,11l3.1-9.2h4.1l3.1,9.2
		l1.3-11h-2.1c-1,0-1.6-0.2-2-0.5s-0.6-0.8-0.6-1.4s0.2-1.1,0.6-1.4s1.1-0.5,2-0.5l5.2,0c1,0,1.6,0.2,2,0.5s0.6,0.8,0.6,1.4
		c0,0.5-0.2,0.9-0.5,1.3c-0.3,0.4-0.8,0.6-1.4,0.7l-2.3,19.4h-4.4L1255.9,256.9z"/>
	<path d="M1285.6,267.1c-0.3,0.4-0.6,0.7-0.8,0.8s-0.5,0.2-0.8,0.2c-0.6,0-1.1-0.2-1.5-0.6c-0.4-0.4-0.5-1.1-0.5-2v-2.7
		c0-1,0.2-1.6,0.5-2c0.4-0.4,0.9-0.6,1.5-0.6c0.5,0,0.9,0.1,1.2,0.4c0.3,0.2,0.6,0.7,0.7,1.2c0.2,0.6,0.3,1,0.5,1.2
		c0.4,0.4,1,0.8,2,1.2c1,0.4,2,0.6,3.1,0.6c1.8,0,3.2-0.4,4.3-1.2c0.7-0.5,1.1-1.1,1.1-1.8c0-0.5-0.2-0.9-0.5-1.4
		c-0.3-0.4-0.9-0.8-1.7-1.1c-0.5-0.2-1.7-0.5-3.5-0.8c-2.2-0.4-3.8-0.9-4.9-1.4c-1.1-0.6-2-1.4-2.6-2.4c-0.6-1-1-2.1-1-3.3
		c0-1.9,0.8-3.5,2.4-5c1.6-1.4,3.6-2.1,6.2-2.1c1,0,2,0.1,2.8,0.3c0.9,0.2,1.7,0.6,2.4,1c0.5-0.5,1-0.8,1.5-0.8c0.6,0,1,0.2,1.4,0.6
		c0.4,0.4,0.5,1.1,0.5,2v3c0,1-0.2,1.6-0.5,2c-0.4,0.4-0.8,0.6-1.4,0.6c-0.5,0-0.9-0.1-1.3-0.4c-0.3-0.2-0.5-0.7-0.6-1.3
		s-0.3-1.1-0.5-1.4c-0.4-0.5-0.9-0.9-1.7-1.2c-0.7-0.3-1.6-0.5-2.6-0.5c-1.4,0-2.6,0.3-3.4,1c-0.8,0.7-1.2,1.4-1.2,2.1
		c0,0.5,0.2,1,0.5,1.4c0.3,0.5,0.8,0.8,1.5,1.1c0.4,0.2,1.7,0.5,3.7,0.9c2,0.4,3.6,0.8,4.7,1.3s2,1.2,2.7,2.2c0.7,1,1.1,2.2,1.1,3.6
		c0,2-0.7,3.5-2.1,4.7c-1.8,1.5-4.2,2.3-7,2.3c-1.1,0-2.2-0.1-3.2-0.4C1287.6,268,1286.6,267.6,1285.6,267.1z"/>
</g>
<rect x="1136.9" y="290.8" width="202.2" height="53.6"/>
<rect x="1136.9" y="362.6" width="88.1" height="49.6"/>
<line class="st3" x1="1243" y1="412.3" x2="1334" y2="412.3"/>
<line class="st3" x1="1243" y1="396.8" x2="1334" y2="396.8"/>
<line class="st3" x1="1243" y1="427.7" x2="1334" y2="427.7"/>
<line class="st3" x1="1243" y1="443.1" x2="1334" y2="443.1"/>
<line class="st3" x1="1243" y1="366" x2="1334" y2="366"/>
<line class="st3" x1="1243" y1="381.4" x2="1334" y2="381.4"/>
<line class="st3" x1="1136.9" y1="427.7" x2="1227.9" y2="427.7"/>
<line class="st3" x1="1136.9" y1="443.1" x2="1227.9" y2="443.1"/>
<path class="st9" d="M473.2,197.1c-4.6,0-9-2.3-11.5-6.2c-4.4-6.7-12.7-9.6-20.3-7.2c-1.4,0.4-2.8,0.7-4.2,0.7
	c-3.8,0-7.4-1.6-10-4.3c-2.6-2.7-4-6.4-3.8-10.1c0.3-8-4.7-15.2-12.2-17.7c-7.3-2.4-11.2-10.2-8.8-17.5c0.5-1.5,1.3-3,2.3-4.3
	c5-6.2,5.2-15,0.5-21.5c-4.5-6.2-3-14.9,3.2-19.3c1.3-1,2.8-1.7,4.4-2.1c7.7-2.1,13-9.1,13.1-17.1c0-7.6,6.2-13.8,13.8-13.8
	c1.7,0,3.3,0.3,4.9,0.9c7.5,2.8,15.9,0.3,20.6-6.2c4.5-6.2,13.2-7.5,19.3-3c1.3,1,2.4,2.2,3.3,3.5c4.4,6.7,12.7,9.6,20.3,7.2
	c1.4-0.4,2.8-0.7,4.2-0.7c3.8,0,7.4,1.6,10,4.3c2.6,2.7,4,6.4,3.8,10.2c-0.3,8,4.6,15.2,12.2,17.7c7.3,2.4,11.2,10.2,8.8,17.5
	c-0.5,1.6-1.3,3-2.3,4.3c-5,6.3-5.2,15-0.5,21.5c4.5,6.2,3.1,14.8-3.1,19.3c-1.3,1-2.8,1.7-4.4,2.1c-7.7,2.1-13,9.1-13.1,17.1
	c0,7.6-6.2,13.8-13.8,13.8c-1.7,0-3.3-0.3-4.9-0.9c-7.5-2.8-15.9-0.3-20.6,6.1C481.8,195.1,477.6,197.1,473.2,197.1z"/>
<path d="M476.3,47.8c4,0,7.7,2,9.9,5.3c4.9,7.4,14.1,10.6,22.6,8c4.3-1.4,9.1-0.2,12.2,3.1c2.2,2.3,3.4,5.5,3.2,8.7
	c-0.4,8.9,5.2,16.9,13.6,19.7c6.2,2.1,9.6,8.8,7.5,15c-0.4,1.3-1.1,2.5-2,3.6c-5.5,7-5.7,16.7-0.6,23.9c3.8,5.3,2.6,12.7-2.7,16.5
	c-1.1,0.8-2.4,1.4-3.8,1.8c-8.5,2.4-14.5,10.1-14.5,19c0,6.5-5.3,11.8-11.8,11.8c-1.4,0-2.9-0.3-4.2-0.8c-2.2-0.8-4.6-1.3-7-1.3
	c-6.3,0-12.3,3-16,8.1c-3.9,5.3-11.3,6.4-16.5,2.5c-1.1-0.8-2.1-1.9-2.9-3c-4.9-7.4-14.1-10.7-22.6-8c-4.3,1.4-9.1,0.2-12.2-3.1
	c-2.2-2.3-3.4-5.5-3.2-8.7c0.4-8.9-5.2-16.9-13.6-19.7c-6.2-2-9.6-8.7-7.5-14.9c0.4-1.3,1.1-2.6,2-3.7c5.5-7,5.7-16.7,0.6-23.9
	c-3.8-5.3-2.6-12.7,2.7-16.5c1.1-0.8,2.4-1.4,3.8-1.8c8.5-2.4,14.5-10.1,14.5-19c0-6.5,5.3-11.8,11.8-11.8c1.4,0,2.9,0.3,4.2,0.8
	c2.2,0.8,4.6,1.3,7,1.3c6.3,0,12.3-3,16-8.1C469,49.6,472.5,47.8,476.3,47.8 M476.3,43.8c-5,0-9.8,2.4-12.8,6.5
	c-3,4.1-7.7,6.5-12.8,6.5c-1.9,0-3.8-0.3-5.5-1c-8.1-3.1-17.3,1-20.3,9.1c-0.7,1.8-1,3.7-1,5.6c0,7.1-4.8,13.3-11.6,15.2l0,0
	c-8.4,2.3-13.4,11-11,19.5c0.5,1.8,1.3,3.5,2.4,5c4.1,5.8,3.9,13.6-0.5,19.1c-5.4,6.8-4.3,16.8,2.5,22.2c1.5,1.2,3.1,2.1,4.9,2.7
	c6.7,2.2,11.2,8.6,10.9,15.7c-0.4,8.7,6.3,16.1,15,16.6c1.9,0.1,3.8-0.2,5.6-0.7l0,0c6.7-2.1,14.1,0.4,18,6.3
	c4.8,7.3,14.6,9.3,21.9,4.5c1.6-1,2.9-2.3,4.1-3.9c4.2-5.7,11.7-7.9,18.3-5.4l0,0c8.2,3.1,17.3-1,20.4-9.2c0.7-1.8,1-3.7,1-5.5
	c0-7.1,4.8-13.3,11.6-15.2c8.4-2.3,13.4-11,11-19.5c-0.5-1.8-1.3-3.5-2.4-5c-4.1-5.8-3.9-13.6,0.5-19.1c5.4-6.8,4.3-16.8-2.5-22.3
	c-1.5-1.2-3.1-2-4.9-2.6c-6.7-2.2-11.2-8.6-10.8-15.7c0.4-8.7-6.3-16.1-15-16.5c-1.9-0.1-3.8,0.2-5.6,0.8c-1.6,0.5-3.2,0.8-4.8,0.8
	c-5.3,0-10.3-2.7-13.2-7.1l0,0C486.6,46.5,481.6,43.8,476.3,43.8L476.3,43.8z"/>
<g class="st6">
	<path d="M432,110.1v-8.6h-0.3c-0.5,0-0.9-0.1-1.1-0.3c-0.2-0.2-0.3-0.5-0.3-0.8s0.1-0.6,0.3-0.8c0.2-0.2,0.6-0.3,1.1-0.3h5.5
		c1.3,0,2.4,0.4,3.2,1.1c0.8,0.7,1.2,1.6,1.2,2.6c0,0.5-0.1,0.9-0.3,1.4c-0.2,0.4-0.5,0.8-0.8,1.2c0.7,0.4,1.2,0.9,1.6,1.5
		c0.3,0.6,0.5,1.2,0.5,1.9c0,0.6-0.1,1.1-0.4,1.6c-0.2,0.4-0.4,0.7-0.7,0.9c-0.4,0.3-0.8,0.5-1.3,0.7c-0.5,0.2-1.2,0.3-2,0.3h-6.5
		c-0.5,0-0.9-0.1-1.1-0.3c-0.2-0.2-0.3-0.5-0.3-0.8c0-0.3,0.1-0.6,0.3-0.8c0.2-0.2,0.6-0.3,1.1-0.3H432z M434.2,104.7h2.4
		c0.9,0,1.6-0.2,2.2-0.7c0.4-0.3,0.6-0.7,0.6-1.1c0-0.4-0.2-0.7-0.5-1c-0.4-0.3-0.9-0.4-1.7-0.4h-2.9V104.7z M434.2,110.1h3.8
		c0.9,0,1.5-0.1,1.9-0.4c0.3-0.2,0.4-0.5,0.4-0.9c0-0.4-0.3-0.9-0.8-1.3c-0.6-0.4-1.3-0.6-2.4-0.6h-2.9V110.1z"/>
	<path d="M457.5,108.5h-9c0.2,0.6,0.6,1,1.2,1.4c0.6,0.4,1.4,0.5,2.4,0.5c0.8,0,1.9-0.2,3.3-0.5c0.6-0.1,0.9-0.2,1.2-0.2
		c0.3,0,0.5,0.1,0.7,0.3c0.2,0.2,0.3,0.5,0.3,0.8c0,0.3-0.1,0.5-0.3,0.7c-0.3,0.3-1,0.5-2.1,0.8c-1.1,0.2-2.2,0.4-3.2,0.4
		c-1.8,0-3.2-0.5-4.2-1.5c-1.1-1-1.6-2.2-1.6-3.7c0-1.5,0.6-2.8,1.7-3.8c1.1-1,2.5-1.5,3.9-1.5c0.9,0,1.7,0.2,2.5,0.5
		c0.7,0.3,1.3,0.7,1.7,1c0.5,0.5,0.9,1.2,1.3,2c0.2,0.5,0.3,1.2,0.3,1.9V108.5z M455,106.3c-0.3-0.6-0.8-1.1-1.3-1.4
		c-0.5-0.3-1.2-0.5-1.9-0.5c-0.7,0-1.4,0.2-1.9,0.5c-0.5,0.3-1,0.8-1.3,1.4H455z"/>
	<path d="M466.8,104.7v4.4c0,0.5,0.1,0.8,0.3,0.9c0.3,0.2,0.8,0.4,1.6,0.4c1.1,0,2.2-0.2,3.1-0.7c0.4-0.2,0.7-0.3,0.9-0.3
		c0.3,0,0.5,0.1,0.7,0.3c0.2,0.2,0.3,0.5,0.3,0.8c0,0.3-0.1,0.5-0.3,0.7c-0.4,0.3-1,0.6-2.1,0.9c-1,0.3-1.9,0.4-2.6,0.4
		c-1.4,0-2.4-0.3-3.1-0.9c-0.7-0.6-1-1.3-1-2.2v-4.8h-0.8c-0.5,0-0.9-0.1-1.1-0.3c-0.2-0.2-0.3-0.5-0.3-0.8c0-0.3,0.1-0.6,0.3-0.8
		c0.2-0.2,0.6-0.3,1.1-0.3h0.8v-2c0-0.5,0.1-0.9,0.3-1.1c0.2-0.2,0.5-0.3,0.8-0.3c0.3,0,0.6,0.1,0.8,0.3c0.2,0.2,0.3,0.6,0.3,1.1v2
		h4.1c0.5,0,0.9,0.1,1.1,0.3c0.2,0.2,0.3,0.5,0.3,0.8c0,0.3-0.1,0.6-0.3,0.8c-0.2,0.2-0.6,0.3-1.1,0.3H466.8z"/>
	<path d="M482.2,104.7v4.4c0,0.5,0.1,0.8,0.3,0.9c0.3,0.2,0.8,0.4,1.6,0.4c1.1,0,2.2-0.2,3.1-0.7c0.4-0.2,0.7-0.3,0.9-0.3
		c0.3,0,0.5,0.1,0.7,0.3c0.2,0.2,0.3,0.5,0.3,0.8c0,0.3-0.1,0.5-0.3,0.7c-0.4,0.3-1,0.6-2.1,0.9c-1,0.3-1.9,0.4-2.6,0.4
		c-1.4,0-2.4-0.3-3.1-0.9c-0.7-0.6-1-1.3-1-2.2v-4.8h-0.8c-0.5,0-0.9-0.1-1.1-0.3c-0.2-0.2-0.3-0.5-0.3-0.8c0-0.3,0.1-0.6,0.3-0.8
		c0.2-0.2,0.6-0.3,1.1-0.3h0.8v-2c0-0.5,0.1-0.9,0.3-1.1c0.2-0.2,0.5-0.3,0.8-0.3c0.3,0,0.6,0.1,0.8,0.3c0.2,0.2,0.3,0.6,0.3,1.1v2
		h4.1c0.5,0,0.9,0.1,1.1,0.3c0.2,0.2,0.3,0.5,0.3,0.8c0,0.3-0.1,0.6-0.3,0.8c-0.2,0.2-0.6,0.3-1.1,0.3H482.2z"/>
	<path d="M503.7,108.5h-9c0.2,0.6,0.6,1,1.2,1.4c0.6,0.4,1.4,0.5,2.4,0.5c0.8,0,1.9-0.2,3.3-0.5c0.6-0.1,0.9-0.2,1.2-0.2
		c0.3,0,0.5,0.1,0.7,0.3c0.2,0.2,0.3,0.5,0.3,0.8c0,0.3-0.1,0.5-0.3,0.7c-0.3,0.3-1,0.5-2.1,0.8c-1.1,0.2-2.2,0.4-3.2,0.4
		c-1.8,0-3.2-0.5-4.2-1.5c-1.1-1-1.6-2.2-1.6-3.7c0-1.5,0.6-2.8,1.7-3.8c1.1-1,2.5-1.5,3.9-1.5c0.9,0,1.7,0.2,2.5,0.5
		c0.7,0.3,1.3,0.7,1.7,1c0.5,0.5,0.9,1.2,1.3,2c0.2,0.5,0.3,1.2,0.3,1.9V108.5z M501.2,106.3c-0.3-0.6-0.8-1.1-1.3-1.4
		c-0.5-0.3-1.2-0.5-1.9-0.5c-0.7,0-1.4,0.2-1.9,0.5c-0.5,0.3-1,0.8-1.3,1.4H501.2z"/>
	<path d="M513.1,102.5v1.4c0.9-0.7,1.7-1.1,2.2-1.3c0.5-0.2,1-0.3,1.5-0.3c0.7,0,1.4,0.3,2.1,0.8c0.5,0.4,0.7,0.7,0.7,1.1
		c0,0.3-0.1,0.6-0.3,0.8c-0.2,0.2-0.5,0.3-0.8,0.3c-0.3,0-0.6-0.1-0.9-0.4s-0.6-0.4-0.8-0.4c-0.3,0-0.8,0.2-1.4,0.6s-1.4,1-2.3,1.7
		v3.3h3.1c0.5,0,0.9,0.1,1.1,0.3c0.2,0.2,0.3,0.5,0.3,0.8c0,0.3-0.1,0.6-0.3,0.8c-0.2,0.2-0.6,0.3-1.1,0.3h-6.6
		c-0.5,0-0.9-0.1-1.1-0.3c-0.2-0.2-0.3-0.5-0.3-0.8c0-0.3,0.1-0.6,0.3-0.8c0.2-0.2,0.6-0.3,1.1-0.3h1.3v-5.3h-0.8
		c-0.5,0-0.9-0.1-1.1-0.3c-0.2-0.2-0.3-0.5-0.3-0.8c0-0.3,0.1-0.6,0.3-0.8c0.2-0.2,0.6-0.3,1.1-0.3H513.1z"/>
</g>
<g class="st6">
	<path d="M439.5,130.8c0,2-0.6,3.6-1.9,4.9c-1.2,1.3-2.7,1.9-4.3,1.9c-1.5,0-2.8-0.5-4-1.6c-1.5-1.3-2.2-3.1-2.2-5.2
		s0.7-3.9,2.2-5.2c1.2-1.1,2.5-1.6,4-1.6c1.6,0,3.1,0.6,4.3,2C438.9,127.2,439.5,128.8,439.5,130.8z M437.3,130.8
		c0-1.3-0.4-2.4-1.2-3.3c-0.8-0.9-1.7-1.3-2.8-1.3c-1,0-1.9,0.4-2.8,1.3c-0.8,0.9-1.2,2-1.2,3.3s0.4,2.4,1.2,3.3
		c0.8,0.9,1.7,1.3,2.8,1.3c1,0,2-0.4,2.8-1.3C436.9,133.2,437.3,132.1,437.3,130.8z"/>
	<path d="M446,136.1v3.6h1.3c0.5,0,0.9,0.1,1.1,0.3c0.2,0.2,0.3,0.5,0.3,0.8c0,0.3-0.1,0.6-0.3,0.8c-0.2,0.2-0.6,0.3-1.1,0.3h-3.9
		c-0.5,0-0.9-0.1-1.1-0.3c-0.2-0.2-0.3-0.5-0.3-0.8c0-0.3,0.1-0.6,0.3-0.8c0.2-0.2,0.6-0.3,1.1-0.3h0.4v-9.9h-0.4
		c-0.5,0-0.9-0.1-1.1-0.3c-0.2-0.2-0.3-0.5-0.3-0.8c0-0.3,0.1-0.6,0.3-0.8c0.2-0.2,0.6-0.3,1.1-0.3h2.6v0.8c0.5-0.4,1-0.6,1.6-0.8
		c0.6-0.2,1.1-0.3,1.7-0.3c1.5,0,2.8,0.5,3.8,1.5c1.1,1,1.6,2.2,1.6,3.5c0,1.5-0.6,2.7-1.9,3.6c-1,0.8-2.2,1.2-3.5,1.2
		c-0.6,0-1.1-0.1-1.7-0.2C447.1,136.6,446.6,136.4,446,136.1z M452.5,132.3c0-0.3-0.1-0.7-0.4-1.2c-0.2-0.5-0.6-0.9-1.1-1.2
		c-0.5-0.3-1.1-0.5-1.8-0.5c-1.1,0-2,0.4-2.6,1.2c-0.4,0.6-0.7,1.1-0.7,1.6c0,0.6,0.3,1.2,0.9,1.7c0.6,0.6,1.4,0.8,2.3,0.8
		c0.9,0,1.7-0.3,2.3-0.8S452.5,132.9,452.5,132.3z"/>
	<path d="M463.6,129.7v4.4c0,0.5,0.1,0.8,0.3,0.9c0.3,0.2,0.8,0.4,1.6,0.4c1.1,0,2.2-0.2,3.1-0.7c0.4-0.2,0.7-0.3,0.9-0.3
		c0.3,0,0.5,0.1,0.7,0.3c0.2,0.2,0.3,0.5,0.3,0.8c0,0.3-0.1,0.5-0.3,0.7c-0.4,0.3-1,0.6-2.1,0.9c-1,0.3-1.9,0.4-2.6,0.4
		c-1.4,0-2.4-0.3-3.1-0.9c-0.7-0.6-1-1.3-1-2.2v-4.8h-0.8c-0.5,0-0.9-0.1-1.1-0.3c-0.2-0.2-0.3-0.5-0.3-0.8c0-0.3,0.1-0.6,0.3-0.8
		c0.2-0.2,0.6-0.3,1.1-0.3h0.8v-2c0-0.5,0.1-0.9,0.3-1.1c0.2-0.2,0.5-0.3,0.8-0.3c0.3,0,0.6,0.1,0.8,0.3c0.2,0.2,0.3,0.6,0.3,1.1v2
		h4.1c0.5,0,0.9,0.1,1.1,0.3c0.2,0.2,0.3,0.5,0.3,0.8c0,0.3-0.1,0.6-0.3,0.8c-0.2,0.2-0.6,0.3-1.1,0.3H463.6z"/>
	<path d="M480.6,127.5v7.6h2.6c0.5,0,0.9,0.1,1.1,0.3c0.2,0.2,0.3,0.5,0.3,0.8c0,0.3-0.1,0.6-0.3,0.8c-0.2,0.2-0.6,0.3-1.1,0.3h-7.5
		c-0.5,0-0.9-0.1-1.1-0.3c-0.2-0.2-0.3-0.5-0.3-0.8c0-0.3,0.1-0.6,0.3-0.8c0.2-0.2,0.6-0.3,1.1-0.3h2.6v-5.3h-1.8
		c-0.5,0-0.9-0.1-1.1-0.3c-0.2-0.2-0.3-0.5-0.3-0.8c0-0.3,0.1-0.6,0.3-0.8c0.2-0.2,0.6-0.3,1.1-0.3H480.6z M480.3,123.3v2.3h-2.6
		v-2.3H480.3z"/>
	<path d="M500.7,132.6c0,0.8-0.2,1.7-0.7,2.5c-0.5,0.8-1.2,1.4-2.1,1.9c-0.9,0.5-1.9,0.7-2.9,0.7c-1,0-2-0.2-2.9-0.7
		c-0.9-0.5-1.6-1.1-2.1-1.9c-0.5-0.8-0.7-1.6-0.7-2.5c0-0.9,0.2-1.7,0.7-2.6c0.5-0.8,1.2-1.5,2.1-2s1.9-0.7,2.9-0.7
		c1,0,2,0.2,2.9,0.7c0.9,0.5,1.6,1.2,2.1,2C500.4,130.8,500.7,131.7,500.7,132.6z M498.5,132.6c0-0.7-0.3-1.4-0.8-2
		c-0.7-0.8-1.6-1.2-2.7-1.2c-1,0-1.8,0.3-2.5,1s-1,1.4-1,2.2c0,0.7,0.3,1.3,1,1.9c0.7,0.6,1.5,0.9,2.5,0.9c1,0,1.8-0.3,2.5-0.9
		C498.1,133.9,498.5,133.3,498.5,132.6z"/>
	<path d="M508.1,127.5v0.7c0.4-0.3,0.8-0.6,1.3-0.8s1-0.3,1.6-0.3c1.3,0,2.3,0.4,3.1,1.2c0.6,0.6,0.9,1.5,0.9,2.5v4.1
		c0.5,0,0.8,0.1,1,0.3c0.2,0.2,0.3,0.5,0.3,0.8c0,0.3-0.1,0.6-0.3,0.8c-0.2,0.2-0.6,0.3-1.1,0.3h-2c-0.5,0-0.9-0.1-1.1-0.3
		c-0.2-0.2-0.3-0.5-0.3-0.8c0-0.3,0.1-0.6,0.3-0.8c0.2-0.2,0.6-0.3,1-0.3v-4.2c0-0.5-0.1-0.8-0.4-1.1c-0.3-0.3-0.8-0.4-1.5-0.4
		c-0.5,0-1,0.1-1.3,0.3c-0.4,0.2-0.9,0.6-1.5,1.3v4.1c0.6,0,0.9,0.1,1.1,0.2c0.4,0.2,0.5,0.5,0.5,0.9c0,0.3-0.1,0.6-0.3,0.8
		c-0.2,0.2-0.6,0.3-1.1,0.3h-2.5c-0.5,0-0.9-0.1-1.1-0.3c-0.2-0.2-0.3-0.5-0.3-0.8c0-0.4,0.2-0.7,0.5-0.9c0.2-0.1,0.5-0.2,1.1-0.2
		v-5.3c-0.5,0-0.8-0.1-1-0.3c-0.2-0.2-0.3-0.5-0.3-0.8s0.1-0.6,0.3-0.8c0.2-0.2,0.6-0.3,1.1-0.3H508.1z"/>
</g>
</svg>
