<?xml version="1.0" encoding="utf-8"?>
<!-- Generator: Adobe Illustrator 26.0.1, SVG Export Plug-In . SVG Version: 6.00 Build 0)  -->
<svg version="1.1" id="Layer_1" xmlns="http://www.w3.org/2000/svg" xmlns:xlink="http://www.w3.org/1999/xlink" x="0px" y="0px"
	 viewBox="0 0 1920 510.2" style="enable-background:new 0 0 1920 510.2;" xml:space="preserve">
<style type="text/css">
	.st0{fill:#FFFFFF;stroke:#000000;stroke-width:4;stroke-miterlimit:10;}
	.st1{opacity:0.5;fill:#F07D00;enable-background:new    ;}
	.st2{fill:none;stroke:#000000;stroke-width:4;stroke-miterlimit:10;}
	.st3{fill:none;stroke:#000000;stroke-width:4;stroke-linecap:round;stroke-miterlimit:10;}
	.st4{fill:#FFF59F;stroke:#000000;stroke-width:4;stroke-linecap:round;stroke-miterlimit:10;}
	.st5{fill:#FFFFFF;stroke:#000000;stroke-width:4.2;stroke-miterlimit:10;}
	.st6{fill:#9BFF94;}
	.st7{fill:none;stroke:#000000;stroke-width:3;stroke-miterlimit:10;}
	.st8{fill:none;stroke:#000000;stroke-width:3.69;stroke-linecap:round;stroke-miterlimit:10;}
	.st9{enable-background:new    ;}
</style>
<path class="st0" d="M686.6,300c-65.1,0-117.9-52.8-117.9-117.9S621.5,64.3,686.6,64.3c65.1,0,117.9,52.8,117.9,117.9v0
	C804.4,247.2,751.7,300,686.6,300z"/>
<path class="st1" d="M686.6,80.3V284c56.3,0,101.9-45.6,101.9-101.9S742.9,80.3,686.6,80.3L686.6,80.3L686.6,80.3z"/>
<circle class="st2" cx="686.6" cy="182.2" r="101.9"/>
<line class="st3" x1="686.6" y1="80.3" x2="686.6" y2="95.6"/>
<line class="st3" x1="686.6" y1="268.7" x2="686.6" y2="284"/>
<line class="st3" x1="788.5" y1="182.2" x2="773.2" y2="182.2"/>
<line class="st3" x1="600.1" y1="182.2" x2="584.8" y2="182.2"/>
<path class="st4" d="M686.6,135.6L686.6,135.6c2.4,0,4.4,2,4.4,4.4v38.1c0,2.4-2,4.4-4.4,4.4l0,0c-2.4,0-4.4-2-4.4-4.4V140
	C682.2,137.6,684.2,135.6,686.6,135.6z"/>
<path class="st4" d="M764.5,182.5L764.5,182.5c0,2.4-2,4.4-4.4,4.4H691c-2.4,0-4.4-2-4.4-4.4l0,0c0-2.4,2-4.4,4.4-4.4h69.2
	C762.6,178.1,764.5,180,764.5,182.5z"/>
<circle cx="686.6" cy="182.2" r="10.7"/>
<path class="st0" d="M1399.9,300c-65.1,0-117.9-52.8-117.9-117.9s52.8-117.9,117.9-117.9c65.1,0,117.9,52.8,117.9,117.9v0
	C1517.7,247.2,1465,300,1399.9,300z"/>
<path class="st1" d="M1399.9,80.6v203.8c56.3-0.6,101.4-46.6,100.9-102.9C1500.2,126,1455.4,81.1,1399.9,80.6z"/>
<circle class="st2" cx="1399.9" cy="182.2" r="101.9"/>
<line class="st3" x1="1399.9" y1="80.3" x2="1399.9" y2="95.6"/>
<line class="st3" x1="1399.9" y1="268.7" x2="1399.9" y2="284"/>
<line class="st3" x1="1501.8" y1="182.2" x2="1486.4" y2="182.2"/>
<line class="st3" x1="1313.4" y1="182.2" x2="1298" y2="182.2"/>
<path class="st4" d="M1399.9,135.6L1399.9,135.6c2.4,0,4.4,2,4.4,4.4v38.1c0,2.4-2,4.4-4.4,4.4l0,0c-2.4,0-4.4-2-4.4-4.4V140
	C1395.5,137.6,1397.5,135.6,1399.9,135.6z"/>
<path class="st4" d="M1477.8,182.4L1477.8,182.4c0,2.4-2,4.4-4.4,4.4h-69.2c-2.4,0-4.4-2-4.4-4.4l0,0c0-2.4,2-4.4,4.4-4.4h69.2
	C1475.9,178.1,1477.8,180,1477.8,182.4z"/>
<circle cx="1399.9" cy="182.2" r="10.7"/>
<polygon class="st5" points="1355,461.1 1114.2,461.1 1114.2,218.3 1355,218.3 1355,437.4 1364.6,437.4 1364.6,461.1 "/>
<path class="st0" d="M1366.5,461.1L1366.5,461.1c-6.3-0.1-11.4-5.2-11.5-11.5v-83h23v83C1378,455.9,1372.9,461,1366.5,461.1z"/>
<rect x="1134.3" y="291.4" width="202.2" height="53.6"/>
<rect x="1134.3" y="363.3" width="88.1" height="49.6"/>
<line class="st3" x1="1240.4" y1="412.9" x2="1331.4" y2="412.9"/>
<line class="st3" x1="1240.4" y1="397.5" x2="1331.4" y2="397.5"/>
<line class="st3" x1="1240.4" y1="428.4" x2="1331.4" y2="428.4"/>
<line class="st3" x1="1240.4" y1="443.8" x2="1331.4" y2="443.8"/>
<line class="st3" x1="1240.4" y1="366.6" x2="1331.4" y2="366.6"/>
<line class="st3" x1="1240.4" y1="382.1" x2="1331.4" y2="382.1"/>
<line class="st3" x1="1134.3" y1="428.4" x2="1225.3" y2="428.4"/>
<line class="st3" x1="1134.3" y1="443.8" x2="1225.3" y2="443.8"/>
<path class="st6" d="M1178.3,184.8c-4.7,0-9-2.3-11.6-6.2c-4.4-6.7-12.7-9.6-20.3-7.1c-1.4,0.4-2.8,0.7-4.2,0.7
	c-3.8,0-7.4-1.6-10-4.3c-2.6-2.7-4-6.4-3.8-10.1c0.3-8-4.7-15.2-12.2-17.7c-7.3-2.4-11.2-10.2-8.8-17.5c0.5-1.5,1.3-3,2.3-4.3
	c5-6.3,5.2-15,0.5-21.5c-4.5-6.2-3.1-14.8,3.1-19.3c1.3-1,2.8-1.7,4.4-2.1c7.7-2.1,13-9.1,13.1-17.1c0-7.6,6.2-13.8,13.8-13.8
	c1.7,0,3.3,0.3,4.9,0.9c7.5,2.8,15.9,0.3,20.6-6.2c4.5-6.2,13.2-7.5,19.3-2.9c1.3,1,2.4,2.2,3.3,3.5c4.4,6.7,12.7,9.6,20.3,7.2
	c5-1.6,10.6-0.2,14.2,3.6c2.6,2.7,4,6.4,3.8,10.2c-0.3,8,4.7,15.2,12.2,17.7c7.3,2.4,11.2,10.2,8.8,17.5c-0.5,1.6-1.3,3-2.3,4.3
	c-5,6.3-5.2,15-0.5,21.5c4.5,6.2,3.1,14.8-3.1,19.3c-1.3,1-2.8,1.7-4.4,2.1c-7.7,2.1-13,9.1-13.1,17.1c-0.1,7.6-6.3,13.8-13.9,13.7
	c-1.6,0-3.2-0.3-4.8-0.9c-7.5-2.8-15.9-0.3-20.6,6.1C1186.8,182.7,1182.7,184.8,1178.3,184.8z"/>
<path d="M1181.3,35.5c4,0,7.7,2,9.9,5.3c4.9,7.4,14.1,10.7,22.6,8c4.3-1.4,9.1-0.2,12.2,3.1c2.2,2.3,3.4,5.5,3.2,8.7
	c-0.4,8.9,5.2,16.9,13.6,19.7c6.2,2.1,9.6,8.7,7.5,14.9c-0.4,1.3-1.1,2.6-2,3.7c-5.5,7-5.7,16.7-0.6,23.9c3.8,5.3,2.6,12.7-2.7,16.5
	c-1.1,0.8-2.4,1.4-3.8,1.8c-8.5,2.4-14.5,10.1-14.5,19c0,6.5-5.3,11.8-11.8,11.8c-1.4,0-2.8-0.3-4.2-0.8c-8.3-3.1-17.7-0.3-22.9,6.8
	c-3.9,5.3-11.3,6.4-16.5,2.5c-1.1-0.8-2.1-1.9-2.9-3c-3.7-5.6-9.9-8.9-16.5-8.9c-2,0-4.1,0.3-6,0.9c-4.3,1.4-9.1,0.2-12.2-3.1
	c-2.2-2.3-3.4-5.5-3.2-8.7c0.4-8.9-5.2-16.9-13.6-19.7c-6.2-2-9.6-8.7-7.5-14.9c0.4-1.3,1.1-2.6,2-3.7c5.5-7,5.7-16.7,0.6-23.9
	c-3.8-5.3-2.6-12.7,2.7-16.5c1.1-0.8,2.4-1.4,3.8-1.8c8.5-2.4,14.5-10.1,14.5-19c0-6.5,5.3-11.8,11.8-11.8c1.4,0,2.9,0.3,4.2,0.8
	c8.3,3.1,17.7,0.3,22.9-6.8C1174.1,37.4,1177.6,35.6,1181.3,35.5 M1181.4,31.6c-5,0-9.8,2.3-12.8,6.4c-4.2,5.7-11.7,7.9-18.3,5.5
	c-8.2-3.1-17.3,1-20.4,9.2c-0.7,1.8-1,3.7-1,5.6c0,7.1-4.8,13.3-11.6,15.2c-8.4,2.3-13.4,11.1-11,19.5c0.5,1.8,1.3,3.5,2.4,5
	c4.1,5.8,3.9,13.6-0.5,19.1c-5.4,6.8-4.3,16.8,2.5,22.3c1.5,1.2,3.1,2.1,4.9,2.6c6.7,2.2,11.2,8.7,10.8,15.7
	c-0.4,8.7,6.3,16.1,15,16.5c1.9,0.1,3.8-0.2,5.6-0.7c6.7-2.2,14.1,0.4,18,6.4c4.8,7.3,14.6,9.3,21.9,4.5c1.6-1,2.9-2.3,4.1-3.9
	c4.2-5.7,11.7-7.9,18.3-5.5c8.2,3.1,17.3-1,20.4-9.2c0.7-1.8,1-3.7,1-5.6c0-7.1,4.8-13.3,11.6-15.2c8.4-2.3,13.4-11,11-19.5
	c-0.5-1.8-1.3-3.5-2.4-5c-4.1-5.8-3.9-13.6,0.5-19.1l0,0c5.4-6.8,4.3-16.8-2.5-22.2c-1.5-1.2-3.1-2.1-4.9-2.7l0,0
	c-6.7-2.2-11.2-8.6-10.8-15.7c0.4-8.7-6.4-16.1-15.1-16.5c-1.9-0.1-3.7,0.2-5.5,0.7c-6.7,2.1-14.1-0.5-18-6.3
	C1191.6,34.2,1186.7,31.5,1181.4,31.6L1181.4,31.6z"/>
<path class="st0" d="M638.4,462.2H525c-7.3,0-13.2-5.9-13.2-13.2V226.4c0-7.3,5.9-13.2,13.2-13.2h113.4c7.3,0,13.2,5.9,13.2,13.2
	V449C651.6,456.3,645.7,462.2,638.4,462.2z"/>
<rect x="527.2" y="230.9" class="st2" width="109" height="191.7"/>
<circle class="st7" cx="581.7" cy="441.6" r="10.5"/>
<rect x="540.3" y="277.5" width="82.9" height="49.2"/>
<line class="st8" x1="543.1" y1="390.6" x2="620.4" y2="390.6"/>
<line class="st8" x1="543.1" y1="375.2" x2="620.4" y2="375.2"/>
<line class="st8" x1="543.1" y1="406" x2="620.4" y2="406"/>
<line class="st8" x1="543.1" y1="344.3" x2="620.4" y2="344.3"/>
<line class="st8" x1="543.1" y1="359.7" x2="620.4" y2="359.7"/>
<g class="st9">
	<path d="M554.4,252.9v6.4h0.8c0.5,0,0.9,0.1,1.1,0.3c0.2,0.2,0.3,0.5,0.3,0.8s-0.1,0.6-0.3,0.8s-0.6,0.3-1.1,0.3h-2.8
		c-0.5,0-0.9-0.1-1.1-0.3c-0.2-0.2-0.3-0.5-0.3-0.8s0.1-0.6,0.3-0.8c0.2-0.2,0.5-0.3,1-0.3v-8.2H552c-0.5,0-0.9-0.1-1.1-0.3
		s-0.3-0.5-0.3-0.8s0.1-0.6,0.3-0.8s0.6-0.3,1.1-0.3h2.4l5.4,8.4V251H559c-0.5,0-0.9-0.1-1.1-0.3c-0.2-0.2-0.3-0.5-0.3-0.8
		s0.1-0.6,0.3-0.8s0.6-0.3,1.1-0.3h2.8c0.5,0,0.9,0.1,1.1,0.3c0.2,0.2,0.3,0.4,0.3,0.8c0,0.3-0.1,0.6-0.3,0.8s-0.5,0.3-1,0.3v10.3
		h-2.1L554.4,252.9z"/>
	<path d="M571.7,256.1v3.1h5.4v-1.1c0-0.5,0.1-0.9,0.3-1.1s0.5-0.3,0.8-0.3s0.6,0.1,0.8,0.3c0.2,0.2,0.3,0.6,0.3,1.1v3.2h-9.9
		c-0.5,0-0.9-0.1-1.1-0.3c-0.2-0.2-0.3-0.5-0.3-0.8s0.1-0.6,0.3-0.8c0.2-0.2,0.6-0.3,1.1-0.3h0.3v-8.2h-0.3c-0.5,0-0.9-0.1-1.1-0.3
		c-0.2-0.2-0.3-0.5-0.3-0.8s0.1-0.6,0.3-0.8s0.6-0.3,1.1-0.3h9.4v3.2c0,0.5-0.1,0.9-0.3,1.1c-0.2,0.2-0.4,0.3-0.8,0.3
		c-0.3,0-0.6-0.1-0.8-0.3s-0.3-0.6-0.3-1.1v-1.1h-4.9v3h1.8c0-0.5,0.1-0.9,0.2-1.1c0.2-0.3,0.5-0.5,0.9-0.5c0.3,0,0.6,0.1,0.8,0.3
		s0.3,0.6,0.3,1.1v2.4c0,0.5-0.1,0.8-0.2,0.9c-0.2,0.3-0.5,0.5-0.9,0.5s-0.7-0.2-0.9-0.5c-0.1-0.2-0.2-0.5-0.2-1.1h-1.8V256.1z"/>
	<path d="M590.7,255.4l-2,6h-2.4l-1.3-10.3c-0.3,0-0.6-0.2-0.7-0.3c-0.2-0.2-0.2-0.4-0.2-0.7s0.1-0.6,0.3-0.8s0.6-0.3,1.1-0.3h2.8
		c0.5,0,0.9,0.1,1.1,0.3c0.2,0.2,0.3,0.4,0.3,0.8c0,0.3-0.1,0.6-0.3,0.8s-0.6,0.3-1.1,0.3h-1.1l0.7,5.9l1.7-4.9h2.2l1.6,4.9l0.7-5.9
		H593c-0.5,0-0.9-0.1-1.1-0.3c-0.2-0.2-0.3-0.5-0.3-0.8s0.1-0.6,0.3-0.8s0.6-0.3,1.1-0.3h2.8c0.5,0,0.9,0.1,1.1,0.3
		c0.2,0.2,0.3,0.4,0.3,0.8c0,0.3-0.1,0.5-0.3,0.7s-0.4,0.3-0.7,0.4l-1.2,10.3h-2.3L590.7,255.4z"/>
	<path d="M604.5,260.8c-0.2,0.2-0.3,0.4-0.4,0.4c-0.1,0.1-0.3,0.1-0.4,0.1c-0.3,0-0.6-0.1-0.8-0.3c-0.2-0.2-0.3-0.6-0.3-1.1v-1.4
		c0-0.5,0.1-0.9,0.3-1.1s0.5-0.3,0.8-0.3c0.2,0,0.5,0.1,0.6,0.2c0.2,0.1,0.3,0.3,0.4,0.7s0.2,0.5,0.3,0.6c0.2,0.2,0.6,0.4,1.1,0.6
		s1.1,0.3,1.7,0.3c0.9,0,1.7-0.2,2.3-0.7c0.4-0.3,0.6-0.6,0.6-1c0-0.3-0.1-0.5-0.3-0.7s-0.5-0.4-0.9-0.6c-0.3-0.1-0.9-0.2-1.8-0.4
		c-1.1-0.2-2-0.5-2.6-0.8c-0.6-0.3-1.1-0.7-1.4-1.3c-0.3-0.5-0.5-1.1-0.5-1.8c0-1,0.4-1.9,1.3-2.6c0.8-0.8,1.9-1.1,3.3-1.1
		c0.5,0,1,0.1,1.5,0.2c0.5,0.1,0.9,0.3,1.3,0.5c0.3-0.3,0.5-0.4,0.8-0.4s0.6,0.1,0.8,0.3s0.3,0.6,0.3,1.1v1.6c0,0.5-0.1,0.9-0.3,1.1
		c-0.2,0.2-0.4,0.3-0.8,0.3c-0.3,0-0.5-0.1-0.7-0.2c-0.2-0.1-0.3-0.3-0.3-0.7c-0.1-0.3-0.2-0.6-0.3-0.7c-0.2-0.3-0.5-0.5-0.9-0.7
		s-0.9-0.3-1.4-0.3c-0.8,0-1.4,0.2-1.8,0.5c-0.4,0.4-0.7,0.7-0.7,1.1c0,0.3,0.1,0.5,0.3,0.8c0.2,0.2,0.4,0.4,0.8,0.6
		c0.2,0.1,0.9,0.2,2,0.5c1.1,0.2,1.9,0.4,2.5,0.7s1.1,0.7,1.4,1.2c0.4,0.5,0.6,1.2,0.6,1.9c0,1-0.4,1.9-1.1,2.5
		c-1,0.8-2.2,1.2-3.7,1.2c-0.6,0-1.1-0.1-1.7-0.2C605.5,261.3,605,261.1,604.5,260.8z"/>
</g>
<g class="st9">
	<path d="M1178.5,254.6v11.9h1.4c1,0,1.6,0.2,2,0.5c0.4,0.4,0.6,0.8,0.6,1.4s-0.2,1.1-0.6,1.4c-0.4,0.4-1.1,0.5-2,0.5h-5.2
		c-1,0-1.6-0.2-2-0.5c-0.4-0.4-0.6-0.8-0.6-1.4s0.2-1,0.6-1.4c0.4-0.4,1-0.6,1.8-0.6v-15.5h-0.6c-1,0-1.6-0.2-2-0.5
		c-0.4-0.4-0.6-0.8-0.6-1.4s0.2-1.1,0.6-1.4c0.4-0.4,1.1-0.5,2-0.5h4.6l10.1,15.8V251h-1.4c-1,0-1.6-0.2-2-0.5
		c-0.4-0.4-0.6-0.8-0.6-1.4s0.2-1.1,0.6-1.4c0.4-0.4,1.1-0.5,2-0.5h5.2c1,0,1.6,0.2,2,0.5c0.4,0.4,0.6,0.8,0.6,1.4
		c0,0.6-0.2,1.1-0.6,1.4c-0.4,0.4-1,0.6-1.8,0.6v19.4h-3.9L1178.5,254.6z"/>
	<path d="M1214.9,260.7v5.8h10.1v-2.1c0-1,0.2-1.6,0.5-2c0.4-0.4,0.8-0.6,1.4-0.6c0.6,0,1.1,0.2,1.4,0.6c0.4,0.4,0.5,1.1,0.5,2v6.1
		h-18.6c-1,0-1.6-0.2-2-0.5c-0.4-0.3-0.6-0.8-0.6-1.4s0.2-1,0.6-1.4c0.4-0.4,1.1-0.5,2-0.5h0.6v-15.5h-0.6c-1,0-1.6-0.2-2-0.5
		c-0.4-0.3-0.6-0.8-0.6-1.4s0.2-1.1,0.6-1.4c0.4-0.3,1.1-0.5,2-0.5h17.7v6c0,0.9-0.2,1.6-0.5,2c-0.4,0.4-0.8,0.6-1.4,0.6
		c-0.6,0-1.1-0.2-1.4-0.6s-0.5-1.1-0.5-2v-2.1h-9.2v5.7h3.5c0-1,0.1-1.7,0.3-2c0.4-0.6,1-0.9,1.7-0.9c0.6,0,1.1,0.2,1.4,0.6
		c0.4,0.4,0.5,1.1,0.5,2v4.5c0,0.9-0.1,1.4-0.3,1.7c-0.4,0.6-1,0.9-1.7,0.9s-1.3-0.3-1.7-0.9c-0.2-0.3-0.3-1-0.3-2h-3.4V260.7z"/>
	<path d="M1254.5,259.3l-3.7,11.2h-4.4l-2.4-19.4c-0.6-0.1-1.1-0.3-1.4-0.6s-0.5-0.8-0.5-1.3c0-0.6,0.2-1.1,0.6-1.5
		c0.4-0.4,1.1-0.6,2-0.6h5.3c1,0,1.6,0.2,2,0.5c0.4,0.3,0.6,0.8,0.6,1.4s-0.2,1.1-0.6,1.4c-0.4,0.3-1.1,0.5-2,0.5h-2.1l1.3,11
		l3.1-9.2h4.1l3.1,9.2l1.3-11h-2.1c-1,0-1.6-0.2-2-0.5c-0.4-0.3-0.6-0.8-0.6-1.4s0.2-1.1,0.6-1.4c0.4-0.3,1.1-0.5,2-0.5h5.2
		c1,0,1.6,0.2,2,0.5c0.4,0.3,0.6,0.8,0.6,1.4c0,0.5-0.2,0.9-0.5,1.3c-0.3,0.4-0.8,0.6-1.4,0.7l-2.3,19.4h-4.4L1254.5,259.3z"/>
	<path d="M1284.2,269.5c-0.3,0.4-0.6,0.7-0.8,0.8c-0.2,0.1-0.5,0.2-0.8,0.2c-0.6,0-1.1-0.2-1.5-0.6c-0.4-0.4-0.5-1.1-0.5-2v-2.7
		c0-1,0.2-1.6,0.5-2c0.4-0.4,0.9-0.6,1.5-0.6c0.5,0,0.9,0.1,1.2,0.4c0.3,0.2,0.6,0.7,0.7,1.2c0.2,0.6,0.3,1,0.5,1.2
		c0.4,0.4,1,0.8,2,1.2c1,0.4,2,0.6,3.1,0.6c1.8,0,3.2-0.4,4.3-1.2c0.7-0.5,1.1-1.1,1.1-1.8c0-0.5-0.2-0.9-0.5-1.4
		c-0.3-0.4-0.9-0.8-1.7-1.1c-0.5-0.2-1.7-0.5-3.5-0.8c-2.2-0.4-3.8-0.9-4.9-1.4c-1.1-0.6-2-1.4-2.6-2.4c-0.6-1-1-2.1-1-3.3
		c0-1.9,0.8-3.5,2.4-5c1.6-1.4,3.6-2.1,6.2-2.1c1,0,2,0.1,2.8,0.3c0.9,0.2,1.7,0.6,2.4,1c0.5-0.5,1-0.8,1.5-0.8c0.6,0,1,0.2,1.4,0.6
		c0.4,0.4,0.5,1.1,0.5,2v3c0,1-0.2,1.6-0.5,2c-0.4,0.4-0.8,0.6-1.4,0.6c-0.5,0-0.9-0.1-1.3-0.4c-0.3-0.2-0.5-0.7-0.6-1.3
		c-0.1-0.6-0.3-1.1-0.5-1.4c-0.4-0.5-0.9-0.9-1.7-1.2c-0.7-0.3-1.6-0.5-2.6-0.5c-1.4,0-2.6,0.3-3.4,1s-1.2,1.4-1.2,2.1
		c0,0.5,0.2,1,0.5,1.4c0.3,0.5,0.8,0.8,1.5,1.1c0.4,0.2,1.7,0.5,3.7,0.9c2,0.4,3.6,0.8,4.7,1.3c1.1,0.5,2,1.2,2.7,2.2
		s1.1,2.2,1.1,3.6c0,2-0.7,3.5-2.1,4.7c-1.8,1.5-4.2,2.3-7,2.3c-1.1,0-2.2-0.1-3.2-0.4C1286.2,270.4,1285.2,270,1284.2,269.5z"/>
</g>
<g>
	<g class="st9">
		<path d="M1138.5,98.8v-8.6h-0.3c-0.5,0-0.9-0.1-1.1-0.3c-0.2-0.2-0.3-0.5-0.3-0.8s0.1-0.6,0.3-0.8c0.2-0.2,0.6-0.3,1.1-0.3h5.5
			c1.3,0,2.4,0.4,3.2,1.1c0.8,0.7,1.2,1.6,1.2,2.6c0,0.5-0.1,0.9-0.3,1.4c-0.2,0.4-0.5,0.8-0.8,1.2c0.7,0.4,1.2,0.9,1.6,1.5
			c0.3,0.6,0.5,1.2,0.5,1.9c0,0.6-0.1,1.1-0.4,1.6c-0.2,0.4-0.4,0.7-0.7,0.9c-0.4,0.3-0.8,0.5-1.3,0.7s-1.2,0.3-2,0.3h-6.5
			c-0.5,0-0.9-0.1-1.1-0.3c-0.2-0.2-0.3-0.5-0.3-0.8s0.1-0.6,0.3-0.8c0.2-0.2,0.6-0.3,1.1-0.3h0.3V98.8z M1140.7,93.4h2.4
			c0.9,0,1.6-0.2,2.2-0.7c0.4-0.3,0.6-0.7,0.6-1.1s-0.2-0.7-0.5-1c-0.4-0.3-0.9-0.4-1.7-0.4h-2.9L1140.7,93.4L1140.7,93.4z
			 M1140.7,98.8h3.8c0.9,0,1.5-0.1,1.9-0.4c0.3-0.2,0.4-0.5,0.4-0.9s-0.3-0.9-0.8-1.3c-0.6-0.4-1.3-0.6-2.4-0.6h-2.9V98.8z"/>
		<path d="M1164,97.2h-9c0.2,0.6,0.6,1,1.2,1.4s1.4,0.5,2.4,0.5c0.8,0,1.9-0.2,3.3-0.5c0.6-0.1,0.9-0.2,1.2-0.2
			c0.3,0,0.5,0.1,0.7,0.3c0.2,0.2,0.3,0.5,0.3,0.8s-0.1,0.5-0.3,0.7c-0.3,0.3-1,0.5-2.1,0.8c-1.1,0.2-2.2,0.4-3.2,0.4
			c-1.8,0-3.2-0.5-4.2-1.5c-1.1-1-1.6-2.2-1.6-3.7s0.6-2.8,1.7-3.8s2.5-1.5,3.9-1.5c0.9,0,1.7,0.2,2.5,0.5c0.7,0.3,1.3,0.7,1.7,1
			c0.5,0.5,0.9,1.2,1.3,2c0.2,0.5,0.3,1.2,0.3,1.9L1164,97.2L1164,97.2z M1161.5,95c-0.3-0.6-0.8-1.1-1.3-1.4s-1.2-0.5-1.9-0.5
			s-1.4,0.2-1.9,0.5s-1,0.8-1.3,1.4H1161.5z"/>
		<path d="M1173.3,93.4v4.4c0,0.5,0.1,0.8,0.3,0.9c0.3,0.2,0.8,0.4,1.6,0.4c1.1,0,2.2-0.2,3.1-0.7c0.4-0.2,0.7-0.3,0.9-0.3
			c0.3,0,0.5,0.1,0.7,0.3c0.2,0.2,0.3,0.5,0.3,0.8s-0.1,0.5-0.3,0.7c-0.4,0.3-1,0.6-2.1,0.9c-1,0.3-1.9,0.4-2.6,0.4
			c-1.4,0-2.4-0.3-3.1-0.9c-0.7-0.6-1-1.3-1-2.2v-4.8h-0.8c-0.5,0-0.9-0.1-1.1-0.3c-0.2-0.2-0.3-0.5-0.3-0.8s0.1-0.6,0.3-0.8
			c0.2-0.2,0.6-0.3,1.1-0.3h0.8v-2c0-0.5,0.1-0.9,0.3-1.1s0.5-0.3,0.8-0.3c0.3,0,0.6,0.1,0.8,0.3c0.2,0.2,0.3,0.6,0.3,1.1v2h4.1
			c0.5,0,0.9,0.1,1.1,0.3c0.2,0.2,0.3,0.5,0.3,0.8s-0.1,0.6-0.3,0.8c-0.2,0.2-0.6,0.3-1.1,0.3L1173.3,93.4L1173.3,93.4z"/>
		<path d="M1188.7,93.4v4.4c0,0.5,0.1,0.8,0.3,0.9c0.3,0.2,0.8,0.4,1.6,0.4c1.1,0,2.2-0.2,3.1-0.7c0.4-0.2,0.7-0.3,0.9-0.3
			c0.3,0,0.5,0.1,0.7,0.3c0.2,0.2,0.3,0.5,0.3,0.8s-0.1,0.5-0.3,0.7c-0.4,0.3-1,0.6-2.1,0.9c-1,0.3-1.9,0.4-2.6,0.4
			c-1.4,0-2.4-0.3-3.1-0.9c-0.7-0.6-1-1.3-1-2.2v-4.8h-0.8c-0.5,0-0.9-0.1-1.1-0.3c-0.2-0.2-0.3-0.5-0.3-0.8s0.1-0.6,0.3-0.8
			c0.2-0.2,0.6-0.3,1.1-0.3h0.8v-2c0-0.5,0.1-0.9,0.3-1.1s0.5-0.3,0.8-0.3c0.3,0,0.6,0.1,0.8,0.3c0.2,0.2,0.3,0.6,0.3,1.1v2h4.1
			c0.5,0,0.9,0.1,1.1,0.3c0.2,0.2,0.3,0.5,0.3,0.8s-0.1,0.6-0.3,0.8c-0.2,0.2-0.6,0.3-1.1,0.3L1188.7,93.4L1188.7,93.4z"/>
		<path d="M1210.2,97.2h-9c0.2,0.6,0.6,1,1.2,1.4c0.6,0.4,1.4,0.5,2.4,0.5c0.8,0,1.9-0.2,3.3-0.5c0.6-0.1,0.9-0.2,1.2-0.2
			s0.5,0.1,0.7,0.3c0.2,0.2,0.3,0.5,0.3,0.8s-0.1,0.5-0.3,0.7c-0.3,0.3-1,0.5-2.1,0.8c-1.1,0.2-2.2,0.4-3.2,0.4
			c-1.8,0-3.2-0.5-4.2-1.5c-1.1-1-1.6-2.2-1.6-3.7s0.6-2.8,1.7-3.8c1.1-1,2.5-1.5,3.9-1.5c0.9,0,1.7,0.2,2.5,0.5
			c0.7,0.3,1.3,0.7,1.7,1c0.5,0.5,0.9,1.2,1.3,2c0.2,0.5,0.3,1.2,0.3,1.9L1210.2,97.2L1210.2,97.2z M1207.7,95
			c-0.3-0.6-0.8-1.1-1.3-1.4s-1.2-0.5-1.9-0.5c-0.7,0-1.4,0.2-1.9,0.5s-1,0.8-1.3,1.4H1207.7z"/>
		<path d="M1219.6,91.2v1.4c0.9-0.7,1.7-1.1,2.2-1.3c0.5-0.2,1-0.3,1.5-0.3c0.7,0,1.4,0.3,2.1,0.8c0.5,0.4,0.7,0.7,0.7,1.1
			c0,0.3-0.1,0.6-0.3,0.8c-0.2,0.2-0.5,0.3-0.8,0.3c-0.3,0-0.6-0.1-0.9-0.4s-0.6-0.4-0.8-0.4c-0.3,0-0.8,0.2-1.4,0.6
			c-0.6,0.4-1.4,1-2.3,1.7v3.3h3.1c0.5,0,0.9,0.1,1.1,0.3c0.2,0.2,0.3,0.5,0.3,0.8s-0.1,0.6-0.3,0.8c-0.2,0.2-0.6,0.3-1.1,0.3h-6.6
			c-0.5,0-0.9-0.1-1.1-0.3c-0.2-0.2-0.3-0.5-0.3-0.8s0.1-0.6,0.3-0.8c0.2-0.2,0.6-0.3,1.1-0.3h1.3v-5.3h-0.8c-0.5,0-0.9-0.1-1.1-0.3
			c-0.2-0.2-0.3-0.5-0.3-0.8s0.1-0.6,0.3-0.8c0.2-0.2,0.6-0.3,1.1-0.3L1219.6,91.2L1219.6,91.2z"/>
	</g>
	<g class="st9">
		<path d="M1146,119.5c0,2-0.6,3.6-1.9,4.9c-1.2,1.3-2.7,1.9-4.3,1.9c-1.5,0-2.8-0.5-4-1.6c-1.5-1.3-2.2-3.1-2.2-5.2
			s0.7-3.9,2.2-5.2c1.2-1.1,2.5-1.6,4-1.6c1.6,0,3.1,0.6,4.3,2C1145.4,115.9,1146,117.5,1146,119.5z M1143.8,119.5
			c0-1.3-0.4-2.4-1.2-3.3c-0.8-0.9-1.7-1.3-2.8-1.3c-1,0-1.9,0.4-2.8,1.3c-0.8,0.9-1.2,2-1.2,3.3s0.4,2.4,1.2,3.3
			c0.8,0.9,1.7,1.3,2.8,1.3c1,0,2-0.4,2.8-1.3C1143.4,121.9,1143.8,120.8,1143.8,119.5z"/>
		<path d="M1152.5,124.8v3.6h1.3c0.5,0,0.9,0.1,1.1,0.3c0.2,0.2,0.3,0.5,0.3,0.8s-0.1,0.6-0.3,0.8s-0.6,0.3-1.1,0.3h-3.9
			c-0.5,0-0.9-0.1-1.1-0.3c-0.2-0.2-0.3-0.5-0.3-0.8s0.1-0.6,0.3-0.8s0.6-0.3,1.1-0.3h0.4v-9.9h-0.4c-0.5,0-0.9-0.1-1.1-0.3
			c-0.2-0.2-0.3-0.5-0.3-0.8s0.1-0.6,0.3-0.8s0.6-0.3,1.1-0.3h2.6v0.8c0.5-0.4,1-0.6,1.6-0.8c0.6-0.2,1.1-0.3,1.7-0.3
			c1.5,0,2.8,0.5,3.8,1.5c1.1,1,1.6,2.2,1.6,3.5c0,1.5-0.6,2.7-1.9,3.6c-1,0.8-2.2,1.2-3.5,1.2c-0.6,0-1.1-0.1-1.7-0.2
			C1153.6,125.3,1153.1,125.1,1152.5,124.8z M1159,121c0-0.3-0.1-0.7-0.4-1.2c-0.2-0.5-0.6-0.9-1.1-1.2s-1.1-0.5-1.8-0.5
			c-1.1,0-2,0.4-2.6,1.2c-0.4,0.6-0.7,1.1-0.7,1.6c0,0.6,0.3,1.2,0.9,1.7c0.6,0.6,1.4,0.8,2.3,0.8c0.9,0,1.7-0.3,2.3-0.8
			S1159,121.6,1159,121z"/>
		<path d="M1170.1,118.4v4.4c0,0.5,0.1,0.8,0.3,0.9c0.3,0.2,0.8,0.4,1.6,0.4c1.1,0,2.2-0.2,3.1-0.7c0.4-0.2,0.7-0.3,0.9-0.3
			c0.3,0,0.5,0.1,0.7,0.3c0.2,0.2,0.3,0.5,0.3,0.8s-0.1,0.5-0.3,0.7c-0.4,0.3-1,0.6-2.1,0.9c-1,0.3-1.9,0.4-2.6,0.4
			c-1.4,0-2.4-0.3-3.1-0.9c-0.7-0.6-1-1.3-1-2.2v-4.8h-0.8c-0.5,0-0.9-0.1-1.1-0.3c-0.2-0.2-0.3-0.5-0.3-0.8s0.1-0.6,0.3-0.8
			c0.2-0.2,0.6-0.3,1.1-0.3h0.8v-2c0-0.5,0.1-0.9,0.3-1.1c0.2-0.2,0.5-0.3,0.8-0.3c0.3,0,0.6,0.1,0.8,0.3c0.2,0.2,0.3,0.6,0.3,1.1v2
			h4.1c0.5,0,0.9,0.1,1.1,0.3c0.2,0.2,0.3,0.5,0.3,0.8s-0.1,0.6-0.3,0.8c-0.2,0.2-0.6,0.3-1.1,0.3h-4.1V118.4z"/>
		<path d="M1187.1,116.2v7.6h2.6c0.5,0,0.9,0.1,1.1,0.3c0.2,0.2,0.3,0.5,0.3,0.8s-0.1,0.6-0.3,0.8s-0.6,0.3-1.1,0.3h-7.5
			c-0.5,0-0.9-0.1-1.1-0.3c-0.2-0.2-0.3-0.5-0.3-0.8s0.1-0.6,0.3-0.8c0.2-0.2,0.6-0.3,1.1-0.3h2.6v-5.3h-1.8c-0.5,0-0.9-0.1-1.1-0.3
			c-0.2-0.2-0.3-0.5-0.3-0.8s0.1-0.6,0.3-0.8c0.2-0.2,0.6-0.3,1.1-0.3L1187.1,116.2L1187.1,116.2z M1186.8,112v2.3h-2.6V112H1186.8z
			"/>
		<path d="M1207.2,121.3c0,0.8-0.2,1.7-0.7,2.5s-1.2,1.4-2.1,1.9s-1.9,0.7-2.9,0.7s-2-0.2-2.9-0.7c-0.9-0.5-1.6-1.1-2.1-1.9
			c-0.5-0.8-0.7-1.6-0.7-2.5s0.2-1.7,0.7-2.6c0.5-0.8,1.2-1.5,2.1-2c0.9-0.5,1.9-0.7,2.9-0.7s2,0.2,2.9,0.7s1.6,1.2,2.1,2
			C1206.9,119.5,1207.2,120.4,1207.2,121.3z M1205,121.3c0-0.7-0.3-1.4-0.8-2c-0.7-0.8-1.6-1.2-2.7-1.2c-1,0-1.8,0.3-2.5,1
			c-0.7,0.7-1,1.4-1,2.2c0,0.7,0.3,1.3,1,1.9c0.7,0.6,1.5,0.9,2.5,0.9s1.8-0.3,2.5-0.9C1204.6,122.6,1205,122,1205,121.3z"/>
		<path d="M1214.6,116.2v0.7c0.4-0.3,0.8-0.6,1.3-0.8s1-0.3,1.6-0.3c1.3,0,2.3,0.4,3.1,1.2c0.6,0.6,0.9,1.5,0.9,2.5v4.1
			c0.5,0,0.8,0.1,1,0.3c0.2,0.2,0.3,0.5,0.3,0.8s-0.1,0.6-0.3,0.8c-0.2,0.2-0.6,0.3-1.1,0.3h-2c-0.5,0-0.9-0.1-1.1-0.3
			s-0.3-0.5-0.3-0.8s0.1-0.6,0.3-0.8s0.6-0.3,1-0.3v-4.2c0-0.5-0.1-0.8-0.4-1.1c-0.3-0.3-0.8-0.4-1.5-0.4c-0.5,0-1,0.1-1.3,0.3
			c-0.4,0.2-0.9,0.6-1.5,1.3v4.1c0.6,0,0.9,0.1,1.1,0.2c0.4,0.2,0.5,0.5,0.5,0.9c0,0.3-0.1,0.6-0.3,0.8c-0.2,0.2-0.6,0.3-1.1,0.3
			h-2.5c-0.5,0-0.9-0.1-1.1-0.3c-0.2-0.2-0.3-0.5-0.3-0.8c0-0.4,0.2-0.7,0.5-0.9c0.2-0.1,0.5-0.2,1.1-0.2v-5.3c-0.5,0-0.8-0.1-1-0.3
			c-0.2-0.2-0.3-0.5-0.3-0.8s0.1-0.6,0.3-0.8c0.2-0.2,0.6-0.3,1.1-0.3h2V116.2z"/>
	</g>
</g>
</svg>
