<?xml version="1.0" encoding="utf-8"?>
<!-- Generator: Adobe Illustrator 26.0.1, SVG Export Plug-In . SVG Version: 6.00 Build 0)  -->
<svg version="1.1" id="Layer_1" xmlns="http://www.w3.org/2000/svg" xmlns:xlink="http://www.w3.org/1999/xlink" x="0px" y="0px"
	 viewBox="0 0 260 260" style="enable-background:new 0 0 260 260;" xml:space="preserve">
<style type="text/css">
	.st0{fill:#A4D3FF;stroke:#000000;stroke-width:3;stroke-miterlimit:10;}
	.st1{enable-background:new    ;}
</style>
<path class="st0" d="M175.6,223.4l-5.3,8.8l-9.9-2.8l-6.6,7.9l-9.3-4.3l-7.8,6.7l-8.5-5.7l-8.7,5.4l-7.5-7l-9.4,4l-6.3-8.1l-10,2.5
	l-5-9L71,222.6l-3.5-9.6l-10.2-0.7l-2-10.1l-10-2.3l-0.4-10.2l-9.5-3.9l1.2-10.2l-8.8-5.3l2.8-9.9l-7.9-6.6l4.3-9.3l-6.7-7.8
	l5.7-8.5l-5.4-8.7l7-7.5l-4-9.4l8.1-6.3l-2.5-10l9-5L37.4,71l9.6-3.5l0.7-10.2l10.1-2l2.3-10l10.2-0.4l3.9-9.5l10.2,1.2l5.3-8.8
	l9.9,2.8l6.6-7.9l9.3,4.3l7.8-6.7l8.5,5.7l8.7-5.4l7.5,7l9.4-4l6.3,8.1l9.9-2.5l5,9l10.2-0.9l3.5,9.6l10.2,0.7l2,10.1l10,2.3
	l0.4,10.2l9.5,3.9l-1.2,10.2l8.8,5.3l-2.8,9.9l7.9,6.6l-4.3,9.3l6.7,7.8l-5.7,8.5l5.4,8.7l-7,7.5l4,9.4l-8.1,6.3l2.5,9.9l-9,5
	l0.9,10.2l-9.6,3.5l-0.7,10.2l-10.1,2l-2.3,10l-10.2,0.4l-3.9,9.5L175.6,223.4z"/>
<g class="st1">
	<path d="M99.4,74.2v10.5h1.8c0.6,0,1.1,0.1,1.4,0.4c0.3,0.2,0.4,0.6,0.4,1c0,0.4-0.1,0.7-0.4,1c-0.3,0.2-0.7,0.4-1.4,0.4H95
		c-0.6,0-1.1-0.1-1.4-0.4s-0.4-0.6-0.4-1c0-0.4,0.1-0.7,0.4-1s0.7-0.4,1.4-0.4h1.8V74.2h-2.9v2.5c0,0.6-0.1,1.1-0.4,1.4
		c-0.2,0.3-0.6,0.4-1,0.4c-0.4,0-0.7-0.1-1-0.4c-0.2-0.3-0.4-0.7-0.4-1.4v-5.2l13.9,0v5.2c0,0.6-0.1,1.1-0.4,1.4
		c-0.2,0.3-0.6,0.4-1,0.4c-0.4,0-0.7-0.1-1-0.4c-0.2-0.3-0.4-0.7-0.4-1.4v-2.5H99.4z"/>
	<path d="M114.1,70.4v5.7c0.6-0.3,1.1-0.6,1.7-0.7c0.6-0.2,1.1-0.2,1.7-0.2c0.9,0,1.7,0.2,2.5,0.5c0.7,0.3,1.3,0.8,1.8,1.5
		c0.5,0.7,0.7,1.5,0.7,2.6v5c0.7,0,1.1,0.1,1.3,0.2c0.4,0.3,0.6,0.7,0.6,1.2c0,0.4-0.1,0.7-0.4,1s-0.7,0.4-1.4,0.4h-3.1
		c-0.6,0-1.1-0.1-1.4-0.4s-0.4-0.6-0.4-1c0-0.5,0.2-0.9,0.6-1.1c0.2-0.1,0.7-0.2,1.3-0.2v-4.9c0-0.7-0.2-1.2-0.5-1.5
		c-0.4-0.4-1-0.6-1.8-0.6c-0.6,0-1.1,0.1-1.6,0.3s-1.1,0.7-1.9,1.5v5c0.7,0,1.1,0.1,1.3,0.2c0.4,0.3,0.6,0.7,0.6,1.2
		c0,0.4-0.1,0.7-0.4,1c-0.3,0.2-0.7,0.4-1.4,0.4h-3c-0.6,0-1.1-0.1-1.4-0.4s-0.4-0.6-0.4-1c0-0.5,0.2-0.9,0.6-1.1
		c0.2-0.1,0.7-0.2,1.3-0.2V73H111c-0.6,0-1.1-0.1-1.4-0.4c-0.3-0.2-0.4-0.6-0.4-1c0-0.4,0.1-0.7,0.4-1c0.3-0.2,0.7-0.4,1.4-0.4
		H114.1z"/>
	<path d="M136.9,75.5v9.2h3.2c0.6,0,1.1,0.1,1.4,0.4s0.4,0.6,0.4,1c0,0.4-0.1,0.7-0.4,1s-0.7,0.4-1.4,0.4H131
		c-0.6,0-1.1-0.1-1.4-0.4s-0.4-0.6-0.4-1c0-0.4,0.1-0.7,0.4-1s0.7-0.4,1.4-0.4h3.2v-6.5h-2.2c-0.6,0-1.1-0.1-1.4-0.4s-0.4-0.6-0.4-1
		c0-0.4,0.1-0.7,0.4-1c0.3-0.2,0.7-0.4,1.4-0.4H136.9z M136.5,70.4v2.8h-3.2v-2.8H136.5z"/>
	<path d="M157.2,78.6c-0.4-0.3-0.9-0.5-1.4-0.6c-0.5-0.1-1-0.2-1.5-0.2c-1,0-1.9,0.2-2.5,0.5c-0.3,0.1-0.4,0.3-0.4,0.5
		c0,0.2,0.2,0.4,0.5,0.6c0.3,0.1,0.9,0.3,1.9,0.4c1.8,0.2,3,0.5,3.7,0.7c0.9,0.3,1.6,0.8,2.1,1.4c0.5,0.6,0.7,1.3,0.7,2
		c0,1-0.4,1.8-1.3,2.4c-1.2,0.9-2.8,1.4-4.7,1.4c-0.8,0-1.5-0.1-2.2-0.2c-0.7-0.1-1.3-0.3-1.8-0.6c-0.1,0.1-0.3,0.2-0.4,0.3
		s-0.3,0.1-0.5,0.1c-0.4,0-0.8-0.1-1-0.4c-0.2-0.3-0.4-0.7-0.4-1.4v-0.9c0-0.6,0.1-1.1,0.4-1.4c0.2-0.3,0.6-0.4,1-0.4
		c0.3,0,0.6,0.1,0.8,0.3c0.2,0.2,0.4,0.5,0.5,0.9c0.4,0.3,0.9,0.6,1.5,0.8s1.2,0.3,2,0.3c1.2,0,2.2-0.2,2.9-0.6
		c0.3-0.2,0.5-0.4,0.5-0.6c0-0.3-0.2-0.6-0.7-0.9c-0.5-0.2-1.4-0.4-2.9-0.6c-2.2-0.2-3.6-0.7-4.3-1.3c-0.7-0.6-1.1-1.4-1.1-2.4
		c0-1,0.4-1.8,1.2-2.4c1.1-0.9,2.5-1.3,4.3-1.3c0.6,0,1.2,0.1,1.8,0.2c0.6,0.1,1.1,0.3,1.6,0.5c0.2-0.1,0.3-0.2,0.5-0.3
		c0.1-0.1,0.3-0.1,0.4-0.1c0.4,0,0.7,0.1,0.9,0.4c0.2,0.3,0.4,0.7,0.4,1.4v0.7c0,0.6-0.1,1-0.2,1.2c-0.3,0.4-0.7,0.6-1.1,0.6
		c-0.3,0-0.6-0.1-0.9-0.3S157.3,78.9,157.2,78.6z"/>
</g>
<g class="st1">
	<path d="M72.6,112.9l-1.9,4.9h-2.5l-2.2-9.2c-0.5,0-0.9-0.2-1.1-0.4s-0.4-0.6-0.4-0.9c0-0.4,0.1-0.7,0.4-1c0.3-0.2,0.7-0.4,1.4-0.4
		h2.5c0.6,0,1.1,0.1,1.4,0.4c0.3,0.2,0.4,0.6,0.4,1s-0.2,0.7-0.5,1c-0.2,0.2-0.7,0.3-1.4,0.3l1,4.2l1.7-4.4h2.4l1.7,4.4l1-4.2
		c-0.7,0-1.1-0.1-1.3-0.2c-0.4-0.3-0.6-0.7-0.6-1.2c0-0.4,0.1-0.7,0.4-1s0.7-0.4,1.4-0.4h2.5c0.6,0,1.1,0.1,1.4,0.4
		c0.3,0.2,0.4,0.6,0.4,1c0,0.4-0.1,0.7-0.4,0.9s-0.6,0.4-1.1,0.4l-2.2,9.2h-2.5L72.6,112.9z"/>
	<path d="M98,113.3H87c0.3,0.7,0.8,1.3,1.5,1.7c0.7,0.4,1.7,0.6,2.9,0.6c1,0,2.3-0.2,4-0.6c0.7-0.2,1.2-0.3,1.4-0.3
		c0.4,0,0.7,0.1,0.9,0.4c0.2,0.3,0.4,0.6,0.4,1c0,0.3-0.1,0.6-0.4,0.9c-0.3,0.3-1.2,0.6-2.5,0.9c-1.4,0.3-2.6,0.4-3.9,0.4
		c-2.1,0-3.9-0.6-5.1-1.8c-1.3-1.2-1.9-2.7-1.9-4.5c0-1.9,0.7-3.4,2.1-4.6c1.4-1.2,3-1.8,4.8-1.8c1.1,0,2.1,0.2,3,0.6
		c0.9,0.4,1.6,0.8,2,1.2c0.6,0.6,1.1,1.4,1.6,2.4c0.3,0.7,0.4,1.4,0.4,2.3V113.3z M95,110.6c-0.4-0.8-0.9-1.3-1.6-1.7
		c-0.7-0.4-1.5-0.6-2.4-0.6c-0.9,0-1.7,0.2-2.4,0.6c-0.7,0.4-1.2,1-1.6,1.7H95z"/>
	<path d="M106.6,100.9v6c0.7-0.4,1.3-0.7,2-1c0.7-0.2,1.4-0.3,2-0.3c1.9,0,3.4,0.6,4.7,1.9s1.9,2.8,1.9,4.6c0,1.7-0.6,3.2-1.8,4.3
		s-2.9,1.7-4.9,1.7c-0.7,0-1.4-0.1-2.1-0.3c-0.7-0.2-1.3-0.5-1.9-0.8v0.7h-3.1c-0.6,0-1.1-0.1-1.4-0.4s-0.4-0.6-0.4-1
		c0-0.4,0.1-0.7,0.4-1c0.3-0.2,0.7-0.4,1.4-0.4h0.5v-11.6h-0.5c-0.6,0-1.1-0.1-1.4-0.4s-0.4-0.6-0.4-1c0-0.4,0.1-0.7,0.4-1
		c0.3-0.2,0.7-0.4,1.4-0.4H106.6z M114.6,112.3c0-1.1-0.4-2-1.2-2.8s-1.7-1.2-2.9-1.2c-1.1,0-2.1,0.4-2.8,1.2s-1.2,1.7-1.2,2.8
		c0,1,0.3,1.8,1,2.4c0.7,0.6,1.7,0.9,3,0.9c1.3,0,2.3-0.3,3-0.9C114.3,114.1,114.6,113.3,114.6,112.3z"/>
	<path d="M131.6,109.2c-0.4-0.3-0.9-0.5-1.4-0.6c-0.5-0.1-1-0.2-1.5-0.2c-1,0-1.9,0.2-2.5,0.5c-0.3,0.1-0.4,0.3-0.4,0.5
		c0,0.2,0.2,0.4,0.5,0.6c0.3,0.1,0.9,0.3,1.9,0.4c1.8,0.2,3,0.5,3.7,0.7c0.9,0.3,1.6,0.8,2.1,1.4s0.7,1.3,0.7,2c0,1-0.4,1.8-1.3,2.4
		c-1.2,0.9-2.8,1.4-4.7,1.4c-0.8,0-1.5-0.1-2.2-0.2c-0.7-0.1-1.3-0.3-1.8-0.6c-0.1,0.1-0.3,0.2-0.4,0.3c-0.1,0.1-0.3,0.1-0.5,0.1
		c-0.4,0-0.8-0.1-1-0.4c-0.2-0.3-0.4-0.7-0.4-1.4v-0.9c0-0.6,0.1-1.1,0.4-1.4c0.2-0.3,0.6-0.4,1-0.4c0.3,0,0.6,0.1,0.8,0.3
		s0.4,0.5,0.5,0.9c0.4,0.3,0.9,0.6,1.5,0.8s1.2,0.3,2,0.3c1.2,0,2.2-0.2,2.9-0.6c0.3-0.2,0.5-0.4,0.5-0.6c0-0.3-0.2-0.6-0.7-0.9
		c-0.5-0.2-1.4-0.4-2.9-0.6c-2.2-0.2-3.6-0.7-4.3-1.3c-0.7-0.6-1.1-1.4-1.1-2.4c0-1,0.4-1.8,1.2-2.4c1.1-0.9,2.5-1.3,4.3-1.3
		c0.6,0,1.2,0.1,1.8,0.2c0.6,0.1,1.1,0.3,1.6,0.5c0.2-0.1,0.3-0.2,0.5-0.3s0.3-0.1,0.4-0.1c0.4,0,0.7,0.1,0.9,0.4
		c0.2,0.3,0.4,0.7,0.4,1.4v0.7c0,0.6-0.1,1-0.2,1.2c-0.3,0.4-0.7,0.6-1.1,0.6c-0.3,0-0.6-0.1-0.9-0.3S131.7,109.5,131.6,109.2z"/>
	<path d="M148.8,106v9.2h3.2c0.6,0,1.1,0.1,1.4,0.4s0.4,0.6,0.4,1c0,0.4-0.1,0.7-0.4,1s-0.7,0.4-1.4,0.4h-9.1
		c-0.6,0-1.1-0.1-1.4-0.4c-0.3-0.2-0.4-0.6-0.4-1c0-0.4,0.1-0.7,0.4-1c0.3-0.2,0.7-0.4,1.4-0.4h3.2v-6.5h-2.2
		c-0.6,0-1.1-0.1-1.4-0.4c-0.3-0.2-0.4-0.6-0.4-1c0-0.4,0.1-0.7,0.4-1s0.7-0.4,1.4-0.4H148.8z M148.4,100.9v2.8h-3.2v-2.8H148.4z"/>
	<path d="M165.5,108.7v5.4c0,0.6,0.1,1,0.4,1.1c0.4,0.3,1,0.4,2,0.4c1.4,0,2.6-0.3,3.8-0.9c0.4-0.2,0.8-0.3,1-0.3
		c0.3,0,0.7,0.1,0.9,0.4c0.3,0.3,0.4,0.6,0.4,1c0,0.3-0.1,0.6-0.4,0.9c-0.4,0.4-1.3,0.8-2.5,1.1c-1.3,0.3-2.3,0.5-3.2,0.5
		c-1.7,0-2.9-0.4-3.7-1.1c-0.8-0.7-1.2-1.6-1.2-2.6v-5.9h-1c-0.6,0-1.1-0.1-1.4-0.4s-0.4-0.6-0.4-1c0-0.4,0.1-0.7,0.4-1
		s0.7-0.4,1.4-0.4h1v-2.4c0-0.6,0.1-1.1,0.4-1.4c0.2-0.3,0.6-0.4,1-0.4c0.4,0,0.7,0.1,1,0.4c0.2,0.3,0.4,0.7,0.4,1.4v2.4h5
		c0.6,0,1.1,0.1,1.4,0.4c0.3,0.2,0.4,0.6,0.4,1c0,0.4-0.1,0.7-0.4,1c-0.3,0.2-0.7,0.4-1.4,0.4H165.5z"/>
	<path d="M191.6,113.3h-11c0.3,0.7,0.8,1.3,1.5,1.7c0.7,0.4,1.7,0.6,2.9,0.6c1,0,2.3-0.2,4-0.6c0.7-0.2,1.2-0.3,1.4-0.3
		c0.4,0,0.7,0.1,0.9,0.4c0.2,0.3,0.4,0.6,0.4,1c0,0.3-0.1,0.6-0.4,0.9c-0.3,0.3-1.2,0.6-2.5,0.9c-1.4,0.3-2.6,0.4-3.9,0.4
		c-2.1,0-3.9-0.6-5.1-1.8c-1.3-1.2-1.9-2.7-1.9-4.5c0-1.9,0.7-3.4,2.1-4.6c1.4-1.2,3-1.8,4.8-1.8c1.1,0,2.1,0.2,3,0.6
		c0.9,0.4,1.6,0.8,2,1.2c0.6,0.6,1.1,1.4,1.6,2.4c0.3,0.7,0.4,1.4,0.4,2.3V113.3z M188.6,110.6c-0.4-0.8-0.9-1.3-1.6-1.7
		c-0.7-0.4-1.5-0.6-2.4-0.6c-0.9,0-1.7,0.2-2.4,0.6c-0.7,0.4-1.2,1-1.6,1.7H188.6z"/>
</g>
<g class="st1">
	<path d="M95.1,143.9h-11c0.3,0.7,0.8,1.3,1.5,1.7c0.7,0.4,1.7,0.6,2.9,0.6c1,0,2.3-0.2,4-0.6c0.7-0.2,1.2-0.3,1.4-0.3
		c0.4,0,0.7,0.1,0.9,0.4c0.2,0.3,0.4,0.6,0.4,1c0,0.3-0.1,0.6-0.4,0.9c-0.3,0.3-1.2,0.6-2.5,0.9c-1.4,0.3-2.6,0.4-3.9,0.4
		c-2.1,0-3.9-0.6-5.1-1.8c-1.3-1.2-1.9-2.7-1.9-4.5c0-1.9,0.7-3.4,2.1-4.6c1.4-1.2,3-1.8,4.8-1.8c1.1,0,2.1,0.2,3,0.6
		c0.9,0.4,1.6,0.8,2,1.2c0.6,0.6,1.1,1.4,1.6,2.4c0.3,0.7,0.4,1.4,0.4,2.3V143.9z M92.1,141.2c-0.4-0.8-0.9-1.3-1.6-1.7
		c-0.7-0.4-1.5-0.6-2.4-0.6c-0.9,0-1.7,0.2-2.4,0.6c-0.7,0.4-1.2,1-1.6,1.7H92.1z"/>
	<path d="M102.9,136.6v0.8c0.4-0.4,0.8-0.7,1.2-0.9c0.4-0.2,0.8-0.2,1.2-0.2c0.4,0,0.8,0.1,1.2,0.3c0.4,0.2,0.8,0.5,1.1,0.9
		c0.5-0.4,0.9-0.7,1.4-0.9s1-0.3,1.5-0.3c1,0,1.8,0.3,2.4,0.8c0.8,0.7,1.2,1.6,1.2,2.7v6c0.6,0,1,0.1,1.2,0.4s0.4,0.6,0.4,1
		c0,0.4-0.1,0.7-0.4,1c-0.3,0.2-0.7,0.4-1.4,0.4h-2.5V140c0-0.4-0.1-0.7-0.2-0.8c-0.1-0.2-0.4-0.2-0.7-0.2c-0.3,0-0.6,0.1-0.8,0.2
		c-0.3,0.2-0.7,0.6-1.2,1.2v5.4c0.6,0,1,0.1,1.2,0.4c0.3,0.3,0.4,0.6,0.4,1c0,0.4-0.1,0.7-0.4,1c-0.3,0.2-0.7,0.4-1.4,0.4h-2.5V140
		c0-0.4-0.1-0.7-0.2-0.8c-0.2-0.2-0.4-0.2-0.7-0.2c-0.3,0-0.6,0.1-0.9,0.3c-0.3,0.2-0.7,0.6-1.1,1.2v5.4c0.6,0,1,0.1,1.2,0.4
		c0.3,0.3,0.4,0.6,0.4,1c0,0.4-0.1,0.7-0.4,1c-0.3,0.2-0.7,0.4-1.4,0.4h-2.4c-0.6,0-1.1-0.1-1.4-0.4c-0.3-0.2-0.4-0.6-0.4-1
		c0-0.4,0.1-0.7,0.4-1s0.7-0.4,1.3-0.4v-6.5c-0.6,0-1-0.1-1.3-0.4s-0.4-0.6-0.4-1c0-0.4,0.1-0.7,0.4-1s0.7-0.4,1.4-0.4H102.9z"/>
	<path d="M127.1,136.6v9.2h3.2c0.6,0,1.1,0.1,1.4,0.4c0.3,0.2,0.4,0.6,0.4,1c0,0.4-0.1,0.7-0.4,1c-0.3,0.2-0.7,0.4-1.4,0.4h-9.1
		c-0.6,0-1.1-0.1-1.4-0.4c-0.3-0.2-0.4-0.6-0.4-1c0-0.4,0.1-0.7,0.4-1s0.7-0.4,1.4-0.4h3.2v-6.5h-2.2c-0.6,0-1.1-0.1-1.4-0.4
		c-0.3-0.2-0.4-0.6-0.4-1c0-0.4,0.1-0.7,0.4-1c0.3-0.2,0.7-0.4,1.4-0.4H127.1z M126.8,131.5v2.8h-3.2v-2.8H126.8z"/>
	<path d="M143.8,139.3v5.4c0,0.6,0.1,1,0.4,1.1c0.4,0.3,1,0.4,2,0.4c1.4,0,2.6-0.3,3.8-0.9c0.4-0.2,0.8-0.3,1-0.3
		c0.3,0,0.7,0.1,0.9,0.4c0.3,0.3,0.4,0.6,0.4,1c0,0.3-0.1,0.6-0.4,0.9c-0.4,0.4-1.3,0.8-2.5,1.1c-1.3,0.3-2.3,0.5-3.2,0.5
		c-1.7,0-2.9-0.4-3.7-1.1c-0.8-0.7-1.2-1.6-1.2-2.6v-5.9h-1c-0.6,0-1.1-0.1-1.4-0.4c-0.3-0.2-0.4-0.6-0.4-1c0-0.4,0.1-0.7,0.4-1
		s0.7-0.4,1.4-0.4h1v-2.4c0-0.6,0.1-1.1,0.4-1.4s0.6-0.4,1-0.4c0.4,0,0.7,0.1,1,0.4c0.2,0.3,0.4,0.7,0.4,1.4v2.4h5
		c0.6,0,1.1,0.1,1.4,0.4c0.3,0.2,0.4,0.6,0.4,1c0,0.4-0.1,0.7-0.4,1c-0.3,0.2-0.7,0.4-1.4,0.4H143.8z"/>
	<path d="M166.1,139.7c-0.4-0.3-0.9-0.5-1.4-0.6c-0.5-0.1-1-0.2-1.5-0.2c-1,0-1.9,0.2-2.5,0.5c-0.3,0.1-0.4,0.3-0.4,0.5
		c0,0.2,0.2,0.4,0.5,0.6c0.3,0.1,0.9,0.3,1.9,0.4c1.8,0.2,3,0.5,3.7,0.7c0.9,0.3,1.6,0.8,2.1,1.4c0.5,0.6,0.7,1.3,0.7,2
		c0,1-0.4,1.8-1.3,2.4c-1.2,0.9-2.8,1.4-4.7,1.4c-0.8,0-1.5-0.1-2.2-0.2c-0.7-0.1-1.3-0.3-1.8-0.6c-0.1,0.1-0.3,0.2-0.4,0.3
		s-0.3,0.1-0.5,0.1c-0.4,0-0.8-0.1-1-0.4c-0.2-0.3-0.4-0.7-0.4-1.4v-0.9c0-0.6,0.1-1.1,0.4-1.4c0.2-0.3,0.6-0.4,1-0.4
		c0.3,0,0.6,0.1,0.8,0.3c0.2,0.2,0.4,0.5,0.5,0.9c0.4,0.3,0.9,0.6,1.5,0.8s1.2,0.3,2,0.3c1.2,0,2.2-0.2,2.9-0.6
		c0.3-0.2,0.5-0.4,0.5-0.6c0-0.3-0.2-0.6-0.7-0.9s-1.4-0.4-2.9-0.6c-2.2-0.2-3.6-0.7-4.3-1.3c-0.7-0.6-1.1-1.4-1.1-2.4
		c0-1,0.4-1.8,1.2-2.4c1.1-0.9,2.5-1.3,4.3-1.3c0.6,0,1.2,0.1,1.8,0.2c0.6,0.1,1.1,0.3,1.6,0.5c0.2-0.1,0.3-0.2,0.5-0.3
		c0.1-0.1,0.3-0.1,0.4-0.1c0.4,0,0.7,0.1,0.9,0.4s0.4,0.7,0.4,1.4v0.7c0,0.6-0.1,1-0.2,1.2c-0.3,0.4-0.7,0.6-1.1,0.6
		c-0.3,0-0.6-0.1-0.9-0.3C166.4,140.3,166.2,140,166.1,139.7z"/>
</g>
<g class="st1">
	<path d="M69.1,169.1v2.9c0,1.7-0.5,3.4-1.5,5c-1,1.6-2.4,2.4-4.3,2.4c-1.1,0-2-0.2-2.7-0.7c-0.7-0.5-1.5-1.4-2.1-2.6
		c-0.7-1.3-1-2.6-1-4.1v-2.9c0-1.7,0.5-3.4,1.5-5c1-1.6,2.4-2.4,4.3-2.4c1.1,0,2,0.2,2.7,0.7c0.7,0.5,1.5,1.3,2.1,2.6
		C68.8,166.3,69.1,167.6,69.1,169.1z M66.5,169.1c0-1.5-0.4-2.7-1.2-3.8c-0.5-0.6-1.1-0.9-1.9-0.9c-0.8,0-1.5,0.3-2,1
		c-0.8,1-1.2,2.2-1.2,3.7v2.9c0,1.5,0.4,2.7,1.2,3.8c0.5,0.6,1.1,0.9,1.9,0.9c0.8,0,1.5-0.3,2-1c0.8-1,1.2-2.2,1.2-3.7V169.1z"/>
	<path d="M84.1,177.7c0,0.5-0.2,0.9-0.5,1.3c-0.4,0.3-0.9,0.5-1.5,0.5s-1.1-0.2-1.5-0.5s-0.5-0.8-0.5-1.3s0.2-0.9,0.5-1.3
		s0.9-0.5,1.5-0.5s1.1,0.2,1.5,0.5C83.9,176.7,84.1,177.2,84.1,177.7z"/>
	<path d="M106.6,169.1v2.9c0,1.7-0.5,3.4-1.5,5c-1,1.6-2.4,2.4-4.3,2.4c-1.1,0-2-0.2-2.7-0.7c-0.7-0.5-1.5-1.4-2.1-2.6
		c-0.7-1.3-1-2.6-1-4.1v-2.9c0-1.7,0.5-3.4,1.5-5c1-1.6,2.4-2.4,4.3-2.4c1.1,0,2,0.2,2.7,0.7c0.7,0.5,1.5,1.3,2.1,2.6
		C106.2,166.3,106.6,167.6,106.6,169.1z M103.9,169.1c0-1.5-0.4-2.7-1.2-3.8c-0.5-0.6-1.1-0.9-1.9-0.9c-0.8,0-1.5,0.3-2,1
		c-0.8,1-1.2,2.2-1.2,3.7v2.9c0,1.5,0.4,2.7,1.2,3.8c0.5,0.6,1.1,0.9,1.9,0.9c0.8,0,1.5-0.3,2-1c0.8-1,1.2-2.2,1.2-3.7V169.1z"/>
	<path d="M123.3,170.1c0.8,0.5,1.4,1.2,1.8,1.9c0.4,0.7,0.6,1.5,0.6,2.4c0,1-0.3,1.8-0.8,2.6c-0.5,0.8-1.3,1.4-2.3,1.8
		c-1,0.4-2.3,0.6-3.9,0.6c-2.1,0-3.6-0.3-4.7-1c-0.6-0.4-0.9-0.8-0.9-1.3c0-0.4,0.1-0.7,0.4-1c0.3-0.3,0.6-0.4,0.9-0.4
		c0.3,0,0.5,0.1,0.8,0.3c0.4,0.3,0.7,0.4,1.1,0.5c0.5,0.1,1.2,0.2,2.2,0.2c1.6,0,2.7-0.2,3.4-0.6c0.7-0.4,1-1,1-1.7
		c0-0.5-0.2-1.1-0.6-1.6s-0.9-0.9-1.6-1.2c-0.4-0.2-1.1-0.3-2-0.3c-0.4,0-0.8-0.2-1-0.4c-0.2-0.2-0.4-0.6-0.4-0.9
		c0-0.4,0.1-0.7,0.4-1c0.3-0.3,0.6-0.4,1-0.4c0.9,0,1.4,0,1.4,0c0.3,0,0.7-0.1,1-0.3c0.3-0.2,0.6-0.5,0.8-0.8c0.2-0.3,0.3-0.7,0.3-1
		c0-0.6-0.3-1.1-0.8-1.5c-0.5-0.4-1.3-0.6-2.3-0.6c-1.3,0-2.3,0.4-3,1.1c-0.2,0.2-0.4,0.4-0.5,0.4c-0.2,0.1-0.4,0.1-0.6,0.1
		c-0.4,0-0.7-0.1-0.9-0.4c-0.3-0.3-0.4-0.6-0.4-1c0-0.6,0.4-1.2,1.2-1.8c1.2-0.8,2.6-1.2,4.4-1.2c1.7,0,3,0.5,4,1.4s1.5,2.1,1.5,3.4
		c0,0.7-0.1,1.3-0.4,1.9C124.3,169,123.9,169.5,123.3,170.1z"/>
	<path d="M141.1,167.9v-0.8h3.1c0.6,0,1.1,0.1,1.4,0.4c0.3,0.2,0.4,0.6,0.4,1c0,0.4-0.1,0.7-0.4,1c-0.3,0.2-0.7,0.4-1.4,0.4h-0.5
		v9.8c0,0.9-0.2,1.8-0.6,2.5c-0.4,0.7-1,1.3-1.8,1.8c-0.8,0.5-1.7,0.8-2.8,0.8h-3c-0.6,0-1.1-0.1-1.4-0.4c-0.3-0.2-0.4-0.6-0.4-1
		c0-0.4,0.1-0.7,0.4-1c0.3-0.2,0.7-0.4,1.4-0.4h3c0.8,0,1.5-0.2,1.9-0.7s0.7-1,0.7-1.7v-1.3c-0.6,0.4-1.2,0.7-1.8,0.9
		c-0.6,0.2-1.2,0.3-1.9,0.3c-1.8,0-3.3-0.6-4.6-1.8s-1.8-2.7-1.8-4.5c0-1.8,0.6-3.3,1.8-4.5c1.2-1.2,2.8-1.8,4.6-1.8
		c0.7,0,1.3,0.1,1.9,0.3S140.6,167.5,141.1,167.9z M141.1,173.1c0-1-0.4-1.8-1.1-2.6c-0.7-0.7-1.6-1.1-2.6-1.1c-1,0-1.9,0.4-2.6,1.1
		c-0.7,0.7-1.1,1.6-1.1,2.6c0,1,0.4,1.8,1.1,2.6c0.7,0.7,1.6,1.1,2.6,1.1c1,0,1.9-0.4,2.6-1.1C140.7,174.9,141.1,174.1,141.1,173.1z
		"/>
	<path d="M169.2,163.8c0.2-0.2,0.3-0.4,0.5-0.5s0.4-0.2,0.6-0.2c0.4,0,0.7,0.1,1,0.4c0.2,0.3,0.4,0.7,0.4,1.4v2.3
		c0,0.6-0.1,1.1-0.4,1.4c-0.2,0.3-0.6,0.4-1,0.4c-0.4,0-0.6-0.1-0.9-0.3c-0.2-0.2-0.4-0.6-0.5-1.1c-0.1-0.4-0.2-0.6-0.4-0.8
		c-0.4-0.4-0.9-0.7-1.5-0.9s-1.3-0.4-1.9-0.4c-0.8,0-1.5,0.2-2.2,0.5s-1.3,0.9-1.8,1.7c-0.5,0.8-0.8,1.7-0.8,2.8v1.7
		c0,1.3,0.5,2.4,1.4,3.2c0.9,0.9,2.2,1.3,3.9,1.3c1,0,1.8-0.1,2.5-0.4c0.4-0.2,0.8-0.5,1.3-0.9c0.3-0.3,0.5-0.5,0.7-0.5
		c0.2-0.1,0.3-0.1,0.5-0.1c0.4,0,0.7,0.1,0.9,0.4c0.3,0.3,0.4,0.6,0.4,1s-0.2,0.8-0.5,1.2c-0.5,0.6-1.2,1.1-2.1,1.4
		c-1.1,0.5-2.4,0.7-3.7,0.7c-1.6,0-3-0.3-4.3-1c-1-0.5-1.9-1.3-2.6-2.5c-0.7-1.1-1.1-2.4-1.1-3.7v-1.8c0-1.4,0.3-2.7,1-3.9
		s1.5-2.1,2.7-2.8c1.2-0.7,2.4-1,3.7-1c0.8,0,1.5,0.1,2.2,0.3C167.9,163.2,168.6,163.5,169.2,163.8z"/>
	<path d="M191.2,171.1c0,2.4-0.8,4.4-2.3,5.9c-1.5,1.6-3.3,2.4-5.2,2.4c-1.8,0-3.4-0.7-4.8-2c-1.8-1.6-2.7-3.7-2.7-6.3
		s0.9-4.7,2.7-6.4c1.4-1.3,3.1-2,4.8-2c2,0,3.7,0.8,5.2,2.4C190.4,166.7,191.2,168.7,191.2,171.1z M188.5,171.1c0-1.6-0.5-3-1.5-4
		c-1-1.1-2.1-1.6-3.4-1.6c-1.2,0-2.4,0.5-3.3,1.6c-1,1.1-1.5,2.4-1.5,4s0.5,3,1.5,4c1,1.1,2.1,1.6,3.3,1.6c1.3,0,2.4-0.5,3.4-1.6
		C188,174.1,188.5,172.7,188.5,171.1z"/>
</g>
<g class="st1">
	<path d="M199.6,177.1h4.1c0.2-0.2,0.4-0.3,0.6-0.3c0.3,0,0.5,0.1,0.7,0.3s0.3,0.5,0.3,1v0.9h-8.6v-2c3.4-2.8,5.5-4.6,6.2-5.4
		c0.4-0.4,0.5-0.8,0.5-1.2c0-0.5-0.2-0.9-0.6-1.2c-0.4-0.4-0.9-0.5-1.6-0.5c-0.7,0-1.2,0.2-1.7,0.6c-0.2,0.2-0.4,0.5-0.6,0.9
		c-0.1,0.3-0.2,0.4-0.4,0.6s-0.3,0.2-0.6,0.2c-0.3,0-0.5-0.1-0.7-0.3c-0.2-0.2-0.3-0.4-0.3-0.6c0-0.4,0.2-0.8,0.5-1.4
		c0.3-0.6,0.8-1,1.5-1.3c0.7-0.3,1.4-0.5,2.1-0.5c1.2,0,2.2,0.4,2.9,1.1c0.8,0.7,1.1,1.6,1.1,2.6c0,0.5-0.1,1-0.3,1.5
		c-0.2,0.4-0.7,1.1-1.6,1.8C202.8,174.4,201.5,175.5,199.6,177.1z"/>
</g>
</svg>
