<?xml version="1.0" encoding="utf-8"?>
<!-- Generator: Adobe Illustrator 26.0.1, SVG Export Plug-In . SVG Version: 6.00 Build 0)  -->
<svg version="1.1" id="Layer_1" xmlns="http://www.w3.org/2000/svg" xmlns:xlink="http://www.w3.org/1999/xlink" x="0px" y="0px"
	 viewBox="0 0 1920 1649.2" style="enable-background:new 0 0 1920 1649.2;" xml:space="preserve">
<style type="text/css">
	.st0{fill:none;stroke:#000000;stroke-width:4;stroke-linejoin:bevel;}
	.st1{fill:#FFFFFF;stroke:#000000;stroke-width:4;stroke-miterlimit:10;}
	.st2{fill:none;stroke:#000000;stroke-width:2;stroke-miterlimit:10;}
	.st3{fill:none;stroke:#000000;stroke-width:4;stroke-miterlimit:10;}
	.st4{fill:none;stroke:#000000;stroke-width:3;stroke-miterlimit:10;}
	.st5{enable-background:new    ;}
	.st6{fill:none;stroke:#000000;stroke-width:4;stroke-linejoin:round;}
	.st7{fill:none;stroke:#FFFFFF;stroke-width:4;stroke-miterlimit:10;}
	.st8{fill:none;stroke:#FFFFFF;stroke-width:3.53;stroke-linecap:round;stroke-miterlimit:10;}
</style>
<rect x="947.3" y="700.6" class="st0" width="50.2" height="54.7"/>
<rect x="947.3" y="755.3" class="st0" width="50.2" height="54.7"/>
<polygon class="st0" points="1019.8,977.8 925.2,977.8 947.3,810 997.6,810 "/>
<polygon class="st0" points="997.6,700.6 947.3,700.6 961,650.1 984,650.1 "/>
<polyline class="st0" points="947.3,810 997.6,755.3 947.3,700.6 "/>
<polyline class="st0" points="997.6,700.6 947.3,755.3 997.6,810 "/>
<polyline class="st0" points="947.3,700.6 905.8,755.3 905.8,776 "/>
<polyline class="st0" points="1039.1,776 1039.1,755.3 997.6,700.6 "/>
<polyline class="st0" points="905.8,810 947.3,810 1004.9,865.9 932.4,921.8 1019.8,977.8 925.2,977.8 1012.4,922 939.9,866.1 
	997.6,810 1039.1,810 "/>
<path class="st1" d="M1131.3,1323.1H956.5c-5.6,0-10.1-4.5-10.1-10.1v-104.8c0-5.6,4.5-10.1,10.1-10.1h174.8
	c5.6,0,10.1,4.5,10.1,10.1V1313C1141.4,1318.6,1136.9,1323.1,1131.3,1323.1z"/>
<rect x="1018.8" y="1323.1" class="st1" width="50.3" height="31.3"/>
<rect x="993.9" y="1354.5" class="st1" width="100" height="9.8"/>
<rect x="955" y="1205.9" width="177.7" height="95.3"/>
<path class="st1" d="M915.6,1397.1l-62.9,18.1c-5.2,1.5-10.7-1.5-12.2-6.7l-36.6-126.8c-1.5-5.2,1.5-10.7,6.7-12.2l62.9-18.1
	c5.2-1.5,10.7,1.5,12.2,6.7l36.6,126.8C923.8,1390.1,920.8,1395.6,915.6,1397.1z"/>
<rect x="828" y="1268.4" transform="matrix(0.9608 -0.2771 0.2771 0.9608 -333.9897 290.668)" width="66.4" height="116.8"/>
<circle class="st2" cx="880.6" cy="1394.1" r="6.4"/>
<line class="st3" x1="1028.6" y1="280.7" x2="1028.6" y2="305.3"/>
<line class="st3" x1="910.1" y1="350.3" x2="910.1" y2="375.3"/>
<line class="st4" x1="972.5" y1="424.1" x2="972.5" y2="444.6"/>
<g class="st5">
	<path d="M1087,794.2v9.4h1.6c0.6,0,1,0.1,1.2,0.3s0.4,0.5,0.4,0.9c0,0.4-0.1,0.6-0.4,0.9s-0.7,0.3-1.2,0.3h-5.6
		c-0.6,0-1-0.1-1.2-0.3s-0.4-0.5-0.4-0.9c0-0.4,0.1-0.6,0.4-0.9s0.7-0.3,1.2-0.3h1.6v-9.4h-2.6v2.3c0,0.6-0.1,1-0.3,1.2
		s-0.5,0.4-0.9,0.4c-0.4,0-0.6-0.1-0.9-0.4s-0.3-0.7-0.3-1.2v-4.7l12.4,0v4.7c0,0.6-0.1,1-0.3,1.2s-0.5,0.4-0.9,0.4
		c-0.4,0-0.6-0.1-0.9-0.4s-0.3-0.7-0.3-1.2v-2.3H1087z"/>
	<path d="M1099.8,795.3v1.5c1-0.7,1.8-1.2,2.4-1.5s1.1-0.4,1.6-0.4c0.8,0,1.5,0.3,2.3,0.9c0.5,0.4,0.8,0.8,0.8,1.2
		c0,0.3-0.1,0.6-0.4,0.9s-0.5,0.4-0.9,0.4c-0.3,0-0.6-0.1-0.9-0.4s-0.6-0.4-0.9-0.4c-0.3,0-0.8,0.2-1.5,0.6s-1.5,1.1-2.5,1.9v3.6
		h3.4c0.6,0,1,0.1,1.2,0.3s0.4,0.5,0.4,0.9c0,0.4-0.1,0.6-0.4,0.9s-0.7,0.3-1.2,0.3h-7.3c-0.6,0-1-0.1-1.2-0.3s-0.4-0.5-0.4-0.9
		c0-0.4,0.1-0.6,0.4-0.9s0.7-0.3,1.2-0.3h1.4v-5.8h-0.9c-0.6,0-1-0.1-1.2-0.3s-0.4-0.5-0.4-0.9c0-0.4,0.1-0.6,0.4-0.9
		s0.7-0.3,1.2-0.3H1099.8z"/>
	<path d="M1116.8,806v-0.6c-0.6,0.3-1.3,0.6-2,0.7s-1.4,0.2-2,0.2c-1.3,0-2.3-0.3-3.1-1s-1.2-1.4-1.2-2.3c0-1,0.5-1.9,1.5-2.8
		s2.4-1.3,4.3-1.3c0.7,0,1.6,0.1,2.5,0.2v-0.6c0-0.4-0.2-0.7-0.5-0.9s-0.9-0.3-1.8-0.3c-0.7,0-1.6,0.1-2.8,0.4
		c-0.4,0.1-0.8,0.2-1,0.2c-0.3,0-0.6-0.1-0.8-0.3s-0.3-0.5-0.3-0.9c0-0.2,0-0.4,0.1-0.5s0.2-0.3,0.3-0.4s0.4-0.2,0.9-0.3
		c0.6-0.2,1.2-0.3,1.8-0.4s1.2-0.1,1.7-0.1c1.5,0,2.7,0.3,3.5,1s1.2,1.5,1.2,2.6v4.9h0.4c0.6,0,1,0.1,1.2,0.3s0.4,0.5,0.4,0.9
		c0,0.4-0.1,0.6-0.4,0.9s-0.7,0.3-1.2,0.3H1116.8z M1116.8,801.7c-1-0.2-1.8-0.3-2.7-0.3c-1,0-1.8,0.2-2.5,0.7
		c-0.4,0.3-0.7,0.6-0.7,0.9c0,0.2,0.1,0.4,0.3,0.6c0.4,0.3,0.9,0.4,1.6,0.4c0.6,0,1.2-0.1,2-0.3s1.4-0.5,2-0.9V801.7z"/>
	<path d="M1126.6,795.3v0.8c0.4-0.4,0.9-0.7,1.4-0.8s1.1-0.3,1.7-0.3c1.4,0,2.5,0.4,3.4,1.3c0.7,0.7,1,1.6,1,2.8v4.5
		c0.5,0,0.9,0.1,1.1,0.3s0.4,0.5,0.4,0.9c0,0.4-0.1,0.6-0.4,0.9s-0.7,0.3-1.2,0.3h-2.2c-0.6,0-1-0.1-1.2-0.3s-0.4-0.5-0.4-0.9
		c0-0.4,0.1-0.6,0.4-0.9s0.6-0.3,1.1-0.3V799c0-0.5-0.1-0.9-0.4-1.1c-0.4-0.3-0.9-0.5-1.7-0.5c-0.6,0-1,0.1-1.5,0.3
		s-0.9,0.7-1.6,1.4v4.5c0.6,0,1,0.1,1.2,0.2c0.4,0.2,0.6,0.6,0.6,1c0,0.4-0.1,0.6-0.4,0.9s-0.7,0.3-1.2,0.3h-2.7
		c-0.6,0-1-0.1-1.2-0.3s-0.4-0.5-0.4-0.9c0-0.4,0.2-0.8,0.6-1c0.2-0.1,0.6-0.2,1.2-0.2v-5.8c-0.5,0-0.9-0.1-1.1-0.3
		s-0.4-0.5-0.4-0.9s0.1-0.6,0.4-0.9s0.7-0.3,1.2-0.3H1126.6z"/>
	<path d="M1146.1,798.1c-0.4-0.2-0.8-0.4-1.2-0.5s-0.9-0.2-1.3-0.2c-0.9,0-1.7,0.2-2.2,0.5c-0.2,0.1-0.4,0.3-0.4,0.4
		c0,0.2,0.2,0.4,0.5,0.5c0.2,0.1,0.8,0.2,1.7,0.4c1.6,0.2,2.7,0.4,3.3,0.7c0.8,0.3,1.5,0.7,1.9,1.3s0.7,1.2,0.7,1.8
		c0,0.9-0.4,1.6-1.1,2.2c-1.1,0.8-2.5,1.3-4.2,1.3c-0.7,0-1.3-0.1-1.9-0.2s-1.1-0.3-1.6-0.5c-0.1,0.1-0.2,0.2-0.4,0.2
		s-0.3,0.1-0.4,0.1c-0.4,0-0.7-0.1-0.9-0.4s-0.3-0.7-0.3-1.2v-0.8c0-0.6,0.1-1,0.3-1.2s0.5-0.4,0.9-0.4c0.3,0,0.5,0.1,0.7,0.2
		s0.3,0.4,0.5,0.8c0.4,0.3,0.8,0.5,1.3,0.7s1.1,0.2,1.8,0.2c1.1,0,2-0.2,2.6-0.5c0.3-0.2,0.4-0.4,0.4-0.5c0-0.3-0.2-0.6-0.6-0.8
		s-1.3-0.4-2.6-0.5c-1.9-0.2-3.2-0.6-3.9-1.2c-0.6-0.6-1-1.3-1-2.1c0-0.9,0.4-1.6,1.1-2.1c1-0.8,2.3-1.2,3.9-1.2
		c0.6,0,1.1,0.1,1.6,0.2s1,0.3,1.5,0.5c0.1-0.1,0.3-0.2,0.4-0.2s0.2-0.1,0.4-0.1c0.3,0,0.6,0.1,0.8,0.4s0.3,0.7,0.3,1.2v0.6
		c0,0.5-0.1,0.9-0.2,1.1c-0.2,0.4-0.6,0.5-1,0.5c-0.3,0-0.5-0.1-0.8-0.3S1146.1,798.4,1146.1,798.1z"/>
	<path d="M1154.2,795.3v0.7c0.4-0.4,0.7-0.6,1.1-0.8s0.7-0.2,1.1-0.2c0.4,0,0.7,0.1,1,0.3s0.7,0.4,1,0.8c0.4-0.3,0.8-0.6,1.3-0.8
		s0.9-0.3,1.3-0.3c0.9,0,1.6,0.2,2.2,0.7c0.7,0.6,1.1,1.4,1.1,2.5v5.4c0.5,0,0.9,0.1,1.1,0.3s0.4,0.5,0.4,0.9s-0.1,0.6-0.4,0.9
		s-0.7,0.3-1.2,0.3h-2.3v-7.6c0-0.4-0.1-0.6-0.2-0.8s-0.3-0.2-0.6-0.2c-0.3,0-0.5,0.1-0.7,0.2c-0.3,0.2-0.6,0.6-1.1,1.1v4.8
		c0.5,0,0.9,0.1,1.1,0.3s0.4,0.5,0.4,0.9s-0.1,0.6-0.4,0.9s-0.7,0.3-1.2,0.3h-2.3v-7.6c0-0.4-0.1-0.6-0.2-0.8s-0.3-0.2-0.6-0.2
		c-0.3,0-0.6,0.1-0.8,0.3s-0.6,0.5-1,1v4.8c0.5,0,0.9,0.1,1.1,0.3s0.4,0.5,0.4,0.9s-0.1,0.6-0.4,0.9s-0.7,0.3-1.2,0.3h-2.2
		c-0.6,0-1-0.1-1.2-0.3s-0.4-0.5-0.4-0.9c0-0.4,0.1-0.6,0.4-0.9s0.6-0.3,1.1-0.3v-5.8c-0.5,0-0.9-0.1-1.1-0.3s-0.4-0.5-0.4-0.9
		s0.1-0.6,0.4-0.9s0.7-0.3,1.2-0.3H1154.2z"/>
	<path d="M1173.5,795.3v8.2h2.9c0.6,0,1,0.1,1.2,0.3s0.4,0.5,0.4,0.9c0,0.4-0.1,0.6-0.4,0.9s-0.7,0.3-1.2,0.3h-8.2
		c-0.6,0-1-0.1-1.2-0.3s-0.4-0.5-0.4-0.9c0-0.4,0.1-0.6,0.4-0.9s0.7-0.3,1.2-0.3h2.9v-5.8h-1.9c-0.6,0-1-0.1-1.2-0.3
		s-0.4-0.5-0.4-0.9c0-0.4,0.1-0.6,0.4-0.9s0.7-0.3,1.2-0.3H1173.5z M1173.1,790.8v2.5h-2.9v-2.5H1173.1z"/>
	<path d="M1189.3,798.1c-0.4-0.2-0.8-0.4-1.2-0.5s-0.9-0.2-1.3-0.2c-0.9,0-1.7,0.2-2.2,0.5c-0.2,0.1-0.4,0.3-0.4,0.4
		c0,0.2,0.2,0.4,0.5,0.5c0.2,0.1,0.8,0.2,1.7,0.4c1.6,0.2,2.7,0.4,3.3,0.7c0.8,0.3,1.5,0.7,1.9,1.3s0.7,1.2,0.7,1.8
		c0,0.9-0.4,1.6-1.1,2.2c-1.1,0.8-2.5,1.3-4.2,1.3c-0.7,0-1.3-0.1-1.9-0.2s-1.1-0.3-1.6-0.5c-0.1,0.1-0.2,0.2-0.4,0.2
		s-0.3,0.1-0.4,0.1c-0.4,0-0.7-0.1-0.9-0.4s-0.3-0.7-0.3-1.2v-0.8c0-0.6,0.1-1,0.3-1.2s0.5-0.4,0.9-0.4c0.3,0,0.5,0.1,0.7,0.2
		s0.3,0.4,0.5,0.8c0.4,0.3,0.8,0.5,1.3,0.7s1.1,0.2,1.8,0.2c1.1,0,2-0.2,2.6-0.5c0.3-0.2,0.4-0.4,0.4-0.5c0-0.3-0.2-0.6-0.6-0.8
		s-1.3-0.4-2.6-0.5c-1.9-0.2-3.2-0.6-3.9-1.2c-0.6-0.6-1-1.3-1-2.1c0-0.9,0.4-1.6,1.1-2.1c1-0.8,2.3-1.2,3.9-1.2
		c0.6,0,1.1,0.1,1.6,0.2s1,0.3,1.5,0.5c0.1-0.1,0.3-0.2,0.4-0.2s0.2-0.1,0.4-0.1c0.3,0,0.6,0.1,0.8,0.4s0.3,0.7,0.3,1.2v0.6
		c0,0.5-0.1,0.9-0.2,1.1c-0.2,0.4-0.6,0.5-1,0.5c-0.3,0-0.5-0.1-0.8-0.3S1189.3,798.4,1189.3,798.1z"/>
	<path d="M1203.7,798.1c-0.4-0.2-0.8-0.4-1.2-0.5s-0.9-0.2-1.3-0.2c-0.9,0-1.7,0.2-2.2,0.5c-0.2,0.1-0.4,0.3-0.4,0.4
		c0,0.2,0.2,0.4,0.5,0.5c0.2,0.1,0.8,0.2,1.7,0.4c1.6,0.2,2.7,0.4,3.3,0.7c0.8,0.3,1.5,0.7,1.9,1.3s0.7,1.2,0.7,1.8
		c0,0.9-0.4,1.6-1.1,2.2c-1.1,0.8-2.5,1.3-4.2,1.3c-0.7,0-1.3-0.1-1.9-0.2s-1.1-0.3-1.6-0.5c-0.1,0.1-0.2,0.2-0.4,0.2
		s-0.3,0.1-0.4,0.1c-0.4,0-0.7-0.1-0.9-0.4s-0.3-0.7-0.3-1.2v-0.8c0-0.6,0.1-1,0.3-1.2s0.5-0.4,0.9-0.4c0.3,0,0.5,0.1,0.7,0.2
		s0.3,0.4,0.5,0.8c0.4,0.3,0.8,0.5,1.3,0.7s1.1,0.2,1.8,0.2c1.1,0,2-0.2,2.6-0.5c0.3-0.2,0.4-0.4,0.4-0.5c0-0.3-0.2-0.6-0.6-0.8
		s-1.3-0.4-2.6-0.5c-1.9-0.2-3.2-0.6-3.9-1.2c-0.6-0.6-1-1.3-1-2.1c0-0.9,0.4-1.6,1.1-2.1c1-0.8,2.3-1.2,3.9-1.2
		c0.6,0,1.1,0.1,1.6,0.2s1,0.3,1.5,0.5c0.1-0.1,0.3-0.2,0.4-0.2s0.2-0.1,0.4-0.1c0.3,0,0.6,0.1,0.8,0.4s0.3,0.7,0.3,1.2v0.6
		c0,0.5-0.1,0.9-0.2,1.1c-0.2,0.4-0.6,0.5-1,0.5c-0.3,0-0.5-0.1-0.8-0.3S1203.7,798.4,1203.7,798.1z"/>
	<path d="M1216.7,795.3v8.2h2.9c0.6,0,1,0.1,1.2,0.3s0.4,0.5,0.4,0.9c0,0.4-0.1,0.6-0.4,0.9s-0.7,0.3-1.2,0.3h-8.2
		c-0.6,0-1-0.1-1.2-0.3s-0.4-0.5-0.4-0.9c0-0.4,0.1-0.6,0.4-0.9s0.7-0.3,1.2-0.3h2.9v-5.8h-1.9c-0.6,0-1-0.1-1.2-0.3
		s-0.4-0.5-0.4-0.9c0-0.4,0.1-0.6,0.4-0.9s0.7-0.3,1.2-0.3H1216.7z M1216.3,790.8v2.5h-2.9v-2.5H1216.3z"/>
	<path d="M1236.1,800.8c0,0.9-0.3,1.8-0.8,2.7s-1.3,1.6-2.3,2.1s-2.1,0.8-3.2,0.8c-1.1,0-2.1-0.3-3.1-0.8s-1.8-1.2-2.3-2.1
		s-0.8-1.8-0.8-2.7c0-1,0.3-1.9,0.8-2.8s1.3-1.7,2.3-2.2s2-0.8,3.1-0.8c1.1,0,2.1,0.3,3.2,0.8s1.8,1.3,2.3,2.2
		S1236.1,799.9,1236.1,800.8z M1233.7,800.9c0-0.8-0.3-1.5-0.8-2.1c-0.8-0.9-1.8-1.3-3-1.3c-1.1,0-2,0.3-2.7,1s-1.1,1.5-1.1,2.4
		c0,0.8,0.4,1.5,1.1,2.1s1.6,1,2.7,1c1.1,0,2-0.3,2.7-1S1233.7,801.6,1233.7,800.9z"/>
	<path d="M1241.9,795.3v0.8c0.4-0.4,0.9-0.7,1.4-0.8s1.1-0.3,1.7-0.3c1.4,0,2.5,0.4,3.4,1.3c0.7,0.7,1,1.6,1,2.8v4.5
		c0.5,0,0.9,0.1,1.1,0.3s0.4,0.5,0.4,0.9c0,0.4-0.1,0.6-0.4,0.9s-0.7,0.3-1.2,0.3h-2.2c-0.6,0-1-0.1-1.2-0.3s-0.4-0.5-0.4-0.9
		c0-0.4,0.1-0.6,0.4-0.9s0.6-0.3,1.1-0.3V799c0-0.5-0.1-0.9-0.4-1.1c-0.4-0.3-0.9-0.5-1.7-0.5c-0.6,0-1,0.1-1.5,0.3
		s-0.9,0.7-1.6,1.4v4.5c0.6,0,1,0.1,1.2,0.2c0.4,0.2,0.6,0.6,0.6,1c0,0.4-0.1,0.6-0.4,0.9s-0.7,0.3-1.2,0.3h-2.7
		c-0.6,0-1-0.1-1.2-0.3s-0.4-0.5-0.4-0.9c0-0.4,0.2-0.8,0.6-1c0.2-0.1,0.6-0.2,1.2-0.2v-5.8c-0.5,0-0.9-0.1-1.1-0.3
		s-0.4-0.5-0.4-0.9s0.1-0.6,0.4-0.9s0.7-0.3,1.2-0.3H1241.9z"/>
	<path d="M1270.1,796.3v7.3h0.9c0.6,0,1,0.1,1.2,0.3s0.4,0.5,0.4,0.9c0,0.4-0.1,0.6-0.4,0.9s-0.7,0.3-1.2,0.3h-3.2
		c-0.6,0-1-0.1-1.2-0.3s-0.4-0.5-0.4-0.9c0-0.3,0.1-0.6,0.4-0.9s0.6-0.3,1.1-0.3v-9.4h-0.4c-0.6,0-1-0.1-1.2-0.3s-0.4-0.5-0.4-0.9
		s0.1-0.7,0.4-0.9s0.7-0.3,1.2-0.3l2.8,0l6.1,9.6v-7.2h-0.9c-0.6,0-1-0.1-1.2-0.3s-0.4-0.5-0.4-0.9s0.1-0.7,0.4-0.9s0.7-0.3,1.2-0.3
		l3.2,0c0.6,0,1,0.1,1.2,0.3s0.4,0.5,0.4,0.9c0,0.4-0.1,0.6-0.4,0.9s-0.6,0.3-1.1,0.3V806h-2.4L1270.1,796.3z"/>
	<path d="M1293.5,801.9h-9.9c0.2,0.6,0.7,1.1,1.3,1.5s1.5,0.6,2.6,0.6c0.9,0,2.1-0.2,3.6-0.6c0.6-0.2,1-0.2,1.3-0.2
		c0.3,0,0.6,0.1,0.8,0.3s0.3,0.5,0.3,0.9c0,0.3-0.1,0.6-0.4,0.8c-0.3,0.3-1.1,0.6-2.3,0.8s-2.4,0.4-3.5,0.4c-1.9,0-3.5-0.5-4.6-1.6
		s-1.7-2.4-1.7-4c0-1.7,0.6-3.1,1.9-4.1s2.7-1.6,4.3-1.6c1,0,1.9,0.2,2.7,0.5s1.4,0.7,1.8,1.1c0.6,0.6,1,1.3,1.4,2.1
		c0.2,0.6,0.4,1.3,0.4,2.1V801.9z M1290.9,799.5c-0.4-0.7-0.8-1.2-1.4-1.5s-1.3-0.5-2.1-0.5c-0.8,0-1.5,0.2-2.1,0.5
		s-1.1,0.9-1.5,1.5H1290.9z"/>
	<path d="M1301.3,797.7v4.8c0,0.5,0.1,0.9,0.3,1c0.3,0.3,0.9,0.4,1.8,0.4c1.2,0,2.4-0.3,3.4-0.8c0.4-0.2,0.7-0.3,0.9-0.3
		c0.3,0,0.6,0.1,0.8,0.4s0.3,0.5,0.3,0.9c0,0.3-0.1,0.6-0.4,0.8c-0.4,0.4-1.1,0.7-2.3,1s-2.1,0.5-2.9,0.5c-1.5,0-2.6-0.3-3.4-1
		s-1.1-1.4-1.1-2.4v-5.3h-0.9c-0.6,0-1-0.1-1.2-0.3s-0.4-0.5-0.4-0.9c0-0.4,0.1-0.6,0.4-0.9s0.7-0.3,1.2-0.3h0.9v-2.2
		c0-0.6,0.1-1,0.3-1.2s0.5-0.4,0.9-0.4c0.4,0,0.6,0.1,0.9,0.4s0.3,0.7,0.3,1.2v2.2h4.4c0.6,0,1,0.1,1.2,0.3s0.4,0.5,0.4,0.9
		c0,0.4-0.1,0.6-0.4,0.9s-0.7,0.3-1.2,0.3H1301.3z"/>
	<path d="M1316.3,801.5l-1.7,4.4h-2.3l-2-8.2c-0.4,0-0.8-0.1-1-0.4s-0.3-0.5-0.3-0.8c0-0.4,0.1-0.6,0.4-0.9s0.7-0.3,1.2-0.3h2.2
		c0.6,0,1,0.1,1.2,0.3s0.4,0.5,0.4,0.9s-0.1,0.7-0.4,0.9c-0.2,0.2-0.6,0.3-1.2,0.3l0.9,3.8l1.5-3.9h2.1l1.5,3.9l0.9-3.8
		c-0.6,0-1-0.1-1.2-0.2c-0.4-0.2-0.6-0.6-0.6-1c0-0.4,0.1-0.6,0.4-0.9s0.7-0.3,1.2-0.3h2.3c0.6,0,1,0.1,1.2,0.3s0.4,0.5,0.4,0.9
		c0,0.3-0.1,0.6-0.3,0.8s-0.5,0.3-1,0.4l-2,8.2h-2.2L1316.3,801.5z"/>
	<path d="M1336.9,800.8c0,0.9-0.3,1.8-0.8,2.7s-1.3,1.6-2.3,2.1s-2.1,0.8-3.2,0.8c-1.1,0-2.1-0.3-3.1-0.8s-1.8-1.2-2.3-2.1
		s-0.8-1.8-0.8-2.7c0-1,0.3-1.9,0.8-2.8s1.3-1.7,2.3-2.2s2-0.8,3.1-0.8c1.1,0,2.1,0.3,3.2,0.8s1.8,1.3,2.3,2.2
		S1336.9,799.9,1336.9,800.8z M1334.5,800.9c0-0.8-0.3-1.5-0.8-2.1c-0.8-0.9-1.8-1.3-3-1.3c-1.1,0-2,0.3-2.7,1s-1.1,1.5-1.1,2.4
		c0,0.8,0.4,1.5,1.1,2.1s1.6,1,2.7,1c1.1,0,2-0.3,2.7-1S1334.5,801.6,1334.5,800.9z"/>
	<path d="M1344.6,795.3v1.5c1-0.7,1.8-1.2,2.4-1.5s1.1-0.4,1.6-0.4c0.8,0,1.5,0.3,2.3,0.9c0.5,0.4,0.8,0.8,0.8,1.2
		c0,0.3-0.1,0.6-0.4,0.9s-0.5,0.4-0.9,0.4c-0.3,0-0.6-0.1-0.9-0.4s-0.6-0.4-0.9-0.4c-0.3,0-0.8,0.2-1.5,0.6s-1.5,1.1-2.5,1.9v3.6
		h3.4c0.6,0,1,0.1,1.2,0.3s0.4,0.5,0.4,0.9c0,0.4-0.1,0.6-0.4,0.9s-0.7,0.3-1.2,0.3h-7.3c-0.6,0-1-0.1-1.2-0.3s-0.4-0.5-0.4-0.9
		c0-0.4,0.1-0.6,0.4-0.9s0.7-0.3,1.2-0.3h1.4v-5.8h-0.9c-0.6,0-1-0.1-1.2-0.3s-0.4-0.5-0.4-0.9c0-0.4,0.1-0.6,0.4-0.9
		s0.7-0.3,1.2-0.3H1344.6z"/>
	<path d="M1357.5,802v4h-2.8c-0.6,0-1-0.1-1.2-0.3s-0.4-0.5-0.4-0.9c0-0.4,0.1-0.6,0.4-0.9s0.7-0.3,1.2-0.3h0.4v-10.4h-0.4
		c-0.6,0-1-0.1-1.2-0.3s-0.4-0.5-0.4-0.9c0-0.4,0.1-0.6,0.4-0.9s0.7-0.3,1.2-0.3h2.8v8.1l1.9-1.5c-0.2-0.3-0.3-0.6-0.3-0.8
		c0-0.4,0.1-0.7,0.4-0.9s0.7-0.3,1.2-0.3h2.7c0.6,0,1,0.1,1.2,0.3s0.4,0.5,0.4,0.9c0,0.4-0.1,0.6-0.4,0.9s-0.7,0.3-1.2,0.3h-0.7
		l-2.9,2.4l3.9,3.5h0.7c0.6,0,1,0.1,1.2,0.3s0.4,0.5,0.4,0.9c0,0.4-0.1,0.6-0.4,0.9s-0.7,0.3-1.2,0.3h-2.8c-0.6,0-1-0.1-1.2-0.3
		s-0.4-0.5-0.4-0.9c0-0.3,0.1-0.6,0.4-0.9l-2.5-2.2L1357.5,802z"/>
</g>
<g class="st5">
	<path d="M1132,302.9v-9.4c-0.5,0-0.9-0.1-1.1-0.3s-0.4-0.5-0.4-0.9c0-0.4,0.1-0.7,0.4-0.9s0.7-0.3,1.2-0.3l5,0
		c0.8,0,1.5,0.1,2.3,0.4s1.3,0.7,1.8,1.1c0.3,0.3,0.7,0.8,1.1,1.4s0.7,1.2,0.8,1.7s0.3,1.3,0.3,2.1v1.1c0,1-0.2,1.9-0.5,2.7
		s-0.8,1.4-1.4,1.9s-1.1,0.9-1.6,1.1c-0.8,0.4-1.8,0.6-3,0.6h-4.8c-0.6,0-1-0.1-1.2-0.3s-0.4-0.5-0.4-0.9c0-0.4,0.1-0.6,0.4-0.9
		S1131.5,302.9,1132,302.9z M1134.4,302.9h2.6c1,0,1.7-0.1,2.2-0.4c0.6-0.4,1.1-0.8,1.4-1.4s0.5-1.3,0.5-2.2v-1.1
		c0-0.8-0.1-1.4-0.4-2c-0.5-0.9-1-1.5-1.5-1.8s-1.3-0.5-2.1-0.5h-2.5V302.9z"/>
	<path d="M1153.9,305.3v-0.6c-0.6,0.3-1.3,0.6-2,0.7s-1.4,0.2-2,0.2c-1.3,0-2.3-0.3-3.1-1s-1.2-1.4-1.2-2.3c0-1,0.5-1.9,1.5-2.8
		s2.4-1.3,4.3-1.3c0.7,0,1.6,0.1,2.5,0.2V298c0-0.4-0.2-0.7-0.5-0.9s-0.9-0.3-1.8-0.3c-0.7,0-1.6,0.1-2.8,0.4
		c-0.4,0.1-0.8,0.2-1,0.2c-0.3,0-0.6-0.1-0.8-0.3s-0.3-0.5-0.3-0.9c0-0.2,0-0.4,0.1-0.5s0.2-0.3,0.3-0.4s0.4-0.2,0.9-0.3
		c0.6-0.2,1.2-0.3,1.8-0.4s1.2-0.1,1.7-0.1c1.5,0,2.7,0.3,3.5,1s1.2,1.5,1.2,2.6v4.9h0.4c0.6,0,1,0.1,1.2,0.3s0.4,0.5,0.4,0.9
		c0,0.4-0.1,0.6-0.4,0.9s-0.7,0.3-1.2,0.3H1153.9z M1153.9,301c-1-0.2-1.8-0.3-2.7-0.3c-1,0-1.8,0.2-2.5,0.7
		c-0.4,0.3-0.7,0.6-0.7,0.9c0,0.2,0.1,0.4,0.3,0.6c0.4,0.3,0.9,0.4,1.6,0.4c0.6,0,1.2-0.1,2-0.3s1.4-0.5,2-0.9V301z"/>
	<path d="M1165.5,297.1v4.8c0,0.5,0.1,0.9,0.3,1c0.3,0.3,0.9,0.4,1.8,0.4c1.2,0,2.4-0.3,3.4-0.8c0.4-0.2,0.7-0.3,0.9-0.3
		c0.3,0,0.6,0.1,0.8,0.4s0.3,0.5,0.3,0.9c0,0.3-0.1,0.6-0.4,0.8c-0.4,0.4-1.1,0.7-2.3,1s-2.1,0.5-2.9,0.5c-1.5,0-2.6-0.3-3.4-1
		s-1.1-1.4-1.1-2.4v-5.3h-0.9c-0.6,0-1-0.1-1.2-0.3s-0.4-0.5-0.4-0.9c0-0.4,0.1-0.6,0.4-0.9s0.7-0.3,1.2-0.3h0.9v-2.2
		c0-0.6,0.1-1,0.3-1.2s0.5-0.4,0.9-0.4c0.4,0,0.6,0.1,0.9,0.4s0.3,0.7,0.3,1.2v2.2h4.4c0.6,0,1,0.1,1.2,0.3s0.4,0.5,0.4,0.9
		c0,0.4-0.1,0.6-0.4,0.9s-0.7,0.3-1.2,0.3H1165.5z"/>
	<path d="M1182.7,305.3v-0.6c-0.6,0.3-1.3,0.6-2,0.7s-1.4,0.2-2,0.2c-1.3,0-2.3-0.3-3.1-1s-1.2-1.4-1.2-2.3c0-1,0.5-1.9,1.5-2.8
		s2.4-1.3,4.3-1.3c0.7,0,1.6,0.1,2.5,0.2V298c0-0.4-0.2-0.7-0.5-0.9s-0.9-0.3-1.8-0.3c-0.7,0-1.6,0.1-2.8,0.4
		c-0.4,0.1-0.8,0.2-1,0.2c-0.3,0-0.6-0.1-0.8-0.3s-0.3-0.5-0.3-0.9c0-0.2,0-0.4,0.1-0.5s0.2-0.3,0.3-0.4s0.4-0.2,0.9-0.3
		c0.6-0.2,1.2-0.3,1.8-0.4s1.2-0.1,1.7-0.1c1.5,0,2.7,0.3,3.5,1s1.2,1.5,1.2,2.6v4.9h0.4c0.6,0,1,0.1,1.2,0.3s0.4,0.5,0.4,0.9
		c0,0.4-0.1,0.6-0.4,0.9s-0.7,0.3-1.2,0.3H1182.7z M1182.7,301c-1-0.2-1.8-0.3-2.7-0.3c-1,0-1.8,0.2-2.5,0.7
		c-0.4,0.3-0.7,0.6-0.7,0.9c0,0.2,0.1,0.4,0.3,0.6c0.4,0.3,0.9,0.4,1.6,0.4c0.6,0,1.2-0.1,2-0.3s1.4-0.5,2-0.9V301z"/>
	<path d="M1213.1,291.7c0.1-0.2,0.3-0.4,0.5-0.5s0.4-0.2,0.6-0.2c0.4,0,0.6,0.1,0.9,0.4s0.3,0.7,0.3,1.2v2c0,0.6-0.1,1-0.3,1.2
		s-0.5,0.4-0.9,0.4c-0.3,0-0.6-0.1-0.8-0.3s-0.3-0.5-0.4-1c-0.1-0.3-0.2-0.6-0.3-0.8c-0.3-0.4-0.8-0.6-1.3-0.8s-1.2-0.3-1.7-0.3
		c-0.7,0-1.4,0.2-2,0.5s-1.1,0.8-1.6,1.5s-0.7,1.5-0.7,2.5v1.6c0,1.2,0.4,2.1,1.3,2.9s2,1.2,3.5,1.2c0.9,0,1.6-0.1,2.3-0.4
		c0.4-0.1,0.7-0.4,1.1-0.8c0.2-0.2,0.4-0.4,0.6-0.5s0.3-0.1,0.5-0.1c0.3,0,0.6,0.1,0.8,0.4s0.4,0.5,0.4,0.9s-0.2,0.7-0.5,1.1
		c-0.5,0.5-1.1,1-1.8,1.3c-1,0.4-2.1,0.6-3.3,0.6c-1.4,0-2.7-0.3-3.8-0.9c-0.9-0.5-1.7-1.2-2.4-2.2s-1-2.1-1-3.3v-1.6
		c0-1.2,0.3-2.4,0.9-3.5s1.4-1.9,2.4-2.5s2.1-0.9,3.3-0.9c0.7,0,1.3,0.1,2,0.2S1212.6,291.4,1213.1,291.7z"/>
	<path d="M1229.8,301.2h-9.9c0.2,0.6,0.7,1.1,1.3,1.5s1.5,0.6,2.6,0.6c0.9,0,2.1-0.2,3.6-0.6c0.6-0.2,1-0.2,1.3-0.2
		c0.3,0,0.6,0.1,0.8,0.3s0.3,0.5,0.3,0.9c0,0.3-0.1,0.6-0.4,0.8c-0.3,0.3-1.1,0.6-2.3,0.8s-2.4,0.4-3.5,0.4c-1.9,0-3.5-0.5-4.6-1.6
		s-1.7-2.4-1.7-4c0-1.7,0.6-3.1,1.9-4.1s2.7-1.6,4.3-1.6c1,0,1.9,0.2,2.7,0.5s1.4,0.7,1.8,1.1c0.6,0.6,1,1.3,1.4,2.1
		c0.2,0.6,0.4,1.3,0.4,2.1V301.2z M1227.1,298.8c-0.4-0.7-0.8-1.2-1.4-1.5s-1.3-0.5-2.1-0.5c-0.8,0-1.5,0.2-2.1,0.5
		s-1.1,0.9-1.5,1.5H1227.1z"/>
	<path d="M1235.7,294.7v0.8c0.4-0.4,0.9-0.7,1.4-0.8s1.1-0.3,1.7-0.3c1.4,0,2.5,0.4,3.4,1.3c0.7,0.7,1,1.6,1,2.8v4.5
		c0.5,0,0.9,0.1,1.1,0.3s0.4,0.5,0.4,0.9c0,0.4-0.1,0.6-0.4,0.9s-0.7,0.3-1.2,0.3h-2.2c-0.6,0-1-0.1-1.2-0.3s-0.4-0.5-0.4-0.9
		c0-0.4,0.1-0.6,0.4-0.9s0.6-0.3,1.1-0.3v-4.5c0-0.5-0.1-0.9-0.4-1.1c-0.4-0.3-0.9-0.5-1.7-0.5c-0.6,0-1,0.1-1.5,0.3
		s-0.9,0.7-1.6,1.4v4.5c0.6,0,1,0.1,1.2,0.2c0.4,0.2,0.6,0.6,0.6,1c0,0.4-0.1,0.6-0.4,0.9s-0.7,0.3-1.2,0.3h-2.7
		c-0.6,0-1-0.1-1.2-0.3s-0.4-0.5-0.4-0.9c0-0.4,0.2-0.8,0.6-1c0.2-0.1,0.6-0.2,1.2-0.2v-5.8c-0.5,0-0.9-0.1-1.1-0.3
		s-0.4-0.5-0.4-0.9s0.1-0.6,0.4-0.9s0.7-0.3,1.2-0.3H1235.7z"/>
	<path d="M1252,297.1v4.8c0,0.5,0.1,0.9,0.3,1c0.3,0.3,0.9,0.4,1.8,0.4c1.2,0,2.4-0.3,3.4-0.8c0.4-0.2,0.7-0.3,0.9-0.3
		c0.3,0,0.6,0.1,0.8,0.4s0.3,0.5,0.3,0.9c0,0.3-0.1,0.6-0.4,0.8c-0.4,0.4-1.1,0.7-2.3,1s-2.1,0.5-2.9,0.5c-1.5,0-2.6-0.3-3.4-1
		s-1.1-1.4-1.1-2.4v-5.3h-0.9c-0.6,0-1-0.1-1.2-0.3s-0.4-0.5-0.4-0.9c0-0.4,0.1-0.6,0.4-0.9s0.7-0.3,1.2-0.3h0.9v-2.2
		c0-0.6,0.1-1,0.3-1.2s0.5-0.4,0.9-0.4c0.4,0,0.6,0.1,0.9,0.4s0.3,0.7,0.3,1.2v2.2h4.4c0.6,0,1,0.1,1.2,0.3s0.4,0.5,0.4,0.9
		c0,0.4-0.1,0.6-0.4,0.9s-0.7,0.3-1.2,0.3H1252z"/>
	<path d="M1273,301.2h-9.9c0.2,0.6,0.7,1.1,1.3,1.5s1.5,0.6,2.6,0.6c0.9,0,2.1-0.2,3.6-0.6c0.6-0.2,1-0.2,1.3-0.2
		c0.3,0,0.6,0.1,0.8,0.3s0.3,0.5,0.3,0.9c0,0.3-0.1,0.6-0.4,0.8c-0.3,0.3-1.1,0.6-2.3,0.8s-2.4,0.4-3.5,0.4c-1.9,0-3.5-0.5-4.6-1.6
		s-1.7-2.4-1.7-4c0-1.7,0.6-3.1,1.9-4.1s2.7-1.6,4.3-1.6c1,0,1.9,0.2,2.7,0.5s1.4,0.7,1.8,1.1c0.6,0.6,1,1.3,1.4,2.1
		c0.2,0.6,0.4,1.3,0.4,2.1V301.2z M1270.3,298.8c-0.4-0.7-0.8-1.2-1.4-1.5s-1.3-0.5-2.1-0.5c-0.8,0-1.5,0.2-2.1,0.5
		s-1.1,0.9-1.5,1.5H1270.3z"/>
	<path d="M1280.9,294.7v1.5c1-0.7,1.8-1.2,2.4-1.5s1.1-0.4,1.6-0.4c0.8,0,1.5,0.3,2.3,0.9c0.5,0.4,0.8,0.8,0.8,1.2
		c0,0.3-0.1,0.6-0.4,0.9s-0.5,0.4-0.9,0.4c-0.3,0-0.6-0.1-0.9-0.4s-0.6-0.4-0.9-0.4c-0.3,0-0.8,0.2-1.5,0.6s-1.5,1.1-2.5,1.9v3.6
		h3.4c0.6,0,1,0.1,1.2,0.3s0.4,0.5,0.4,0.9c0,0.4-0.1,0.6-0.4,0.9s-0.7,0.3-1.2,0.3h-7.3c-0.6,0-1-0.1-1.2-0.3s-0.4-0.5-0.4-0.9
		c0-0.4,0.1-0.6,0.4-0.9s0.7-0.3,1.2-0.3h1.4v-5.8h-0.9c-0.6,0-1-0.1-1.2-0.3s-0.4-0.5-0.4-0.9c0-0.4,0.1-0.6,0.4-0.9
		s0.7-0.3,1.2-0.3H1280.9z"/>
</g>
<g class="st5">
	<path d="M612.1,1195.3v3.5h6.1v-1.3c0-0.6,0.1-1,0.3-1.2s0.5-0.4,0.9-0.4c0.4,0,0.6,0.1,0.9,0.4s0.3,0.7,0.3,1.2v3.7h-11.3
		c-0.6,0-1-0.1-1.2-0.3s-0.4-0.5-0.4-0.9c0-0.4,0.1-0.6,0.4-0.9s0.7-0.3,1.2-0.3h0.4v-9.4h-0.4c-0.6,0-1-0.1-1.2-0.3
		s-0.4-0.5-0.4-0.9s0.1-0.7,0.4-0.9s0.7-0.3,1.2-0.3l10.8,0v3.7c0,0.6-0.1,1-0.3,1.2s-0.5,0.4-0.9,0.4s-0.7-0.1-0.9-0.4
		s-0.3-0.7-0.3-1.2v-1.3h-5.6v3.5h2.1c0-0.6,0.1-1,0.2-1.2c0.2-0.4,0.6-0.6,1-0.6c0.4,0,0.6,0.1,0.9,0.4s0.3,0.7,0.3,1.2v2.8
		c0,0.5-0.1,0.9-0.2,1.1c-0.2,0.4-0.6,0.6-1,0.6c-0.4,0-0.8-0.2-1-0.6c-0.1-0.2-0.2-0.6-0.2-1.2H612.1z"/>
	<path d="M626.5,1190.6v0.8c0.4-0.4,0.9-0.7,1.4-0.8s1.1-0.3,1.7-0.3c1.4,0,2.5,0.4,3.4,1.3c0.7,0.7,1,1.6,1,2.8v4.5
		c0.5,0,0.9,0.1,1.1,0.3s0.4,0.5,0.4,0.9c0,0.4-0.1,0.6-0.4,0.9s-0.7,0.3-1.2,0.3h-2.2c-0.6,0-1-0.1-1.2-0.3s-0.4-0.5-0.4-0.9
		c0-0.4,0.1-0.6,0.4-0.9s0.6-0.3,1.1-0.3v-4.5c0-0.5-0.1-0.9-0.4-1.1c-0.4-0.3-0.9-0.5-1.7-0.5c-0.6,0-1,0.1-1.5,0.3
		s-0.9,0.7-1.6,1.4v4.5c0.6,0,1,0.1,1.2,0.2c0.4,0.2,0.6,0.6,0.6,1c0,0.4-0.1,0.6-0.4,0.9s-0.7,0.3-1.2,0.3h-2.7
		c-0.6,0-1-0.1-1.2-0.3s-0.4-0.5-0.4-0.9c0-0.4,0.2-0.8,0.6-1c0.2-0.1,0.6-0.2,1.2-0.2v-5.8c-0.5,0-0.9-0.1-1.1-0.3
		s-0.4-0.5-0.4-0.9s0.1-0.6,0.4-0.9s0.7-0.3,1.2-0.3H626.5z"/>
	<path d="M648.9,1186v12.8h0.4c0.6,0,1,0.1,1.2,0.3s0.4,0.5,0.4,0.9c0,0.4-0.1,0.6-0.4,0.9s-0.7,0.3-1.2,0.3h-2.8v-0.6
		c-0.5,0.3-1.1,0.6-1.7,0.7s-1.2,0.2-1.9,0.2c-1.8,0-3.3-0.5-4.4-1.6s-1.7-2.3-1.7-3.9c0-1.6,0.6-3,1.7-4.2s2.6-1.7,4.2-1.7
		c0.6,0,1.2,0.1,1.8,0.3s1.2,0.5,1.8,0.9v-3H646c-0.6,0-1-0.1-1.2-0.3s-0.4-0.5-0.4-0.9c0-0.4,0.1-0.7,0.4-0.9s0.7-0.3,1.2-0.3
		H648.9z M646.5,1196.2c0-1-0.3-1.8-1-2.5s-1.5-1-2.6-1c-1,0-1.8,0.3-2.5,1s-1,1.5-1,2.5c0,0.9,0.3,1.6,0.9,2.2s1.5,0.8,2.6,0.8
		c1.1,0,2-0.3,2.6-0.8S646.5,1197.1,646.5,1196.2z"/>
	<path d="M677.6,1189.4v6.8c0,1.5-0.5,2.7-1.6,3.8s-2.3,1.6-3.8,1.6c-0.7,0-1.4-0.1-2.1-0.4s-1.2-0.6-1.8-1.2s-0.9-1-1.2-1.6
		s-0.4-1.3-0.4-2.2v-6.8c-0.5,0-0.9-0.1-1.1-0.3s-0.4-0.5-0.4-0.9c0-0.4,0.1-0.6,0.4-0.9s0.7-0.3,1.2-0.3l3.2,0c0.6,0,1,0.1,1.2,0.3
		s0.4,0.5,0.4,0.9s-0.1,0.7-0.4,0.9s-0.7,0.3-1.2,0.3h-0.9v7c0,0.7,0.3,1.4,0.9,1.9s1.3,0.8,2.2,0.8c0.6,0,1.1-0.1,1.6-0.4
		s0.9-0.7,1.2-1.2c0.2-0.3,0.3-0.7,0.3-1.2v-7h-0.9c-0.6,0-1-0.1-1.2-0.3s-0.4-0.5-0.4-0.9s0.1-0.7,0.4-0.9s0.7-0.3,1.2-0.3l3.2,0
		c0.6,0,1,0.1,1.2,0.3s0.4,0.5,0.4,0.9c0,0.4-0.1,0.6-0.4,0.9S678.1,1189.4,677.6,1189.4z"/>
	<path d="M689.1,1193.4c-0.4-0.2-0.8-0.4-1.2-0.5s-0.9-0.2-1.3-0.2c-0.9,0-1.7,0.2-2.2,0.5c-0.2,0.1-0.4,0.3-0.4,0.4
		c0,0.2,0.2,0.4,0.5,0.5c0.2,0.1,0.8,0.2,1.7,0.4c1.6,0.2,2.7,0.4,3.3,0.7c0.8,0.3,1.5,0.7,1.9,1.3s0.7,1.2,0.7,1.8
		c0,0.9-0.4,1.6-1.1,2.2c-1.1,0.8-2.5,1.3-4.2,1.3c-0.7,0-1.3-0.1-1.9-0.2s-1.1-0.3-1.6-0.5c-0.1,0.1-0.2,0.2-0.4,0.2
		s-0.3,0.1-0.4,0.1c-0.4,0-0.7-0.1-0.9-0.4s-0.3-0.7-0.3-1.2v-0.8c0-0.6,0.1-1,0.3-1.2s0.5-0.4,0.9-0.4c0.3,0,0.5,0.1,0.7,0.2
		s0.3,0.4,0.5,0.8c0.4,0.3,0.8,0.5,1.3,0.7s1.1,0.2,1.8,0.2c1.1,0,2-0.2,2.6-0.5c0.3-0.2,0.4-0.4,0.4-0.5c0-0.3-0.2-0.6-0.6-0.8
		s-1.3-0.4-2.6-0.5c-1.9-0.2-3.2-0.6-3.9-1.2c-0.6-0.6-1-1.3-1-2.1c0-0.9,0.4-1.6,1.1-2.1c1-0.8,2.3-1.2,3.9-1.2
		c0.6,0,1.1,0.1,1.6,0.2s1,0.3,1.5,0.5c0.1-0.1,0.3-0.2,0.4-0.2s0.2-0.1,0.4-0.1c0.3,0,0.6,0.1,0.8,0.4s0.3,0.7,0.3,1.2v0.6
		c0,0.5-0.1,0.9-0.2,1.1c-0.2,0.4-0.6,0.5-1,0.5c-0.3,0-0.5-0.1-0.8-0.3S689.2,1193.7,689.1,1193.4z"/>
	<path d="M707,1197.1h-9.9c0.2,0.6,0.7,1.1,1.3,1.5s1.5,0.6,2.6,0.6c0.9,0,2.1-0.2,3.6-0.6c0.6-0.2,1-0.2,1.3-0.2
		c0.3,0,0.6,0.1,0.8,0.3s0.3,0.5,0.3,0.9c0,0.3-0.1,0.6-0.4,0.8c-0.3,0.3-1.1,0.6-2.3,0.8s-2.4,0.4-3.5,0.4c-1.9,0-3.5-0.5-4.6-1.6
		s-1.7-2.4-1.7-4c0-1.7,0.6-3.1,1.9-4.1s2.7-1.6,4.3-1.6c1,0,1.9,0.2,2.7,0.5s1.4,0.7,1.8,1.1c0.6,0.6,1,1.3,1.4,2.1
		c0.2,0.6,0.4,1.3,0.4,2.1V1197.1z M704.3,1194.7c-0.4-0.7-0.8-1.2-1.4-1.5s-1.3-0.5-2.1-0.5c-0.8,0-1.5,0.2-2.1,0.5
		s-1.1,0.9-1.5,1.5H704.3z"/>
	<path d="M714.9,1190.6v1.5c1-0.7,1.8-1.2,2.4-1.5s1.1-0.4,1.6-0.4c0.8,0,1.5,0.3,2.3,0.9c0.5,0.4,0.8,0.8,0.8,1.2
		c0,0.3-0.1,0.6-0.4,0.9s-0.5,0.4-0.9,0.4c-0.3,0-0.6-0.1-0.9-0.4s-0.6-0.4-0.9-0.4c-0.3,0-0.8,0.2-1.5,0.6s-1.5,1.1-2.5,1.9v3.6
		h3.4c0.6,0,1,0.1,1.2,0.3s0.4,0.5,0.4,0.9c0,0.4-0.1,0.6-0.4,0.9s-0.7,0.3-1.2,0.3H711c-0.6,0-1-0.1-1.2-0.3s-0.4-0.5-0.4-0.9
		c0-0.4,0.1-0.6,0.4-0.9s0.7-0.3,1.2-0.3h1.4v-5.8h-0.9c-0.6,0-1-0.1-1.2-0.3s-0.4-0.5-0.4-0.9c0-0.4,0.1-0.6,0.4-0.9
		s0.7-0.3,1.2-0.3H714.9z"/>
	<path d="M738.8,1198.8v-9.4c-0.5,0-0.9-0.1-1.1-0.3s-0.4-0.5-0.4-0.9c0-0.4,0.1-0.7,0.4-0.9s0.7-0.3,1.2-0.3l5,0
		c0.8,0,1.5,0.1,2.3,0.4s1.3,0.7,1.8,1.1c0.3,0.3,0.7,0.8,1.1,1.4s0.7,1.2,0.8,1.7s0.3,1.3,0.3,2.1v1.1c0,1-0.2,1.9-0.5,2.7
		s-0.8,1.4-1.4,1.9s-1.1,0.9-1.6,1.1c-0.8,0.4-1.8,0.6-3,0.6h-4.8c-0.6,0-1-0.1-1.2-0.3s-0.4-0.5-0.4-0.9c0-0.4,0.1-0.6,0.4-0.9
		S738.3,1198.8,738.8,1198.8z M741.2,1198.8h2.6c1,0,1.7-0.1,2.2-0.4c0.6-0.4,1.1-0.8,1.4-1.4s0.5-1.3,0.5-2.2v-1.1
		c0-0.8-0.1-1.4-0.4-2c-0.5-0.9-1-1.5-1.5-1.8s-1.3-0.5-2.1-0.5h-2.5V1198.8z"/>
	<path d="M764.6,1197.1h-9.9c0.2,0.6,0.7,1.1,1.3,1.5s1.5,0.6,2.6,0.6c0.9,0,2.1-0.2,3.6-0.6c0.6-0.2,1-0.2,1.3-0.2
		c0.3,0,0.6,0.1,0.8,0.3s0.3,0.5,0.3,0.9c0,0.3-0.1,0.6-0.4,0.8c-0.3,0.3-1.1,0.6-2.3,0.8s-2.4,0.4-3.5,0.4c-1.9,0-3.5-0.5-4.6-1.6
		s-1.7-2.4-1.7-4c0-1.7,0.6-3.1,1.9-4.1s2.7-1.6,4.3-1.6c1,0,1.9,0.2,2.7,0.5s1.4,0.7,1.8,1.1c0.6,0.6,1,1.3,1.4,2.1
		c0.2,0.6,0.4,1.3,0.4,2.1V1197.1z M761.9,1194.7c-0.4-0.7-0.8-1.2-1.4-1.5s-1.3-0.5-2.1-0.5c-0.8,0-1.5,0.2-2.1,0.5
		s-1.1,0.9-1.5,1.5H761.9z"/>
	<path d="M773,1198.3l2.6-5.3c-0.6,0-1.1-0.1-1.2-0.2c-0.4-0.2-0.6-0.6-0.6-1c0-0.4,0.1-0.6,0.4-0.9s0.7-0.3,1.2-0.3h3.3
		c0.6,0,1,0.1,1.2,0.3s0.4,0.5,0.4,0.9c0,0.4-0.1,0.6-0.4,0.9s-0.7,0.3-1.2,0.3h-0.4l-4,8.2h-2.5l-4-8.2h-0.3c-0.6,0-1-0.1-1.2-0.3
		s-0.4-0.5-0.4-0.9c0-0.4,0.1-0.6,0.4-0.9s0.7-0.3,1.2-0.3h3.2c0.6,0,1,0.1,1.2,0.3s0.4,0.5,0.4,0.9c0,0.4-0.2,0.8-0.6,1
		c-0.2,0.1-0.6,0.2-1.3,0.2L773,1198.3z"/>
	<path d="M788.6,1190.6v8.2h2.9c0.6,0,1,0.1,1.2,0.3s0.4,0.5,0.4,0.9c0,0.4-0.1,0.6-0.4,0.9s-0.7,0.3-1.2,0.3h-8.2
		c-0.6,0-1-0.1-1.2-0.3s-0.4-0.5-0.4-0.9c0-0.4,0.1-0.6,0.4-0.9s0.7-0.3,1.2-0.3h2.9v-5.8h-1.9c-0.6,0-1-0.1-1.2-0.3
		s-0.4-0.5-0.4-0.9c0-0.4,0.1-0.6,0.4-0.9s0.7-0.3,1.2-0.3H788.6z M788.2,1186v2.5h-2.9v-2.5H788.2z"/>
	<path d="M805.5,1191c0.3-0.3,0.6-0.4,0.9-0.4c0.3,0,0.6,0.1,0.8,0.4s0.3,0.7,0.3,1.2v1.5c0,0.6-0.1,1-0.3,1.2s-0.5,0.4-0.9,0.4
		c-0.3,0-0.6-0.1-0.8-0.3c-0.2-0.1-0.3-0.4-0.4-0.9s-0.3-0.8-0.7-1c-0.6-0.4-1.4-0.6-2.4-0.6c-1.1,0-2,0.3-2.7,1s-1,1.5-1,2.5
		c0,0.9,0.3,1.7,1,2.2s1.7,0.8,3.3,0.8c1,0,1.8-0.1,2.4-0.3c0.4-0.1,0.7-0.3,1.1-0.6s0.6-0.5,0.9-0.5c0.3,0,0.6,0.1,0.8,0.4
		s0.4,0.5,0.4,0.9c0,0.5-0.4,1-1.1,1.5c-1.1,0.7-2.7,1.1-4.7,1.1c-1.9,0-3.3-0.4-4.4-1.2c-1.4-1-2.1-2.5-2.1-4.3
		c0-1.7,0.6-3.1,1.7-4.2s2.6-1.7,4.5-1.7c0.7,0,1.3,0.1,1.9,0.2S805,1190.7,805.5,1191z"/>
	<path d="M822.2,1197.1h-9.9c0.2,0.6,0.7,1.1,1.3,1.5s1.5,0.6,2.6,0.6c0.9,0,2.1-0.2,3.6-0.6c0.6-0.2,1-0.2,1.3-0.2
		c0.3,0,0.6,0.1,0.8,0.3s0.3,0.5,0.3,0.9c0,0.3-0.1,0.6-0.4,0.8c-0.3,0.3-1.1,0.6-2.3,0.8s-2.4,0.4-3.5,0.4c-1.9,0-3.5-0.5-4.6-1.6
		s-1.7-2.4-1.7-4c0-1.7,0.6-3.1,1.9-4.1s2.7-1.6,4.3-1.6c1,0,1.9,0.2,2.7,0.5s1.4,0.7,1.8,1.1c0.6,0.6,1,1.3,1.4,2.1
		c0.2,0.6,0.4,1.3,0.4,2.1V1197.1z M819.5,1194.7c-0.4-0.7-0.8-1.2-1.4-1.5s-1.3-0.5-2.1-0.5c-0.8,0-1.5,0.2-2.1,0.5
		s-1.1,0.9-1.5,1.5H819.5z"/>
</g>
<path class="st3" d="M1203.2,1066H588.5c-19.1,0-34.5,15.5-34.5,34.6l0,0v90.9c0,19.1,15.4,34.5,34.5,34.5h219
	c19.1,0,34.5,15.5,34.5,34.6l0,0l0,0"/>
<path class="st3" d="M1039.1,755.3h-41.5l41.5,54.7v20.7h474.3c19.1,0,34.6,15.4,34.6,34.5v166.3c0,19.1-15.5,34.6-34.5,34.6h0
	h-200.1"/>
<path class="st3" d="M799.8,578.7l487.4,0.1c19.1,0,34.6-15.5,34.6-34.5c0,0,0,0,0,0V362.4c0-19.1-15.5-34.5-34.6-34.5l0,0h-150.8
	c-19.1,0-34.6,15.5-34.6,34.5v0v59.7c0,19.1-15.5,34.5-34.6,34.5l0,0h-67.5"/>
<path class="st3" d="M439,830.7h-32.4c-19.1,0-34.6-15.4-34.6-34.5c0,0,0,0,0,0V613.4c0-19.1,15.5-34.5,34.5-34.5c0,0,0,0,0,0
	l275.8-0.1"/>
<polyline class="st3" points="905.8,755.3 947.3,755.3 905.8,810 905.8,830.7 540.8,830.7 "/>
<polyline class="st6" points="439,830.7 459.3,830.7 466.4,818 479.2,844.7 491.7,806.1 502.3,834 511.2,812.4 520.4,830.7 
	540.8,830.7 "/>
<polyline class="st6" points="1203.2,1066 1223.2,1066 1233.2,1046.8 1243.7,1077.1 1252.2,1061.2 1261.4,1086.2 1275.6,1051.4 
	1287.7,1077 1293.2,1066 1313.3,1066 "/>
<polyline class="st6" points="682.4,578.7 703.7,578.7 711.5,562.9 726.7,594.8 738.3,567.2 746.4,584.2 759.3,553.5 771.3,591.8 
	778.5,578.7 799.8,578.7 "/>
<path d="M882.7,233.6h179.6c5.1,0,9.3,4.2,9.3,9.3v30.6c0,5.1-4.2,9.3-9.3,9.3H882.7c-5.1,0-9.3-4.2-9.3-9.3v-30.6
	C873.3,237.7,877.5,233.6,882.7,233.6z"/>
<circle class="st7" cx="1046" cy="258.2" r="9.6"/>
<line class="st8" x1="889.9" y1="247.4" x2="889.9" y2="268.9"/>
<line class="st8" x1="900" y1="247.4" x2="900" y2="268.9"/>
<line class="st8" x1="910.1" y1="247.4" x2="910.1" y2="268.9"/>
<line class="st8" x1="920.2" y1="247.4" x2="920.2" y2="268.9"/>
<line class="st8" x1="930.2" y1="247.4" x2="930.2" y2="268.9"/>
<line class="st8" x1="950.4" y1="247.4" x2="950.4" y2="268.9"/>
<line class="st8" x1="940.3" y1="247.4" x2="940.3" y2="268.9"/>
<path d="M882.7,303.2h179.6c5.1,0,9.3,4.2,9.3,9.3v30.6c0,5.1-4.2,9.3-9.3,9.3H882.7c-5.1,0-9.3-4.2-9.3-9.3v-30.6
	C873.3,307.4,877.5,303.2,882.7,303.2z"/>
<circle class="st7" cx="1046" cy="327.9" r="9.6"/>
<path d="M882.7,373.9h179.6c5.1,0,9.3,4.2,9.3,9.3v30.6c0,5.1-4.2,9.3-9.3,9.3H882.7c-5.1,0-9.3-4.2-9.3-9.3v-30.6
	C873.3,378.1,877.5,373.9,882.7,373.9z"/>
<circle class="st7" cx="1046" cy="398.5" r="9.6"/>
<rect x="945.2" y="444.6" width="54.5" height="24.3"/>
<line class="st8" x1="889.9" y1="317.1" x2="889.9" y2="338.6"/>
<line class="st8" x1="900" y1="317.1" x2="900" y2="338.6"/>
<line class="st8" x1="910.1" y1="317.1" x2="910.1" y2="338.6"/>
<line class="st8" x1="920.2" y1="317.1" x2="920.2" y2="338.6"/>
<line class="st8" x1="930.2" y1="317.1" x2="930.2" y2="338.6"/>
<line class="st8" x1="950.4" y1="317.1" x2="950.4" y2="338.6"/>
<line class="st8" x1="940.3" y1="317.1" x2="940.3" y2="338.6"/>
<line class="st8" x1="889.9" y1="387.8" x2="889.9" y2="409.3"/>
<line class="st8" x1="900" y1="387.8" x2="900" y2="409.3"/>
<line class="st8" x1="910.1" y1="387.8" x2="910.1" y2="409.3"/>
<line class="st8" x1="920.2" y1="387.8" x2="920.2" y2="409.3"/>
<line class="st8" x1="930.2" y1="387.8" x2="930.2" y2="409.3"/>
<line class="st8" x1="950.4" y1="387.8" x2="950.4" y2="409.3"/>
<line class="st8" x1="940.3" y1="387.8" x2="940.3" y2="409.3"/>
</svg>
