<?xml version="1.0" encoding="utf-8"?>
<!-- Generator: Adobe Illustrator 26.0.1, SVG Export Plug-In . SVG Version: 6.00 Build 0)  -->
<svg version="1.1" id="Layer_1" xmlns="http://www.w3.org/2000/svg" xmlns:xlink="http://www.w3.org/1999/xlink" x="0px" y="0px"
	 viewBox="0 0 1920 974.8" style="enable-background:new 0 0 1920 974.8;" xml:space="preserve">
<style type="text/css">
	.st0{fill:#76A0DD;}
	.st1{fill:none;stroke:#000000;stroke-width:3.2;stroke-miterlimit:10;}
	.st2{enable-background:new    ;}
	.st3{fill:#E7846D;stroke:#000000;stroke-width:3.2;stroke-miterlimit:10;}
	.st4{fill:#FBBBDA;stroke:#000000;stroke-width:3.2;stroke-miterlimit:10;}
	.st5{fill:#FFF9E8;}
	.st6{fill:#FFF9E8;stroke:#000000;stroke-width:4;stroke-miterlimit:10;}
</style>
<rect class="st0" width="1920" height="974.8"/>
<line class="st1" x1="393.9" y1="728.6" x2="1562.9" y2="728.6"/>
<line class="st1" x1="393.9" y1="728.6" x2="393.9" y2="715.1"/>
<g class="st2">
	<path d="M351,606v2.1c0,1.2-0.4,2.4-1.1,3.6c-0.7,1.1-1.8,1.7-3.1,1.7c-0.8,0-1.4-0.2-2-0.5c-0.5-0.3-1-1-1.5-1.9
		c-0.5-0.9-0.7-1.9-0.7-2.9V606c0-1.2,0.4-2.4,1.1-3.6c0.7-1.1,1.7-1.7,3.1-1.7c0.8,0,1.4,0.2,2,0.5c0.5,0.3,1,1,1.5,1.9
		S351,604.9,351,606z M349,606c0-1-0.3-2-0.9-2.7c-0.3-0.4-0.8-0.6-1.4-0.6c-0.6,0-1.1,0.2-1.4,0.7c-0.6,0.7-0.8,1.6-0.8,2.7v2.1
		c0,1.1,0.3,2,0.9,2.7c0.3,0.4,0.8,0.6,1.4,0.6c0.6,0,1-0.2,1.4-0.7c0.6-0.7,0.8-1.6,0.8-2.7V606z"/>
	<path d="M359.7,610.5h2.6l-2.8,5.2c-0.2,0.3-0.4,0.5-0.6,0.5c-0.2,0-0.3-0.1-0.4-0.2c-0.1-0.1-0.2-0.2-0.2-0.4c0-0.1,0-0.2,0.1-0.4
		L359.7,610.5z"/>
	<path d="M372,602.9v2.3c0.7-0.2,1.4-0.3,1.9-0.3c1.2,0,2.2,0.4,2.9,1.2c0.8,0.8,1.2,1.8,1.2,3.1c0,1.3-0.4,2.3-1.2,3.1
		c-0.8,0.7-2,1.1-3.6,1.1c-1.4,0-2.6-0.3-3.4-0.8c-0.5-0.3-0.7-0.7-0.7-1.1c0-0.3,0.1-0.5,0.3-0.7c0.2-0.2,0.4-0.3,0.7-0.3
		c0.2,0,0.5,0.1,0.7,0.3c0.3,0.2,0.5,0.4,0.8,0.4c0.4,0.1,0.9,0.2,1.5,0.2c1.2,0,2-0.2,2.4-0.6c0.4-0.4,0.6-0.9,0.6-1.7
		c0-0.8-0.2-1.4-0.6-1.8c-0.4-0.4-0.9-0.6-1.6-0.6c-0.7,0-1.5,0.2-2.4,0.7c-0.2,0.1-0.4,0.2-0.5,0.2c-0.3,0-0.5-0.1-0.7-0.3
		c-0.2-0.2-0.3-0.5-0.3-0.8V601h5.9c0.5,0,0.8,0.1,1,0.3c0.2,0.2,0.3,0.4,0.3,0.7c0,0.3-0.1,0.5-0.3,0.7c-0.2,0.2-0.5,0.3-1,0.3H372
		z"/>
</g>
<g class="st2">
	<path d="M352.6,466.3v10.5h1.9c0.5,0,0.8,0.1,1,0.3c0.2,0.2,0.3,0.4,0.3,0.7c0,0.3-0.1,0.5-0.3,0.7c-0.2,0.2-0.5,0.3-1,0.3h-5.8
		c-0.5,0-0.8-0.1-1-0.3c-0.2-0.2-0.3-0.4-0.3-0.7c0-0.3,0.1-0.5,0.3-0.7c0.2-0.2,0.5-0.3,1-0.3h1.9v-8l-1.7,0.5
		c-0.3,0.1-0.5,0.1-0.6,0.1c-0.2,0-0.5-0.1-0.6-0.3c-0.2-0.2-0.3-0.4-0.3-0.7c0-0.3,0.1-0.5,0.2-0.6c0.1-0.1,0.4-0.3,0.8-0.4
		L352.6,466.3z"/>
	<path d="M364.6,476.1h2.6l-2.8,5.2c-0.2,0.3-0.4,0.5-0.6,0.5c-0.2,0-0.3-0.1-0.4-0.2c-0.1-0.1-0.2-0.2-0.2-0.4c0-0.1,0-0.2,0.1-0.4
		L364.6,476.1z"/>
	<path d="M382.7,471.6v2.1c0,1.2-0.4,2.4-1.1,3.6c-0.7,1.1-1.8,1.7-3.1,1.7c-0.8,0-1.4-0.2-2-0.5c-0.5-0.3-1-1-1.5-1.9
		c-0.5-0.9-0.7-1.9-0.7-2.9v-2.1c0-1.2,0.4-2.4,1.1-3.6c0.7-1.1,1.7-1.7,3.1-1.7c0.8,0,1.4,0.2,2,0.5c0.5,0.3,1,1,1.5,1.9
		S382.7,470.5,382.7,471.6z M380.8,471.6c0-1-0.3-2-0.9-2.7c-0.3-0.4-0.8-0.6-1.4-0.6c-0.6,0-1.1,0.2-1.4,0.7
		c-0.6,0.7-0.8,1.6-0.8,2.7v2.1c0,1.1,0.3,2,0.9,2.7c0.3,0.4,0.8,0.6,1.4,0.6c0.6,0,1-0.2,1.4-0.7c0.6-0.7,0.8-1.6,0.8-2.7V471.6z"
		/>
</g>
<g class="st2">
	<path d="M352.6,331.9v10.5h1.9c0.5,0,0.8,0.1,1,0.3c0.2,0.2,0.3,0.4,0.3,0.7c0,0.3-0.1,0.5-0.3,0.7c-0.2,0.2-0.5,0.3-1,0.3h-5.8
		c-0.5,0-0.8-0.1-1-0.3c-0.2-0.2-0.3-0.4-0.3-0.7c0-0.3,0.1-0.5,0.3-0.7c0.2-0.2,0.5-0.3,1-0.3h1.9v-8l-1.7,0.5
		c-0.3,0.1-0.5,0.1-0.6,0.1c-0.2,0-0.5-0.1-0.6-0.3c-0.2-0.2-0.3-0.4-0.3-0.7c0-0.3,0.1-0.5,0.2-0.6c0.1-0.1,0.4-0.3,0.8-0.4
		L352.6,331.9z"/>
	<path d="M364.6,341.7h2.6l-2.8,5.2c-0.2,0.3-0.4,0.5-0.6,0.5c-0.2,0-0.3-0.1-0.4-0.2c-0.1-0.1-0.2-0.2-0.2-0.4c0-0.1,0-0.2,0.1-0.4
		L364.6,341.7z"/>
	<path d="M376.9,334.1v2.3c0.7-0.2,1.4-0.3,1.9-0.3c1.2,0,2.2,0.4,2.9,1.2c0.8,0.8,1.2,1.8,1.2,3.1c0,1.3-0.4,2.3-1.2,3.1
		c-0.8,0.7-2,1.1-3.6,1.1c-1.4,0-2.6-0.3-3.4-0.8c-0.5-0.3-0.7-0.7-0.7-1.1c0-0.3,0.1-0.5,0.3-0.7c0.2-0.2,0.4-0.3,0.7-0.3
		c0.2,0,0.5,0.1,0.7,0.3c0.3,0.2,0.5,0.4,0.8,0.4c0.4,0.1,0.9,0.2,1.5,0.2c1.2,0,2-0.2,2.4-0.6c0.4-0.4,0.6-0.9,0.6-1.7
		c0-0.8-0.2-1.4-0.6-1.8c-0.4-0.4-0.9-0.6-1.6-0.6c-0.7,0-1.5,0.2-2.4,0.7c-0.2,0.1-0.4,0.2-0.5,0.2c-0.3,0-0.5-0.1-0.7-0.3
		c-0.2-0.2-0.3-0.5-0.3-0.8v-5.5h5.9c0.5,0,0.8,0.1,1,0.3c0.2,0.2,0.3,0.4,0.3,0.7c0,0.3-0.1,0.5-0.3,0.7c-0.2,0.2-0.5,0.3-1,0.3
		H376.9z"/>
</g>
<g class="st2">
	<path d="M345,208h4.2c0.2-0.2,0.5-0.3,0.7-0.3c0.3,0,0.5,0.1,0.7,0.3c0.2,0.2,0.3,0.5,0.3,1v0.9h-8.8v-2c3.5-2.9,5.6-4.7,6.3-5.5
		c0.4-0.4,0.5-0.8,0.5-1.2c0-0.5-0.2-0.9-0.6-1.2c-0.4-0.4-1-0.5-1.6-0.5c-0.7,0-1.3,0.2-1.7,0.6c-0.2,0.2-0.4,0.5-0.6,0.9
		c-0.1,0.3-0.2,0.5-0.4,0.6c-0.2,0.1-0.3,0.2-0.6,0.2c-0.3,0-0.5-0.1-0.7-0.3c-0.2-0.2-0.3-0.4-0.3-0.7c0-0.4,0.2-0.8,0.5-1.4
		c0.3-0.6,0.9-1,1.5-1.4c0.7-0.3,1.4-0.5,2.2-0.5c1.2,0,2.2,0.4,3,1.1c0.8,0.7,1.2,1.6,1.2,2.7c0,0.5-0.1,1-0.3,1.5
		c-0.2,0.5-0.8,1.1-1.6,1.9C348.2,205.3,346.9,206.4,345,208z"/>
	<path d="M359.8,207.4h2.6l-2.8,5.2c-0.2,0.3-0.4,0.5-0.6,0.5c-0.2,0-0.3-0.1-0.4-0.2c-0.1-0.1-0.2-0.2-0.2-0.4c0-0.1,0-0.2,0.1-0.4
		L359.8,207.4z"/>
	<path d="M377.9,202.8v2.1c0,1.2-0.4,2.4-1.1,3.6c-0.7,1.1-1.8,1.7-3.1,1.7c-0.8,0-1.4-0.2-2-0.5c-0.5-0.3-1-1-1.5-1.9
		c-0.5-0.9-0.7-1.9-0.7-2.9v-2.1c0-1.2,0.4-2.4,1.1-3.6c0.7-1.1,1.7-1.7,3.1-1.7c0.8,0,1.4,0.2,2,0.5c0.5,0.3,1,1,1.5,1.9
		S377.9,201.8,377.9,202.8z M375.9,202.8c0-1-0.3-2-0.9-2.7c-0.3-0.4-0.8-0.6-1.4-0.6c-0.6,0-1.1,0.2-1.4,0.7
		c-0.6,0.7-0.8,1.6-0.8,2.7v2.1c0,1.1,0.3,2,0.9,2.7c0.3,0.4,0.8,0.6,1.4,0.6c0.6,0,1-0.2,1.4-0.7c0.6-0.7,0.8-1.6,0.8-2.7V202.8z"
		/>
</g>
<line class="st1" x1="393.9" y1="728.6" x2="393.9" y2="191.1"/>
<line class="st1" x1="393.9" y1="728.6" x2="423.1" y2="728.6"/>
<line class="st1" x1="393.9" y1="594.2" x2="423.1" y2="594.2"/>
<line class="st1" x1="393.9" y1="459.8" x2="423.1" y2="459.8"/>
<line class="st1" x1="393.9" y1="325.4" x2="423.1" y2="325.4"/>
<line class="st1" x1="393.9" y1="191.1" x2="423.1" y2="191.1"/>
<rect x="1268.3" y="561.9" class="st3" width="168.3" height="166.6"/>
<rect x="1081.2" y="535.1" class="st3" width="168.3" height="193.5"/>
<rect x="894.2" y="312" class="st4" width="168.3" height="416.6"/>
<rect x="707.2" y="688.3" class="st3" width="168.3" height="40.3"/>
<rect x="520.1" y="653.3" class="st3" width="168.3" height="75.2"/>
<g class="st2">
	<path class="st5" d="M588.7,622.6v1.9c0,1.1-0.3,2.2-1,3.2c-0.6,1-1.6,1.5-2.7,1.5c-0.7,0-1.3-0.2-1.7-0.5
		c-0.5-0.3-0.9-0.9-1.3-1.7c-0.4-0.8-0.6-1.7-0.6-2.6v-1.9c0-1.1,0.3-2.2,1-3.2s1.5-1.5,2.7-1.5c0.7,0,1.3,0.2,1.7,0.4
		c0.5,0.3,0.9,0.9,1.4,1.7C588.5,620.8,588.7,621.7,588.7,622.6z M587,622.6c0-0.9-0.3-1.7-0.8-2.4c-0.3-0.4-0.7-0.6-1.2-0.6
		c-0.5,0-0.9,0.2-1.3,0.6c-0.5,0.6-0.7,1.4-0.7,2.4v1.9c0,0.9,0.3,1.7,0.8,2.4c0.3,0.4,0.7,0.6,1.2,0.6c0.5,0,0.9-0.2,1.3-0.6
		c0.5-0.6,0.7-1.4,0.7-2.4V622.6z"/>
	<path class="st5" d="M598.2,628.1c0,0.3-0.1,0.6-0.3,0.8s-0.5,0.3-0.9,0.3s-0.7-0.1-0.9-0.3s-0.3-0.5-0.3-0.8
		c0-0.3,0.1-0.6,0.3-0.8s0.5-0.3,0.9-0.3s0.7,0.1,0.9,0.3S598.2,627.8,598.2,628.1z"/>
	<path class="st5" d="M607.2,627.2h3.7c0.2-0.2,0.4-0.2,0.6-0.2c0.3,0,0.5,0.1,0.6,0.3c0.2,0.2,0.2,0.5,0.2,0.9v0.8h-7.8v-1.8
		c3.1-2.5,4.9-4.2,5.6-4.9c0.3-0.4,0.5-0.7,0.5-1.1c0-0.4-0.2-0.8-0.5-1.1c-0.4-0.3-0.8-0.5-1.4-0.5c-0.6,0-1.1,0.2-1.5,0.5
		c-0.2,0.2-0.4,0.5-0.5,0.8c-0.1,0.2-0.2,0.4-0.3,0.5c-0.1,0.1-0.3,0.1-0.5,0.1c-0.2,0-0.4-0.1-0.6-0.2c-0.2-0.2-0.3-0.4-0.3-0.6
		c0-0.3,0.2-0.7,0.5-1.2c0.3-0.5,0.8-0.9,1.3-1.2c0.6-0.3,1.2-0.4,1.9-0.4c1.1,0,2,0.3,2.6,1s1,1.4,1,2.4c0,0.5-0.1,0.9-0.3,1.3
		c-0.2,0.4-0.7,1-1.4,1.7C610.1,624.8,608.9,625.8,607.2,627.2z"/>
	<path class="st5" d="M623.1,623.5c0.4,0.3,0.8,0.7,1,1.2c0.2,0.4,0.3,0.9,0.3,1.4c0,0.6-0.1,1.1-0.4,1.6c-0.3,0.5-0.7,0.9-1.3,1.1
		s-1.3,0.4-2,0.4s-1.4-0.1-2-0.4s-1-0.7-1.3-1.1c-0.3-0.5-0.4-1-0.4-1.6c0-0.5,0.1-1,0.3-1.4c0.2-0.4,0.5-0.8,1-1.2
		c-0.4-0.4-0.7-0.7-0.9-1.1s-0.3-0.8-0.3-1.3c0-0.9,0.3-1.6,1-2.2s1.5-0.9,2.6-0.9s1.9,0.3,2.6,0.9s1,1.4,1,2.2
		c0,0.4-0.1,0.9-0.3,1.3C623.8,622.8,623.5,623.2,623.1,623.5z M622.8,626.2c0-0.4-0.2-0.9-0.6-1.2c-0.4-0.4-0.9-0.5-1.4-0.5
		s-1,0.2-1.4,0.5c-0.4,0.4-0.6,0.8-0.6,1.2c0,0.4,0.2,0.7,0.5,0.9s0.8,0.4,1.5,0.4c0.7,0,1.2-0.1,1.5-0.4
		C622.6,626.8,622.8,626.5,622.8,626.2z M622.6,621.1c0-0.4-0.2-0.8-0.5-1.1c-0.3-0.3-0.8-0.4-1.3-0.4c-0.6,0-1,0.1-1.3,0.4
		c-0.3,0.3-0.5,0.7-0.5,1.1c0,0.4,0.2,0.8,0.5,1.1c0.3,0.3,0.8,0.4,1.3,0.4c0.6,0,1-0.1,1.3-0.4
		C622.4,621.9,622.6,621.6,622.6,621.1z"/>
</g>
<g class="st2">
	<path class="st5" d="M778,664.7v1.9c0,1.1-0.3,2.2-1,3.2c-0.6,1-1.6,1.5-2.7,1.5c-0.7,0-1.3-0.2-1.7-0.5c-0.5-0.3-0.9-0.9-1.3-1.7
		c-0.4-0.8-0.6-1.7-0.6-2.6v-1.9c0-1.1,0.3-2.2,1-3.2s1.5-1.5,2.7-1.5c0.7,0,1.3,0.2,1.7,0.4c0.5,0.3,0.9,0.9,1.4,1.7
		C777.8,662.9,778,663.8,778,664.7z M776.3,664.7c0-0.9-0.3-1.7-0.8-2.4c-0.3-0.4-0.7-0.6-1.2-0.6c-0.5,0-0.9,0.2-1.3,0.6
		c-0.5,0.6-0.7,1.4-0.7,2.4v1.9c0,0.9,0.3,1.7,0.8,2.4c0.3,0.4,0.7,0.6,1.2,0.6c0.5,0,0.9-0.2,1.3-0.6c0.5-0.6,0.7-1.4,0.7-2.4
		V664.7z"/>
	<path class="st5" d="M787.5,670.1c0,0.3-0.1,0.6-0.3,0.8s-0.5,0.3-0.9,0.3s-0.7-0.1-0.9-0.3s-0.3-0.5-0.3-0.8
		c0-0.3,0.1-0.6,0.3-0.8s0.5-0.3,0.9-0.3s0.7,0.1,0.9,0.3S787.5,669.8,787.5,670.1z"/>
	<path class="st5" d="M799,660v9.3h1.7c0.4,0,0.7,0.1,0.9,0.2c0.2,0.2,0.3,0.4,0.3,0.6c0,0.2-0.1,0.5-0.3,0.6
		c-0.2,0.2-0.5,0.2-0.9,0.2h-5.1c-0.4,0-0.7-0.1-0.9-0.2c-0.2-0.2-0.3-0.4-0.3-0.6c0-0.2,0.1-0.5,0.3-0.6c0.2-0.2,0.5-0.2,0.9-0.2
		h1.7v-7.1l-1.5,0.4c-0.2,0.1-0.4,0.1-0.5,0.1c-0.2,0-0.4-0.1-0.6-0.3c-0.2-0.2-0.2-0.4-0.2-0.6c0-0.2,0.1-0.4,0.2-0.5
		s0.4-0.2,0.7-0.3L799,660z"/>
	<path class="st5" d="M808.6,662v2c0.6-0.2,1.2-0.3,1.7-0.3c1,0,1.9,0.4,2.6,1.1s1,1.6,1,2.8c0,1.2-0.4,2.1-1,2.7
		c-0.7,0.7-1.8,1-3.2,1c-1.3,0-2.3-0.2-3-0.7c-0.4-0.3-0.6-0.6-0.6-1c0-0.2,0.1-0.4,0.3-0.6c0.2-0.2,0.4-0.3,0.6-0.3
		c0.2,0,0.4,0.1,0.6,0.3s0.5,0.3,0.7,0.4c0.4,0.1,0.8,0.2,1.4,0.2c1,0,1.7-0.2,2.1-0.5s0.6-0.8,0.6-1.5c0-0.7-0.2-1.2-0.5-1.6
		c-0.4-0.4-0.8-0.6-1.4-0.6c-0.6,0-1.3,0.2-2.1,0.6c-0.2,0.1-0.3,0.1-0.5,0.1c-0.2,0-0.4-0.1-0.6-0.3c-0.2-0.2-0.2-0.4-0.2-0.7v-4.9
		h5.2c0.4,0,0.7,0.1,0.9,0.2c0.2,0.2,0.3,0.4,0.3,0.6c0,0.2-0.1,0.5-0.3,0.6c-0.2,0.2-0.5,0.2-0.9,0.2H808.6z"/>
</g>
<g class="st2">
	<path class="st5" d="M964.5,282.2v9.3h1.7c0.4,0,0.7,0.1,0.9,0.2c0.2,0.2,0.3,0.4,0.3,0.6c0,0.2-0.1,0.5-0.3,0.6
		c-0.2,0.2-0.5,0.2-0.9,0.2h-5.1c-0.4,0-0.7-0.1-0.9-0.2c-0.2-0.2-0.3-0.4-0.3-0.6c0-0.2,0.1-0.5,0.3-0.6c0.2-0.2,0.5-0.2,0.9-0.2
		h1.7v-7.1l-1.5,0.4c-0.2,0.1-0.4,0.1-0.5,0.1c-0.2,0-0.4-0.1-0.6-0.3c-0.2-0.2-0.2-0.4-0.2-0.6c0-0.2,0.1-0.4,0.2-0.5
		s0.4-0.2,0.7-0.3L964.5,282.2z"/>
	<path class="st5" d="M976.9,292.4c0,0.3-0.1,0.6-0.3,0.8c-0.2,0.2-0.5,0.3-0.9,0.3s-0.7-0.1-0.9-0.3c-0.2-0.2-0.3-0.5-0.3-0.8
		c0-0.3,0.1-0.6,0.3-0.8c0.2-0.2,0.5-0.3,0.9-0.3s0.7,0.1,0.9,0.3C976.8,291.8,976.9,292,976.9,292.4z"/>
	<path class="st5" d="M986,284.2v2c0.6-0.2,1.2-0.3,1.7-0.3c1,0,1.9,0.4,2.6,1.1c0.7,0.7,1,1.6,1,2.8c0,1.2-0.3,2.1-1,2.7
		s-1.8,1-3.2,1c-1.3,0-2.3-0.2-3-0.7c-0.4-0.3-0.6-0.6-0.6-1c0-0.2,0.1-0.4,0.3-0.6c0.2-0.2,0.4-0.3,0.6-0.3c0.2,0,0.4,0.1,0.6,0.3
		c0.2,0.2,0.5,0.3,0.7,0.4c0.4,0.1,0.8,0.2,1.4,0.2c1,0,1.7-0.2,2.1-0.5c0.4-0.3,0.6-0.8,0.6-1.5c0-0.7-0.2-1.2-0.5-1.6
		c-0.4-0.4-0.8-0.6-1.4-0.6c-0.6,0-1.3,0.2-2.1,0.6c-0.2,0.1-0.3,0.1-0.5,0.1c-0.2,0-0.4-0.1-0.6-0.3c-0.2-0.2-0.2-0.4-0.2-0.7v-4.9
		h5.2c0.4,0,0.7,0.1,0.9,0.2c0.2,0.2,0.3,0.4,0.3,0.6c0,0.2-0.1,0.5-0.3,0.6c-0.2,0.2-0.5,0.2-0.9,0.2H986z"/>
	<path class="st5" d="M997.9,284.2v2c0.6-0.2,1.2-0.3,1.7-0.3c1,0,1.9,0.4,2.6,1.1c0.7,0.7,1,1.6,1,2.8c0,1.2-0.4,2.1-1,2.7
		c-0.7,0.7-1.8,1-3.2,1c-1.3,0-2.3-0.2-3-0.7c-0.4-0.3-0.6-0.6-0.6-1c0-0.2,0.1-0.4,0.3-0.6s0.4-0.3,0.6-0.3c0.2,0,0.4,0.1,0.6,0.3
		c0.2,0.2,0.5,0.3,0.7,0.4c0.4,0.1,0.8,0.2,1.4,0.2c1,0,1.7-0.2,2.1-0.5c0.4-0.3,0.6-0.8,0.6-1.5c0-0.7-0.2-1.2-0.5-1.6
		c-0.4-0.4-0.8-0.6-1.4-0.6c-0.6,0-1.3,0.2-2.1,0.6c-0.2,0.1-0.3,0.1-0.5,0.1c-0.2,0-0.4-0.1-0.6-0.3c-0.2-0.2-0.2-0.4-0.2-0.7v-4.9
		h5.2c0.4,0,0.7,0.1,0.9,0.2c0.2,0.2,0.3,0.4,0.3,0.6c0,0.2-0.1,0.5-0.3,0.6c-0.2,0.2-0.5,0.2-0.9,0.2H997.9z"/>
</g>
<g class="st2">
	<path class="st5" d="M1152.4,508.5v1.9c0,1.1-0.3,2.2-1,3.2c-0.6,1-1.6,1.5-2.7,1.5c-0.7,0-1.3-0.2-1.7-0.5
		c-0.5-0.3-0.9-0.9-1.3-1.7c-0.4-0.8-0.6-1.7-0.6-2.6v-1.9c0-1.1,0.3-2.2,1-3.2c0.6-1,1.5-1.5,2.7-1.5c0.7,0,1.3,0.2,1.7,0.4
		c0.5,0.3,0.9,0.9,1.4,1.7C1152.2,506.7,1152.4,507.6,1152.4,508.5z M1150.7,508.5c0-0.9-0.3-1.7-0.8-2.4c-0.3-0.4-0.7-0.6-1.2-0.6
		c-0.5,0-0.9,0.2-1.3,0.6c-0.5,0.6-0.7,1.4-0.7,2.4v1.9c0,0.9,0.3,1.7,0.8,2.4c0.3,0.4,0.7,0.6,1.2,0.6c0.5,0,0.9-0.2,1.3-0.6
		c0.5-0.6,0.7-1.4,0.7-2.4V508.5z"/>
	<path class="st5" d="M1161.9,513.9c0,0.3-0.1,0.6-0.3,0.8c-0.2,0.2-0.5,0.3-0.9,0.3s-0.7-0.1-0.9-0.3c-0.2-0.2-0.3-0.5-0.3-0.8
		c0-0.3,0.1-0.6,0.3-0.8c0.2-0.2,0.5-0.3,0.9-0.3s0.7,0.1,0.9,0.3C1161.7,513.4,1161.9,513.6,1161.9,513.9z"/>
	<path class="st5" d="M1174.2,505.8h-3.9c0,0.3-0.1,0.6-0.3,0.7s-0.3,0.2-0.6,0.2c-0.3,0-0.5-0.1-0.6-0.3c-0.2-0.2-0.2-0.5-0.2-0.9
		v-1.5h7.4v1.7l-2.8,8.2c-0.1,0.3-0.2,0.6-0.4,0.7c-0.1,0.1-0.3,0.2-0.5,0.2c-0.2,0-0.4-0.1-0.6-0.2s-0.3-0.4-0.3-0.6
		c0-0.1,0-0.3,0.1-0.6L1174.2,505.8z"/>
	<path class="st5" d="M1182.8,513.1h3.7c0.2-0.2,0.4-0.2,0.6-0.2c0.3,0,0.5,0.1,0.6,0.3c0.2,0.2,0.2,0.5,0.2,0.9v0.8h-7.8V513
		c3.1-2.5,4.9-4.2,5.6-4.9c0.3-0.4,0.5-0.7,0.5-1.1c0-0.4-0.2-0.8-0.5-1.1s-0.8-0.5-1.4-0.5c-0.6,0-1.1,0.2-1.5,0.5
		c-0.2,0.2-0.4,0.5-0.5,0.8c-0.1,0.2-0.2,0.4-0.3,0.5c-0.1,0.1-0.3,0.1-0.5,0.1c-0.2,0-0.4-0.1-0.6-0.2s-0.3-0.4-0.3-0.6
		c0-0.3,0.2-0.7,0.5-1.2c0.3-0.5,0.8-0.9,1.3-1.2c0.6-0.3,1.2-0.4,1.9-0.4c1.1,0,2,0.3,2.6,1c0.7,0.7,1,1.4,1,2.4
		c0,0.5-0.1,0.9-0.3,1.3c-0.2,0.4-0.7,1-1.4,1.7C1185.6,510.7,1184.5,511.7,1182.8,513.1z"/>
</g>
<g class="st2">
	<path class="st5" d="M1339.2,539v1.9c0,1.1-0.3,2.2-1,3.2c-0.6,1-1.6,1.5-2.7,1.5c-0.7,0-1.3-0.2-1.7-0.5c-0.5-0.3-0.9-0.9-1.3-1.7
		c-0.4-0.8-0.6-1.7-0.6-2.6V539c0-1.1,0.3-2.2,1-3.2c0.6-1,1.5-1.5,2.7-1.5c0.7,0,1.3,0.2,1.7,0.4c0.5,0.3,0.9,0.9,1.4,1.7
		C1339,537.2,1339.2,538.1,1339.2,539z M1337.5,539c0-0.9-0.3-1.7-0.8-2.4c-0.3-0.4-0.7-0.6-1.2-0.6c-0.5,0-0.9,0.2-1.3,0.6
		c-0.5,0.6-0.7,1.4-0.7,2.4v1.9c0,0.9,0.3,1.7,0.8,2.4c0.3,0.4,0.7,0.6,1.2,0.6c0.5,0,0.9-0.2,1.3-0.6c0.5-0.6,0.7-1.4,0.7-2.4V539z
		"/>
	<path class="st5" d="M1348.7,544.5c0,0.3-0.1,0.6-0.3,0.8c-0.2,0.2-0.5,0.3-0.9,0.3s-0.7-0.1-0.9-0.3c-0.2-0.2-0.3-0.5-0.3-0.8
		c0-0.3,0.1-0.6,0.3-0.8c0.2-0.2,0.5-0.3,0.9-0.3s0.7,0.1,0.9,0.3C1348.6,543.9,1348.7,544.2,1348.7,544.5z"/>
	<path class="st5" d="M1357.7,539.5c0.4-0.3,0.8-0.6,1.2-0.8c0.4-0.2,0.8-0.2,1.2-0.2c0.9,0,1.7,0.4,2.3,1.1c0.7,0.7,1,1.6,1,2.7
		c0,1-0.3,1.8-0.9,2.4c-0.6,0.6-1.5,0.9-2.5,0.9c-0.9,0-1.6-0.2-2.2-0.6c-0.6-0.4-1-1.1-1.3-1.9c-0.3-0.9-0.4-1.8-0.4-2.9
		c0-1.3,0.3-2.3,0.9-3.2s1.3-1.5,2.1-2c0.8-0.5,1.6-0.7,2.5-0.7c0.7,0,1.2,0.1,1.6,0.4c0.2,0.2,0.4,0.4,0.4,0.7
		c0,0.2-0.1,0.5-0.2,0.6s-0.4,0.3-0.6,0.3c-0.1,0-0.3-0.1-0.6-0.2c-0.1-0.1-0.3-0.1-0.4-0.1c-0.5,0-1.1,0.2-1.7,0.5
		c-0.6,0.3-1.1,0.8-1.5,1.4C1358,538.3,1357.8,538.9,1357.7,539.5z M1357.9,542.2c0.2,0.7,0.4,1.1,0.7,1.4c0.3,0.2,0.7,0.4,1.3,0.4
		c0.6,0,1-0.1,1.3-0.4c0.3-0.3,0.5-0.7,0.5-1.2c0-0.6-0.2-1.1-0.5-1.4c-0.3-0.4-0.7-0.6-1.2-0.6c-0.3,0-0.7,0.2-1.1,0.5
		C1358.5,541.1,1358.2,541.5,1357.9,542.2z"/>
	<path class="st5" d="M1369.6,543.6h3.7c0.2-0.2,0.4-0.2,0.6-0.2c0.3,0,0.5,0.1,0.6,0.3c0.2,0.2,0.2,0.5,0.2,0.9v0.8h-7.8v-1.8
		c3.1-2.5,4.9-4.2,5.6-4.9c0.3-0.4,0.5-0.7,0.5-1.1c0-0.4-0.2-0.8-0.5-1.1s-0.8-0.5-1.4-0.5c-0.6,0-1.1,0.2-1.5,0.5
		c-0.2,0.2-0.4,0.5-0.5,0.8c-0.1,0.2-0.2,0.4-0.3,0.5c-0.1,0.1-0.3,0.1-0.5,0.1c-0.2,0-0.4-0.1-0.6-0.2s-0.3-0.4-0.3-0.6
		c0-0.3,0.2-0.7,0.5-1.2c0.3-0.5,0.8-0.9,1.3-1.2c0.6-0.3,1.2-0.4,1.9-0.4c1.1,0,2,0.3,2.6,1c0.7,0.7,1,1.4,1,2.4
		c0,0.5-0.1,0.9-0.3,1.3c-0.2,0.4-0.7,1-1.4,1.7C1372.4,541.2,1371.3,542.2,1369.6,543.6z"/>
</g>
<g class="st2">
	<path d="M752.8,790.6v1.8h1.7c0.4,0,0.7,0.1,0.9,0.2c0.2,0.2,0.3,0.4,0.3,0.6c0,0.2-0.1,0.5-0.3,0.6c-0.2,0.2-0.5,0.2-0.9,0.2h-3.7
		c-0.4,0-0.7-0.1-0.9-0.2c-0.2-0.2-0.3-0.4-0.3-0.6c0-0.2,0.1-0.5,0.3-0.6c0.2-0.2,0.5-0.2,0.9-0.2h0.3v-6.7h-0.3
		c-0.4,0-0.7-0.1-0.9-0.2c-0.2-0.2-0.3-0.4-0.3-0.6s0.1-0.5,0.3-0.6c0.2-0.2,0.5-0.2,0.9-0.2l3.9,0c1.2,0,2.1,0.3,2.7,0.9
		c0.7,0.6,1,1.4,1,2.3c0,0.5-0.1,1-0.3,1.4c-0.2,0.3-0.5,0.7-0.9,1c-0.4,0.3-0.8,0.6-1.2,0.7c-0.4,0.2-1,0.2-1.7,0.2H752.8z
		 M752.8,788.9h1.6c0.7,0,1.3-0.2,1.8-0.5c0.4-0.3,0.7-0.7,0.7-1.2c0-0.4-0.2-0.7-0.5-1c-0.4-0.3-0.9-0.4-1.5-0.4h-2V788.9z"/>
	<path d="M769.3,786.5v5.8c0.4,0,0.6,0.1,0.8,0.2s0.3,0.4,0.3,0.6s-0.1,0.5-0.3,0.6c-0.2,0.2-0.5,0.2-0.9,0.2h-1.6v-0.4
		c-0.5,0.2-1,0.4-1.4,0.5c-0.4,0.1-0.9,0.2-1.3,0.2c-0.6,0-1-0.1-1.5-0.4s-0.7-0.6-1-1c-0.2-0.3-0.3-0.7-0.3-1.1v-3.7h-0.3
		c-0.4,0-0.7-0.1-0.9-0.2c-0.2-0.2-0.3-0.4-0.3-0.6c0-0.2,0.1-0.5,0.3-0.6c0.2-0.2,0.5-0.2,0.9-0.2h2v5.1c0,0.4,0.1,0.6,0.3,0.8
		c0.2,0.2,0.4,0.3,0.8,0.3c0.3,0,0.7-0.1,1.1-0.2c0.4-0.1,0.9-0.4,1.5-0.7v-3.5h-0.6c-0.4,0-0.7-0.1-0.9-0.2
		c-0.2-0.2-0.3-0.4-0.3-0.6c0-0.2,0.1-0.5,0.3-0.6c0.2-0.2,0.5-0.2,0.9-0.2H769.3z"/>
	<path d="M775.4,783.3v3.8c0.4-0.3,0.8-0.5,1.3-0.6c0.4-0.1,0.9-0.2,1.3-0.2c1.2,0,2.2,0.4,3,1.2s1.2,1.8,1.2,2.9
		c0,1.1-0.4,2-1.2,2.8c-0.8,0.7-1.8,1.1-3.1,1.1c-0.5,0-0.9-0.1-1.3-0.2s-0.8-0.3-1.2-0.5v0.4h-2c-0.4,0-0.7-0.1-0.9-0.2
		c-0.2-0.2-0.3-0.4-0.3-0.6c0-0.2,0.1-0.5,0.3-0.6c0.2-0.2,0.5-0.2,0.9-0.2h0.3V785h-0.3c-0.4,0-0.7-0.1-0.9-0.2
		c-0.2-0.2-0.3-0.4-0.3-0.6c0-0.2,0.1-0.5,0.3-0.6c0.2-0.2,0.5-0.2,0.9-0.2H775.4z M780.5,790.5c0-0.7-0.2-1.3-0.7-1.8
		s-1.1-0.7-1.8-0.7c-0.7,0-1.3,0.2-1.8,0.7s-0.7,1.1-0.7,1.8c0,0.6,0.2,1.1,0.7,1.5s1.1,0.6,1.9,0.6s1.4-0.2,1.9-0.6
		C780.3,791.6,780.5,791.1,780.5,790.5z"/>
	<path d="M790.3,783.3v9.1h2c0.4,0,0.7,0.1,0.9,0.2c0.2,0.2,0.3,0.4,0.3,0.6c0,0.2-0.1,0.5-0.3,0.6c-0.2,0.2-0.5,0.2-0.9,0.2h-5.8
		c-0.4,0-0.7-0.1-0.9-0.2c-0.2-0.2-0.3-0.4-0.3-0.6c0-0.2,0.1-0.5,0.3-0.6c0.2-0.2,0.5-0.2,0.9-0.2h2V785h-1.4
		c-0.4,0-0.7-0.1-0.9-0.2c-0.2-0.2-0.3-0.4-0.3-0.6c0-0.2,0.1-0.5,0.3-0.6c0.2-0.2,0.5-0.2,0.9-0.2H790.3z"/>
	<path d="M802.2,786.5v5.8h2c0.4,0,0.7,0.1,0.9,0.2c0.2,0.2,0.3,0.4,0.3,0.6c0,0.2-0.1,0.5-0.3,0.6c-0.2,0.2-0.5,0.2-0.9,0.2h-5.8
		c-0.4,0-0.7-0.1-0.9-0.2c-0.2-0.2-0.3-0.4-0.3-0.6c0-0.2,0.1-0.5,0.3-0.6c0.2-0.2,0.5-0.2,0.9-0.2h2v-4.1h-1.4
		c-0.4,0-0.7-0.1-0.9-0.2c-0.2-0.2-0.3-0.4-0.3-0.6c0-0.2,0.1-0.5,0.3-0.6c0.2-0.2,0.5-0.2,0.9-0.2H802.2z M802,783.3v1.8h-2v-1.8
		H802z"/>
	<path d="M815.1,788.5c-0.3-0.2-0.6-0.3-0.9-0.4s-0.6-0.1-1-0.1c-0.7,0-1.2,0.1-1.6,0.3c-0.2,0.1-0.3,0.2-0.3,0.3
		c0,0.1,0.1,0.3,0.3,0.4c0.2,0.1,0.6,0.2,1.2,0.3c1.1,0.2,1.9,0.3,2.4,0.5c0.6,0.2,1,0.5,1.3,0.9s0.5,0.8,0.5,1.3
		c0,0.6-0.3,1.1-0.8,1.5c-0.8,0.6-1.8,0.9-3,0.9c-0.5,0-0.9,0-1.4-0.1c-0.4-0.1-0.8-0.2-1.1-0.4c-0.1,0.1-0.2,0.1-0.3,0.2
		s-0.2,0.1-0.3,0.1c-0.3,0-0.5-0.1-0.6-0.3c-0.2-0.2-0.2-0.5-0.2-0.9v-0.6c0-0.4,0.1-0.7,0.2-0.9c0.2-0.2,0.4-0.3,0.6-0.3
		c0.2,0,0.4,0.1,0.5,0.2s0.2,0.3,0.3,0.6c0.3,0.2,0.6,0.4,0.9,0.5s0.8,0.2,1.3,0.2c0.8,0,1.4-0.1,1.8-0.4c0.2-0.1,0.3-0.2,0.3-0.4
		c0-0.2-0.1-0.4-0.4-0.5s-0.9-0.3-1.8-0.4c-1.4-0.1-2.3-0.4-2.7-0.8c-0.5-0.4-0.7-0.9-0.7-1.5c0-0.6,0.3-1.1,0.8-1.5
		c0.7-0.6,1.6-0.8,2.7-0.8c0.4,0,0.8,0,1.1,0.1c0.4,0.1,0.7,0.2,1,0.3c0.1-0.1,0.2-0.1,0.3-0.2c0.1,0,0.2-0.1,0.3-0.1
		c0.2,0,0.4,0.1,0.6,0.3c0.2,0.2,0.2,0.5,0.2,0.9v0.4c0,0.4,0,0.6-0.1,0.8c-0.2,0.3-0.4,0.4-0.7,0.4c-0.2,0-0.4-0.1-0.5-0.2
		C815.2,788.9,815.1,788.7,815.1,788.5z"/>
	<path d="M823.4,783.3v3.6c0.4-0.2,0.7-0.4,1.1-0.5c0.4-0.1,0.7-0.2,1.1-0.2c0.6,0,1.1,0.1,1.6,0.3s0.8,0.5,1.1,0.9
		c0.3,0.4,0.5,1,0.5,1.6v3.2c0.4,0,0.7,0,0.8,0.1c0.3,0.2,0.4,0.4,0.4,0.7c0,0.2-0.1,0.5-0.3,0.6c-0.2,0.2-0.5,0.2-0.9,0.2h-1.9
		c-0.4,0-0.7-0.1-0.9-0.2c-0.2-0.2-0.3-0.4-0.3-0.6c0-0.3,0.1-0.5,0.4-0.7c0.1-0.1,0.4-0.1,0.8-0.1v-3.1c0-0.4-0.1-0.7-0.3-0.9
		c-0.3-0.2-0.6-0.4-1.2-0.4c-0.4,0-0.7,0.1-1,0.2c-0.3,0.1-0.7,0.5-1.2,1v3.2c0.4,0,0.7,0,0.8,0.1c0.3,0.2,0.4,0.4,0.4,0.7
		c0,0.2-0.1,0.5-0.3,0.6c-0.2,0.2-0.5,0.2-0.9,0.2h-1.9c-0.4,0-0.7-0.1-0.9-0.2c-0.2-0.2-0.3-0.4-0.3-0.6c0-0.3,0.1-0.5,0.4-0.7
		c0.1-0.1,0.4-0.1,0.8-0.1V785h-0.3c-0.4,0-0.7-0.1-0.9-0.2c-0.2-0.2-0.3-0.4-0.3-0.6c0-0.2,0.1-0.5,0.3-0.6
		c0.2-0.2,0.5-0.2,0.9-0.2H823.4z"/>
</g>
<g class="st2">
	<path d="M754.1,816.1v-0.4c-0.4,0.2-0.9,0.4-1.4,0.5s-1,0.2-1.4,0.2c-0.9,0-1.7-0.2-2.2-0.7s-0.9-1-0.9-1.6c0-0.7,0.4-1.4,1.1-2
		c0.7-0.6,1.7-0.9,3-0.9c0.5,0,1.1,0.1,1.8,0.2v-0.4c0-0.3-0.1-0.5-0.3-0.6c-0.2-0.2-0.6-0.2-1.2-0.2c-0.5,0-1.2,0.1-2,0.3
		c-0.3,0.1-0.5,0.1-0.7,0.1c-0.2,0-0.4-0.1-0.6-0.2c-0.2-0.2-0.2-0.4-0.2-0.6c0-0.1,0-0.3,0.1-0.4c0.1-0.1,0.1-0.2,0.2-0.3
		s0.3-0.1,0.6-0.2c0.4-0.1,0.8-0.2,1.3-0.3s0.8-0.1,1.2-0.1c1.1,0,1.9,0.2,2.5,0.7c0.6,0.5,0.9,1.1,0.9,1.9v3.5h0.3
		c0.4,0,0.7,0.1,0.9,0.2c0.2,0.2,0.3,0.4,0.3,0.6c0,0.2-0.1,0.5-0.3,0.6c-0.2,0.2-0.5,0.2-0.9,0.2H754.1z M754.1,813
		c-0.7-0.1-1.3-0.2-1.9-0.2c-0.7,0-1.3,0.2-1.8,0.5c-0.3,0.2-0.5,0.4-0.5,0.7c0,0.2,0.1,0.3,0.2,0.4c0.3,0.2,0.7,0.3,1.1,0.3
		c0.4,0,0.9-0.1,1.4-0.2c0.5-0.2,1-0.4,1.4-0.7V813z"/>
	<path d="M775.4,812.6v1.8h1.7c0.4,0,0.7,0.1,0.9,0.2c0.2,0.2,0.3,0.4,0.3,0.6c0,0.2-0.1,0.5-0.3,0.6c-0.2,0.2-0.5,0.2-0.9,0.2h-3.7
		c-0.4,0-0.7-0.1-0.9-0.2c-0.2-0.2-0.3-0.4-0.3-0.6c0-0.2,0.1-0.5,0.3-0.6c0.2-0.2,0.5-0.2,0.9-0.2h0.3v-6.7h-0.3
		c-0.4,0-0.7-0.1-0.9-0.2c-0.2-0.2-0.3-0.4-0.3-0.6s0.1-0.5,0.3-0.6c0.2-0.2,0.5-0.2,0.9-0.2l3.9,0c1.2,0,2.1,0.3,2.7,0.9
		c0.7,0.6,1,1.4,1,2.3c0,0.5-0.1,1-0.3,1.4c-0.2,0.3-0.5,0.7-0.9,1c-0.4,0.3-0.8,0.6-1.2,0.7c-0.4,0.2-1,0.2-1.7,0.2H775.4z
		 M775.4,810.9h1.6c0.7,0,1.3-0.2,1.8-0.5c0.4-0.3,0.7-0.7,0.7-1.2c0-0.4-0.2-0.7-0.5-1c-0.4-0.3-0.9-0.4-1.5-0.4h-2V810.9z"/>
	<path d="M786.5,805.3v3.6c0.4-0.2,0.7-0.4,1.1-0.5c0.4-0.1,0.7-0.2,1.1-0.2c0.6,0,1.1,0.1,1.6,0.3s0.8,0.5,1.1,0.9
		c0.3,0.4,0.5,1,0.5,1.6v3.2c0.4,0,0.7,0,0.8,0.1c0.3,0.2,0.4,0.4,0.4,0.7c0,0.2-0.1,0.5-0.3,0.6c-0.2,0.2-0.5,0.2-0.9,0.2H790
		c-0.4,0-0.7-0.1-0.9-0.2c-0.2-0.2-0.3-0.4-0.3-0.6c0-0.3,0.1-0.5,0.4-0.7c0.1-0.1,0.4-0.1,0.8-0.1v-3.1c0-0.4-0.1-0.7-0.3-0.9
		c-0.3-0.2-0.6-0.4-1.2-0.4c-0.4,0-0.7,0.1-1,0.2c-0.3,0.1-0.7,0.5-1.2,1v3.2c0.4,0,0.7,0,0.8,0.1c0.3,0.2,0.4,0.4,0.4,0.7
		c0,0.2-0.1,0.5-0.3,0.6c-0.2,0.2-0.5,0.2-0.9,0.2h-1.9c-0.4,0-0.7-0.1-0.9-0.2c-0.2-0.2-0.3-0.4-0.3-0.6c0-0.3,0.1-0.5,0.4-0.7
		c0.1-0.1,0.4-0.1,0.8-0.1V807h-0.3c-0.4,0-0.7-0.1-0.9-0.2c-0.2-0.2-0.3-0.4-0.3-0.6c0-0.2,0.1-0.5,0.3-0.6
		c0.2-0.2,0.5-0.2,0.9-0.2H786.5z"/>
	<path d="M804.6,812.4c0,0.7-0.2,1.3-0.5,1.9c-0.4,0.6-0.9,1.1-1.6,1.5c-0.7,0.4-1.5,0.5-2.2,0.5c-0.8,0-1.5-0.2-2.2-0.5
		c-0.7-0.4-1.2-0.8-1.6-1.5c-0.4-0.6-0.6-1.3-0.6-1.9c0-0.7,0.2-1.3,0.6-2c0.4-0.7,0.9-1.2,1.6-1.5c0.7-0.4,1.4-0.6,2.2-0.6
		c0.8,0,1.5,0.2,2.2,0.6c0.7,0.4,1.3,0.9,1.6,1.6S804.6,811.8,804.6,812.4z M802.9,812.5c0-0.5-0.2-1.1-0.6-1.5
		c-0.5-0.6-1.2-0.9-2.1-0.9c-0.8,0-1.4,0.2-1.9,0.7c-0.5,0.5-0.8,1.1-0.8,1.7c0,0.5,0.3,1,0.8,1.5s1.2,0.7,1.9,0.7
		c0.8,0,1.4-0.2,1.9-0.7S802.9,813,802.9,812.5z"/>
	<path d="M811.7,810.2v3.4c0,0.4,0.1,0.6,0.2,0.7c0.2,0.2,0.6,0.3,1.2,0.3c0.9,0,1.7-0.2,2.4-0.6c0.3-0.1,0.5-0.2,0.7-0.2
		c0.2,0,0.4,0.1,0.6,0.2c0.2,0.2,0.2,0.4,0.2,0.6c0,0.2-0.1,0.4-0.3,0.6c-0.3,0.3-0.8,0.5-1.6,0.7c-0.8,0.2-1.5,0.3-2,0.3
		c-1.1,0-1.8-0.2-2.4-0.7c-0.5-0.5-0.8-1-0.8-1.7v-3.7h-0.6c-0.4,0-0.7-0.1-0.9-0.2c-0.2-0.2-0.3-0.4-0.3-0.6c0-0.2,0.1-0.5,0.3-0.6
		c0.2-0.2,0.5-0.2,0.9-0.2h0.6V807c0-0.4,0.1-0.7,0.2-0.9c0.2-0.2,0.4-0.3,0.6-0.3c0.2,0,0.5,0.1,0.6,0.3c0.2,0.2,0.2,0.5,0.2,0.9
		v1.5h3.1c0.4,0,0.7,0.1,0.9,0.2c0.2,0.2,0.3,0.4,0.3,0.6c0,0.2-0.1,0.5-0.3,0.6c-0.2,0.2-0.5,0.2-0.9,0.2H811.7z"/>
	<path d="M828.4,812.4c0,0.7-0.2,1.3-0.5,1.9c-0.4,0.6-0.9,1.1-1.6,1.5c-0.7,0.4-1.5,0.5-2.2,0.5c-0.8,0-1.5-0.2-2.2-0.5
		c-0.7-0.4-1.2-0.8-1.6-1.5c-0.4-0.6-0.6-1.3-0.6-1.9c0-0.7,0.2-1.3,0.6-2c0.4-0.7,0.9-1.2,1.6-1.5c0.7-0.4,1.4-0.6,2.2-0.6
		c0.8,0,1.5,0.2,2.2,0.6c0.7,0.4,1.3,0.9,1.6,1.6S828.4,811.8,828.4,812.4z M826.7,812.5c0-0.5-0.2-1.1-0.6-1.5
		c-0.5-0.6-1.2-0.9-2.1-0.9c-0.8,0-1.4,0.2-1.9,0.7c-0.5,0.5-0.8,1.1-0.8,1.7c0,0.5,0.3,1,0.8,1.5s1.2,0.7,1.9,0.7
		c0.8,0,1.4-0.2,1.9-0.7S826.7,813,826.7,812.5z"/>
</g>
<g class="st2">
	<path d="M938.8,785.4c-0.1,0.2-0.3,0.3-0.4,0.3c-0.1,0.1-0.2,0.1-0.3,0.1c-0.3,0-0.5-0.1-0.6-0.3c-0.2-0.2-0.2-0.5-0.2-0.9v-1.1
		c0-0.4,0.1-0.7,0.2-0.9c0.2-0.2,0.4-0.3,0.6-0.3c0.2,0,0.4,0.1,0.5,0.2c0.1,0.1,0.2,0.3,0.3,0.5s0.1,0.4,0.2,0.5
		c0.2,0.2,0.4,0.3,0.9,0.5c0.4,0.2,0.9,0.3,1.3,0.3c0.8,0,1.4-0.2,1.9-0.5c0.3-0.2,0.5-0.5,0.5-0.8c0-0.2-0.1-0.4-0.2-0.6
		s-0.4-0.3-0.7-0.5c-0.2-0.1-0.7-0.2-1.5-0.3c-0.9-0.2-1.6-0.4-2.1-0.6s-0.9-0.6-1.1-1s-0.4-0.9-0.4-1.4c0-0.8,0.3-1.5,1-2.1
		s1.6-0.9,2.7-0.9c0.4,0,0.8,0,1.2,0.1c0.4,0.1,0.7,0.2,1,0.4c0.2-0.2,0.4-0.3,0.7-0.3c0.2,0,0.5,0.1,0.6,0.3
		c0.2,0.2,0.2,0.5,0.2,0.9v1.3c0,0.4-0.1,0.7-0.2,0.9c-0.2,0.2-0.4,0.3-0.6,0.3c-0.2,0-0.4-0.1-0.5-0.2c-0.1-0.1-0.2-0.3-0.3-0.6
		c-0.1-0.3-0.1-0.5-0.2-0.6c-0.2-0.2-0.4-0.4-0.7-0.5s-0.7-0.2-1.1-0.2c-0.6,0-1.1,0.1-1.5,0.4c-0.4,0.3-0.5,0.6-0.5,0.9
		c0,0.2,0.1,0.4,0.2,0.6c0.1,0.2,0.4,0.4,0.6,0.5c0.2,0.1,0.7,0.2,1.6,0.4c0.9,0.2,1.5,0.4,2,0.6c0.5,0.2,0.9,0.5,1.2,1
		c0.3,0.4,0.5,1,0.5,1.6c0,0.8-0.3,1.5-0.9,2c-0.8,0.7-1.8,1-3,1c-0.5,0-0.9-0.1-1.4-0.2C939.7,785.8,939.2,785.7,938.8,785.4z"/>
	<path d="M955.8,778.6c0.2-0.2,0.4-0.3,0.6-0.3c0.2,0,0.4,0.1,0.6,0.3c0.2,0.2,0.2,0.5,0.2,0.9v1.1c0,0.4-0.1,0.7-0.2,0.9
		c-0.2,0.2-0.4,0.3-0.6,0.3c-0.2,0-0.4-0.1-0.6-0.2c-0.1-0.1-0.2-0.3-0.3-0.6c-0.1-0.3-0.2-0.5-0.5-0.7c-0.4-0.3-1-0.4-1.7-0.4
		c-0.8,0-1.4,0.2-1.9,0.7c-0.5,0.5-0.7,1.1-0.7,1.8c0,0.7,0.2,1.2,0.7,1.6s1.2,0.6,2.3,0.6c0.7,0,1.3-0.1,1.7-0.2
		c0.3-0.1,0.5-0.2,0.8-0.5s0.5-0.3,0.6-0.3c0.2,0,0.4,0.1,0.6,0.3c0.2,0.2,0.3,0.4,0.3,0.6c0,0.4-0.3,0.7-0.8,1.1
		c-0.8,0.5-1.9,0.8-3.4,0.8c-1.3,0-2.4-0.3-3.1-0.8c-1-0.7-1.5-1.7-1.5-3c0-1.2,0.4-2.2,1.2-3s1.9-1.2,3.2-1.2c0.5,0,0.9,0,1.3,0.1
		C955.1,778.3,955.5,778.5,955.8,778.6z"/>
	<path d="M964.7,778.3v1.1c0.7-0.5,1.3-0.9,1.7-1s0.8-0.3,1.2-0.3c0.6,0,1.1,0.2,1.6,0.6c0.4,0.3,0.5,0.6,0.5,0.8
		c0,0.2-0.1,0.5-0.3,0.6c-0.2,0.2-0.4,0.3-0.6,0.3c-0.2,0-0.4-0.1-0.7-0.3s-0.4-0.3-0.6-0.3c-0.2,0-0.6,0.1-1.1,0.4
		c-0.5,0.3-1.1,0.7-1.8,1.3v2.6h2.4c0.4,0,0.7,0.1,0.9,0.2c0.2,0.2,0.3,0.4,0.3,0.6c0,0.2-0.1,0.5-0.3,0.6c-0.2,0.2-0.5,0.2-0.9,0.2
		H962c-0.4,0-0.7-0.1-0.9-0.2c-0.2-0.2-0.3-0.4-0.3-0.6c0-0.2,0.1-0.5,0.3-0.6c0.2-0.2,0.5-0.2,0.9-0.2h1V780h-0.6
		c-0.4,0-0.7-0.1-0.9-0.2c-0.2-0.2-0.3-0.4-0.3-0.6c0-0.2,0.1-0.5,0.3-0.6c0.2-0.2,0.5-0.2,0.9-0.2H964.7z"/>
	<path d="M981.4,782.2c0,0.7-0.2,1.3-0.5,1.9c-0.4,0.6-0.9,1.1-1.6,1.5s-1.5,0.5-2.2,0.5c-0.8,0-1.5-0.2-2.2-0.5
		c-0.7-0.4-1.2-0.8-1.6-1.5c-0.4-0.6-0.6-1.3-0.6-1.9c0-0.7,0.2-1.3,0.6-2c0.4-0.7,0.9-1.2,1.6-1.5c0.7-0.4,1.4-0.6,2.2-0.6
		c0.8,0,1.5,0.2,2.2,0.6c0.7,0.4,1.3,0.9,1.6,1.6S981.4,781.6,981.4,782.2z M979.7,782.3c0-0.5-0.2-1.1-0.6-1.5
		c-0.5-0.6-1.2-0.9-2.1-0.9c-0.8,0-1.4,0.2-1.9,0.7c-0.5,0.5-0.8,1.1-0.8,1.7c0,0.5,0.3,1,0.8,1.5c0.5,0.5,1.2,0.7,1.9,0.7
		c0.8,0,1.4-0.2,1.9-0.7C979.5,783.3,979.7,782.8,979.7,782.3z"/>
	<path d="M989.7,775.1v9.1h2c0.4,0,0.7,0.1,0.9,0.2c0.2,0.2,0.3,0.4,0.3,0.6c0,0.2-0.1,0.5-0.3,0.6c-0.2,0.2-0.5,0.2-0.9,0.2H986
		c-0.4,0-0.7-0.1-0.9-0.2c-0.2-0.2-0.3-0.4-0.3-0.6c0-0.2,0.1-0.5,0.3-0.6c0.2-0.2,0.5-0.2,0.9-0.2h2v-7.4h-1.4
		c-0.4,0-0.7-0.1-0.9-0.2c-0.2-0.2-0.3-0.4-0.3-0.6c0-0.2,0.1-0.5,0.3-0.6c0.2-0.2,0.5-0.2,0.9-0.2H989.7z"/>
	<path d="M1001.7,775.1v9.1h2c0.4,0,0.7,0.1,0.9,0.2c0.2,0.2,0.3,0.4,0.3,0.6c0,0.2-0.1,0.5-0.3,0.6c-0.2,0.2-0.5,0.2-0.9,0.2h-5.8
		c-0.4,0-0.7-0.1-0.9-0.2c-0.2-0.2-0.3-0.4-0.3-0.6c0-0.2,0.1-0.5,0.3-0.6c0.2-0.2,0.5-0.2,0.9-0.2h2v-7.4h-1.4
		c-0.4,0-0.7-0.1-0.9-0.2c-0.2-0.2-0.3-0.4-0.3-0.6c0-0.2,0.1-0.5,0.3-0.6c0.2-0.2,0.5-0.2,0.9-0.2H1001.7z"/>
	<path d="M1013.5,778.3v5.8h2c0.4,0,0.7,0.1,0.9,0.2c0.2,0.2,0.3,0.4,0.3,0.6c0,0.2-0.1,0.5-0.3,0.6c-0.2,0.2-0.5,0.2-0.9,0.2h-5.8
		c-0.4,0-0.7-0.1-0.9-0.2c-0.2-0.2-0.3-0.4-0.3-0.6c0-0.2,0.1-0.5,0.3-0.6c0.2-0.2,0.5-0.2,0.9-0.2h2V780h-1.4
		c-0.4,0-0.7-0.1-0.9-0.2c-0.2-0.2-0.3-0.4-0.3-0.6c0-0.2,0.1-0.5,0.3-0.6c0.2-0.2,0.5-0.2,0.9-0.2H1013.5z M1013.3,775.1v1.8h-2
		v-1.8H1013.3z"/>
	<path d="M1022.9,778.3v0.6c0.3-0.3,0.7-0.5,1-0.6c0.4-0.1,0.8-0.2,1.2-0.2c1,0,1.8,0.3,2.4,0.9c0.5,0.5,0.7,1.2,0.7,2v3.2
		c0.4,0,0.6,0.1,0.8,0.2c0.2,0.2,0.3,0.4,0.3,0.6c0,0.2-0.1,0.5-0.3,0.6c-0.2,0.2-0.5,0.2-0.9,0.2h-1.5c-0.4,0-0.7-0.1-0.9-0.2
		c-0.2-0.2-0.3-0.4-0.3-0.6c0-0.2,0.1-0.5,0.3-0.6c0.2-0.2,0.4-0.2,0.8-0.2V781c0-0.4-0.1-0.6-0.3-0.8c-0.3-0.2-0.7-0.3-1.2-0.3
		c-0.4,0-0.7,0.1-1,0.2s-0.7,0.5-1.1,1v3.2c0.4,0,0.7,0,0.8,0.1c0.3,0.2,0.4,0.4,0.4,0.7c0,0.2-0.1,0.5-0.3,0.6
		c-0.2,0.2-0.5,0.2-0.9,0.2h-1.9c-0.4,0-0.7-0.1-0.9-0.2c-0.2-0.2-0.3-0.4-0.3-0.6c0-0.3,0.1-0.5,0.4-0.7c0.1-0.1,0.4-0.1,0.9-0.1
		V780c-0.4,0-0.6-0.1-0.8-0.2c-0.2-0.2-0.3-0.4-0.3-0.6s0.1-0.5,0.3-0.6c0.2-0.2,0.5-0.2,0.9-0.2H1022.9z"/>
	<path d="M1038.4,778.8v-0.5h2c0.4,0,0.7,0.1,0.9,0.2c0.2,0.2,0.3,0.4,0.3,0.6c0,0.2-0.1,0.5-0.3,0.6c-0.2,0.2-0.5,0.2-0.9,0.2h-0.3
		v6.2c0,0.6-0.1,1.1-0.4,1.6s-0.6,0.8-1.2,1.1c-0.5,0.3-1.1,0.5-1.8,0.5h-1.9c-0.4,0-0.7-0.1-0.9-0.2c-0.2-0.2-0.3-0.4-0.3-0.6
		c0-0.3,0.1-0.5,0.3-0.6c0.2-0.2,0.5-0.2,0.9-0.2h1.9c0.5,0,0.9-0.1,1.2-0.4c0.3-0.3,0.4-0.6,0.4-1.1v-0.8c-0.4,0.2-0.8,0.4-1.1,0.5
		c-0.4,0.1-0.8,0.2-1.2,0.2c-1.2,0-2.1-0.4-2.9-1.2c-0.8-0.8-1.2-1.7-1.2-2.9c0-1.1,0.4-2.1,1.2-2.9c0.8-0.8,1.7-1.2,2.9-1.2
		c0.4,0,0.8,0.1,1.2,0.2C1037.6,778.4,1038,778.6,1038.4,778.8z M1038.4,782.1c0-0.6-0.2-1.2-0.7-1.6s-1-0.7-1.7-0.7
		s-1.2,0.2-1.7,0.7c-0.5,0.5-0.7,1-0.7,1.6c0,0.6,0.2,1.2,0.7,1.6c0.5,0.5,1,0.7,1.7,0.7s1.2-0.2,1.7-0.7
		C1038.1,783.3,1038.4,782.7,1038.4,782.1z"/>
</g>
<g class="st2">
	<path d="M945.9,802v3.4c0,0.4,0.1,0.6,0.2,0.7c0.2,0.2,0.6,0.3,1.2,0.3c0.9,0,1.7-0.2,2.4-0.6c0.3-0.1,0.5-0.2,0.7-0.2
		c0.2,0,0.4,0.1,0.6,0.2c0.2,0.2,0.2,0.4,0.2,0.6c0,0.2-0.1,0.4-0.3,0.6c-0.3,0.3-0.8,0.5-1.6,0.7c-0.8,0.2-1.5,0.3-2,0.3
		c-1.1,0-1.8-0.2-2.4-0.7c-0.5-0.5-0.8-1-0.8-1.7V802h-0.6c-0.4,0-0.7-0.1-0.9-0.2c-0.2-0.2-0.3-0.4-0.3-0.6c0-0.2,0.1-0.5,0.3-0.6
		c0.2-0.2,0.5-0.2,0.9-0.2h0.6v-1.5c0-0.4,0.1-0.7,0.2-0.9c0.2-0.2,0.4-0.3,0.6-0.3c0.2,0,0.5,0.1,0.6,0.3c0.2,0.2,0.2,0.5,0.2,0.9
		v1.5h3.1c0.4,0,0.7,0.1,0.9,0.2c0.2,0.2,0.3,0.4,0.3,0.6c0,0.2-0.1,0.5-0.3,0.6c-0.2,0.2-0.5,0.2-0.9,0.2H945.9z"/>
	<path d="M956.5,797.1v3.6c0.4-0.2,0.7-0.4,1.1-0.5c0.4-0.1,0.7-0.2,1.1-0.2c0.6,0,1.1,0.1,1.6,0.3c0.5,0.2,0.8,0.5,1.1,0.9
		c0.3,0.4,0.5,1,0.5,1.6v3.2c0.4,0,0.7,0,0.8,0.1c0.3,0.2,0.4,0.4,0.4,0.7c0,0.2-0.1,0.5-0.3,0.6c-0.2,0.2-0.5,0.2-0.9,0.2H960
		c-0.4,0-0.7-0.1-0.9-0.2c-0.2-0.2-0.3-0.4-0.3-0.6c0-0.3,0.1-0.5,0.4-0.7c0.1-0.1,0.4-0.1,0.8-0.1v-3.1c0-0.4-0.1-0.7-0.3-0.9
		c-0.3-0.2-0.6-0.4-1.2-0.4c-0.4,0-0.7,0.1-1,0.2c-0.3,0.1-0.7,0.5-1.2,1v3.2c0.4,0,0.7,0,0.8,0.1c0.3,0.2,0.4,0.4,0.4,0.7
		c0,0.2-0.1,0.5-0.3,0.6c-0.2,0.2-0.5,0.2-0.9,0.2h-1.9c-0.4,0-0.7-0.1-0.9-0.2c-0.2-0.2-0.3-0.4-0.3-0.6c0-0.3,0.1-0.5,0.4-0.7
		c0.1-0.1,0.4-0.1,0.8-0.1v-7.4h-0.3c-0.4,0-0.7-0.1-0.9-0.2c-0.2-0.2-0.3-0.4-0.3-0.6c0-0.2,0.1-0.5,0.3-0.6
		c0.2-0.2,0.5-0.2,0.9-0.2H956.5z"/>
	<path d="M969.8,800.3v1.1c0.7-0.5,1.3-0.9,1.7-1c0.4-0.2,0.8-0.3,1.2-0.3c0.6,0,1.1,0.2,1.6,0.6c0.4,0.3,0.5,0.6,0.5,0.8
		c0,0.2-0.1,0.5-0.3,0.6s-0.4,0.3-0.6,0.3c-0.2,0-0.4-0.1-0.7-0.3s-0.4-0.3-0.6-0.3c-0.2,0-0.6,0.1-1.1,0.4
		c-0.5,0.3-1.1,0.7-1.8,1.3v2.6h2.4c0.4,0,0.7,0.1,0.9,0.2c0.2,0.2,0.3,0.4,0.3,0.6c0,0.2-0.1,0.5-0.3,0.6c-0.2,0.2-0.5,0.2-0.9,0.2
		H967c-0.4,0-0.7-0.1-0.9-0.2c-0.2-0.2-0.3-0.4-0.3-0.6c0-0.2,0.1-0.5,0.3-0.6c0.2-0.2,0.5-0.2,0.9-0.2h1V802h-0.6
		c-0.4,0-0.7-0.1-0.9-0.2c-0.2-0.2-0.3-0.4-0.3-0.6c0-0.2,0.1-0.5,0.3-0.6c0.2-0.2,0.5-0.2,0.9-0.2H969.8z"/>
	<path d="M986.4,804.2c0,0.7-0.2,1.3-0.5,1.9s-0.9,1.1-1.6,1.5c-0.7,0.4-1.5,0.5-2.2,0.5c-0.8,0-1.5-0.2-2.2-0.5
		c-0.7-0.4-1.2-0.8-1.6-1.5c-0.4-0.6-0.6-1.3-0.6-1.9c0-0.7,0.2-1.3,0.6-2c0.4-0.7,0.9-1.2,1.6-1.5c0.7-0.4,1.4-0.6,2.2-0.6
		c0.8,0,1.5,0.2,2.2,0.6s1.3,0.9,1.6,1.6S986.4,803.6,986.4,804.2z M984.7,804.3c0-0.5-0.2-1.1-0.6-1.5c-0.5-0.6-1.2-0.9-2.1-0.9
		c-0.8,0-1.4,0.2-1.9,0.7c-0.5,0.5-0.8,1.1-0.8,1.7c0,0.5,0.3,1,0.8,1.5c0.5,0.5,1.2,0.7,1.9,0.7c0.8,0,1.4-0.2,1.9-0.7
		C984.5,805.3,984.7,804.8,984.7,804.3z"/>
	<path d="M997.5,800.3v5.8c0.4,0,0.6,0.1,0.8,0.2c0.2,0.2,0.3,0.4,0.3,0.6s-0.1,0.5-0.3,0.6c-0.2,0.2-0.5,0.2-0.9,0.2h-1.6v-0.4
		c-0.5,0.2-1,0.4-1.4,0.5c-0.4,0.1-0.9,0.2-1.3,0.2c-0.6,0-1-0.1-1.5-0.4c-0.4-0.2-0.7-0.6-1-1c-0.2-0.3-0.3-0.7-0.3-1.1V802h-0.3
		c-0.4,0-0.7-0.1-0.9-0.2c-0.2-0.2-0.3-0.4-0.3-0.6c0-0.2,0.1-0.5,0.3-0.6c0.2-0.2,0.5-0.2,0.9-0.2h2v5.1c0,0.4,0.1,0.6,0.3,0.8
		c0.2,0.2,0.4,0.3,0.8,0.3c0.3,0,0.7-0.1,1.1-0.2c0.4-0.1,0.9-0.4,1.5-0.7V802h-0.6c-0.4,0-0.7-0.1-0.9-0.2
		c-0.2-0.2-0.3-0.4-0.3-0.6c0-0.2,0.1-0.5,0.3-0.6c0.2-0.2,0.5-0.2,0.9-0.2H997.5z"/>
	<path d="M1007.7,800.8v-0.5h2c0.4,0,0.7,0.1,0.9,0.2c0.2,0.2,0.3,0.4,0.3,0.6c0,0.2-0.1,0.5-0.3,0.6c-0.2,0.2-0.5,0.2-0.9,0.2h-0.3
		v6.2c0,0.6-0.1,1.1-0.4,1.6c-0.3,0.4-0.6,0.8-1.2,1.1c-0.5,0.3-1.1,0.5-1.8,0.5h-1.9c-0.4,0-0.7-0.1-0.9-0.2
		c-0.2-0.2-0.3-0.4-0.3-0.6c0-0.3,0.1-0.5,0.3-0.6c0.2-0.2,0.5-0.2,0.9-0.2h1.9c0.5,0,0.9-0.1,1.2-0.4c0.3-0.3,0.4-0.6,0.4-1.1v-0.8
		c-0.4,0.2-0.8,0.4-1.1,0.5c-0.4,0.1-0.8,0.2-1.2,0.2c-1.2,0-2.1-0.4-2.9-1.2c-0.8-0.8-1.2-1.7-1.2-2.9c0-1.1,0.4-2.1,1.2-2.9
		c0.8-0.8,1.7-1.2,2.9-1.2c0.4,0,0.8,0.1,1.2,0.2C1007,800.4,1007.3,800.6,1007.7,800.8z M1007.7,804.1c0-0.6-0.2-1.2-0.7-1.6
		c-0.5-0.5-1-0.7-1.7-0.7s-1.2,0.2-1.7,0.7s-0.7,1-0.7,1.6c0,0.6,0.2,1.2,0.7,1.6c0.5,0.5,1,0.7,1.7,0.7s1.2-0.2,1.7-0.7
		C1007.5,805.3,1007.7,804.7,1007.7,804.1z"/>
	<path d="M1016,797.1v3.6c0.4-0.2,0.7-0.4,1.1-0.5c0.4-0.1,0.7-0.2,1.1-0.2c0.6,0,1.1,0.1,1.6,0.3c0.5,0.2,0.8,0.5,1.1,0.9
		s0.5,1,0.5,1.6v3.2c0.4,0,0.7,0,0.8,0.1c0.3,0.2,0.4,0.4,0.4,0.7c0,0.2-0.1,0.5-0.3,0.6c-0.2,0.2-0.5,0.2-0.9,0.2h-1.9
		c-0.4,0-0.7-0.1-0.9-0.2c-0.2-0.2-0.3-0.4-0.3-0.6c0-0.3,0.1-0.5,0.4-0.7c0.1-0.1,0.4-0.1,0.8-0.1v-3.1c0-0.4-0.1-0.7-0.3-0.9
		c-0.3-0.2-0.6-0.4-1.2-0.4c-0.4,0-0.7,0.1-1,0.2c-0.3,0.1-0.7,0.5-1.2,1v3.2c0.4,0,0.7,0,0.8,0.1c0.3,0.2,0.4,0.4,0.4,0.7
		c0,0.2-0.1,0.5-0.3,0.6c-0.2,0.2-0.5,0.2-0.9,0.2h-1.9c-0.4,0-0.7-0.1-0.9-0.2c-0.2-0.2-0.3-0.4-0.3-0.6c0-0.3,0.1-0.5,0.4-0.7
		c0.1-0.1,0.4-0.1,0.8-0.1v-7.4h-0.3c-0.4,0-0.7-0.1-0.9-0.2c-0.2-0.2-0.3-0.4-0.3-0.6c0-0.2,0.1-0.5,0.3-0.6
		c0.2-0.2,0.5-0.2,0.9-0.2H1016z"/>
</g>
<g class="st2">
	<path d="M965.3,824v4.1h2.4c0.4,0,0.7,0.1,0.9,0.2c0.2,0.2,0.3,0.4,0.3,0.6c0,0.2-0.1,0.5-0.3,0.6c-0.2,0.2-0.5,0.2-0.9,0.2h-5.1
		c-0.4,0-0.7-0.1-0.9-0.2c-0.2-0.2-0.3-0.4-0.3-0.6c0-0.2,0.1-0.5,0.3-0.6c0.2-0.2,0.5-0.2,0.9-0.2h1V824h-0.8
		c-0.4,0-0.7-0.1-0.9-0.2c-0.2-0.2-0.3-0.4-0.3-0.6c0-0.2,0.1-0.5,0.3-0.6c0.2-0.2,0.5-0.2,0.9-0.2h0.8v-0.6c0-0.7,0.3-1.4,0.8-1.8
		c0.6-0.5,1.4-0.7,2.4-0.7c0.5,0,1,0,1.6,0.1s1,0.2,1.2,0.4c0.2,0.2,0.3,0.4,0.3,0.6c0,0.3-0.1,0.5-0.2,0.6
		c-0.2,0.2-0.3,0.2-0.6,0.2c-0.1,0-0.3,0-0.5-0.1c-0.7-0.1-1.3-0.2-1.9-0.2c-0.6,0-1,0.1-1.2,0.3c-0.2,0.2-0.3,0.4-0.3,0.6v0.6h2.6
		c0.4,0,0.7,0.1,0.9,0.2c0.2,0.2,0.3,0.4,0.3,0.6c0,0.2-0.1,0.5-0.3,0.6c-0.2,0.2-0.5,0.2-0.9,0.2H965.3z"/>
</g>
<g class="st2">
	<path d="M979.7,827h-7c0.2,0.4,0.5,0.8,0.9,1.1c0.5,0.3,1.1,0.4,1.8,0.4c0.6,0,1.5-0.1,2.5-0.4c0.4-0.1,0.7-0.2,0.9-0.2
		c0.2,0,0.4,0.1,0.6,0.2c0.2,0.2,0.2,0.4,0.2,0.6c0,0.2-0.1,0.4-0.2,0.6c-0.2,0.2-0.8,0.4-1.6,0.6c-0.9,0.2-1.7,0.3-2.5,0.3
		c-1.4,0-2.5-0.4-3.3-1.2c-0.8-0.8-1.2-1.7-1.2-2.8c0-1.2,0.4-2.2,1.3-2.9c0.9-0.8,1.9-1.1,3-1.1c0.7,0,1.3,0.1,1.9,0.4
		c0.6,0.2,1,0.5,1.3,0.8c0.4,0.4,0.7,0.9,1,1.5c0.2,0.4,0.3,0.9,0.3,1.5V827z M977.8,825.3c-0.3-0.5-0.6-0.9-1-1.1
		c-0.4-0.2-0.9-0.4-1.5-0.4c-0.6,0-1.1,0.1-1.5,0.4c-0.4,0.2-0.8,0.6-1,1.1H977.8z"/>
	<path d="M991.6,827h-7c0.2,0.4,0.5,0.8,0.9,1.1c0.5,0.3,1.1,0.4,1.8,0.4c0.6,0,1.5-0.1,2.5-0.4c0.4-0.1,0.7-0.2,0.9-0.2
		c0.2,0,0.4,0.1,0.6,0.2c0.2,0.2,0.2,0.4,0.2,0.6c0,0.2-0.1,0.4-0.2,0.6c-0.2,0.2-0.8,0.4-1.6,0.6c-0.9,0.2-1.7,0.3-2.5,0.3
		c-1.4,0-2.5-0.4-3.3-1.2s-1.2-1.7-1.2-2.8c0-1.2,0.4-2.2,1.3-2.9s1.9-1.1,3.1-1.1c0.7,0,1.3,0.1,1.9,0.4c0.6,0.2,1,0.5,1.3,0.8
		c0.4,0.4,0.7,0.9,1,1.5c0.2,0.4,0.3,0.9,0.3,1.5V827z M989.7,825.3c-0.3-0.5-0.6-0.9-1-1.1c-0.4-0.2-0.9-0.4-1.5-0.4
		c-0.6,0-1.1,0.1-1.5,0.4c-0.4,0.2-0.8,0.6-1,1.1H989.7z"/>
	<path d="M1003.1,819.1v9.1h0.3c0.4,0,0.7,0.1,0.9,0.2c0.2,0.2,0.3,0.4,0.3,0.6c0,0.2-0.1,0.5-0.3,0.6c-0.2,0.2-0.5,0.2-0.9,0.2h-2
		v-0.4c-0.4,0.2-0.8,0.4-1.2,0.5c-0.4,0.1-0.9,0.2-1.3,0.2c-1.3,0-2.3-0.4-3.1-1.1c-0.8-0.7-1.2-1.7-1.2-2.8c0-1.2,0.4-2.1,1.2-2.9
		c0.8-0.8,1.8-1.2,3-1.2c0.4,0,0.9,0.1,1.3,0.2c0.4,0.1,0.8,0.3,1.3,0.6v-2.1h-0.3c-0.4,0-0.7-0.1-0.9-0.2c-0.2-0.2-0.3-0.4-0.3-0.6
		c0-0.3,0.1-0.5,0.3-0.6c0.2-0.2,0.5-0.2,0.9-0.2H1003.1z M1001.4,826.3c0-0.7-0.2-1.3-0.7-1.8c-0.5-0.5-1.1-0.7-1.8-0.7
		c-0.7,0-1.3,0.2-1.8,0.7c-0.5,0.5-0.7,1.1-0.7,1.8c0,0.6,0.2,1.1,0.7,1.5c0.4,0.4,1.1,0.6,1.9,0.6c0.8,0,1.4-0.2,1.9-0.6
		S1001.4,826.9,1001.4,826.3z"/>
</g>
<g class="st2">
	<path d="M1145.1,791.6l2.5-5.9h-0.4c-0.4,0-0.7-0.1-0.9-0.2c-0.2-0.2-0.3-0.4-0.3-0.6s0.1-0.5,0.3-0.6c0.2-0.2,0.5-0.2,0.9-0.2
		l2.3,0c0.4,0,0.7,0.1,0.9,0.2s0.3,0.4,0.3,0.6c0,0.3-0.1,0.5-0.4,0.7c-0.1,0.1-0.4,0.1-0.8,0.1l-3.5,8.4h-1.6l-3.5-8.4
		c-0.4,0-0.7,0-0.8-0.1c-0.3-0.2-0.4-0.4-0.4-0.7c0-0.3,0.1-0.5,0.3-0.6c0.2-0.2,0.5-0.2,0.9-0.2l2.3,0c0.4,0,0.7,0.1,0.9,0.2
		c0.2,0.2,0.3,0.4,0.3,0.6s-0.1,0.5-0.3,0.6c-0.2,0.2-0.5,0.2-0.9,0.2h-0.4L1145.1,791.6z"/>
	<path d="M1157.8,786.5v5.8h2c0.4,0,0.7,0.1,0.9,0.2c0.2,0.2,0.3,0.4,0.3,0.6c0,0.2-0.1,0.5-0.3,0.6c-0.2,0.2-0.5,0.2-0.9,0.2h-5.8
		c-0.4,0-0.7-0.1-0.9-0.2c-0.2-0.2-0.3-0.4-0.3-0.6c0-0.2,0.1-0.5,0.3-0.6c0.2-0.2,0.5-0.2,0.9-0.2h2v-4.1h-1.4
		c-0.4,0-0.7-0.1-0.9-0.2c-0.2-0.2-0.3-0.4-0.3-0.6c0-0.2,0.1-0.5,0.3-0.6c0.2-0.2,0.5-0.2,0.9-0.2H1157.8z M1157.6,783.3v1.8h-2
		v-1.8H1157.6z"/>
	<path d="M1173.2,791.2h-7c0.2,0.4,0.5,0.8,0.9,1.1c0.5,0.3,1.1,0.4,1.8,0.4c0.6,0,1.5-0.1,2.5-0.4c0.4-0.1,0.7-0.2,0.9-0.2
		c0.2,0,0.4,0.1,0.6,0.2s0.2,0.4,0.2,0.6c0,0.2-0.1,0.4-0.2,0.6c-0.2,0.2-0.8,0.4-1.6,0.6c-0.9,0.2-1.7,0.3-2.5,0.3
		c-1.4,0-2.5-0.4-3.3-1.2c-0.8-0.8-1.2-1.7-1.2-2.8c0-1.2,0.4-2.2,1.3-2.9c0.9-0.8,1.9-1.1,3-1.1c0.7,0,1.3,0.1,1.9,0.4
		c0.6,0.2,1,0.5,1.3,0.8c0.4,0.4,0.7,0.9,1,1.5c0.2,0.4,0.3,0.9,0.3,1.5V791.2z M1171.3,789.5c-0.3-0.5-0.6-0.9-1-1.1
		c-0.4-0.2-0.9-0.4-1.5-0.4c-0.6,0-1.1,0.1-1.5,0.4c-0.4,0.2-0.8,0.6-1,1.1H1171.3z"/>
	<path d="M1180.8,790.9l-1.2,3.1h-1.6l-1.4-5.8c-0.3,0-0.5-0.1-0.7-0.3c-0.2-0.2-0.2-0.4-0.2-0.6c0-0.2,0.1-0.5,0.3-0.6
		c0.2-0.2,0.5-0.2,0.9-0.2h1.6c0.4,0,0.7,0.1,0.9,0.2c0.2,0.2,0.3,0.4,0.3,0.6c0,0.3-0.1,0.5-0.3,0.6c-0.1,0.1-0.4,0.2-0.9,0.2
		l0.6,2.7l1.1-2.8h1.5l1.1,2.8l0.7-2.7c-0.4,0-0.7,0-0.8-0.1c-0.3-0.2-0.4-0.4-0.4-0.7c0-0.2,0.1-0.5,0.3-0.6
		c0.2-0.2,0.5-0.2,0.9-0.2h1.6c0.4,0,0.7,0.1,0.9,0.2c0.2,0.2,0.3,0.4,0.3,0.6c0,0.2-0.1,0.4-0.2,0.6c-0.2,0.2-0.4,0.2-0.7,0.3
		l-1.4,5.8h-1.6L1180.8,790.9z"/>
</g>
<g class="st2">
	<path d="M1138.8,816.1v-0.4c-0.4,0.2-0.9,0.4-1.4,0.5s-1,0.2-1.4,0.2c-0.9,0-1.7-0.2-2.2-0.7c-0.6-0.5-0.9-1-0.9-1.6
		c0-0.7,0.4-1.4,1.1-2s1.7-0.9,3-0.9c0.5,0,1.1,0.1,1.8,0.2v-0.4c0-0.3-0.1-0.5-0.3-0.6c-0.2-0.2-0.6-0.2-1.2-0.2
		c-0.5,0-1.2,0.1-2,0.3c-0.3,0.1-0.5,0.1-0.7,0.1c-0.2,0-0.4-0.1-0.6-0.2c-0.2-0.2-0.2-0.4-0.2-0.6c0-0.1,0-0.3,0.1-0.4
		c0.1-0.1,0.1-0.2,0.2-0.3s0.3-0.1,0.6-0.2c0.4-0.1,0.8-0.2,1.3-0.3c0.4-0.1,0.8-0.1,1.2-0.1c1.1,0,1.9,0.2,2.5,0.7
		c0.6,0.5,0.9,1.1,0.9,1.9v3.5h0.3c0.4,0,0.7,0.1,0.9,0.2c0.2,0.2,0.3,0.4,0.3,0.6c0,0.2-0.1,0.5-0.3,0.6c-0.2,0.2-0.5,0.2-0.9,0.2
		H1138.8z M1138.8,813c-0.7-0.1-1.3-0.2-1.9-0.2c-0.7,0-1.3,0.2-1.8,0.5c-0.3,0.2-0.5,0.4-0.5,0.7c0,0.2,0.1,0.3,0.2,0.4
		c0.3,0.2,0.7,0.3,1.1,0.3c0.4,0,0.9-0.1,1.4-0.2s1-0.4,1.4-0.7V813z"/>
	<path d="M1160.3,807.7v6.7h3.7v-1.6c0-0.4,0.1-0.7,0.2-0.9c0.2-0.2,0.4-0.3,0.6-0.3c0.2,0,0.5,0.1,0.6,0.3c0.2,0.2,0.2,0.5,0.2,0.9
		v3.3h-8.1c-0.4,0-0.7-0.1-0.9-0.2c-0.2-0.2-0.3-0.4-0.3-0.6c0-0.2,0.1-0.5,0.3-0.6c0.2-0.2,0.5-0.2,0.9-0.2h1v-6.7h-1
		c-0.4,0-0.7-0.1-0.9-0.2c-0.2-0.2-0.3-0.4-0.3-0.6s0.1-0.5,0.3-0.6c0.2-0.2,0.5-0.2,0.9-0.2l3.7,0c0.4,0,0.7,0.1,0.9,0.2
		c0.2,0.2,0.3,0.4,0.3,0.6s-0.1,0.5-0.3,0.6c-0.2,0.2-0.5,0.2-0.9,0.2H1160.3z"/>
	<path d="M1173.8,808.5v5.8h2c0.4,0,0.7,0.1,0.9,0.2c0.2,0.2,0.3,0.4,0.3,0.6c0,0.2-0.1,0.5-0.3,0.6c-0.2,0.2-0.5,0.2-0.9,0.2h-5.8
		c-0.4,0-0.7-0.1-0.9-0.2c-0.2-0.2-0.3-0.4-0.3-0.6c0-0.2,0.1-0.5,0.3-0.6c0.2-0.2,0.5-0.2,0.9-0.2h2v-4.1h-1.4
		c-0.4,0-0.7-0.1-0.9-0.2c-0.2-0.2-0.3-0.4-0.3-0.6c0-0.2,0.1-0.5,0.3-0.6c0.2-0.2,0.5-0.2,0.9-0.2H1173.8z M1173.6,805.3v1.8h-2
		v-1.8H1173.6z"/>
	<path d="M1184.9,814l1.8-3.8c-0.5,0-0.7,0-0.9-0.1c-0.3-0.2-0.4-0.4-0.4-0.7c0-0.2,0.1-0.5,0.3-0.6c0.2-0.2,0.5-0.2,0.9-0.2h2.3
		c0.4,0,0.7,0.1,0.9,0.2c0.2,0.2,0.3,0.4,0.3,0.6c0,0.2-0.1,0.5-0.3,0.6c-0.2,0.2-0.5,0.2-0.9,0.2h-0.3l-2.8,5.8h-1.8l-2.8-5.8h-0.2
		c-0.4,0-0.7-0.1-0.9-0.2c-0.2-0.2-0.3-0.4-0.3-0.6c0-0.2,0.1-0.5,0.3-0.6c0.2-0.2,0.5-0.2,0.9-0.2h2.3c0.4,0,0.7,0.1,0.9,0.2
		c0.2,0.2,0.3,0.4,0.3,0.6c0,0.3-0.1,0.6-0.4,0.7c-0.1,0.1-0.4,0.1-0.9,0.1L1184.9,814z"/>
	<path d="M1201,813.2h-7c0.2,0.4,0.5,0.8,0.9,1.1c0.5,0.3,1.1,0.4,1.8,0.4c0.6,0,1.5-0.1,2.5-0.4c0.4-0.1,0.7-0.2,0.9-0.2
		c0.2,0,0.4,0.1,0.6,0.2c0.2,0.2,0.2,0.4,0.2,0.6c0,0.2-0.1,0.4-0.2,0.6c-0.2,0.2-0.8,0.4-1.6,0.6c-0.9,0.2-1.7,0.3-2.5,0.3
		c-1.4,0-2.5-0.4-3.3-1.2s-1.2-1.7-1.2-2.8c0-1.2,0.4-2.2,1.3-2.9s1.9-1.1,3.1-1.1c0.7,0,1.3,0.1,1.9,0.4c0.6,0.2,1,0.5,1.3,0.8
		c0.4,0.4,0.7,0.9,1,1.5c0.2,0.4,0.3,0.9,0.3,1.5V813.2z M1199.1,811.5c-0.3-0.5-0.6-0.9-1-1.1c-0.4-0.2-0.9-0.4-1.5-0.4
		c-0.6,0-1.1,0.1-1.5,0.4c-0.4,0.2-0.8,0.6-1,1.1H1199.1z"/>
</g>
<g class="st2">
	<path d="M1334.7,789.9h-3.6v2.5h0.3c0.4,0,0.7,0.1,0.9,0.2c0.2,0.2,0.3,0.4,0.3,0.6c0,0.2-0.1,0.5-0.3,0.6
		c-0.2,0.2-0.5,0.2-0.9,0.2h-2.1c-0.4,0-0.7-0.1-0.9-0.2c-0.2-0.2-0.3-0.4-0.3-0.6c0-0.3,0.1-0.5,0.4-0.7c0.1-0.1,0.4-0.1,0.8-0.1
		v-6.7c-0.3,0-0.5-0.1-0.7-0.3c-0.2-0.2-0.2-0.3-0.2-0.6c0-0.3,0.1-0.5,0.3-0.6c0.2-0.2,0.5-0.2,0.9-0.2l1.7,0
		c0.4,0,0.7,0.1,0.9,0.2c0.2,0.2,0.3,0.4,0.3,0.6s-0.1,0.5-0.3,0.6c-0.2,0.2-0.5,0.2-0.9,0.2h-0.3v2.5h3.6v-2.5h-0.3
		c-0.4,0-0.7-0.1-0.9-0.2c-0.2-0.2-0.3-0.4-0.3-0.6s0.1-0.5,0.3-0.6c0.2-0.2,0.5-0.2,0.9-0.2l1.7,0c0.4,0,0.7,0.1,0.9,0.2
		c0.2,0.2,0.3,0.4,0.3,0.6c0,0.2-0.1,0.4-0.2,0.6s-0.4,0.2-0.7,0.3v6.7c0.4,0,0.7,0,0.8,0.1c0.3,0.2,0.4,0.4,0.4,0.7
		c0,0.2-0.1,0.5-0.3,0.6c-0.2,0.2-0.5,0.2-0.9,0.2h-2.1c-0.4,0-0.7-0.1-0.9-0.2c-0.2-0.2-0.3-0.4-0.3-0.6c0-0.2,0.1-0.5,0.3-0.6
		c0.2-0.2,0.5-0.2,0.9-0.2h0.3V789.9z"/>
	<path d="M1349.2,790.4c0,0.7-0.2,1.3-0.5,1.9c-0.4,0.6-0.9,1.1-1.6,1.5s-1.5,0.5-2.2,0.5c-0.8,0-1.5-0.2-2.2-0.5
		c-0.7-0.4-1.2-0.8-1.6-1.5c-0.4-0.6-0.6-1.3-0.6-1.9c0-0.7,0.2-1.3,0.6-2c0.4-0.7,0.9-1.2,1.6-1.5c0.7-0.4,1.4-0.6,2.2-0.6
		c0.8,0,1.5,0.2,2.2,0.6c0.7,0.4,1.3,0.9,1.6,1.6S1349.2,789.8,1349.2,790.4z M1347.5,790.5c0-0.5-0.2-1.1-0.6-1.5
		c-0.5-0.6-1.2-0.9-2.1-0.9c-0.8,0-1.4,0.2-1.9,0.7c-0.5,0.5-0.8,1.1-0.8,1.7c0,0.5,0.3,1,0.8,1.5c0.5,0.5,1.2,0.7,1.9,0.7
		c0.8,0,1.4-0.2,1.9-0.7C1347.2,791.5,1347.5,791,1347.5,790.5z"/>
	<path d="M1358.5,788.5c-0.3-0.2-0.6-0.3-0.9-0.4c-0.3-0.1-0.6-0.1-1-0.1c-0.7,0-1.2,0.1-1.6,0.3c-0.2,0.1-0.3,0.2-0.3,0.3
		c0,0.1,0.1,0.3,0.3,0.4c0.2,0.1,0.6,0.2,1.2,0.3c1.1,0.2,1.9,0.3,2.4,0.5c0.6,0.2,1,0.5,1.3,0.9s0.5,0.8,0.5,1.3
		c0,0.6-0.3,1.1-0.8,1.5c-0.8,0.6-1.8,0.9-3,0.9c-0.5,0-0.9,0-1.4-0.1c-0.4-0.1-0.8-0.2-1.2-0.4c-0.1,0.1-0.2,0.1-0.3,0.2
		c-0.1,0-0.2,0.1-0.3,0.1c-0.3,0-0.5-0.1-0.6-0.3c-0.2-0.2-0.2-0.5-0.2-0.9v-0.6c0-0.4,0.1-0.7,0.2-0.9c0.2-0.2,0.4-0.3,0.6-0.3
		c0.2,0,0.4,0.1,0.5,0.2c0.1,0.1,0.2,0.3,0.3,0.6c0.3,0.2,0.6,0.4,0.9,0.5s0.8,0.2,1.3,0.2c0.8,0,1.4-0.1,1.8-0.4
		c0.2-0.1,0.3-0.2,0.3-0.4c0-0.2-0.1-0.4-0.4-0.5c-0.3-0.1-0.9-0.3-1.8-0.4c-1.4-0.1-2.3-0.4-2.7-0.8c-0.5-0.4-0.7-0.9-0.7-1.5
		c0-0.6,0.3-1.1,0.8-1.5c0.7-0.6,1.6-0.8,2.7-0.8c0.4,0,0.8,0,1.1,0.1c0.4,0.1,0.7,0.2,1,0.3c0.1-0.1,0.2-0.1,0.3-0.2
		c0.1,0,0.2-0.1,0.3-0.1c0.2,0,0.4,0.1,0.6,0.3c0.2,0.2,0.2,0.5,0.2,0.9v0.4c0,0.4,0,0.6-0.1,0.8c-0.2,0.3-0.4,0.4-0.7,0.4
		c-0.2,0-0.4-0.1-0.5-0.2C1358.6,788.9,1358.5,788.7,1358.5,788.5z"/>
	<path d="M1368.1,788.2v3.4c0,0.4,0.1,0.6,0.2,0.7c0.2,0.2,0.6,0.3,1.2,0.3c0.9,0,1.7-0.2,2.4-0.6c0.3-0.1,0.5-0.2,0.7-0.2
		c0.2,0,0.4,0.1,0.6,0.2c0.2,0.2,0.2,0.4,0.2,0.6c0,0.2-0.1,0.4-0.3,0.6c-0.3,0.3-0.8,0.5-1.6,0.7c-0.8,0.2-1.5,0.3-2,0.3
		c-1.1,0-1.8-0.2-2.4-0.7c-0.5-0.5-0.8-1-0.8-1.7v-3.7h-0.6c-0.4,0-0.7-0.1-0.9-0.2c-0.2-0.2-0.3-0.4-0.3-0.6c0-0.2,0.1-0.5,0.3-0.6
		c0.2-0.2,0.5-0.2,0.9-0.2h0.6V785c0-0.4,0.1-0.7,0.2-0.9c0.2-0.2,0.4-0.3,0.6-0.3c0.2,0,0.5,0.1,0.6,0.3c0.2,0.2,0.2,0.5,0.2,0.9
		v1.5h3.1c0.4,0,0.7,0.1,0.9,0.2c0.2,0.2,0.3,0.4,0.3,0.6c0,0.2-0.1,0.5-0.3,0.6c-0.2,0.2-0.5,0.2-0.9,0.2H1368.1z"/>
</g>
<g class="st2">
	<path d="M1326.4,816.1v-0.4c-0.4,0.2-0.9,0.4-1.4,0.5s-1,0.2-1.4,0.2c-0.9,0-1.7-0.2-2.2-0.7c-0.6-0.5-0.9-1-0.9-1.6
		c0-0.7,0.4-1.4,1.1-2c0.7-0.6,1.7-0.9,3-0.9c0.5,0,1.1,0.1,1.8,0.2v-0.4c0-0.3-0.1-0.5-0.3-0.6c-0.2-0.2-0.6-0.2-1.2-0.2
		c-0.5,0-1.2,0.1-2,0.3c-0.3,0.1-0.5,0.1-0.7,0.1c-0.2,0-0.4-0.1-0.6-0.2c-0.2-0.2-0.2-0.4-0.2-0.6c0-0.1,0-0.3,0.1-0.4
		c0.1-0.1,0.1-0.2,0.2-0.3s0.3-0.1,0.6-0.2c0.4-0.1,0.8-0.2,1.3-0.3c0.4-0.1,0.8-0.1,1.2-0.1c1.1,0,1.9,0.2,2.5,0.7
		c0.6,0.5,0.9,1.1,0.9,1.9v3.5h0.3c0.4,0,0.7,0.1,0.9,0.2c0.2,0.2,0.3,0.4,0.3,0.6c0,0.2-0.1,0.5-0.3,0.6c-0.2,0.2-0.5,0.2-0.9,0.2
		H1326.4z M1326.4,813c-0.7-0.1-1.3-0.2-1.9-0.2c-0.7,0-1.3,0.2-1.8,0.5c-0.3,0.2-0.5,0.4-0.5,0.7c0,0.2,0.1,0.3,0.2,0.4
		c0.3,0.2,0.7,0.3,1.1,0.3c0.4,0,0.9-0.1,1.4-0.2c0.5-0.2,1-0.4,1.4-0.7V813z"/>
	<path d="M1348,807.7v6.7h3.7v-1.6c0-0.4,0.1-0.7,0.2-0.9c0.2-0.2,0.4-0.3,0.6-0.3c0.2,0,0.5,0.1,0.6,0.3c0.2,0.2,0.2,0.5,0.2,0.9
		v3.3h-8.1c-0.4,0-0.7-0.1-0.9-0.2c-0.2-0.2-0.3-0.4-0.3-0.6c0-0.2,0.1-0.5,0.3-0.6c0.2-0.2,0.5-0.2,0.9-0.2h1v-6.7h-1
		c-0.4,0-0.7-0.1-0.9-0.2c-0.2-0.2-0.3-0.4-0.3-0.6s0.1-0.5,0.3-0.6c0.2-0.2,0.5-0.2,0.9-0.2l3.7,0c0.4,0,0.7,0.1,0.9,0.2
		c0.2,0.2,0.3,0.4,0.3,0.6s-0.1,0.5-0.3,0.6c-0.2,0.2-0.5,0.2-0.9,0.2H1348z"/>
	<path d="M1361.4,808.5v5.8h2c0.4,0,0.7,0.1,0.9,0.2c0.2,0.2,0.3,0.4,0.3,0.6c0,0.2-0.1,0.5-0.3,0.6c-0.2,0.2-0.5,0.2-0.9,0.2h-5.8
		c-0.4,0-0.7-0.1-0.9-0.2c-0.2-0.2-0.3-0.4-0.3-0.6c0-0.2,0.1-0.5,0.3-0.6c0.2-0.2,0.5-0.2,0.9-0.2h2v-4.1h-1.4
		c-0.4,0-0.7-0.1-0.9-0.2c-0.2-0.2-0.3-0.4-0.3-0.6c0-0.2,0.1-0.5,0.3-0.6c0.2-0.2,0.5-0.2,0.9-0.2H1361.4z M1361.2,805.3v1.8h-2
		v-1.8H1361.2z"/>
	<path d="M1372.5,814l1.8-3.8c-0.5,0-0.7,0-0.9-0.1c-0.3-0.2-0.4-0.4-0.4-0.7c0-0.2,0.1-0.5,0.3-0.6c0.2-0.2,0.5-0.2,0.9-0.2h2.3
		c0.4,0,0.7,0.1,0.9,0.2c0.2,0.2,0.3,0.4,0.3,0.6c0,0.2-0.1,0.5-0.3,0.6c-0.2,0.2-0.5,0.2-0.9,0.2h-0.3l-2.8,5.8h-1.8l-2.8-5.8h-0.2
		c-0.4,0-0.7-0.1-0.9-0.2c-0.2-0.2-0.3-0.4-0.3-0.6c0-0.2,0.1-0.5,0.3-0.6c0.2-0.2,0.5-0.2,0.9-0.2h2.3c0.4,0,0.7,0.1,0.9,0.2
		c0.2,0.2,0.3,0.4,0.3,0.6c0,0.3-0.1,0.6-0.4,0.7c-0.1,0.1-0.4,0.1-0.9,0.1L1372.5,814z"/>
	<path d="M1388.6,813.2h-7c0.2,0.4,0.5,0.8,0.9,1.1c0.5,0.3,1.1,0.4,1.8,0.4c0.6,0,1.5-0.1,2.5-0.4c0.4-0.1,0.7-0.2,0.9-0.2
		c0.2,0,0.4,0.1,0.6,0.2c0.2,0.2,0.2,0.4,0.2,0.6c0,0.2-0.1,0.4-0.2,0.6c-0.2,0.2-0.8,0.4-1.6,0.6c-0.9,0.2-1.7,0.3-2.5,0.3
		c-1.4,0-2.5-0.4-3.3-1.2c-0.8-0.8-1.2-1.7-1.2-2.8c0-1.2,0.4-2.2,1.3-2.9c0.9-0.8,1.9-1.1,3-1.1c0.7,0,1.3,0.1,1.9,0.4
		c0.6,0.2,1,0.5,1.3,0.8c0.4,0.4,0.7,0.9,1,1.5c0.2,0.4,0.3,0.9,0.3,1.5V813.2z M1386.8,811.5c-0.3-0.5-0.6-0.9-1-1.1
		c-0.4-0.2-0.9-0.4-1.5-0.4c-0.6,0-1.1,0.1-1.5,0.4c-0.4,0.2-0.8,0.6-1,1.1H1386.8z"/>
</g>
<g class="st2">
	<path d="M565.1,790.6v1.8h1.7c0.4,0,0.7,0.1,0.9,0.2c0.2,0.2,0.3,0.4,0.3,0.6c0,0.2-0.1,0.5-0.3,0.6c-0.2,0.2-0.5,0.2-0.9,0.2h-3.7
		c-0.4,0-0.7-0.1-0.9-0.2c-0.2-0.2-0.3-0.4-0.3-0.6c0-0.2,0.1-0.5,0.3-0.6c0.2-0.2,0.5-0.2,0.9-0.2h0.3v-6.7h-0.3
		c-0.4,0-0.7-0.1-0.9-0.2c-0.2-0.2-0.3-0.4-0.3-0.6s0.1-0.5,0.3-0.6c0.2-0.2,0.5-0.2,0.9-0.2l3.9,0c1.2,0,2.1,0.3,2.7,0.9
		c0.7,0.6,1,1.4,1,2.3c0,0.5-0.1,1-0.3,1.4c-0.2,0.3-0.5,0.7-0.9,1c-0.4,0.3-0.8,0.6-1.2,0.7c-0.4,0.2-1,0.2-1.7,0.2H565.1z
		 M565.1,788.9h1.6c0.7,0,1.3-0.2,1.8-0.5s0.7-0.7,0.7-1.2c0-0.4-0.2-0.7-0.5-1c-0.4-0.3-0.9-0.4-1.5-0.4h-2V788.9z"/>
	<path d="M581.6,786.5v5.8c0.4,0,0.6,0.1,0.8,0.2c0.2,0.2,0.3,0.4,0.3,0.6s-0.1,0.5-0.3,0.6c-0.2,0.2-0.5,0.2-0.9,0.2h-1.6v-0.4
		c-0.5,0.2-1,0.4-1.4,0.5c-0.4,0.1-0.9,0.2-1.3,0.2c-0.6,0-1-0.1-1.5-0.4c-0.4-0.2-0.7-0.6-1-1c-0.2-0.3-0.3-0.7-0.3-1.1v-3.7h-0.3
		c-0.4,0-0.7-0.1-0.9-0.2c-0.2-0.2-0.3-0.4-0.3-0.6c0-0.2,0.1-0.5,0.3-0.6c0.2-0.2,0.5-0.2,0.9-0.2h2v5.1c0,0.4,0.1,0.6,0.3,0.8
		c0.2,0.2,0.4,0.3,0.8,0.3c0.3,0,0.7-0.1,1.1-0.2c0.4-0.1,0.9-0.4,1.5-0.7v-3.5h-0.6c-0.4,0-0.7-0.1-0.9-0.2
		c-0.2-0.2-0.3-0.4-0.3-0.6c0-0.2,0.1-0.5,0.3-0.6c0.2-0.2,0.5-0.2,0.9-0.2H581.6z"/>
	<path d="M587.8,783.3v3.8c0.4-0.3,0.8-0.5,1.3-0.6c0.4-0.1,0.9-0.2,1.3-0.2c1.2,0,2.2,0.4,3,1.2c0.8,0.8,1.2,1.8,1.2,2.9
		c0,1.1-0.4,2-1.2,2.8c-0.8,0.7-1.8,1.1-3.1,1.1c-0.5,0-0.9-0.1-1.3-0.2c-0.4-0.1-0.8-0.3-1.2-0.5v0.4h-2c-0.4,0-0.7-0.1-0.9-0.2
		c-0.2-0.2-0.3-0.4-0.3-0.6c0-0.2,0.1-0.5,0.3-0.6c0.2-0.2,0.5-0.2,0.9-0.2h0.3V785h-0.3c-0.4,0-0.7-0.1-0.9-0.2
		c-0.2-0.2-0.3-0.4-0.3-0.6c0-0.2,0.1-0.5,0.3-0.6c0.2-0.2,0.5-0.2,0.9-0.2H587.8z M592.9,790.5c0-0.7-0.2-1.3-0.7-1.8
		c-0.5-0.5-1.1-0.7-1.8-0.7c-0.7,0-1.3,0.2-1.8,0.7c-0.5,0.5-0.7,1.1-0.7,1.8c0,0.6,0.2,1.1,0.7,1.5c0.4,0.4,1.1,0.6,1.9,0.6
		c0.8,0,1.4-0.2,1.9-0.6C592.7,791.6,592.9,791.1,592.9,790.5z"/>
	<path d="M602.7,783.3v9.1h2c0.4,0,0.7,0.1,0.9,0.2c0.2,0.2,0.3,0.4,0.3,0.6c0,0.2-0.1,0.5-0.3,0.6c-0.2,0.2-0.5,0.2-0.9,0.2h-5.8
		c-0.4,0-0.7-0.1-0.9-0.2c-0.2-0.2-0.3-0.4-0.3-0.6c0-0.2,0.1-0.5,0.3-0.6c0.2-0.2,0.5-0.2,0.9-0.2h2V785h-1.4
		c-0.4,0-0.7-0.1-0.9-0.2c-0.2-0.2-0.3-0.4-0.3-0.6c0-0.2,0.1-0.5,0.3-0.6c0.2-0.2,0.5-0.2,0.9-0.2H602.7z"/>
	<path d="M614.6,786.5v5.8h2c0.4,0,0.7,0.1,0.9,0.2c0.2,0.2,0.3,0.4,0.3,0.6c0,0.2-0.1,0.5-0.3,0.6c-0.2,0.2-0.5,0.2-0.9,0.2h-5.8
		c-0.4,0-0.7-0.1-0.9-0.2c-0.2-0.2-0.3-0.4-0.3-0.6c0-0.2,0.1-0.5,0.3-0.6c0.2-0.2,0.5-0.2,0.9-0.2h2v-4.1h-1.4
		c-0.4,0-0.7-0.1-0.9-0.2c-0.2-0.2-0.3-0.4-0.3-0.6c0-0.2,0.1-0.5,0.3-0.6c0.2-0.2,0.5-0.2,0.9-0.2H614.6z M614.3,783.3v1.8h-2v-1.8
		H614.3z"/>
	<path d="M627.5,788.5c-0.3-0.2-0.6-0.3-0.9-0.4c-0.3-0.1-0.6-0.1-1-0.1c-0.7,0-1.2,0.1-1.6,0.3c-0.2,0.1-0.3,0.2-0.3,0.3
		c0,0.1,0.1,0.3,0.3,0.4c0.2,0.1,0.6,0.2,1.2,0.3c1.1,0.2,1.9,0.3,2.4,0.5c0.6,0.2,1,0.5,1.3,0.9s0.5,0.8,0.5,1.3
		c0,0.6-0.3,1.1-0.8,1.5c-0.8,0.6-1.8,0.9-3,0.9c-0.5,0-0.9,0-1.4-0.1s-0.8-0.2-1.1-0.4c-0.1,0.1-0.2,0.1-0.3,0.2
		c-0.1,0-0.2,0.1-0.3,0.1c-0.3,0-0.5-0.1-0.6-0.3c-0.2-0.2-0.2-0.5-0.2-0.9v-0.6c0-0.4,0.1-0.7,0.2-0.9c0.2-0.2,0.4-0.3,0.6-0.3
		c0.2,0,0.4,0.1,0.5,0.2c0.1,0.1,0.2,0.3,0.3,0.6c0.3,0.2,0.6,0.4,0.9,0.5s0.8,0.2,1.3,0.2c0.8,0,1.4-0.1,1.8-0.4
		c0.2-0.1,0.3-0.2,0.3-0.4c0-0.2-0.1-0.4-0.4-0.5c-0.3-0.1-0.9-0.3-1.8-0.4c-1.4-0.1-2.3-0.4-2.7-0.8c-0.5-0.4-0.7-0.9-0.7-1.5
		c0-0.6,0.3-1.1,0.8-1.5c0.7-0.6,1.6-0.8,2.7-0.8c0.4,0,0.8,0,1.1,0.1c0.4,0.1,0.7,0.2,1,0.3c0.1-0.1,0.2-0.1,0.3-0.2
		c0.1,0,0.2-0.1,0.3-0.1c0.2,0,0.4,0.1,0.6,0.3c0.2,0.2,0.2,0.5,0.2,0.9v0.4c0,0.4,0,0.6-0.1,0.8c-0.2,0.3-0.4,0.4-0.7,0.4
		c-0.2,0-0.4-0.1-0.5-0.2C627.6,788.9,627.5,788.7,627.5,788.5z"/>
	<path d="M635.8,783.3v3.6c0.4-0.2,0.7-0.4,1.1-0.5s0.7-0.2,1.1-0.2c0.6,0,1.1,0.1,1.6,0.3c0.5,0.2,0.8,0.5,1.1,0.9
		c0.3,0.4,0.5,1,0.5,1.6v3.2c0.4,0,0.7,0,0.8,0.1c0.3,0.2,0.4,0.4,0.4,0.7c0,0.2-0.1,0.5-0.3,0.6c-0.2,0.2-0.5,0.2-0.9,0.2h-1.9
		c-0.4,0-0.7-0.1-0.9-0.2c-0.2-0.2-0.3-0.4-0.3-0.6c0-0.3,0.1-0.5,0.4-0.7c0.1-0.1,0.4-0.1,0.8-0.1v-3.1c0-0.4-0.1-0.7-0.3-0.9
		c-0.3-0.2-0.6-0.4-1.2-0.4c-0.4,0-0.7,0.1-1,0.2c-0.3,0.1-0.7,0.5-1.2,1v3.2c0.4,0,0.7,0,0.8,0.1c0.3,0.2,0.4,0.4,0.4,0.7
		c0,0.2-0.1,0.5-0.3,0.6c-0.2,0.2-0.5,0.2-0.9,0.2H634c-0.4,0-0.7-0.1-0.9-0.2c-0.2-0.2-0.3-0.4-0.3-0.6c0-0.3,0.1-0.5,0.4-0.7
		c0.1-0.1,0.4-0.1,0.8-0.1V785h-0.3c-0.4,0-0.7-0.1-0.9-0.2c-0.2-0.2-0.3-0.4-0.3-0.6c0-0.2,0.1-0.5,0.3-0.6
		c0.2-0.2,0.5-0.2,0.9-0.2H635.8z"/>
</g>
<g class="st2">
	<path d="M569.3,816.1v-0.4c-0.4,0.2-0.9,0.4-1.4,0.5s-1,0.2-1.4,0.2c-0.9,0-1.7-0.2-2.2-0.7s-0.9-1-0.9-1.6c0-0.7,0.4-1.4,1.1-2
		c0.7-0.6,1.7-0.9,3-0.9c0.5,0,1.1,0.1,1.8,0.2v-0.4c0-0.3-0.1-0.5-0.3-0.6c-0.2-0.2-0.6-0.2-1.2-0.2c-0.5,0-1.2,0.1-2,0.3
		c-0.3,0.1-0.5,0.1-0.7,0.1c-0.2,0-0.4-0.1-0.6-0.2c-0.2-0.2-0.2-0.4-0.2-0.6c0-0.1,0-0.3,0.1-0.4c0.1-0.1,0.1-0.2,0.2-0.3
		s0.3-0.1,0.6-0.2c0.4-0.1,0.8-0.2,1.3-0.3s0.8-0.1,1.2-0.1c1.1,0,1.9,0.2,2.5,0.7c0.6,0.5,0.9,1.1,0.9,1.9v3.5h0.3
		c0.4,0,0.7,0.1,0.9,0.2c0.2,0.2,0.3,0.4,0.3,0.6c0,0.2-0.1,0.5-0.3,0.6c-0.2,0.2-0.5,0.2-0.9,0.2H569.3z M569.3,813
		c-0.7-0.1-1.3-0.2-1.9-0.2c-0.7,0-1.3,0.2-1.8,0.5c-0.3,0.2-0.5,0.4-0.5,0.7c0,0.2,0.1,0.3,0.2,0.4c0.3,0.2,0.7,0.3,1.1,0.3
		c0.4,0,0.9-0.1,1.4-0.2c0.5-0.2,1-0.4,1.4-0.7V813z"/>
	<path d="M589,815.6c-0.1,0.2-0.3,0.3-0.4,0.3c-0.1,0.1-0.2,0.1-0.3,0.1c-0.3,0-0.5-0.1-0.6-0.3c-0.2-0.2-0.2-0.5-0.2-0.9v-1.1
		c0-0.4,0.1-0.7,0.2-0.9c0.2-0.2,0.4-0.3,0.6-0.3c0.2,0,0.4,0.1,0.5,0.2c0.1,0.1,0.2,0.3,0.3,0.5s0.1,0.4,0.2,0.5
		c0.2,0.2,0.4,0.3,0.9,0.5c0.4,0.2,0.9,0.3,1.3,0.3c0.8,0,1.4-0.2,1.9-0.5c0.3-0.2,0.5-0.5,0.5-0.8c0-0.2-0.1-0.4-0.2-0.6
		s-0.4-0.3-0.7-0.5c-0.2-0.1-0.7-0.2-1.5-0.3c-0.9-0.2-1.6-0.4-2.1-0.6s-0.9-0.6-1.1-1s-0.4-0.9-0.4-1.4c0-0.8,0.3-1.5,1-2.1
		s1.6-0.9,2.7-0.9c0.4,0,0.8,0,1.2,0.1c0.4,0.1,0.7,0.2,1,0.4c0.2-0.2,0.4-0.3,0.7-0.3c0.2,0,0.5,0.1,0.6,0.3
		c0.2,0.2,0.2,0.5,0.2,0.9v1.3c0,0.4-0.1,0.7-0.2,0.9c-0.2,0.2-0.4,0.3-0.6,0.3c-0.2,0-0.4-0.1-0.5-0.2c-0.1-0.1-0.2-0.3-0.3-0.6
		c-0.1-0.3-0.1-0.5-0.2-0.6c-0.2-0.2-0.4-0.4-0.7-0.5s-0.7-0.2-1.1-0.2c-0.6,0-1.1,0.1-1.5,0.4c-0.4,0.3-0.5,0.6-0.5,0.9
		c0,0.2,0.1,0.4,0.2,0.6c0.1,0.2,0.4,0.4,0.6,0.5c0.2,0.1,0.7,0.2,1.6,0.4c0.9,0.2,1.5,0.4,2,0.6c0.5,0.2,0.9,0.5,1.2,1
		c0.3,0.4,0.5,1,0.5,1.6c0,0.8-0.3,1.5-0.9,2c-0.8,0.7-1.8,1-3,1c-0.5,0-0.9-0.1-1.4-0.2C589.9,816,589.5,815.9,589,815.6z"/>
	<path d="M603,810.2v3.4c0,0.4,0.1,0.6,0.2,0.7c0.2,0.2,0.6,0.3,1.2,0.3c0.9,0,1.7-0.2,2.4-0.6c0.3-0.1,0.5-0.2,0.7-0.2
		c0.2,0,0.4,0.1,0.6,0.2c0.2,0.2,0.2,0.4,0.2,0.6c0,0.2-0.1,0.4-0.3,0.6c-0.3,0.3-0.8,0.5-1.6,0.7c-0.8,0.2-1.5,0.3-2,0.3
		c-1.1,0-1.8-0.2-2.4-0.7c-0.5-0.5-0.8-1-0.8-1.7v-3.7h-0.6c-0.4,0-0.7-0.1-0.9-0.2c-0.2-0.2-0.3-0.4-0.3-0.6c0-0.2,0.1-0.5,0.3-0.6
		c0.2-0.2,0.5-0.2,0.9-0.2h0.6V807c0-0.4,0.1-0.7,0.2-0.9c0.2-0.2,0.4-0.3,0.6-0.3c0.2,0,0.5,0.1,0.6,0.3c0.2,0.2,0.2,0.5,0.2,0.9
		v1.5h3.1c0.4,0,0.7,0.1,0.9,0.2c0.2,0.2,0.3,0.4,0.3,0.6c0,0.2-0.1,0.5-0.3,0.6c-0.2,0.2-0.5,0.2-0.9,0.2H603z"/>
	<path d="M619.7,812.4c0,0.7-0.2,1.3-0.5,1.9c-0.4,0.6-0.9,1.1-1.6,1.5c-0.7,0.4-1.5,0.5-2.2,0.5c-0.8,0-1.5-0.2-2.2-0.5
		c-0.7-0.4-1.2-0.8-1.6-1.5c-0.4-0.6-0.6-1.3-0.6-1.9c0-0.7,0.2-1.3,0.6-2c0.4-0.7,0.9-1.2,1.6-1.5c0.7-0.4,1.4-0.6,2.2-0.6
		c0.8,0,1.5,0.2,2.2,0.6c0.7,0.4,1.3,0.9,1.6,1.6S619.7,811.8,619.7,812.4z M618,812.5c0-0.5-0.2-1.1-0.6-1.5
		c-0.5-0.6-1.2-0.9-2.1-0.9c-0.8,0-1.4,0.2-1.9,0.7c-0.5,0.5-0.8,1.1-0.8,1.7c0,0.5,0.3,1,0.8,1.5s1.2,0.7,1.9,0.7
		c0.8,0,1.4-0.2,1.9-0.7S618,813,618,812.5z"/>
	<path d="M626.9,808.5v1.1c0.7-0.5,1.3-0.9,1.7-1c0.4-0.2,0.8-0.3,1.2-0.3c0.6,0,1.1,0.2,1.6,0.6c0.4,0.3,0.5,0.6,0.5,0.8
		c0,0.2-0.1,0.5-0.3,0.6c-0.2,0.2-0.4,0.3-0.6,0.3c-0.2,0-0.4-0.1-0.7-0.3s-0.4-0.3-0.6-0.3c-0.2,0-0.6,0.1-1.1,0.4
		c-0.5,0.3-1.1,0.7-1.8,1.3v2.6h2.4c0.4,0,0.7,0.1,0.9,0.2c0.2,0.2,0.3,0.4,0.3,0.6c0,0.2-0.1,0.5-0.3,0.6c-0.2,0.2-0.5,0.2-0.9,0.2
		h-5.1c-0.4,0-0.7-0.1-0.9-0.2c-0.2-0.2-0.3-0.4-0.3-0.6c0-0.2,0.1-0.5,0.3-0.6c0.2-0.2,0.5-0.2,0.9-0.2h1v-4.1h-0.6
		c-0.4,0-0.7-0.1-0.9-0.2c-0.2-0.2-0.3-0.4-0.3-0.6c0-0.2,0.1-0.5,0.3-0.6c0.2-0.2,0.5-0.2,0.9-0.2H626.9z"/>
	<path d="M638.2,816l-2.9-5.8c-0.3,0-0.5-0.1-0.6-0.3c-0.1-0.2-0.2-0.3-0.2-0.6c0-0.3,0.1-0.5,0.3-0.6c0.2-0.2,0.5-0.2,0.9-0.2h1.6
		c0.4,0,0.7,0.1,0.9,0.2c0.2,0.2,0.3,0.4,0.3,0.6c0,0.2-0.1,0.5-0.3,0.6c-0.2,0.2-0.4,0.2-0.8,0.2l2,3.9l2-3.9
		c-0.4,0-0.6-0.1-0.8-0.2c-0.2-0.2-0.3-0.4-0.3-0.6c0-0.2,0.1-0.5,0.3-0.6c0.2-0.2,0.5-0.2,0.9-0.2h1.6c0.4,0,0.7,0.1,0.9,0.2
		c0.2,0.2,0.3,0.4,0.3,0.6c0,0.2-0.1,0.4-0.2,0.6c-0.1,0.2-0.4,0.2-0.7,0.3l-3.9,7.7c0.4,0,0.7,0,0.8,0.1c0.3,0.2,0.4,0.4,0.4,0.7
		c0,0.2-0.1,0.5-0.3,0.6c-0.2,0.2-0.5,0.2-0.9,0.2h-3.7c-0.4,0-0.7-0.1-0.9-0.2c-0.2-0.2-0.3-0.4-0.3-0.6c0-0.3,0.1-0.5,0.3-0.6
		c0.2-0.2,0.5-0.2,0.9-0.2h1.7L638.2,816z"/>
</g>
<path class="st6" d="M1630.8,386l-24.6-6.8l-9.7,23.7l-21.9-13.2l-15.6,20.2l-17.5-18.6l-20.6,15.2l-11.8-22.6l-23.9,9.1l-5.3-25
	l-25.4,2.3l1.7-25.5L1431,340l8.5-24.1l-22.9-11.3l14.7-20.9l-19-17l19.8-16.2l-13.8-21.5l23.4-10.3l-7.4-24.4l25.3-3.6l-0.6-25.5
	l25.3,3.4l6.4-24.8l23.4,10l12.8-22.1l19.9,16.1l18.3-17.8l14.8,20.8l22.4-12.2l8.6,24l24.9-5.7l1.8,25.5l25.5,1.2l-5.1,25l24.3,8
	l-11.7,22.7l21.2,14.3l-17.4,18.7l16.6,19.6l-21.8,13.4l10.7,23.2l-24.6,7l4,25.2l-25.6,0.1L1630.8,386z"/>
<g class="st2">
	<path d="M1516.3,203c0.1-0.2,0.2-0.3,0.4-0.4c0.1-0.1,0.3-0.1,0.5-0.1c0.3,0,0.5,0.1,0.7,0.3c0.2,0.2,0.3,0.5,0.3,1v1.6
		c0,0.5-0.1,0.8-0.3,1c-0.2,0.2-0.4,0.3-0.7,0.3c-0.3,0-0.5-0.1-0.6-0.2s-0.3-0.4-0.3-0.8c0-0.3-0.1-0.5-0.3-0.6
		c-0.3-0.3-0.6-0.5-1.1-0.7c-0.5-0.2-0.9-0.3-1.4-0.3c-0.6,0-1.1,0.1-1.6,0.4s-0.9,0.6-1.3,1.2s-0.5,1.2-0.5,2v1.2
		c0,0.9,0.3,1.7,1,2.3s1.6,0.9,2.8,0.9c0.7,0,1.3-0.1,1.8-0.3c0.3-0.1,0.6-0.3,0.9-0.7c0.2-0.2,0.4-0.3,0.5-0.4
		c0.1-0.1,0.2-0.1,0.4-0.1c0.3,0,0.5,0.1,0.7,0.3c0.2,0.2,0.3,0.4,0.3,0.7s-0.1,0.5-0.4,0.8c-0.4,0.4-0.9,0.8-1.5,1
		c-0.8,0.3-1.7,0.5-2.6,0.5c-1.1,0-2.1-0.2-3-0.7c-0.7-0.4-1.4-1-1.9-1.8c-0.5-0.8-0.8-1.7-0.8-2.6v-1.3c0-1,0.2-1.9,0.7-2.8
		c0.5-0.9,1.1-1.5,1.9-2s1.7-0.7,2.6-0.7c0.5,0,1.1,0.1,1.5,0.2C1515.5,202.6,1515.9,202.8,1516.3,203z"/>
	<path d="M1528.4,213.8v-0.4c-0.5,0.3-1,0.4-1.6,0.6c-0.6,0.1-1.1,0.2-1.6,0.2c-1,0-1.8-0.3-2.5-0.8s-1-1.1-1-1.8
		c0-0.8,0.4-1.5,1.2-2.2c0.8-0.7,1.9-1,3.4-1c0.6,0,1.2,0.1,2,0.2V208c0-0.3-0.1-0.5-0.4-0.7c-0.2-0.2-0.7-0.3-1.4-0.3
		c-0.6,0-1.3,0.1-2.2,0.3c-0.3,0.1-0.6,0.1-0.8,0.1c-0.3,0-0.5-0.1-0.6-0.3c-0.2-0.2-0.3-0.4-0.3-0.7c0-0.2,0-0.3,0.1-0.4
		c0.1-0.1,0.1-0.2,0.3-0.3s0.3-0.2,0.7-0.3c0.5-0.1,0.9-0.2,1.4-0.3c0.5-0.1,0.9-0.1,1.3-0.1c1.2,0,2.1,0.3,2.8,0.8
		c0.7,0.5,1,1.2,1,2.1v3.9h0.3c0.5,0,0.8,0.1,1,0.3c0.2,0.2,0.3,0.4,0.3,0.7c0,0.3-0.1,0.5-0.3,0.7c-0.2,0.2-0.5,0.3-1,0.3H1528.4z
		 M1528.4,210.4c-0.8-0.1-1.5-0.2-2.1-0.2c-0.8,0-1.4,0.2-2,0.6c-0.3,0.2-0.5,0.5-0.5,0.7c0,0.2,0.1,0.3,0.2,0.4
		c0.3,0.2,0.7,0.3,1.3,0.3c0.5,0,1-0.1,1.6-0.3s1.1-0.4,1.5-0.7V210.4z"/>
	<path d="M1539.5,205.4v1.2c0.8-0.6,1.4-1,1.9-1.2c0.5-0.2,0.9-0.3,1.3-0.3c0.6,0,1.2,0.2,1.8,0.7c0.4,0.3,0.6,0.6,0.6,0.9
		c0,0.3-0.1,0.5-0.3,0.7c-0.2,0.2-0.4,0.3-0.7,0.3c-0.2,0-0.5-0.1-0.7-0.4s-0.5-0.4-0.7-0.4c-0.3,0-0.7,0.2-1.2,0.5
		c-0.5,0.3-1.2,0.8-2,1.5v2.9h2.7c0.5,0,0.8,0.1,1,0.3c0.2,0.2,0.3,0.4,0.3,0.7c0,0.3-0.1,0.5-0.3,0.7c-0.2,0.2-0.5,0.3-1,0.3h-5.7
		c-0.5,0-0.8-0.1-1-0.3c-0.2-0.2-0.3-0.4-0.3-0.7c0-0.3,0.1-0.5,0.3-0.7c0.2-0.2,0.5-0.3,1-0.3h1.1v-4.6h-0.7c-0.5,0-0.8-0.1-1-0.3
		c-0.2-0.2-0.3-0.4-0.3-0.7c0-0.3,0.1-0.5,0.3-0.7c0.2-0.2,0.5-0.3,1-0.3H1539.5z"/>
	<path d="M1550.8,201.7v4.3c0.5-0.3,0.9-0.5,1.4-0.7c0.5-0.2,1-0.2,1.5-0.2c1.3,0,2.4,0.5,3.3,1.4c0.9,0.9,1.4,2,1.4,3.3
		c0,1.2-0.4,2.3-1.3,3.1c-0.9,0.8-2,1.2-3.5,1.2c-0.5,0-1-0.1-1.5-0.2s-0.9-0.3-1.4-0.6v0.5h-2.2c-0.5,0-0.8-0.1-1-0.3
		c-0.2-0.2-0.3-0.4-0.3-0.7c0-0.3,0.1-0.5,0.3-0.7c0.2-0.2,0.5-0.3,1-0.3h0.3v-8.2h-0.3c-0.5,0-0.8-0.1-1-0.3
		c-0.2-0.2-0.3-0.4-0.3-0.7c0-0.3,0.1-0.5,0.3-0.7c0.2-0.2,0.5-0.3,1-0.3H1550.8z M1556.5,209.8c0-0.8-0.3-1.5-0.8-2
		c-0.6-0.5-1.2-0.8-2-0.8c-0.8,0-1.5,0.3-2,0.8s-0.8,1.2-0.8,2c0,0.7,0.2,1.3,0.7,1.7c0.5,0.4,1.2,0.7,2.1,0.7
		c0.9,0,1.6-0.2,2.1-0.7C1556.3,211.1,1556.5,210.5,1556.5,209.8z"/>
	<path d="M1571.5,209.7c0,0.7-0.2,1.4-0.6,2.1c-0.4,0.7-1,1.2-1.8,1.6c-0.8,0.4-1.6,0.6-2.5,0.6c-0.9,0-1.7-0.2-2.5-0.6
		c-0.8-0.4-1.4-0.9-1.8-1.6c-0.4-0.7-0.6-1.4-0.6-2.2c0-0.8,0.2-1.5,0.6-2.2c0.4-0.7,1-1.3,1.8-1.7c0.8-0.4,1.6-0.6,2.5-0.6
		c0.9,0,1.7,0.2,2.5,0.6s1.4,1,1.8,1.7C1571.3,208.2,1571.5,209,1571.5,209.7z M1569.6,209.7c0-0.6-0.2-1.2-0.7-1.7
		c-0.6-0.7-1.4-1-2.4-1c-0.9,0-1.6,0.3-2.2,0.8c-0.6,0.6-0.9,1.2-0.9,1.9c0,0.6,0.3,1.1,0.9,1.7s1.3,0.8,2.1,0.8
		c0.9,0,1.6-0.3,2.2-0.8C1569.3,210.9,1569.6,210.3,1569.6,209.7z"/>
	<path d="M1577.9,205.4v0.6c0.3-0.3,0.7-0.5,1.1-0.7c0.4-0.1,0.9-0.2,1.4-0.2c1.1,0,2,0.3,2.7,1c0.5,0.6,0.8,1.3,0.8,2.2v3.5
		c0.4,0,0.7,0.1,0.9,0.3c0.2,0.2,0.3,0.4,0.3,0.7c0,0.3-0.1,0.5-0.3,0.7c-0.2,0.2-0.5,0.3-1,0.3h-1.7c-0.5,0-0.8-0.1-1-0.3
		c-0.2-0.2-0.3-0.4-0.3-0.7c0-0.3,0.1-0.5,0.3-0.7c0.2-0.2,0.5-0.3,0.9-0.3v-3.6c0-0.4-0.1-0.7-0.3-0.9c-0.3-0.2-0.7-0.4-1.3-0.4
		c-0.4,0-0.8,0.1-1.2,0.3c-0.3,0.2-0.8,0.5-1.3,1.1v3.5c0.5,0,0.8,0,0.9,0.1c0.3,0.2,0.5,0.5,0.5,0.8c0,0.3-0.1,0.5-0.3,0.7
		c-0.2,0.2-0.5,0.3-1,0.3h-2.2c-0.5,0-0.8-0.1-1-0.3c-0.2-0.2-0.3-0.4-0.3-0.7c0-0.3,0.1-0.6,0.4-0.8c0.1-0.1,0.5-0.1,1-0.1v-4.6
		c-0.4,0-0.7-0.1-0.9-0.3c-0.2-0.2-0.3-0.4-0.3-0.7s0.1-0.5,0.3-0.7c0.2-0.2,0.5-0.3,1-0.3H1577.9z"/>
</g>
<g class="st2">
	<path d="M1499.5,229.4v6.5h2.3c0.5,0,0.8,0.1,1,0.3c0.2,0.2,0.3,0.4,0.3,0.7c0,0.3-0.1,0.5-0.3,0.7c-0.2,0.2-0.5,0.3-1,0.3h-6.5
		c-0.5,0-0.8-0.1-1-0.3c-0.2-0.2-0.3-0.4-0.3-0.7c0-0.3,0.1-0.5,0.3-0.7c0.2-0.2,0.5-0.3,1-0.3h2.3v-4.6h-1.5c-0.5,0-0.8-0.1-1-0.3
		c-0.2-0.2-0.3-0.4-0.3-0.7c0-0.3,0.1-0.5,0.3-0.7c0.2-0.2,0.5-0.3,1-0.3H1499.5z M1499.2,225.7v2h-2.3v-2H1499.2z"/>
	<path d="M1508.9,229.4v0.5c0.3-0.3,0.6-0.5,0.8-0.6c0.2-0.1,0.5-0.2,0.9-0.2c0.3,0,0.6,0.1,0.8,0.2s0.5,0.3,0.8,0.6
		c0.3-0.3,0.7-0.5,1-0.6c0.3-0.1,0.7-0.2,1-0.2c0.7,0,1.3,0.2,1.7,0.6c0.6,0.5,0.9,1.1,0.9,1.9v4.3c0.4,0,0.7,0.1,0.9,0.3
		c0.2,0.2,0.3,0.4,0.3,0.7s-0.1,0.5-0.3,0.7c-0.2,0.2-0.5,0.3-1,0.3h-1.8v-6c0-0.3-0.1-0.5-0.2-0.6s-0.3-0.2-0.5-0.2
		c-0.2,0-0.4,0.1-0.6,0.2c-0.2,0.2-0.5,0.4-0.8,0.9v3.8c0.4,0,0.7,0.1,0.9,0.3c0.2,0.2,0.3,0.4,0.3,0.7s-0.1,0.5-0.3,0.7
		c-0.2,0.2-0.5,0.3-1,0.3h-1.8v-6c0-0.3-0.1-0.5-0.2-0.6c-0.1-0.1-0.3-0.2-0.5-0.2c-0.2,0-0.4,0.1-0.7,0.2c-0.2,0.1-0.5,0.4-0.8,0.8
		v3.8c0.4,0,0.7,0.1,0.9,0.3c0.2,0.2,0.3,0.4,0.3,0.7s-0.1,0.5-0.3,0.7c-0.2,0.2-0.5,0.3-1,0.3h-1.7c-0.5,0-0.8-0.1-1-0.3
		c-0.2-0.2-0.3-0.4-0.3-0.7c0-0.3,0.1-0.5,0.3-0.7c0.2-0.2,0.5-0.3,0.9-0.3v-4.6c-0.4,0-0.7-0.1-0.9-0.3s-0.3-0.4-0.3-0.7
		s0.1-0.5,0.3-0.7c0.2-0.2,0.5-0.3,1-0.3H1508.9z"/>
	<path d="M1522.8,236.7v3.1h1.1c0.5,0,0.8,0.1,1,0.3c0.2,0.2,0.3,0.4,0.3,0.7c0,0.3-0.1,0.5-0.3,0.7c-0.2,0.2-0.5,0.3-1,0.3h-3.4
		c-0.5,0-0.8-0.1-1-0.3c-0.2-0.2-0.3-0.4-0.3-0.7c0-0.3,0.1-0.5,0.3-0.7c0.2-0.2,0.5-0.3,1-0.3h0.3v-8.6h-0.3c-0.5,0-0.8-0.1-1-0.3
		c-0.2-0.2-0.3-0.4-0.3-0.7c0-0.3,0.1-0.5,0.3-0.7c0.2-0.2,0.5-0.3,1-0.3h2.2v0.6c0.4-0.3,0.9-0.5,1.4-0.7c0.5-0.1,1-0.2,1.5-0.2
		c1.3,0,2.4,0.4,3.3,1.3c0.9,0.9,1.4,1.9,1.4,3c0,1.3-0.5,2.3-1.6,3.1c-0.9,0.7-1.9,1-3.1,1c-0.5,0-1-0.1-1.4-0.2
		C1523.7,237.2,1523.2,237,1522.8,236.7z M1528.4,233.5c0-0.3-0.1-0.6-0.3-1c-0.2-0.4-0.5-0.8-1-1s-0.9-0.4-1.5-0.4
		c-0.9,0-1.7,0.4-2.3,1.1c-0.4,0.5-0.6,1-0.6,1.4c0,0.5,0.3,1,0.8,1.5c0.5,0.5,1.2,0.7,2,0.7c0.8,0,1.5-0.2,2-0.7
		C1528.1,234.5,1528.4,234,1528.4,233.5z"/>
	<path d="M1540.1,237.8v-0.4c-0.5,0.3-1,0.4-1.6,0.6c-0.6,0.1-1.1,0.2-1.6,0.2c-1,0-1.8-0.3-2.5-0.8c-0.6-0.5-1-1.1-1-1.8
		c0-0.8,0.4-1.5,1.2-2.2c0.8-0.7,1.9-1,3.4-1c0.6,0,1.2,0.1,2,0.2V232c0-0.3-0.1-0.5-0.4-0.7c-0.2-0.2-0.7-0.3-1.4-0.3
		c-0.6,0-1.3,0.1-2.2,0.3c-0.3,0.1-0.6,0.1-0.8,0.1c-0.3,0-0.5-0.1-0.6-0.3c-0.2-0.2-0.3-0.4-0.3-0.7c0-0.2,0-0.3,0.1-0.4
		c0.1-0.1,0.1-0.2,0.3-0.3s0.3-0.2,0.7-0.3c0.5-0.1,0.9-0.2,1.4-0.3c0.5-0.1,0.9-0.1,1.3-0.1c1.2,0,2.1,0.3,2.8,0.8
		c0.7,0.5,1,1.2,1,2.1v3.9h0.3c0.5,0,0.8,0.1,1,0.3c0.2,0.2,0.3,0.4,0.3,0.7c0,0.3-0.1,0.5-0.3,0.7c-0.2,0.2-0.5,0.3-1,0.3H1540.1z
		 M1540.1,234.4c-0.8-0.1-1.5-0.2-2.1-0.2c-0.8,0-1.4,0.2-2,0.6c-0.3,0.2-0.5,0.5-0.5,0.7c0,0.2,0.1,0.3,0.3,0.4
		c0.3,0.2,0.7,0.3,1.3,0.3c0.5,0,1-0.1,1.6-0.3s1.1-0.4,1.5-0.7V234.4z"/>
	<path d="M1554.7,229.7c0.2-0.2,0.5-0.3,0.7-0.3c0.3,0,0.5,0.1,0.7,0.3c0.2,0.2,0.3,0.5,0.3,1v1.2c0,0.5-0.1,0.8-0.3,1
		c-0.2,0.2-0.4,0.3-0.7,0.3c-0.3,0-0.5-0.1-0.7-0.2c-0.1-0.1-0.2-0.3-0.3-0.7c-0.1-0.3-0.3-0.6-0.5-0.8c-0.5-0.3-1.1-0.4-1.9-0.4
		c-0.9,0-1.6,0.3-2.2,0.8c-0.5,0.5-0.8,1.2-0.8,2c0,0.7,0.3,1.3,0.8,1.8c0.5,0.4,1.4,0.6,2.6,0.6c0.8,0,1.4-0.1,1.9-0.2
		c0.3-0.1,0.6-0.3,0.8-0.5c0.3-0.2,0.5-0.4,0.7-0.4c0.3,0,0.5,0.1,0.7,0.3c0.2,0.2,0.3,0.4,0.3,0.7c0,0.4-0.3,0.8-0.9,1.2
		c-0.9,0.6-2.1,0.8-3.7,0.8c-1.5,0-2.6-0.3-3.5-0.9c-1.1-0.8-1.7-1.9-1.7-3.4c0-1.4,0.5-2.5,1.4-3.4c0.9-0.9,2.1-1.3,3.5-1.3
		c0.5,0,1,0,1.5,0.1C1553.9,229.4,1554.3,229.5,1554.7,229.7z"/>
	<path d="M1564.6,231.3v3.8c0,0.4,0.1,0.7,0.3,0.8c0.3,0.2,0.7,0.3,1.4,0.3c1,0,1.9-0.2,2.7-0.6c0.3-0.2,0.6-0.2,0.7-0.2
		c0.2,0,0.5,0.1,0.6,0.3c0.2,0.2,0.3,0.4,0.3,0.7c0,0.2-0.1,0.5-0.3,0.6c-0.3,0.3-0.9,0.6-1.8,0.8c-0.9,0.2-1.6,0.4-2.3,0.4
		c-1.2,0-2.1-0.3-2.7-0.8c-0.6-0.5-0.9-1.1-0.9-1.9v-4.2h-0.7c-0.5,0-0.8-0.1-1-0.3c-0.2-0.2-0.3-0.4-0.3-0.7c0-0.3,0.1-0.5,0.3-0.7
		c0.2-0.2,0.5-0.3,1-0.3h0.7v-1.7c0-0.5,0.1-0.8,0.3-1c0.2-0.2,0.4-0.3,0.7-0.3c0.3,0,0.5,0.1,0.7,0.3c0.2,0.2,0.3,0.5,0.3,1v1.7
		h3.5c0.5,0,0.8,0.1,1,0.3c0.2,0.2,0.3,0.4,0.3,0.7c0,0.3-0.1,0.5-0.3,0.7c-0.2,0.2-0.5,0.3-1,0.3H1564.6z"/>
	<path d="M1592.6,229.4v6.5h2.3c0.5,0,0.8,0.1,1,0.3c0.2,0.2,0.3,0.4,0.3,0.7c0,0.3-0.1,0.5-0.3,0.7c-0.2,0.2-0.5,0.3-1,0.3h-6.5
		c-0.5,0-0.8-0.1-1-0.3c-0.2-0.2-0.3-0.4-0.3-0.7c0-0.3,0.1-0.5,0.3-0.7c0.2-0.2,0.5-0.3,1-0.3h2.3v-4.6h-1.5c-0.5,0-0.8-0.1-1-0.3
		c-0.2-0.2-0.3-0.4-0.3-0.7c0-0.3,0.1-0.5,0.3-0.7c0.2-0.2,0.5-0.3,1-0.3H1592.6z M1592.3,225.7v2h-2.3v-2H1592.3z"/>
	<path d="M1603,229.4v0.6c0.3-0.3,0.7-0.5,1.1-0.7s0.9-0.2,1.4-0.2c1.1,0,2,0.3,2.7,1c0.5,0.6,0.8,1.3,0.8,2.2v3.5
		c0.4,0,0.7,0.1,0.9,0.3c0.2,0.2,0.3,0.4,0.3,0.7c0,0.3-0.1,0.5-0.3,0.7c-0.2,0.2-0.5,0.3-1,0.3h-1.7c-0.5,0-0.8-0.1-1-0.3
		c-0.2-0.2-0.3-0.4-0.3-0.7c0-0.3,0.1-0.5,0.3-0.7c0.2-0.2,0.5-0.3,0.9-0.3v-3.6c0-0.4-0.1-0.7-0.3-0.9c-0.3-0.2-0.7-0.4-1.3-0.4
		c-0.4,0-0.8,0.1-1.2,0.3c-0.3,0.2-0.8,0.5-1.3,1.1v3.5c0.5,0,0.8,0,0.9,0.1c0.3,0.2,0.5,0.5,0.5,0.8c0,0.3-0.1,0.5-0.3,0.7
		c-0.2,0.2-0.5,0.3-1,0.3h-2.2c-0.5,0-0.8-0.1-1-0.3c-0.2-0.2-0.3-0.4-0.3-0.7c0-0.3,0.1-0.6,0.4-0.8c0.1-0.1,0.5-0.1,1-0.1v-4.6
		c-0.4,0-0.7-0.1-0.9-0.3c-0.2-0.2-0.3-0.4-0.3-0.7s0.1-0.5,0.3-0.7c0.2-0.2,0.5-0.3,1-0.3H1603z"/>
</g>
<g class="st2">
	<path d="M1476.8,253.9v-0.6h2.2c0.5,0,0.8,0.1,1,0.3c0.2,0.2,0.3,0.4,0.3,0.7c0,0.3-0.1,0.5-0.3,0.7c-0.2,0.2-0.5,0.3-1,0.3h-0.3
		v6.9c0,0.7-0.1,1.3-0.4,1.7s-0.7,0.9-1.3,1.3c-0.6,0.4-1.2,0.5-2,0.5h-2.2c-0.5,0-0.8-0.1-1-0.3c-0.2-0.2-0.3-0.4-0.3-0.7
		c0-0.3,0.1-0.5,0.3-0.7c0.2-0.2,0.5-0.3,1-0.3h2.1c0.6,0,1-0.2,1.4-0.5c0.3-0.3,0.5-0.7,0.5-1.2v-0.9c-0.4,0.3-0.8,0.5-1.3,0.6
		c-0.4,0.1-0.9,0.2-1.3,0.2c-1.3,0-2.4-0.4-3.2-1.3c-0.9-0.9-1.3-1.9-1.3-3.2c0-1.3,0.4-2.3,1.3-3.2c0.9-0.9,2-1.3,3.2-1.3
		c0.5,0,0.9,0.1,1.4,0.2C1476,253.4,1476.4,253.6,1476.8,253.9z M1476.8,257.6c0-0.7-0.3-1.3-0.8-1.8s-1.1-0.8-1.9-0.8
		s-1.3,0.3-1.9,0.8c-0.5,0.5-0.8,1.1-0.8,1.8c0,0.7,0.3,1.3,0.8,1.8c0.5,0.5,1.1,0.8,1.9,0.8s1.3-0.3,1.9-0.8
		C1476.5,258.9,1476.8,258.3,1476.8,257.6z"/>
	<path d="M1487.6,253.4v1.2c0.8-0.6,1.4-1,1.9-1.2s0.9-0.3,1.3-0.3c0.6,0,1.2,0.2,1.8,0.7c0.4,0.3,0.6,0.6,0.6,0.9
		c0,0.3-0.1,0.5-0.3,0.7c-0.2,0.2-0.4,0.3-0.7,0.3c-0.2,0-0.5-0.1-0.7-0.4s-0.5-0.4-0.7-0.4c-0.3,0-0.7,0.2-1.2,0.5
		c-0.5,0.3-1.2,0.8-2,1.5v2.9h2.7c0.5,0,0.8,0.1,1,0.3c0.2,0.2,0.3,0.4,0.3,0.7c0,0.3-0.1,0.5-0.3,0.7c-0.2,0.2-0.5,0.3-1,0.3h-5.7
		c-0.5,0-0.8-0.1-1-0.3c-0.2-0.2-0.3-0.4-0.3-0.7c0-0.3,0.1-0.5,0.3-0.7c0.2-0.2,0.5-0.3,1-0.3h1.1v-4.6h-0.7c-0.5,0-0.8-0.1-1-0.3
		c-0.2-0.2-0.3-0.4-0.3-0.7c0-0.3,0.1-0.5,0.3-0.7c0.2-0.2,0.5-0.3,1-0.3H1487.6z"/>
	<path d="M1503,261.8v-0.4c-0.5,0.3-1,0.4-1.6,0.6c-0.6,0.1-1.1,0.2-1.6,0.2c-1,0-1.8-0.3-2.5-0.8c-0.6-0.5-1-1.1-1-1.8
		c0-0.8,0.4-1.5,1.2-2.2c0.8-0.7,1.9-1,3.4-1c0.6,0,1.2,0.1,2,0.2V256c0-0.3-0.1-0.5-0.4-0.7c-0.2-0.2-0.7-0.3-1.4-0.3
		c-0.6,0-1.3,0.1-2.2,0.3c-0.3,0.1-0.6,0.1-0.8,0.1c-0.3,0-0.5-0.1-0.6-0.3c-0.2-0.2-0.3-0.4-0.3-0.7c0-0.2,0-0.3,0.1-0.4
		c0.1-0.1,0.1-0.2,0.3-0.3s0.3-0.2,0.7-0.3c0.5-0.1,0.9-0.2,1.4-0.3c0.5-0.1,0.9-0.1,1.3-0.1c1.2,0,2.1,0.3,2.8,0.8
		c0.7,0.5,1,1.2,1,2.1v3.9h0.3c0.5,0,0.8,0.1,1,0.3c0.2,0.2,0.3,0.4,0.3,0.7c0,0.3-0.1,0.5-0.3,0.7c-0.2,0.2-0.5,0.3-1,0.3H1503z
		 M1503,258.4c-0.8-0.1-1.5-0.2-2.1-0.2c-0.8,0-1.4,0.2-2,0.6c-0.3,0.2-0.5,0.5-0.5,0.7c0,0.2,0.1,0.3,0.3,0.4
		c0.3,0.2,0.7,0.3,1.3,0.3c0.5,0,1-0.1,1.6-0.3c0.6-0.2,1.1-0.4,1.5-0.7V258.4z"/>
	<path d="M1511.7,253.4v0.5c0.3-0.3,0.6-0.5,0.8-0.6c0.2-0.1,0.5-0.2,0.9-0.2c0.3,0,0.6,0.1,0.8,0.2c0.3,0.1,0.5,0.3,0.8,0.6
		c0.3-0.3,0.7-0.5,1-0.6s0.7-0.2,1-0.2c0.7,0,1.3,0.2,1.7,0.6c0.6,0.5,0.9,1.1,0.9,1.9v4.3c0.4,0,0.7,0.1,0.9,0.3s0.3,0.4,0.3,0.7
		s-0.1,0.5-0.3,0.7c-0.2,0.2-0.5,0.3-1,0.3h-1.8v-6c0-0.3-0.1-0.5-0.2-0.6c-0.1-0.1-0.3-0.2-0.5-0.2c-0.2,0-0.4,0.1-0.6,0.2
		c-0.2,0.2-0.5,0.4-0.8,0.9v3.8c0.4,0,0.7,0.1,0.9,0.3c0.2,0.2,0.3,0.4,0.3,0.7s-0.1,0.5-0.3,0.7c-0.2,0.2-0.5,0.3-1,0.3h-1.8v-6
		c0-0.3-0.1-0.5-0.2-0.6c-0.1-0.1-0.3-0.2-0.5-0.2c-0.2,0-0.4,0.1-0.7,0.2c-0.2,0.1-0.5,0.4-0.8,0.8v3.8c0.4,0,0.7,0.1,0.9,0.3
		c0.2,0.2,0.3,0.4,0.3,0.7s-0.1,0.5-0.3,0.7c-0.2,0.2-0.5,0.3-1,0.3h-1.7c-0.5,0-0.8-0.1-1-0.3c-0.2-0.2-0.3-0.4-0.3-0.7
		c0-0.3,0.1-0.5,0.3-0.7c0.2-0.2,0.5-0.3,0.9-0.3v-4.6c-0.4,0-0.7-0.1-0.9-0.3s-0.3-0.4-0.3-0.7s0.1-0.5,0.3-0.7
		c0.2-0.2,0.5-0.3,1-0.3H1511.7z"/>
	<path d="M1530,255.6c-0.3-0.2-0.6-0.3-1-0.4c-0.3-0.1-0.7-0.1-1.1-0.1c-0.7,0-1.3,0.1-1.8,0.4c-0.2,0.1-0.3,0.2-0.3,0.3
		c0,0.1,0.1,0.3,0.4,0.4c0.2,0.1,0.6,0.2,1.3,0.3c1.3,0.2,2.1,0.3,2.6,0.5c0.6,0.2,1.2,0.6,1.5,1s0.5,0.9,0.5,1.4
		c0,0.7-0.3,1.2-0.9,1.7c-0.9,0.7-2,1-3.3,1c-0.6,0-1.1,0-1.5-0.1c-0.5-0.1-0.9-0.2-1.3-0.4c-0.1,0.1-0.2,0.1-0.3,0.2
		c-0.1,0-0.2,0.1-0.3,0.1c-0.3,0-0.5-0.1-0.7-0.3c-0.2-0.2-0.3-0.5-0.3-1v-0.6c0-0.5,0.1-0.8,0.3-1c0.2-0.2,0.4-0.3,0.7-0.3
		c0.2,0,0.4,0.1,0.6,0.2s0.3,0.3,0.4,0.7c0.3,0.2,0.6,0.4,1,0.6c0.4,0.1,0.9,0.2,1.4,0.2c0.9,0,1.5-0.1,2-0.4
		c0.2-0.1,0.3-0.3,0.3-0.4c0-0.2-0.2-0.5-0.5-0.6c-0.3-0.2-1-0.3-2-0.4c-1.5-0.2-2.5-0.5-3.1-0.9c-0.5-0.5-0.8-1-0.8-1.7
		c0-0.7,0.3-1.2,0.9-1.7c0.8-0.6,1.8-0.9,3.1-0.9c0.4,0,0.9,0,1.3,0.1c0.4,0.1,0.8,0.2,1.2,0.4c0.1-0.1,0.2-0.2,0.3-0.2
		c0.1,0,0.2-0.1,0.3-0.1c0.3,0,0.5,0.1,0.6,0.3c0.2,0.2,0.3,0.5,0.3,1v0.5c0,0.4,0,0.7-0.1,0.8c-0.2,0.3-0.5,0.4-0.8,0.4
		c-0.2,0-0.4-0.1-0.6-0.2C1530.1,256,1530,255.8,1530,255.6z"/>
	<path d="M1559.4,257.7c0,0.7-0.2,1.4-0.6,2.1c-0.4,0.7-1,1.2-1.8,1.6c-0.8,0.4-1.6,0.6-2.5,0.6c-0.9,0-1.7-0.2-2.5-0.6
		c-0.8-0.4-1.4-0.9-1.8-1.6c-0.4-0.7-0.6-1.4-0.6-2.2c0-0.8,0.2-1.5,0.6-2.2c0.4-0.7,1-1.3,1.8-1.7c0.8-0.4,1.6-0.6,2.5-0.6
		c0.9,0,1.7,0.2,2.5,0.6c0.8,0.4,1.4,1,1.8,1.7C1559.2,256.2,1559.4,257,1559.4,257.7z M1557.5,257.7c0-0.6-0.2-1.2-0.7-1.7
		c-0.6-0.7-1.4-1-2.4-1c-0.9,0-1.6,0.3-2.2,0.8c-0.6,0.6-0.9,1.2-0.9,1.9c0,0.6,0.3,1.1,0.9,1.7c0.6,0.5,1.3,0.8,2.1,0.8
		c0.9,0,1.6-0.3,2.2-0.8S1557.5,258.3,1557.5,257.7z"/>
	<path d="M1567.8,255.3v4.6h2.7c0.5,0,0.8,0.1,1,0.3c0.2,0.2,0.3,0.4,0.3,0.7c0,0.3-0.1,0.5-0.3,0.7c-0.2,0.2-0.5,0.3-1,0.3h-5.7
		c-0.5,0-0.8-0.1-1-0.3c-0.2-0.2-0.3-0.4-0.3-0.7c0-0.3,0.1-0.5,0.3-0.7c0.2-0.2,0.5-0.3,1-0.3h1.1v-4.6h-0.9c-0.5,0-0.8-0.1-1-0.3
		c-0.2-0.2-0.3-0.4-0.3-0.7c0-0.3,0.1-0.5,0.3-0.7c0.2-0.2,0.5-0.3,1-0.3h0.9v-0.7c0-0.8,0.3-1.5,0.9-2.1c0.6-0.5,1.5-0.8,2.7-0.8
		c0.5,0,1.1,0,1.8,0.1s1.1,0.2,1.3,0.4c0.2,0.2,0.3,0.4,0.3,0.7c0,0.3-0.1,0.5-0.3,0.7c-0.2,0.2-0.4,0.3-0.6,0.3
		c-0.1,0-0.3,0-0.5-0.1c-0.8-0.2-1.5-0.2-2.1-0.2c-0.6,0-1.1,0.1-1.3,0.3c-0.2,0.2-0.4,0.4-0.4,0.7v0.7h2.9c0.5,0,0.8,0.1,1,0.3
		c0.2,0.2,0.3,0.4,0.3,0.7c0,0.3-0.1,0.5-0.3,0.7c-0.2,0.2-0.5,0.3-1,0.3H1567.8z"/>
	<path d="M1597.4,251c0.1-0.2,0.2-0.3,0.4-0.4c0.1-0.1,0.3-0.1,0.5-0.1c0.3,0,0.5,0.1,0.7,0.3c0.2,0.2,0.3,0.5,0.3,1v1.6
		c0,0.5-0.1,0.8-0.3,1c-0.2,0.2-0.4,0.3-0.7,0.3c-0.3,0-0.5-0.1-0.6-0.2c-0.2-0.1-0.3-0.4-0.3-0.8c0-0.3-0.1-0.5-0.3-0.6
		c-0.3-0.3-0.6-0.5-1.1-0.7c-0.5-0.2-0.9-0.3-1.4-0.3c-0.6,0-1.1,0.1-1.6,0.4c-0.5,0.2-0.9,0.6-1.3,1.2c-0.4,0.6-0.5,1.2-0.5,2v1.2
		c0,0.9,0.3,1.7,1,2.3c0.7,0.6,1.6,0.9,2.8,0.9c0.7,0,1.3-0.1,1.8-0.3c0.3-0.1,0.6-0.3,0.9-0.7c0.2-0.2,0.4-0.3,0.5-0.4
		c0.1-0.1,0.2-0.1,0.4-0.1c0.3,0,0.5,0.1,0.7,0.3c0.2,0.2,0.3,0.4,0.3,0.7s-0.1,0.5-0.4,0.8c-0.4,0.4-0.9,0.8-1.5,1
		c-0.8,0.3-1.7,0.5-2.6,0.5c-1.1,0-2.1-0.2-3-0.7c-0.7-0.4-1.4-1-1.9-1.8c-0.5-0.8-0.8-1.7-0.8-2.6v-1.3c0-1,0.2-1.9,0.7-2.8
		c0.5-0.9,1.1-1.5,1.9-2s1.7-0.7,2.6-0.7c0.6,0,1.1,0.1,1.5,0.2C1596.5,250.6,1597,250.8,1597.4,251z"/>
	<path d="M1613,256.2c0,1.7-0.5,3.1-1.6,4.2c-1.1,1.1-2.3,1.7-3.7,1.7c-1.3,0-2.4-0.5-3.4-1.4c-1.3-1.2-1.9-2.7-1.9-4.5
		s0.6-3.3,1.9-4.5c1-0.9,2.2-1.4,3.4-1.4c1.4,0,2.7,0.6,3.7,1.7C1612.5,253.1,1613,254.5,1613,256.2z M1611.1,256.2
		c0-1.2-0.3-2.1-1-2.9c-0.7-0.8-1.5-1.1-2.4-1.1c-0.9,0-1.7,0.4-2.4,1.1c-0.7,0.8-1,1.7-1,2.9s0.3,2.1,1,2.9s1.5,1.1,2.4,1.1
		c0.9,0,1.7-0.4,2.4-1.1C1610.8,258.3,1611.1,257.3,1611.1,256.2z"/>
	<path d="M1619.2,259.9h4.2c0.2-0.2,0.4-0.3,0.6-0.3c0.3,0,0.5,0.1,0.7,0.3c0.2,0.2,0.3,0.5,0.3,1v0.9h-8.7v-2
		c3.4-2.8,5.5-4.6,6.2-5.5c0.4-0.4,0.5-0.8,0.5-1.2c0-0.5-0.2-0.9-0.6-1.2c-0.4-0.4-0.9-0.5-1.6-0.5c-0.7,0-1.2,0.2-1.7,0.6
		c-0.2,0.2-0.4,0.5-0.6,0.9c-0.1,0.3-0.2,0.4-0.4,0.6c-0.2,0.1-0.3,0.2-0.6,0.2c-0.3,0-0.5-0.1-0.7-0.3s-0.3-0.4-0.3-0.6
		c0-0.4,0.2-0.8,0.5-1.4c0.3-0.6,0.8-1,1.5-1.3c0.7-0.3,1.4-0.5,2.1-0.5c1.2,0,2.2,0.4,3,1.1c0.8,0.7,1.2,1.6,1.2,2.6
		c0,0.5-0.1,1-0.3,1.5c-0.2,0.4-0.7,1.1-1.6,1.9C1622.4,257.1,1621.1,258.3,1619.2,259.9z"/>
</g>
<g class="st2">
	<path d="M1496.4,282.5h-7.8c0.2,0.5,0.5,0.9,1.1,1.2c0.5,0.3,1.2,0.5,2,0.5c0.7,0,1.6-0.2,2.8-0.5c0.5-0.1,0.8-0.2,1-0.2
		c0.3,0,0.5,0.1,0.6,0.3s0.3,0.4,0.3,0.7c0,0.2-0.1,0.5-0.3,0.6c-0.2,0.2-0.9,0.4-1.8,0.7c-1,0.2-1.9,0.3-2.8,0.3
		c-1.5,0-2.7-0.4-3.7-1.3c-0.9-0.9-1.4-1.9-1.4-3.2c0-1.3,0.5-2.4,1.5-3.3c1-0.8,2.1-1.3,3.4-1.3c0.8,0,1.5,0.1,2.1,0.4
		c0.6,0.3,1.1,0.6,1.4,0.9c0.4,0.5,0.8,1,1.1,1.7c0.2,0.5,0.3,1,0.3,1.6V282.5z M1494.3,280.6c-0.3-0.5-0.7-1-1.1-1.2
		c-0.5-0.3-1-0.4-1.7-0.4c-0.6,0-1.2,0.1-1.7,0.4c-0.5,0.3-0.9,0.7-1.2,1.2H1494.3z"/>
	<path d="M1509.3,279.3v8.6h0.3c0.5,0,0.8,0.1,1,0.3c0.2,0.2,0.3,0.4,0.3,0.7c0,0.3-0.1,0.5-0.3,0.7c-0.2,0.2-0.5,0.3-1,0.3h-3.4
		c-0.5,0-0.8-0.1-1-0.3c-0.2-0.2-0.3-0.4-0.3-0.7c0-0.3,0.1-0.5,0.3-0.7c0.2-0.2,0.5-0.3,1-0.3h1.1v-3.1c-0.5,0.3-0.9,0.5-1.4,0.6
		s-1,0.2-1.5,0.2c-1.1,0-2.1-0.3-3.1-1c-1.1-0.8-1.6-1.9-1.6-3.1c0-1.1,0.5-2.1,1.4-3c0.9-0.9,2-1.3,3.3-1.3c0.5,0,1,0.1,1.5,0.2
		c0.5,0.1,0.9,0.4,1.4,0.7v-0.6h2.2c0.5,0,0.8,0.1,1,0.3c0.2,0.2,0.3,0.4,0.3,0.7c0,0.3-0.1,0.5-0.3,0.7c-0.2,0.2-0.5,0.3-1,0.3
		H1509.3z M1507.4,281.5c0-0.3-0.1-0.6-0.3-1c-0.2-0.4-0.5-0.8-1-1s-0.9-0.4-1.5-0.4c-1,0-1.7,0.4-2.3,1.1c-0.4,0.5-0.6,1-0.6,1.4
		c0,0.5,0.3,1,0.8,1.5c0.5,0.5,1.2,0.7,2,0.7c0.8,0,1.5-0.2,2-0.7C1507.1,282.5,1507.4,282,1507.4,281.5z"/>
	<path d="M1522.2,277.4v6.5c0.4,0,0.7,0.1,0.9,0.3s0.3,0.4,0.3,0.7s-0.1,0.5-0.3,0.7c-0.2,0.2-0.5,0.3-1,0.3h-1.8v-0.4
		c-0.5,0.2-1.1,0.4-1.6,0.6c-0.5,0.1-1,0.2-1.4,0.2c-0.6,0-1.2-0.1-1.6-0.4s-0.8-0.6-1.1-1.1c-0.2-0.3-0.3-0.8-0.3-1.3v-4.1h-0.3
		c-0.5,0-0.8-0.1-1-0.3c-0.2-0.2-0.3-0.4-0.3-0.7c0-0.3,0.1-0.5,0.3-0.7c0.2-0.2,0.5-0.3,1-0.3h2.2v5.7c0,0.4,0.1,0.7,0.3,0.9
		c0.2,0.2,0.5,0.3,0.9,0.3c0.4,0,0.8-0.1,1.2-0.2c0.4-0.2,1-0.4,1.6-0.8v-3.9h-0.7c-0.5,0-0.8-0.1-1-0.3c-0.2-0.2-0.3-0.4-0.3-0.7
		c0-0.3,0.1-0.5,0.3-0.7c0.2-0.2,0.5-0.3,1-0.3H1522.2z"/>
	<path d="M1532.4,277.4v6.5h2.3c0.5,0,0.8,0.1,1,0.3c0.2,0.2,0.3,0.4,0.3,0.7c0,0.3-0.1,0.5-0.3,0.7c-0.2,0.2-0.5,0.3-1,0.3h-6.5
		c-0.5,0-0.8-0.1-1-0.3c-0.2-0.2-0.3-0.4-0.3-0.7c0-0.3,0.1-0.5,0.3-0.7c0.2-0.2,0.5-0.3,1-0.3h2.3v-4.6h-1.5c-0.5,0-0.8-0.1-1-0.3
		c-0.2-0.2-0.3-0.4-0.3-0.7c0-0.3,0.1-0.5,0.3-0.7c0.2-0.2,0.5-0.3,1-0.3H1532.4z M1532.2,273.7v2h-2.3v-2H1532.2z"/>
	<path d="M1544.8,283.5l2-4.2c-0.5,0-0.8,0-1-0.1c-0.3-0.2-0.5-0.5-0.5-0.8c0-0.3,0.1-0.5,0.3-0.7c0.2-0.2,0.5-0.3,1-0.3h2.6
		c0.5,0,0.8,0.1,1,0.3c0.2,0.2,0.3,0.4,0.3,0.7c0,0.3-0.1,0.5-0.3,0.7c-0.2,0.2-0.5,0.3-1,0.3h-0.3l-3.2,6.5h-2l-3.2-6.5h-0.3
		c-0.5,0-0.8-0.1-1-0.3c-0.2-0.2-0.3-0.4-0.3-0.7c0-0.3,0.1-0.5,0.3-0.7c0.2-0.2,0.5-0.3,1-0.3h2.6c0.5,0,0.8,0.1,1,0.3
		c0.2,0.2,0.3,0.4,0.3,0.7c0,0.4-0.1,0.6-0.4,0.8c-0.1,0.1-0.5,0.1-1,0.1L1544.8,283.5z"/>
	<path d="M1559.8,285.8v-0.4c-0.5,0.3-1,0.4-1.6,0.6c-0.6,0.1-1.1,0.2-1.6,0.2c-1,0-1.8-0.3-2.5-0.8c-0.6-0.5-1-1.1-1-1.8
		c0-0.8,0.4-1.5,1.2-2.2c0.8-0.7,1.9-1,3.4-1c0.6,0,1.2,0.1,2,0.2V280c0-0.3-0.1-0.5-0.4-0.7c-0.2-0.2-0.7-0.3-1.4-0.3
		c-0.6,0-1.3,0.1-2.2,0.3c-0.3,0.1-0.6,0.1-0.8,0.1c-0.3,0-0.5-0.1-0.6-0.3c-0.2-0.2-0.3-0.4-0.3-0.7c0-0.2,0-0.3,0.1-0.4
		c0.1-0.1,0.1-0.2,0.3-0.3s0.3-0.2,0.7-0.3c0.5-0.1,0.9-0.2,1.4-0.3c0.5-0.1,0.9-0.1,1.3-0.1c1.2,0,2.1,0.3,2.8,0.8
		c0.7,0.5,1,1.2,1,2.1v3.9h0.3c0.5,0,0.8,0.1,1,0.3c0.2,0.2,0.3,0.4,0.3,0.7c0,0.3-0.1,0.5-0.3,0.7c-0.2,0.2-0.5,0.3-1,0.3H1559.8z
		 M1559.8,282.4c-0.8-0.1-1.5-0.2-2.1-0.2c-0.8,0-1.4,0.2-2,0.6c-0.3,0.2-0.5,0.5-0.5,0.7c0,0.2,0.1,0.3,0.3,0.4
		c0.3,0.2,0.7,0.3,1.3,0.3c0.5,0,1-0.1,1.6-0.3c0.6-0.2,1.1-0.4,1.5-0.7V282.4z"/>
	<path d="M1572.4,273.7v10.1h2.3c0.5,0,0.8,0.1,1,0.3c0.2,0.2,0.3,0.4,0.3,0.7c0,0.3-0.1,0.5-0.3,0.7c-0.2,0.2-0.5,0.3-1,0.3h-6.5
		c-0.5,0-0.8-0.1-1-0.3c-0.2-0.2-0.3-0.4-0.3-0.7c0-0.3,0.1-0.5,0.3-0.7c0.2-0.2,0.5-0.3,1-0.3h2.3v-8.2h-1.5c-0.5,0-0.8-0.1-1-0.3
		c-0.2-0.2-0.3-0.4-0.3-0.7c0-0.3,0.1-0.5,0.3-0.7c0.2-0.2,0.5-0.3,1-0.3H1572.4z"/>
	<path d="M1589.5,282.5h-7.8c0.2,0.5,0.5,0.9,1.1,1.2c0.5,0.3,1.2,0.5,2,0.5c0.7,0,1.6-0.2,2.8-0.5c0.5-0.1,0.8-0.2,1-0.2
		c0.3,0,0.5,0.1,0.6,0.3c0.2,0.2,0.3,0.4,0.3,0.7c0,0.2-0.1,0.5-0.3,0.6c-0.2,0.2-0.9,0.4-1.8,0.7s-1.9,0.3-2.8,0.3
		c-1.5,0-2.7-0.4-3.7-1.3s-1.4-1.9-1.4-3.2c0-1.3,0.5-2.4,1.5-3.3s2.1-1.3,3.4-1.3c0.8,0,1.5,0.1,2.1,0.4c0.6,0.3,1.1,0.6,1.4,0.9
		c0.4,0.5,0.8,1,1.1,1.7c0.2,0.5,0.3,1,0.3,1.6V282.5z M1587.4,280.6c-0.3-0.5-0.7-1-1.1-1.2c-0.5-0.3-1-0.4-1.7-0.4
		c-0.6,0-1.2,0.1-1.7,0.4c-0.5,0.3-0.9,0.7-1.2,1.2H1587.4z"/>
</g>
<g class="st2">
	<path d="M1596.3,277.4v0.6c0.3-0.3,0.7-0.5,1.1-0.7c0.4-0.1,0.9-0.2,1.4-0.2c1.1,0,2,0.3,2.7,1c0.5,0.6,0.8,1.3,0.8,2.2v3.5
		c0.4,0,0.7,0.1,0.9,0.3c0.2,0.2,0.3,0.4,0.3,0.7c0,0.3-0.1,0.5-0.3,0.7c-0.2,0.2-0.5,0.3-1,0.3h-1.7c-0.5,0-0.8-0.1-1-0.3
		c-0.2-0.2-0.3-0.4-0.3-0.7c0-0.3,0.1-0.5,0.3-0.7c0.2-0.2,0.5-0.3,0.9-0.3v-3.6c0-0.4-0.1-0.7-0.3-0.9c-0.3-0.2-0.7-0.4-1.3-0.4
		c-0.4,0-0.8,0.1-1.2,0.3c-0.3,0.2-0.8,0.5-1.3,1.1v3.5c0.5,0,0.8,0,0.9,0.1c0.3,0.2,0.5,0.5,0.5,0.8c0,0.3-0.1,0.5-0.3,0.7
		c-0.2,0.2-0.5,0.3-1,0.3h-2.2c-0.5,0-0.8-0.1-1-0.3c-0.2-0.2-0.3-0.4-0.3-0.7c0-0.3,0.1-0.6,0.4-0.8c0.1-0.1,0.5-0.1,1-0.1v-4.6
		c-0.4,0-0.7-0.1-0.9-0.3s-0.3-0.4-0.3-0.7s0.1-0.5,0.3-0.7c0.2-0.2,0.5-0.3,1-0.3H1596.3z"/>
</g>
<g class="st2">
	<path d="M1613.8,279.3v3.8c0,0.4,0.1,0.7,0.2,0.8c0.3,0.2,0.7,0.3,1.4,0.3c1,0,1.9-0.2,2.7-0.6c0.3-0.2,0.6-0.2,0.7-0.2
		c0.2,0,0.5,0.1,0.6,0.3s0.3,0.4,0.3,0.7c0,0.2-0.1,0.5-0.3,0.6c-0.3,0.3-0.9,0.6-1.8,0.8s-1.6,0.4-2.3,0.4c-1.2,0-2.1-0.3-2.7-0.8
		c-0.6-0.5-0.9-1.1-0.9-1.9v-4.2h-0.7c-0.5,0-0.8-0.1-1-0.3c-0.2-0.2-0.3-0.4-0.3-0.7c0-0.3,0.1-0.5,0.3-0.7c0.2-0.2,0.5-0.3,1-0.3
		h0.7v-1.7c0-0.5,0.1-0.8,0.3-1c0.2-0.2,0.4-0.3,0.7-0.3c0.3,0,0.5,0.1,0.7,0.3c0.2,0.2,0.3,0.5,0.3,1v1.7h3.5c0.5,0,0.8,0.1,1,0.3
		c0.2,0.2,0.3,0.4,0.3,0.7c0,0.3-0.1,0.5-0.3,0.7c-0.2,0.2-0.5,0.3-1,0.3H1613.8z"/>
</g>
<g class="st2">
	<path d="M1485.9,305.2c0-1.1,0.2-2.2,0.5-3.3c0.3-0.8,0.7-1.7,1.2-2.7c0.4-0.7,0.7-1.2,0.9-1.3c0.2-0.2,0.4-0.2,0.6-0.2
		c0.3,0,0.5,0.1,0.7,0.3s0.3,0.4,0.3,0.7c0,0.2-0.1,0.4-0.2,0.6c-0.7,1.1-1.2,2.1-1.5,3.1c-0.3,1-0.5,1.9-0.5,2.9c0,1,0.2,2,0.5,2.9
		c0.3,1,0.8,2,1.5,3.1c0.1,0.2,0.2,0.5,0.2,0.6c0,0.3-0.1,0.5-0.3,0.7s-0.4,0.3-0.7,0.3c-0.2,0-0.4-0.1-0.6-0.2
		c-0.2-0.2-0.6-0.7-1-1.5c-0.6-1.1-1-2-1.2-2.7C1486.1,307.3,1485.9,306.2,1485.9,305.2z"/>
	<path d="M1502,301.9v-0.6h2.2c0.5,0,0.8,0.1,1,0.3c0.2,0.2,0.3,0.4,0.3,0.7c0,0.3-0.1,0.5-0.3,0.7c-0.2,0.2-0.5,0.3-1,0.3h-0.3v6.9
		c0,0.7-0.1,1.3-0.4,1.7s-0.7,0.9-1.3,1.3c-0.6,0.4-1.2,0.5-2,0.5h-2.2c-0.5,0-0.8-0.1-1-0.3c-0.2-0.2-0.3-0.4-0.3-0.7
		c0-0.3,0.1-0.5,0.3-0.7c0.2-0.2,0.5-0.3,1-0.3h2.1c0.6,0,1-0.2,1.4-0.5c0.3-0.3,0.5-0.7,0.5-1.2v-0.9c-0.4,0.3-0.8,0.5-1.3,0.6
		c-0.4,0.1-0.9,0.2-1.3,0.2c-1.3,0-2.4-0.4-3.2-1.3c-0.9-0.9-1.3-1.9-1.3-3.2c0-1.3,0.4-2.3,1.3-3.2c0.9-0.9,2-1.3,3.2-1.3
		c0.5,0,0.9,0.1,1.4,0.2C1501.2,301.4,1501.6,301.6,1502,301.9z M1502,305.6c0-0.7-0.3-1.3-0.8-1.8s-1.1-0.8-1.9-0.8
		s-1.3,0.3-1.9,0.8c-0.5,0.5-0.8,1.1-0.8,1.8c0,0.7,0.3,1.3,0.8,1.8c0.5,0.5,1.1,0.8,1.9,0.8s1.3-0.3,1.9-0.8
		C1501.7,306.9,1502,306.3,1502,305.6z"/>
	<path d="M1516.2,299c0.1-0.2,0.2-0.3,0.4-0.4c0.1-0.1,0.3-0.1,0.5-0.1c0.3,0,0.5,0.1,0.7,0.3c0.2,0.2,0.3,0.5,0.3,1v1.6
		c0,0.5-0.1,0.8-0.3,1c-0.2,0.2-0.4,0.3-0.7,0.3c-0.3,0-0.5-0.1-0.6-0.2c-0.2-0.1-0.3-0.4-0.3-0.8c0-0.3-0.1-0.5-0.3-0.6
		c-0.3-0.3-0.6-0.5-1.1-0.7c-0.5-0.2-0.9-0.3-1.4-0.3c-0.6,0-1.1,0.1-1.6,0.4c-0.5,0.2-0.9,0.6-1.3,1.2c-0.4,0.6-0.5,1.2-0.5,2v1.2
		c0,0.9,0.3,1.7,1,2.3c0.7,0.6,1.6,0.9,2.8,0.9c0.7,0,1.3-0.1,1.8-0.3c0.3-0.1,0.6-0.3,0.9-0.7c0.2-0.2,0.4-0.3,0.5-0.4
		c0.1-0.1,0.2-0.1,0.4-0.1c0.3,0,0.5,0.1,0.7,0.3c0.2,0.2,0.3,0.4,0.3,0.7s-0.1,0.5-0.4,0.8c-0.4,0.4-0.9,0.8-1.5,1
		c-0.8,0.3-1.7,0.5-2.6,0.5c-1.1,0-2.1-0.2-3-0.7c-0.7-0.4-1.4-1-1.9-1.8c-0.5-0.8-0.8-1.7-0.8-2.6v-1.3c0-1,0.2-1.9,0.7-2.8
		c0.5-0.9,1.1-1.5,1.9-2s1.7-0.7,2.6-0.7c0.6,0,1.1,0.1,1.5,0.2C1515.3,298.6,1515.7,298.8,1516.2,299z"/>
	<path d="M1531.8,304.2c0,1.7-0.5,3.1-1.6,4.2c-1.1,1.1-2.3,1.7-3.7,1.7c-1.3,0-2.4-0.5-3.4-1.4c-1.3-1.2-1.9-2.7-1.9-4.5
		s0.6-3.3,1.9-4.5c1-0.9,2.2-1.4,3.4-1.4c1.4,0,2.7,0.6,3.7,1.7C1531.3,301.1,1531.8,302.5,1531.8,304.2z M1529.9,304.2
		c0-1.2-0.3-2.1-1-2.9s-1.5-1.1-2.4-1.1c-0.9,0-1.7,0.4-2.4,1.1c-0.7,0.8-1,1.7-1,2.9s0.3,2.1,1,2.9c0.7,0.8,1.5,1.1,2.4,1.1
		c0.9,0,1.7-0.4,2.4-1.1C1529.6,306.3,1529.9,305.3,1529.9,304.2z"/>
	<path d="M1538,307.9h4.2c0.2-0.2,0.4-0.3,0.6-0.3c0.3,0,0.5,0.1,0.7,0.3s0.3,0.5,0.3,1v0.9h-8.7v-2c3.4-2.8,5.5-4.6,6.2-5.5
		c0.4-0.4,0.5-0.8,0.5-1.2c0-0.5-0.2-0.9-0.6-1.2c-0.4-0.4-0.9-0.5-1.6-0.5c-0.7,0-1.2,0.2-1.7,0.6c-0.2,0.2-0.4,0.5-0.6,0.9
		c-0.1,0.3-0.2,0.4-0.4,0.6s-0.3,0.2-0.6,0.2c-0.3,0-0.5-0.1-0.7-0.3c-0.2-0.2-0.3-0.4-0.3-0.6c0-0.4,0.2-0.8,0.5-1.4
		c0.3-0.6,0.8-1,1.5-1.3c0.7-0.3,1.4-0.5,2.1-0.5c1.2,0,2.2,0.4,3,1.1s1.2,1.6,1.2,2.6c0,0.5-0.1,1-0.3,1.5s-0.7,1.1-1.6,1.9
		C1541.2,305.1,1539.9,306.3,1538,307.9z"/>
	<path d="M1557.9,306.5h-7.8c0.2,0.5,0.5,0.9,1.1,1.2c0.5,0.3,1.2,0.5,2,0.5c0.7,0,1.6-0.2,2.8-0.5c0.5-0.1,0.8-0.2,1-0.2
		c0.3,0,0.5,0.1,0.6,0.3s0.3,0.4,0.3,0.7c0,0.2-0.1,0.5-0.3,0.6c-0.2,0.2-0.9,0.4-1.8,0.7c-1,0.2-1.9,0.3-2.8,0.3
		c-1.5,0-2.7-0.4-3.7-1.3c-0.9-0.9-1.4-1.9-1.4-3.2c0-1.3,0.5-2.4,1.5-3.3c1-0.8,2.1-1.3,3.4-1.3c0.8,0,1.5,0.1,2.1,0.4
		c0.6,0.3,1.1,0.6,1.4,0.9c0.4,0.5,0.8,1,1.1,1.7c0.2,0.5,0.3,1,0.3,1.6V306.5z M1555.7,304.6c-0.3-0.5-0.7-1-1.1-1.2
		c-0.5-0.3-1-0.4-1.7-0.4c-0.6,0-1.2,0.1-1.7,0.4c-0.5,0.3-0.9,0.7-1.2,1.2H1555.7z"/>
	<path d="M1567.2,305.2c0,1.1-0.2,2.2-0.5,3.3c-0.3,0.8-0.7,1.7-1.2,2.7c-0.4,0.7-0.7,1.2-0.9,1.3c-0.2,0.2-0.4,0.2-0.6,0.2
		c-0.3,0-0.5-0.1-0.7-0.3s-0.3-0.4-0.3-0.7c0-0.2,0.1-0.4,0.2-0.6c0.7-1.1,1.2-2.1,1.5-3.1c0.3-1,0.5-1.9,0.5-2.9c0-1-0.2-2-0.5-2.9
		c-0.3-1-0.8-2-1.5-3.1c-0.1-0.2-0.2-0.5-0.2-0.6c0-0.3,0.1-0.5,0.3-0.7s0.4-0.3,0.7-0.3c0.2,0,0.4,0.1,0.6,0.2
		c0.2,0.2,0.6,0.7,1,1.5c0.6,1.1,1,2,1.2,2.7C1567,303.1,1567.2,304.1,1567.2,305.2z"/>
	<path d="M1590.6,308.7v3.1h1.1c0.5,0,0.8,0.1,1,0.3c0.2,0.2,0.3,0.4,0.3,0.7c0,0.3-0.1,0.5-0.3,0.7c-0.2,0.2-0.5,0.3-1,0.3h-3.4
		c-0.5,0-0.8-0.1-1-0.3c-0.2-0.2-0.3-0.4-0.3-0.7c0-0.3,0.1-0.5,0.3-0.7c0.2-0.2,0.5-0.3,1-0.3h0.3v-8.6h-0.3c-0.5,0-0.8-0.1-1-0.3
		c-0.2-0.2-0.3-0.4-0.3-0.7c0-0.3,0.1-0.5,0.3-0.7c0.2-0.2,0.5-0.3,1-0.3h2.2v0.6c0.4-0.3,0.9-0.5,1.4-0.7s1-0.2,1.5-0.2
		c1.3,0,2.4,0.4,3.3,1.3c0.9,0.9,1.4,1.9,1.4,3c0,1.3-0.5,2.3-1.6,3.1c-0.9,0.7-1.9,1-3.1,1c-0.5,0-1-0.1-1.4-0.2
		S1591.1,309,1590.6,308.7z M1596.3,305.5c0-0.3-0.1-0.6-0.3-1c-0.2-0.4-0.5-0.8-1-1c-0.4-0.3-0.9-0.4-1.5-0.4
		c-0.9,0-1.7,0.4-2.3,1.1c-0.4,0.5-0.6,1-0.6,1.4c0,0.5,0.3,1,0.8,1.5s1.2,0.7,2,0.7c0.8,0,1.5-0.2,2-0.7
		C1596,306.5,1596.3,306,1596.3,305.5z"/>
	<path d="M1611.1,306.5h-7.8c0.2,0.5,0.5,0.9,1.1,1.2c0.5,0.3,1.2,0.5,2,0.5c0.7,0,1.6-0.2,2.8-0.5c0.5-0.1,0.8-0.2,1-0.2
		c0.3,0,0.5,0.1,0.6,0.3c0.2,0.2,0.3,0.4,0.3,0.7c0,0.2-0.1,0.5-0.3,0.6c-0.2,0.2-0.9,0.4-1.8,0.7s-1.9,0.3-2.8,0.3
		c-1.5,0-2.7-0.4-3.7-1.3s-1.4-1.9-1.4-3.2c0-1.3,0.5-2.4,1.5-3.3s2.1-1.3,3.4-1.3c0.8,0,1.5,0.1,2.1,0.4c0.6,0.3,1.1,0.6,1.4,0.9
		c0.4,0.5,0.8,1,1.1,1.7c0.2,0.5,0.3,1,0.3,1.6V306.5z M1609,304.6c-0.3-0.5-0.7-1-1.1-1.2c-0.5-0.3-1-0.4-1.7-0.4
		c-0.6,0-1.2,0.1-1.7,0.4c-0.5,0.3-0.9,0.7-1.2,1.2H1609z"/>
	<path d="M1619.2,301.4v1.2c0.8-0.6,1.4-1,1.9-1.2s0.9-0.3,1.3-0.3c0.6,0,1.2,0.2,1.8,0.7c0.4,0.3,0.6,0.6,0.6,0.9
		c0,0.3-0.1,0.5-0.3,0.7c-0.2,0.2-0.4,0.3-0.7,0.3c-0.2,0-0.5-0.1-0.7-0.4s-0.5-0.4-0.7-0.4c-0.3,0-0.7,0.2-1.2,0.5
		c-0.5,0.3-1.2,0.8-2,1.5v2.9h2.7c0.5,0,0.8,0.1,1,0.3c0.2,0.2,0.3,0.4,0.3,0.7c0,0.3-0.1,0.5-0.3,0.7c-0.2,0.2-0.5,0.3-1,0.3h-5.7
		c-0.5,0-0.8-0.1-1-0.3c-0.2-0.2-0.3-0.4-0.3-0.7c0-0.3,0.1-0.5,0.3-0.7c0.2-0.2,0.5-0.3,1-0.3h1.1v-4.6h-0.7c-0.5,0-0.8-0.1-1-0.3
		c-0.2-0.2-0.3-0.4-0.3-0.7c0-0.3,0.1-0.5,0.3-0.7c0.2-0.2,0.5-0.3,1-0.3H1619.2z"/>
</g>
<g class="st2">
	<path d="M1511.4,325.4v0.5c0.3-0.3,0.6-0.5,0.8-0.6c0.2-0.1,0.5-0.2,0.9-0.2c0.3,0,0.6,0.1,0.8,0.2c0.3,0.1,0.5,0.3,0.8,0.6
		c0.3-0.3,0.7-0.5,1-0.6s0.7-0.2,1-0.2c0.7,0,1.3,0.2,1.7,0.6c0.6,0.5,0.9,1.1,0.9,1.9v4.3c0.4,0,0.7,0.1,0.9,0.3s0.3,0.4,0.3,0.7
		s-0.1,0.5-0.3,0.7c-0.2,0.2-0.5,0.3-1,0.3h-1.8v-6c0-0.3-0.1-0.5-0.2-0.6c-0.1-0.1-0.3-0.2-0.5-0.2c-0.2,0-0.4,0.1-0.6,0.2
		c-0.2,0.2-0.5,0.4-0.8,0.9v3.8c0.4,0,0.7,0.1,0.9,0.3c0.2,0.2,0.3,0.4,0.3,0.7s-0.1,0.5-0.3,0.7c-0.2,0.2-0.5,0.3-1,0.3h-1.8v-6
		c0-0.3-0.1-0.5-0.2-0.6c-0.1-0.1-0.3-0.2-0.5-0.2c-0.2,0-0.4,0.1-0.7,0.2c-0.2,0.1-0.5,0.4-0.8,0.8v3.8c0.4,0,0.7,0.1,0.9,0.3
		c0.2,0.2,0.3,0.4,0.3,0.7s-0.1,0.5-0.3,0.7c-0.2,0.2-0.5,0.3-1,0.3h-1.7c-0.5,0-0.8-0.1-1-0.3c-0.2-0.2-0.3-0.4-0.3-0.7
		c0-0.3,0.1-0.5,0.3-0.7c0.2-0.2,0.5-0.3,0.9-0.3v-4.6c-0.4,0-0.7-0.1-0.9-0.3s-0.3-0.4-0.3-0.7s0.1-0.5,0.3-0.7
		c0.2-0.2,0.5-0.3,1-0.3H1511.4z"/>
	<path d="M1528.6,325.4v6.5h2.3c0.5,0,0.8,0.1,1,0.3c0.2,0.2,0.3,0.4,0.3,0.7c0,0.3-0.1,0.5-0.3,0.7c-0.2,0.2-0.5,0.3-1,0.3h-6.5
		c-0.5,0-0.8-0.1-1-0.3c-0.2-0.2-0.3-0.4-0.3-0.7c0-0.3,0.1-0.5,0.3-0.7c0.2-0.2,0.5-0.3,1-0.3h2.3v-4.6h-1.5c-0.5,0-0.8-0.1-1-0.3
		c-0.2-0.2-0.3-0.4-0.3-0.7c0-0.3,0.1-0.5,0.3-0.7c0.2-0.2,0.5-0.3,1-0.3H1528.6z M1528.4,321.7v2h-2.3v-2H1528.4z"/>
	<path d="M1539.1,325.4v0.6c0.3-0.3,0.7-0.5,1.1-0.7c0.4-0.1,0.9-0.2,1.4-0.2c1.1,0,2,0.3,2.7,1c0.5,0.6,0.8,1.3,0.8,2.2v3.5
		c0.4,0,0.7,0.1,0.9,0.3c0.2,0.2,0.3,0.4,0.3,0.7c0,0.3-0.1,0.5-0.3,0.7c-0.2,0.2-0.5,0.3-1,0.3h-1.7c-0.5,0-0.8-0.1-1-0.3
		c-0.2-0.2-0.3-0.4-0.3-0.7c0-0.3,0.1-0.5,0.3-0.7c0.2-0.2,0.5-0.3,0.9-0.3v-3.6c0-0.4-0.1-0.7-0.3-0.9c-0.3-0.2-0.7-0.4-1.3-0.4
		c-0.4,0-0.8,0.1-1.2,0.3c-0.3,0.2-0.8,0.5-1.3,1.1v3.5c0.5,0,0.8,0,0.9,0.1c0.3,0.2,0.5,0.5,0.5,0.8c0,0.3-0.1,0.5-0.3,0.7
		c-0.2,0.2-0.5,0.3-1,0.3h-2.2c-0.5,0-0.8-0.1-1-0.3c-0.2-0.2-0.3-0.4-0.3-0.7c0-0.3,0.1-0.6,0.4-0.8c0.1-0.1,0.5-0.1,1-0.1v-4.6
		c-0.4,0-0.7-0.1-0.9-0.3s-0.3-0.4-0.3-0.7s0.1-0.5,0.3-0.7c0.2-0.2,0.5-0.3,1-0.3H1539.1z"/>
	<path d="M1558.3,325.4v6.5c0.4,0,0.7,0.1,0.9,0.3c0.2,0.2,0.3,0.4,0.3,0.7s-0.1,0.5-0.3,0.7c-0.2,0.2-0.5,0.3-1,0.3h-1.8v-0.4
		c-0.5,0.2-1.1,0.4-1.6,0.6c-0.5,0.1-1,0.2-1.4,0.2c-0.6,0-1.2-0.1-1.6-0.4c-0.5-0.3-0.8-0.6-1.1-1.1c-0.2-0.3-0.3-0.8-0.3-1.3v-4.1
		h-0.3c-0.5,0-0.8-0.1-1-0.3c-0.2-0.2-0.3-0.4-0.3-0.7c0-0.3,0.1-0.5,0.3-0.7c0.2-0.2,0.5-0.3,1-0.3h2.2v5.7c0,0.4,0.1,0.7,0.3,0.9
		c0.2,0.2,0.5,0.3,0.9,0.3c0.4,0,0.8-0.1,1.2-0.2c0.4-0.2,1-0.4,1.6-0.8v-3.9h-0.7c-0.5,0-0.8-0.1-1-0.3c-0.2-0.2-0.3-0.4-0.3-0.7
		c0-0.3,0.1-0.5,0.3-0.7c0.2-0.2,0.5-0.3,1-0.3H1558.3z"/>
	<path d="M1567.1,327.3v3.8c0,0.4,0.1,0.7,0.2,0.8c0.3,0.2,0.7,0.3,1.4,0.3c1,0,1.9-0.2,2.7-0.6c0.3-0.2,0.6-0.2,0.7-0.2
		c0.2,0,0.5,0.1,0.6,0.3c0.2,0.2,0.3,0.4,0.3,0.7c0,0.2-0.1,0.5-0.3,0.6c-0.3,0.3-0.9,0.6-1.8,0.8c-0.9,0.2-1.6,0.4-2.3,0.4
		c-1.2,0-2.1-0.3-2.7-0.8c-0.6-0.5-0.9-1.1-0.9-1.9v-4.2h-0.7c-0.5,0-0.8-0.1-1-0.3c-0.2-0.2-0.3-0.4-0.3-0.7c0-0.3,0.1-0.5,0.3-0.7
		c0.2-0.2,0.5-0.3,1-0.3h0.7v-1.7c0-0.5,0.1-0.8,0.3-1c0.2-0.2,0.4-0.3,0.7-0.3c0.3,0,0.5,0.1,0.7,0.3c0.2,0.2,0.3,0.5,0.3,1v1.7
		h3.5c0.5,0,0.8,0.1,1,0.3c0.2,0.2,0.3,0.4,0.3,0.7c0,0.3-0.1,0.5-0.3,0.7c-0.2,0.2-0.5,0.3-1,0.3H1567.1z"/>
	<path d="M1585.7,330.5h-7.8c0.2,0.5,0.5,0.9,1.1,1.2c0.5,0.3,1.2,0.5,2,0.5c0.7,0,1.6-0.2,2.8-0.5c0.5-0.1,0.8-0.2,1-0.2
		c0.3,0,0.5,0.1,0.6,0.3c0.2,0.2,0.3,0.4,0.3,0.7c0,0.2-0.1,0.5-0.3,0.6c-0.2,0.2-0.9,0.4-1.8,0.7s-1.9,0.3-2.8,0.3
		c-1.5,0-2.7-0.4-3.7-1.3s-1.4-1.9-1.4-3.2c0-1.3,0.5-2.4,1.5-3.3s2.1-1.3,3.4-1.3c0.8,0,1.5,0.1,2.1,0.4c0.6,0.3,1.1,0.6,1.4,0.9
		c0.4,0.5,0.8,1,1.1,1.7c0.2,0.5,0.3,1,0.3,1.6V330.5z M1583.6,328.6c-0.3-0.5-0.7-1-1.1-1.2c-0.5-0.3-1-0.4-1.7-0.4
		c-0.6,0-1.2,0.1-1.7,0.4c-0.5,0.3-0.9,0.7-1.2,1.2H1583.6z"/>
</g>
</svg>
