<?xml version="1.0" encoding="utf-8"?>
<!-- Generator: Adobe Illustrator 26.0.1, SVG Export Plug-In . SVG Version: 6.00 Build 0)  -->
<svg version="1.1" id="Layer_1" xmlns="http://www.w3.org/2000/svg" xmlns:xlink="http://www.w3.org/1999/xlink" x="0px" y="0px"
	 viewBox="0 0 430 430" style="enable-background:new 0 0 430 430;" xml:space="preserve">
<style type="text/css">
	.st0{fill:none;stroke:#000000;stroke-width:5.06;stroke-linejoin:bevel;}
	.st1{enable-background:new    ;}
</style>
<g id="Layer_1_00000013910764426487149570000000191234793836266129_">
	<path class="st0" d="M349,215c0,74-60,134-134,134S81,289,81,215S141,81,215,81c35.8,0,70.2,14.3,95.3,39.8
		C335.1,145.9,349.1,179.7,349,215z"/>
	<path class="st0" d="M215,349V81c0,0-71.3,43-71.3,134S215,349,215,349z"/>
	<path class="st0" d="M215,81v268c0,0,71.3-43,71.3-134S215,81,215,81z"/>
	<path class="st0" d="M310.3,309.2c-52,52.6-136.9,53.1-189.5,1.1c-0.3-0.3-0.6-0.6-0.9-0.9c27.5-20.4,60.8-31.4,95.1-31.2h0.2
		C249.4,278,282.8,288.9,310.3,309.2L310.3,309.2z"/>
	<path class="st0" d="M310.3,120.8c-12.5,9.2-26.3,16.6-41,21.8c-17.3,6.1-35.6,9.2-54,9.1H215c-18.5,0.1-36.8-3.1-54.2-9.3
		c-14.6-5.3-28.4-12.7-40.9-21.9c52.2-52.5,137-52.8,189.5-0.6C309.7,120.3,310,120.6,310.3,120.8z"/>
	<line class="st0" x1="349" y1="215" x2="81" y2="215"/>
	<g class="st1">
		<path d="M55,185.7l-18.9,2.5l1.9-7.3l18,1l-15.5-10.4l0.5-1.6l0.3-1.7l18.7-1.8l-16.3-7.7l1.9-7.2l15.3,11.2l5.2,3.4l-0.5,1.7
			l-0.7,3l-6.1-0.1l-12.3,0.5l10.5,6.2l5.4,2.8l-0.9,3l-0.4,2L55,185.7z"/>
	</g>
	<g class="st1">
		<path d="M61.9,137.6c-0.9-3-0.6-6.2,0.9-8.9c1.9-3.6,5.8-6,9.2-2.9l2.1,2l8.7,2.8l-1.8,3.1l-1.6,3.2l-7.1-5.9
			c-1.6-1.3-3.8-0.5-5.3,2.2c-1,1.9-1.6,4.4-1.5,7l10.1,3.4l-1.9,3.2l-1.7,3.3l-7-5.9L50,138.2l1.9-3.2l1.7-3.3L61.9,137.6z"/>
	</g>
	<g class="st1">
		<path d="M95.9,107.7c0.9,4.3-0.7,7.8-2.8,10.3c-2,2.4-5.4,4.5-8.6,1.8c-4-3.4-0.6-9,6.1-16.9c-1.8-0.5-4.2,1-6.1,3.2
			c-2.2,2.6-3.3,5.5-3.7,8.1l-4.6-2.2c0.5-3.2,2.3-6.5,4.9-9.6c3.6-4.2,8.6-7.7,11.6-3.6l1.8,2.5l8,4.5l-2.5,2.8l-1.3,1.7
			L95.9,107.7z M90,114.7c2.3-2.6,3.2-6.6,2.7-10.2c-7.7,9.1-7.9,10.9-6.7,11.9C86.9,117,88.2,116.8,90,114.7z"/>
	</g>
	<g class="st1">
		<path d="M114.9,87.7c1-0.8,1.7-1.7,2.4-2.8l3.9,3.8c-1.1,1.9-2.4,3.7-4.4,5.3c-4.9,4.1-7.4,2.3-8.7-0.5l-1.6-3.3l-2.7-3.3
			l-3.2,2.7l-1.3-1.9l-1.7-1.8l2.7-2.2L95,79.8l3.1-2.4l2.8-2.4l3,5.7l4.9-4.1l1.4,2l1.6,1.7l-5.5,4.5l2.7,3.3
			C110.5,89.8,112.8,89.4,114.9,87.7z"/>
	</g>
	<g class="st1">
		<path d="M160.2,62.3l-10.7,4.3l0.6,5.9l-6.7,2.7l2.8-26.4l2.1-0.7l1.9-0.9l20.3,17.2l-6.7,2.7L160.2,62.3z M157.4,59.5l-7.1-5.9
			l-0.8,9L157.4,59.5z"/>
	</g>
	<g class="st1">
		<path d="M182.7,46.8c1.8-2.5,4.3-4.4,7.3-4.9c5.5-0.9,10.4,3.2,11.2,7.9c0.8,5-2.6,10.1-7.9,10.9c-3.4,0.5-7.2-0.5-9.4-2.9
			l0.8,3.7l-2.3,0.3l-3.7,0.7l0.4-9.2l-4.4-15.7l3.7-0.5l3.7-0.7L182.7,46.8z M183.1,54c2.9,1.5,6.2,1.2,7.8,0.9
			c3.8-0.6,6.7-2.5,6.4-4.5c-0.3-2-3.7-3-7.8-2.4c-2.1,0.3-4.5,1.1-6.6,3.2l0.1,2.5L183.1,54z"/>
	</g>
	<g class="st1">
		<path d="M211.2,49.4c0.2-5.5,4.7-9.4,11.5-9.1c6.8,0.3,10.9,4.5,10.7,10c-0.2,6-4.9,9.4-11.5,9.1C215.4,59.1,211,55.4,211.2,49.4z
			 M229.5,50.3c0.1-1.8-1.9-3.8-7-4.1c-5.2-0.2-7.3,1.7-7.4,3.5c-0.1,2,2.6,3.5,7.1,3.7C226.6,53.6,229.4,52.3,229.5,50.3z"/>
	</g>
	<g class="st1">
		<path d="M264.5,56.9l-0.4,9.2l-3.6-1l-2.2-0.4l1.1-4.1c-3.1,2.2-6.1,3.4-9.7,2.5c-3.9-1-7.3-4.1-5.1-8.1l1.4-2.6l0.5-9.2l3.4,1
			l3.5,0.8l-3.9,8.3c-0.9,1.9,0.5,3.8,3.5,4.5c2.3,0.6,4.7,0.3,7.3-0.7l0.8-10.2l3.6,1l3.6,0.8L264.5,56.9z"/>
	</g>
	<g class="st1">
		<path d="M286.4,69.6c1.2,0.5,2.3,0.8,3.5,0.9l-1.8,5.2c-2.2-0.1-4.3-0.6-6.7-1.7c-5.8-2.6-5.3-5.6-3.3-8.1l2.3-2.9l1.8-3.9
			l-3.8-1.7l1.1-2l0.9-2.3l3.2,1.5l1.3-6.4l3.5,1.7l3.4,1.4l-3.9,5.2l5.8,2.7l-1.1,2.1l-0.9,2.2l-6.4-3l-1.8,3.9
			C282.6,66.6,283.9,68.5,286.4,69.6z"/>
	</g>
	<g class="st1">
		<path d="M319.2,90.1l7.1-17.6l5.4,5.2L322,92.9l16.7-8.4l1.1,1.3l1.3,1.2l-7.7,17.1l14.7-10.4l5.4,5.2l-17.3,7.8l-5.5,2.9
			l-1.2-1.3l-2.3-2.1l3.1-5.2l5.6-10.9l-10.6,6.1l-5.1,3.3l-2.1-2.3l-1.6-1.4L319.2,90.1z"/>
	</g>
	<g class="st1">
		<path d="M353.5,138.9c-2.9-1.9-5-4.2-6.7-6.8c-3.7-5.7-3.8-11.6,1.5-14.9c4.8-3,10.5-1.8,14.2,4.1c2.9,4.5,3.4,9.8-1.8,13.1
			c-0.7,0.4-1.5,0.9-2.4,1.3l-9.3-14.3c-1.9,1.2-0.4,4.6,1.4,7.4c1.7,2.6,3.8,4.9,6.2,6.3L353.5,138.9z M358.7,131.2
			c1.9-1.2,1.8-4.2-0.4-7.6c-2.2-3.5-5-4.9-6.9-3.7L358.7,131.2z"/>
	</g>
	<g class="st1">
		<path d="M372.9,148.6c2.9,1.3,5.2,3.3,6.3,6.2c2,5.2-0.9,10.8-5.4,12.6c-4.7,1.8-10.4-0.4-12.3-5.4c-1.2-3.2-1-7.1,0.9-9.8
			l-3.5,1.5l-0.7-2.2l-1.4-3.4l9.1-1.5l14.5-7.6l1.3,3.5l1.4,3.4L372.9,148.6z M365.9,150.5c-0.8,3.2,0.1,6.3,0.7,7.8
			c1.4,3.6,3.9,6,5.8,5.3c1.9-0.7,2.2-4.3,0.7-8.1c-0.8-2-2-4.2-4.5-5.8l-2.4,0.7L365.9,150.5z"/>
	</g>
	<g class="st1">
		<path d="M374,181.1l0.5,3.8l0.7,3.6l-6,1l-1.3-7.5L374,181.1z M378.4,181.4c2.2-0.4,4.1,0.5,7,3.9c2.1,2.5,2.7,2.8,3.1,2.7
			c0.9-0.2,1-2.3,0.5-5.3c-0.5-2.9-1.4-5.5-2.4-7.5l6.1-1.1c0.8,2.6,1.4,4.8,1.9,7.4c0.9,5.5,0.7,11.1-3.9,11.9
			c-2,0.3-4.7-0.3-6.9-3.3c-1.7-2.3-3-3.5-4.5-3.2l-2,0.3l-0.9-5.4L378.4,181.4z"/>
	</g>
</g>
<g id="Layer_2_00000172430221668287125980000009306672070768975021_">
	<g>
		<path d="M57.2,263l-10.5,3.3l0.7,2.3c0.1,0.2,0.1,0.4,0,0.5s-0.1,0.2-0.3,0.2c-0.1,0-0.2,0-0.4,0c-0.1-0.1-0.2-0.2-0.3-0.4
			l-1.7-5.5c-0.1-0.2-0.1-0.4,0-0.5s0.1-0.2,0.3-0.2c0.1,0,0.3,0,0.4,0s0.2,0.2,0.3,0.4l0.7,2.3l10.5-3.3l-1.1-3.6l-3.1,1
			c-0.2,0.1-0.4,0.1-0.5,0s-0.2-0.1-0.2-0.3c0-0.1,0-0.2,0-0.4c0.1-0.1,0.2-0.2,0.4-0.3l3.9-1.3l3.1,9.9l-3.9,1.3
			c-0.2,0.1-0.4,0.1-0.5,0s-0.2-0.1-0.2-0.3c0-0.1,0-0.3,0-0.4c0.1-0.1,0.2-0.2,0.4-0.3l3.1-1L57.2,263z"/>
		<path d="M57.6,280.2l-2.3-5.7l-4.9,2l0.5,1.2c0.1,0.2,0.1,0.4,0.1,0.5s-0.1,0.2-0.3,0.3c-0.1,0-0.2,0-0.4,0
			c-0.1-0.1-0.2-0.2-0.3-0.4l-1.2-3c-0.1-0.2-0.1-0.4-0.1-0.5s0.1-0.2,0.3-0.3c0.1-0.1,0.3-0.1,0.4,0c0.1,0.1,0.2,0.2,0.3,0.4l0.4,1
			l10.2-4.2L60,271c-0.1-0.2-0.1-0.4-0.1-0.5s0.1-0.2,0.3-0.3c0.1-0.1,0.3-0.1,0.4,0c0.1,0.1,0.2,0.2,0.3,0.4l1,2.5
			c0.1,0.2,0.1,0.4,0.1,0.5s-0.1,0.2-0.3,0.3s-0.3,0.1-0.4,0c-0.1-0.1-0.2-0.2-0.3-0.4l-0.5-1.2l-4.4,1.8l2.3,5.7l4.4-1.8l-0.5-1.1
			c-0.1-0.2-0.1-0.4-0.1-0.5s0.1-0.2,0.3-0.3s0.2-0.1,0.4,0c0.1,0.1,0.2,0.2,0.3,0.4l1,2.5c0.1,0.2,0.1,0.4,0.1,0.5
			s-0.1,0.2-0.3,0.3c-0.1,0.1-0.3,0.1-0.4,0c-0.1-0.1-0.2-0.2-0.3-0.4l-0.2-0.5L53,283.1l0.4,1c0.1,0.2,0.1,0.4,0.1,0.5
			s-0.1,0.2-0.3,0.3c-0.1,0.1-0.2,0-0.4,0s-0.2-0.2-0.3-0.4l-1.2-3c-0.1-0.2-0.1-0.4-0.1-0.5s0.1-0.2,0.3-0.3c0.1-0.1,0.2-0.1,0.4,0
			c0.1,0.1,0.2,0.2,0.3,0.4l0.5,1.1L57.6,280.2z"/>
		<path d="M60.8,287.2l-4.7,2.4l3.2,6.3l2.4-1.2c0.2-0.1,0.4-0.1,0.5-0.1s0.2,0.1,0.3,0.2s0.1,0.2,0,0.4c0,0.1-0.2,0.2-0.4,0.3
			l-3.3,1.7l-4.6-9.1c-0.1-0.2-0.1-0.4-0.1-0.5s0.1-0.2,0.2-0.3c0.1-0.1,0.2-0.1,0.4,0c0.1,0,0.2,0.2,0.3,0.4l0.6,1.1l9.8-5
			l-0.6-1.1c-0.1-0.2-0.1-0.4-0.1-0.5s0.1-0.2,0.2-0.3c0.1-0.1,0.2-0.1,0.4,0c0.1,0,0.2,0.2,0.3,0.4L70,291l-2.8,1.4
			c-0.2,0.1-0.4,0.1-0.5,0.1s-0.2-0.1-0.3-0.2c-0.1-0.1-0.1-0.2,0-0.4c0-0.1,0.2-0.2,0.4-0.3l2-1l-3-5.9l-4.3,2.2l1.5,3l0.9-0.5
			c0.2-0.1,0.4-0.1,0.5-0.1s0.2,0.1,0.3,0.2c0.1,0.1,0.1,0.2,0,0.4s-0.2,0.2-0.4,0.3l-2.7,1.4c-0.2,0.1-0.4,0.1-0.5,0.1
			s-0.2-0.1-0.3-0.2s-0.1-0.2,0-0.4c0-0.1,0.2-0.2,0.4-0.3l0.9-0.5L60.8,287.2z"/>
		<path d="M83.5,313.6l0.5-0.4c0.2-0.1,0.3-0.2,0.5-0.2s0.2,0.1,0.3,0.2s0.1,0.2,0.1,0.4c0,0.1-0.1,0.3-0.3,0.4l-2.1,1.5
			c-0.2,0.1-0.3,0.2-0.5,0.2c-0.1,0-0.2-0.1-0.3-0.2c-0.1-0.1-0.1-0.2-0.1-0.3c0-0.1,0.1-0.2,0.3-0.4c0.5-0.4,0.7-1,0.7-1.8
			c0-1.1-0.3-2-0.9-2.9c-0.4-0.6-0.9-1-1.6-1.3c-0.5-0.2-0.9-0.4-1.3-0.4c-0.7-0.1-1.5,0-2.2,0.2c-0.5,0.1-1.1,0.4-1.6,0.8l-1.3,1
			c-1.1,0.8-1.8,1.9-2,3.3s0,2.6,0.8,3.7c0.5,0.6,1,1.1,1.7,1.4c0.6,0.3,1.4,0.5,2.3,0.5c0.2,0,0.3,0.1,0.4,0.2s0.1,0.2,0.1,0.3
			c0,0.1-0.1,0.2-0.2,0.3c-0.1,0.1-0.4,0.1-0.9,0.1c-0.9-0.1-1.7-0.3-2.4-0.7c-0.7-0.4-1.3-0.9-1.8-1.5c-0.4-0.5-0.7-1.2-0.9-1.9
			c-0.2-0.5-0.2-1-0.2-1.5s0.1-1,0.3-1.8s0.5-1.4,0.8-1.9s0.7-0.9,1.3-1.3l1.5-1.1c0.7-0.5,1.6-0.9,2.7-1.1s2-0.1,3,0.3
			c0.9,0.4,1.7,1,2.2,1.8C83.3,310.7,83.7,312.1,83.5,313.6z"/>
		<path d="M85.9,327.9l-4-4.6l-3.4,1.3l1.2,1.3c0.1,0.2,0.2,0.3,0.2,0.4s-0.1,0.2-0.2,0.3c-0.1,0.1-0.2,0.1-0.3,0.1
			c-0.1,0-0.3-0.1-0.4-0.3l-2.3-2.6c-0.1-0.2-0.2-0.3-0.2-0.4s0.1-0.2,0.2-0.3c0.1-0.1,0.2-0.1,0.3-0.1c0.1,0,0.3,0.1,0.4,0.3
			l0.5,0.5l11-4.1l-1.8-2.1c-0.1-0.2-0.2-0.3-0.2-0.4s0.1-0.2,0.2-0.3c0.1-0.1,0.2-0.1,0.3-0.1c0.1,0,0.3,0.1,0.4,0.3l3,3.5
			l-6.1,11.2l0.5,0.5c0.1,0.2,0.2,0.3,0.2,0.4s-0.1,0.2-0.2,0.3c-0.1,0.1-0.2,0.1-0.3,0.1c-0.1,0-0.3-0.1-0.4-0.3l-2.3-2.6
			c-0.1-0.2-0.2-0.3-0.2-0.5c0-0.1,0.1-0.2,0.2-0.3c0.1-0.1,0.2-0.1,0.3-0.1c0.1,0,0.3,0.1,0.4,0.3l1.2,1.3L85.9,327.9z M86.4,327
			l3.4-6.3l-0.2-0.3l-6.7,2.5L86.4,327z"/>
		<path d="M92.4,332.7l-3.4,3.4l1.2,1.2c0.2,0.2,0.2,0.3,0.3,0.4s0,0.2-0.1,0.3c-0.1,0.1-0.2,0.1-0.3,0.1c-0.1,0-0.3-0.1-0.4-0.2
			l-2.8-2.7c-0.2-0.2-0.2-0.3-0.2-0.4s0-0.2,0.1-0.3c0.1-0.1,0.2-0.1,0.3-0.1c0.1,0,0.3,0.1,0.4,0.2l0.9,0.9l7.7-7.9l-0.9-0.9
			c-0.2-0.2-0.2-0.3-0.2-0.4s0-0.2,0.1-0.3c0.1-0.1,0.2-0.1,0.3-0.1s0.3,0.1,0.4,0.2l4,3.9c0.8,0.8,1.3,1.7,1.3,2.8
			c0.1,1.1-0.2,1.9-0.9,2.6c-0.5,0.5-1.1,0.7-1.8,0.8c-0.8,0.1-1.7-0.2-2.8-0.7c0.2,0.8,0.2,1.6,0.1,2.3s-0.4,2.1-0.9,4.1l0.5,0.5
			c0.2,0.2,0.2,0.3,0.2,0.4s0,0.2-0.1,0.3c-0.1,0.1-0.2,0.1-0.3,0.1s-0.3-0.1-0.4-0.2l-0.9-0.9c0.6-2.3,0.9-3.9,1-4.8
			c0-0.9-0.1-1.8-0.4-2.7L92.4,332.7z M93,332l1.8,1.8c0.6,0.6,1.2,1,1.9,1.2c0.7,0.3,1.3,0.3,1.7,0.3s0.9-0.3,1.2-0.6
			c0.4-0.4,0.6-1.1,0.6-1.9c-0.1-0.8-0.4-1.6-1-2.2l-2.4-2.4L93,332z"/>
		<path d="M98.7,345.3l7.1-8.5l-1-0.8c-0.2-0.1-0.3-0.3-0.3-0.4s0-0.2,0.1-0.3c0.1-0.1,0.2-0.2,0.3-0.2s0.3,0.1,0.4,0.2l4.5,3.7
			c0.9,0.7,1.4,1.6,1.5,2.6s-0.1,1.8-0.7,2.5c-0.7,0.9-1.8,1.2-3.2,0.9c0.5,0.9,0.8,1.7,0.7,2.4c0,0.7-0.3,1.4-0.7,1.9
			c-0.4,0.5-0.9,0.8-1.4,1s-1.2,0.2-1.9,0.1c-0.7-0.1-1.3-0.4-1.9-0.9l-5.3-4.4c-0.2-0.1-0.3-0.3-0.3-0.4s0-0.2,0.1-0.3
			c0.1-0.1,0.2-0.2,0.3-0.2s0.3,0.1,0.4,0.2L98.7,345.3z M99.4,345.9l3.6,3c0.5,0.4,0.9,0.6,1.4,0.7s1,0,1.4-0.1
			c0.4-0.2,0.8-0.4,1-0.7c0.3-0.4,0.5-0.8,0.5-1.4c0-0.5-0.1-1.1-0.4-1.6s-0.8-1.1-1.6-1.8l-2.6-2.1L99.4,345.9z M103.4,341.1
			l2.5,2.1c0.5,0.4,1.1,0.8,1.7,0.9c0.5,0.1,0.9,0.1,1.4,0s0.8-0.4,1-0.7c0.4-0.4,0.5-1,0.4-1.8c-0.1-0.7-0.5-1.4-1.2-1.9l-2.8-2.4
			L103.4,341.1z"/>
		<path d="M120.9,355.4c-0.7,1-1.6,1.8-2.6,2.4s-2.1,0.8-3.1,0.8c-1.1,0-2-0.3-2.8-0.9c-1.2-0.9-1.9-2.1-2.1-3.8
			c-0.2-1.7,0.3-3.3,1.4-5c1.1-1.6,2.5-2.6,4.2-3s3.1-0.1,4.3,0.7c0.8,0.6,1.4,1.4,1.8,2.3c0.4,1,0.5,2,0.3,3.2
			C122,353.3,121.6,354.3,120.9,355.4z M120.1,354.8c0.9-1.2,1.3-2.6,1.3-4.1s-0.6-2.6-1.7-3.4s-2.3-0.9-3.7-0.5
			c-1.4,0.4-2.6,1.3-3.5,2.6c-1,1.4-1.4,2.8-1.2,4.3c0.2,1.4,0.7,2.5,1.7,3.2c1.1,0.8,2.4,1,3.8,0.5
			C118.1,356.9,119.2,356,120.1,354.8z"/>
		<path d="M128.5,367.4l-1-0.6v-13.4l-5.4,9.1l1.5,0.9c0.2,0.1,0.3,0.2,0.4,0.4c0,0.1,0,0.2,0,0.4c-0.1,0.1-0.2,0.2-0.3,0.2
			c-0.1,0-0.3,0-0.5-0.1l-2.9-1.7c-0.2-0.1-0.3-0.2-0.3-0.4c0-0.1,0-0.2,0-0.4c0.1-0.1,0.2-0.2,0.3-0.2s0.3,0,0.5,0.1l0.7,0.4
			l5.6-9.5L126,352c-0.2-0.1-0.3-0.2-0.3-0.3s0-0.2,0-0.4c0.1-0.1,0.2-0.2,0.3-0.2c0.1,0,0.3,0,0.5,0.1l2.1,1.2v13.4l5.4-9.1
			l-1.5-0.9c-0.2-0.1-0.3-0.2-0.3-0.3s0-0.2,0-0.4c0.1-0.1,0.2-0.2,0.3-0.2s0.3,0,0.5,0.1l2.9,1.7c0.2,0.1,0.3,0.2,0.3,0.3
			s0,0.2,0,0.4c-0.1,0.1-0.2,0.2-0.3,0.2s-0.3,0-0.5-0.1l-0.7-0.4L128.5,367.4z"/>
		<path d="M150.6,371.1l-1.9,4.9l3,1.2c0.2,0.1,0.3,0.2,0.4,0.3s0.1,0.2,0,0.4c0,0.1-0.1,0.2-0.3,0.3c-0.1,0-0.3,0-0.5,0l-5-1.9
			c-0.2-0.1-0.3-0.2-0.4-0.3c-0.1-0.1-0.1-0.2,0-0.4c0.1-0.1,0.1-0.2,0.3-0.3c0.1,0,0.3,0,0.5,0.1l1.2,0.5l4-10.3l-1.2-0.5
			c-0.2-0.1-0.3-0.2-0.4-0.3c-0.1-0.1-0.1-0.2,0-0.4c0.1-0.1,0.1-0.2,0.3-0.3c0.1,0,0.3,0,0.5,0.1l9.5,3.7l-1.2,3
			c-0.1,0.2-0.2,0.3-0.3,0.4s-0.2,0.1-0.4,0c-0.1-0.1-0.2-0.1-0.3-0.3s0-0.3,0-0.5l0.8-2.1l-6.6-2.6l-1.7,4.5l3.1,1.2l0.4-1
			c0.1-0.2,0.2-0.3,0.3-0.4s0.2-0.1,0.4,0c0.1,0,0.2,0.1,0.3,0.3s0,0.3,0,0.5l-1.1,2.8c-0.1,0.2-0.2,0.3-0.3,0.4s-0.2,0.1-0.4,0
			c-0.1-0.1-0.2-0.1-0.3-0.3c0-0.1,0-0.3,0-0.5l0.4-1L150.6,371.1z"/>
		<path d="M171.3,377.9c-0.4,1.2-0.9,2.2-1.7,3.1s-1.7,1.5-2.7,1.8s-2,0.3-3,0c-1.4-0.4-2.5-1.4-3.2-2.9s-0.8-3.3-0.2-5.2
			c0.6-1.9,1.6-3.3,3-4.2c1.4-0.9,2.9-1.1,4.3-0.7c1,0.3,1.8,0.8,2.4,1.7c0.7,0.8,1.1,1.8,1.3,2.9
			C171.7,375.5,171.6,376.7,171.3,377.9z M170.4,377.6c0.4-1.4,0.4-2.9-0.1-4.3s-1.4-2.3-2.7-2.7c-1.2-0.4-2.5-0.1-3.7,0.7
			c-1.2,0.8-2,2-2.5,3.6s-0.4,3.1,0.2,4.4s1.5,2.2,2.7,2.5c1.3,0.4,2.6,0.1,3.8-0.7S170,379.1,170.4,377.6z"/>
		<path d="M184.8,380.9c-0.3,1.2-0.7,2.3-1.4,3.2c-0.7,0.9-1.5,1.6-2.5,2s-2,0.5-2.9,0.3c-1.5-0.3-2.6-1.2-3.5-2.7s-1.1-3.2-0.7-5.1
			c0.4-1.9,1.3-3.4,2.7-4.4s2.8-1.3,4.2-1c1,0.2,1.8,0.7,2.6,1.4c0.7,0.8,1.2,1.7,1.5,2.8C185.1,378.5,185.1,379.7,184.8,380.9z
			 M183.9,380.7c0.3-1.5,0.2-2.9-0.4-4.2c-0.6-1.4-1.6-2.2-2.9-2.5c-1.3-0.3-2.5,0.1-3.6,1s-1.9,2.2-2.2,3.8
			c-0.4,1.7-0.2,3.2,0.5,4.4c0.7,1.3,1.7,2,2.9,2.3c1.4,0.3,2.6-0.1,3.7-1C182.9,383.4,183.6,382.1,183.9,380.7z"/>
		<path d="M194.1,376.6l-1.4,10.9l2.4,0.3c0.2,0,0.4,0.1,0.5,0.2s0.1,0.2,0.1,0.4c0,0.1-0.1,0.2-0.2,0.3s-0.3,0.1-0.5,0.1l-5.7-0.7
			c-0.2,0-0.4-0.1-0.5-0.2s-0.1-0.2-0.1-0.3c0-0.1,0.1-0.2,0.2-0.3c0.1-0.1,0.3-0.1,0.5-0.1l2.4,0.3l1.4-10.9l-3.8-0.5l-0.4,3.2
			c0,0.2-0.1,0.4-0.2,0.5s-0.2,0.1-0.4,0.1c-0.1,0-0.2-0.1-0.3-0.2s-0.1-0.3-0.1-0.5l0.5-4.1l10.3,1.3l-0.5,4.1
			c0,0.2-0.1,0.4-0.2,0.5s-0.2,0.1-0.4,0.1c-0.1,0-0.2-0.1-0.3-0.2s-0.1-0.3-0.1-0.5l0.4-3.2L194.1,376.6z"/>
		<path d="M204.7,384.2l-0.2,4.4l3.2,0.1c0.2,0,0.4,0.1,0.5,0.1c0.1,0.1,0.1,0.2,0.1,0.3c0,0.1-0.1,0.2-0.2,0.3
			c-0.1,0.1-0.3,0.1-0.5,0.1l-5.3-0.3c-0.2,0-0.4-0.1-0.5-0.2s-0.1-0.2-0.1-0.3c0-0.1,0.1-0.2,0.2-0.3s0.3-0.1,0.5-0.1l1.2,0.1
			l0.5-11l-1.2-0.1c-0.2,0-0.4-0.1-0.5-0.1s-0.1-0.2-0.1-0.3c0-0.1,0.1-0.2,0.2-0.3c0.1-0.1,0.3-0.1,0.5-0.1l5.4,0.3
			c1.3,0.1,2.3,0.5,3.1,1.3s1.1,1.7,1.1,2.7c0,0.6-0.2,1.1-0.5,1.6s-0.6,0.8-1,1.1c-0.6,0.4-1.2,0.7-1.7,0.8c-0.4,0.1-1,0.2-1.6,0.1
			L204.7,384.2z M204.7,383.3l2.9,0.1c0.7,0,1.3-0.1,1.9-0.4c0.6-0.3,1.1-0.6,1.4-1.1c0.3-0.4,0.5-0.9,0.5-1.3c0-0.7-0.2-1.4-0.8-2
			s-1.4-0.9-2.3-1l-3.3-0.2L204.7,383.3z"/>
		<path d="M217.5,384.1l0.2,4.8l1.7-0.1c0.2,0,0.4,0,0.5,0.1s0.1,0.2,0.2,0.3c0,0.1,0,0.2-0.1,0.3c-0.1,0.1-0.3,0.1-0.5,0.1
			l-3.9,0.1c-0.2,0-0.4,0-0.5-0.1s-0.1-0.2-0.2-0.3c0-0.1,0-0.3,0.1-0.3c0.1-0.1,0.2-0.1,0.5-0.1h1.2l-0.3-11h-1.2
			c-0.2,0-0.4,0-0.5-0.1s-0.1-0.2-0.2-0.3c0-0.1,0-0.3,0.1-0.3c0.1-0.1,0.2-0.1,0.5-0.1l5.6-0.2c1.2,0,2.1,0.3,2.9,1
			s1.2,1.5,1.3,2.4c0,0.7-0.2,1.3-0.7,1.9s-1.3,1.1-2.4,1.5c0.7,0.4,1.3,0.9,1.7,1.5c0.5,0.6,1.3,1.7,2.4,3.5h0.7
			c0.2,0,0.4,0,0.5,0.1s0.1,0.2,0.2,0.3c0,0.1,0,0.2-0.1,0.3c-0.1,0.1-0.2,0.1-0.5,0.1h-1.2c-1.2-2-2.1-3.4-2.8-4
			c-0.6-0.7-1.4-1.2-2.2-1.6L217.5,384.1z M217.5,383.2l2.5-0.1c0.8,0,1.5-0.2,2.2-0.5s1.1-0.7,1.4-1.1c0.3-0.4,0.4-0.8,0.4-1.2
			c0-0.6-0.3-1.2-1-1.7s-1.4-0.8-2.3-0.8l-3.4,0.1L217.5,383.2z"/>
		<path d="M234.2,376.8l1.2,11l3.2-0.4c0.2,0,0.4,0,0.5,0.1s0.2,0.2,0.2,0.3c0,0.1,0,0.2-0.1,0.3c-0.1,0.1-0.2,0.2-0.5,0.2l-7.2,0.8
			c-0.2,0-0.4,0-0.5-0.1s-0.2-0.2-0.2-0.3c0-0.1,0-0.3,0.1-0.3c0.1-0.1,0.2-0.2,0.5-0.2l3.2-0.4l-1.2-11l-3.2,0.4
			c-0.2,0-0.4,0-0.5-0.1s-0.2-0.2-0.2-0.3c0-0.1,0-0.3,0.1-0.3c0.1-0.1,0.2-0.2,0.5-0.2l7.2-0.8c0.2,0,0.4,0,0.5,0.1
			s0.2,0.2,0.2,0.3c0,0.1,0,0.3-0.1,0.3c-0.1,0.1-0.2,0.2-0.5,0.2L234.2,376.8z"/>
		<path d="M253.7,385.7l-1.2,0.2l-8.9-10l2,10.4l1.7-0.3c0.2,0,0.4,0,0.5,0c0.1,0.1,0.2,0.2,0.2,0.3c0,0.1,0,0.2-0.1,0.4
			c-0.1,0.1-0.2,0.2-0.5,0.2l-3.3,0.7c-0.2,0-0.4,0-0.5,0c-0.1-0.1-0.2-0.2-0.2-0.3c0-0.1,0-0.3,0.1-0.4s0.2-0.2,0.5-0.2l0.8-0.1
			l-2.1-10.8l-1.2,0.2c-0.2,0-0.4,0-0.5,0c-0.1-0.1-0.2-0.2-0.2-0.3s0-0.3,0.1-0.4s0.2-0.2,0.4-0.2l2.4-0.5l8.9,10l-2-10.4l-1.7,0.3
			c-0.2,0-0.4,0-0.5,0c-0.1-0.1-0.2-0.2-0.2-0.3c0-0.1,0-0.3,0.1-0.4s0.2-0.2,0.4-0.2l3.3-0.7c0.2,0,0.4,0,0.5,0
			c0.1,0.1,0.2,0.2,0.2,0.3c0,0.1,0,0.3-0.1,0.4s-0.2,0.2-0.4,0.2l-0.8,0.2L253.7,385.7z"/>
		<path d="M260.5,371.6l3,10.6l2.3-0.7c0.2-0.1,0.4-0.1,0.5,0s0.2,0.2,0.2,0.3c0,0.1,0,0.2,0,0.4c-0.1,0.1-0.2,0.2-0.4,0.3l-5.5,1.6
			c-0.2,0.1-0.4,0.1-0.5,0s-0.2-0.2-0.2-0.3c0-0.1,0-0.3,0-0.4c0.1-0.1,0.2-0.2,0.4-0.2l2.3-0.7l-3-10.6l-3.6,1l0.9,3.1
			c0.1,0.2,0.1,0.4,0,0.5s-0.2,0.2-0.3,0.2c-0.1,0-0.2,0-0.4,0c-0.1-0.1-0.2-0.2-0.3-0.4l-1.1-4l10-2.8l1.1,4c0.1,0.2,0.1,0.4,0,0.5
			s-0.2,0.2-0.3,0.2c-0.1,0-0.3,0-0.4,0c-0.1-0.1-0.2-0.2-0.3-0.4l-0.9-3.1L260.5,371.6z"/>
		<path d="M292.6,365c0.5,1.1,0.8,2.3,0.8,3.4c0,1.2-0.3,2.2-0.8,3.1s-1.3,1.6-2.2,2c-1.3,0.6-2.8,0.6-4.4-0.1s-2.8-1.9-3.6-3.7
			c-0.8-1.8-1-3.5-0.5-5.1s1.4-2.8,2.8-3.4c0.9-0.4,1.9-0.6,2.9-0.4s2,0.6,2.9,1.3C291.3,362.9,292.1,363.9,292.6,365z M291.7,365.4
			c-0.6-1.4-1.6-2.4-2.9-3.1s-2.6-0.8-3.8-0.2c-1.2,0.5-1.9,1.5-2.3,3s-0.2,2.9,0.5,4.3c0.7,1.6,1.8,2.6,3.1,3.2s2.6,0.6,3.6,0.1
			c1.3-0.6,2-1.6,2.3-3.1C292.6,368.2,292.4,366.7,291.7,365.4z"/>
		<path d="M297.9,362.3l2.6,4.6l2.8-1.6c0.2-0.1,0.3-0.2,0.5-0.1c0.1,0,0.2,0.1,0.3,0.2c0.1,0.1,0.1,0.2,0,0.4
			c0,0.1-0.2,0.2-0.3,0.3l-4.6,2.6c-0.2,0.1-0.4,0.1-0.5,0.1s-0.2-0.1-0.3-0.2c-0.1-0.1-0.1-0.2,0-0.4s0.2-0.2,0.3-0.3l1.1-0.6
			l-5.5-9.6l-1.1,0.6c-0.2,0.1-0.3,0.2-0.5,0.1c-0.1,0-0.2-0.1-0.3-0.2s-0.1-0.3,0-0.4c0-0.1,0.1-0.2,0.3-0.3l8.8-5l1.6,2.8
			c0.1,0.2,0.1,0.4,0.1,0.5s-0.1,0.2-0.2,0.3c-0.1,0.1-0.2,0.1-0.4,0c-0.1,0-0.2-0.2-0.3-0.3l-1.1-2l-6.1,3.5l2.4,4.2l2.9-1.6
			l-0.5-0.9c-0.1-0.2-0.1-0.3-0.1-0.5c0-0.1,0.1-0.2,0.2-0.3c0.1-0.1,0.2-0.1,0.4,0s0.2,0.2,0.3,0.3l1.5,2.6
			c0.1,0.2,0.1,0.4,0.1,0.5s-0.1,0.2-0.2,0.3c-0.1,0.1-0.2,0.1-0.4,0c-0.1,0-0.2-0.2-0.3-0.3l-0.5-0.9L297.9,362.3z"/>
		<path d="M319.5,340.8l6.9,8.6l2.5-2c0.2-0.1,0.3-0.2,0.4-0.2s0.2,0.1,0.3,0.2c0.1,0.1,0.1,0.2,0.1,0.3s-0.1,0.3-0.3,0.4l-5.6,4.6
			c-0.2,0.1-0.3,0.2-0.5,0.2c-0.1,0-0.2-0.1-0.3-0.2c-0.1-0.1-0.1-0.2-0.1-0.4c0-0.1,0.1-0.3,0.3-0.4l2.5-2l-6.9-8.6l-2.5,2
			c-0.2,0.1-0.3,0.2-0.4,0.2s-0.2-0.1-0.3-0.2s-0.1-0.2-0.1-0.4c0-0.1,0.1-0.3,0.3-0.4l5.6-4.6c0.2-0.1,0.3-0.2,0.4-0.2
			s0.2,0.1,0.3,0.2c0.1,0.1,0.1,0.2,0.1,0.4c0,0.1-0.1,0.3-0.3,0.4L319.5,340.8z"/>
		<path d="M340.7,337.7l-0.9,0.8l-12.9-3.7l7.3,7.7l1.2-1.2c0.2-0.2,0.3-0.2,0.4-0.2s0.2,0,0.3,0.1c0.1,0.1,0.1,0.2,0.1,0.3
			c0,0.1-0.1,0.3-0.3,0.4l-2.5,2.3c-0.2,0.2-0.3,0.2-0.4,0.2s-0.2,0-0.3-0.1c-0.1-0.1-0.1-0.2-0.1-0.3s0.1-0.3,0.3-0.4l0.6-0.5
			l-7.6-8L325,336c-0.2,0.2-0.3,0.2-0.4,0.2s-0.2,0-0.3-0.1c-0.1-0.1-0.1-0.2-0.1-0.3c0-0.1,0.1-0.3,0.3-0.4l1.8-1.7l12.9,3.7
			l-7.3-7.7l-1.2,1.2c-0.2,0.2-0.3,0.2-0.4,0.2s-0.2,0-0.3-0.1c-0.1-0.1-0.1-0.2-0.1-0.3c0-0.1,0.1-0.3,0.3-0.4l2.5-2.4
			c0.2-0.2,0.3-0.2,0.4-0.2s0.2,0,0.3,0.1c0.1,0.1,0.1,0.2,0.1,0.3s-0.1,0.3-0.3,0.4l-0.6,0.5L340.7,337.7z"/>
		<path d="M338.8,322.2l8.2,7.4l1.6-1.8c0.1-0.2,0.3-0.3,0.4-0.3s0.2,0,0.3,0.1c0.1,0.1,0.1,0.2,0.2,0.3s-0.1,0.3-0.2,0.4l-3.8,4.3
			c-0.1,0.2-0.3,0.3-0.4,0.3s-0.2,0-0.3-0.1c-0.1-0.1-0.2-0.2-0.2-0.3c0-0.1,0.1-0.3,0.2-0.4l1.6-1.8l-8.2-7.4l-2.5,2.8l2.4,2.1
			c0.2,0.2,0.3,0.3,0.3,0.4s0,0.2-0.1,0.3c-0.1,0.1-0.2,0.1-0.3,0.2c-0.1,0-0.3-0.1-0.4-0.2l-3.1-2.8l6.9-7.7l3.1,2.8
			c0.2,0.2,0.3,0.3,0.3,0.4s0,0.2-0.1,0.3c-0.1,0.1-0.2,0.2-0.3,0.2c-0.1,0-0.3-0.1-0.4-0.2l-2.4-2.1L338.8,322.2z"/>
		<path d="M349.8,318.1l4.2,3.2l4.3-5.7l-2.2-1.7c-0.2-0.1-0.3-0.3-0.3-0.4s0-0.2,0.1-0.4c0.1-0.1,0.2-0.2,0.3-0.2s0.3,0.1,0.5,0.2
			l2.9,2.2l-6.2,8.1c-0.1,0.2-0.3,0.3-0.4,0.3s-0.2,0-0.3-0.1c-0.1-0.1-0.2-0.2-0.2-0.3s0.1-0.3,0.2-0.5l0.8-1l-8.8-6.7l-0.8,1
			c-0.1,0.2-0.3,0.3-0.4,0.3s-0.2,0-0.4-0.1c-0.1-0.1-0.2-0.2-0.2-0.3c0-0.1,0.1-0.3,0.2-0.5l5.9-7.7l2.5,1.9
			c0.2,0.1,0.3,0.3,0.3,0.4s0,0.2-0.1,0.4c-0.1,0.1-0.2,0.2-0.3,0.2s-0.3-0.1-0.5-0.2l-1.8-1.4l-4,5.3l3.8,2.9l2-2.6l-0.8-0.6
			c-0.2-0.1-0.3-0.3-0.3-0.4s0-0.2,0.1-0.4c0.1-0.1,0.2-0.2,0.3-0.2c0.1,0,0.3,0,0.5,0.2l2.4,1.8c0.2,0.1,0.3,0.3,0.3,0.4
			s0,0.2-0.1,0.3c-0.1,0.1-0.2,0.2-0.3,0.2c-0.1,0-0.3,0-0.5-0.2l-0.8-0.6L349.8,318.1z"/>
		<path d="M358.4,307.1l4.1,2.6l0.9-1.4c0.1-0.2,0.2-0.3,0.4-0.3c0.1,0,0.2,0,0.4,0.1c0.1,0.1,0.2,0.2,0.2,0.3c0,0.1,0,0.3-0.1,0.5
			L362,312c-0.1,0.2-0.2,0.3-0.4,0.3c-0.1,0-0.2,0-0.4-0.1c-0.1-0.1-0.2-0.2-0.2-0.3c0-0.1,0-0.3,0.1-0.5l0.7-1l-9.3-5.9l-0.7,1
			c-0.1,0.2-0.2,0.3-0.4,0.3c-0.1,0-0.2,0-0.4-0.1c-0.1-0.1-0.2-0.2-0.2-0.3c0-0.1,0-0.3,0.1-0.5l3-4.7c0.6-1,1.5-1.6,2.5-1.9
			s1.9-0.2,2.7,0.3c0.6,0.4,0.9,0.9,1.2,1.6c0.2,0.7,0.2,1.7-0.1,2.8c0.7-0.3,1.5-0.5,2.2-0.6s2.1-0.1,4.2,0l0.4-0.6
			c0.1-0.2,0.2-0.3,0.4-0.3c0.1,0,0.2,0,0.4,0.1c0.1,0.1,0.2,0.2,0.2,0.3c0,0.1,0,0.3-0.1,0.5l-0.7,1c-2.3-0.1-4-0.1-4.9,0
			c-0.9,0.2-1.8,0.5-2.5,0.9L358.4,307.1z M357.6,306.6l1.4-2.1c0.4-0.7,0.7-1.4,0.8-2.1c0.1-0.7,0.1-1.3-0.1-1.8s-0.4-0.8-0.8-1
			c-0.5-0.3-1.2-0.4-2-0.2c-0.8,0.2-1.4,0.7-1.9,1.5l-1.8,2.9L357.6,306.6z"/>
		<path d="M374.2,291.2l-0.6,1.1l-13.4,0.6l9.4,5l0.8-1.5c0.1-0.2,0.2-0.3,0.3-0.4s0.2,0,0.4,0c0.1,0.1,0.2,0.2,0.2,0.3
			c0,0.1,0,0.3-0.1,0.5l-1.6,3c-0.1,0.2-0.2,0.3-0.3,0.4c-0.1,0-0.2,0-0.4,0c-0.1-0.1-0.2-0.2-0.2-0.3c0-0.1,0-0.3,0.1-0.5l0.4-0.7
			l-9.7-5.2l-0.6,1.1c-0.1,0.2-0.2,0.3-0.3,0.4s-0.2,0-0.4,0c-0.1-0.1-0.2-0.2-0.2-0.3c0-0.1,0-0.3,0.1-0.5l1.1-2.1l13.4-0.6l-9.4-5
			l-0.8,1.5c-0.1,0.2-0.2,0.3-0.3,0.4c-0.1,0-0.2,0-0.4,0s-0.2-0.2-0.2-0.3c0-0.1,0-0.3,0.1-0.5l1.6-3c0.1-0.2,0.2-0.3,0.3-0.4
			s0.2,0,0.4,0c0.1,0.1,0.2,0.2,0.2,0.3c0,0.1,0,0.3-0.1,0.5l-0.4,0.7L374.2,291.2z"/>
		<path d="M371.4,282.6l4.9,2.1l2.8-6.5l-2.5-1.1c-0.2-0.1-0.3-0.2-0.4-0.3c-0.1-0.1-0.1-0.2,0-0.4c0.1-0.1,0.1-0.2,0.3-0.3
			s0.3,0,0.5,0.1l3.4,1.4l-4,9.4c-0.1,0.2-0.2,0.3-0.3,0.4c-0.1,0.1-0.2,0.1-0.4,0c-0.1-0.1-0.2-0.1-0.3-0.3c0-0.1,0-0.3,0.1-0.5
			l0.5-1.1l-10.1-4.4l-0.5,1.1c-0.1,0.2-0.2,0.3-0.3,0.4c-0.1,0.1-0.2,0.1-0.4,0c-0.1-0.1-0.2-0.1-0.3-0.3s0-0.3,0.1-0.5l3.8-8.9
			l2.9,1.3c0.2,0.1,0.3,0.2,0.4,0.3c0.1,0.1,0.1,0.2,0,0.4s-0.1,0.2-0.3,0.3c-0.1,0-0.3,0-0.5-0.1l-2.1-0.9l-2.6,6.1l4.4,1.9l1.3-3
			l-1-0.4c-0.2-0.1-0.3-0.2-0.4-0.3c-0.1-0.1-0.1-0.2,0-0.4c0.1-0.1,0.1-0.2,0.3-0.2c0.1,0,0.3,0,0.5,0.1l2.8,1.2
			c0.2,0.1,0.3,0.2,0.4,0.3c0.1,0.1,0.1,0.2,0,0.4c-0.1,0.1-0.1,0.2-0.3,0.3c-0.1,0-0.3,0-0.5-0.1l-1-0.4L371.4,282.6z"/>
		<path d="M372.2,264.6l10.5,3.5l0.8-2.3c0.1-0.2,0.2-0.3,0.3-0.4c0.1-0.1,0.2-0.1,0.4,0c0.1,0,0.2,0.1,0.3,0.2c0.1,0.1,0,0.3,0,0.5
			l-1.8,5.4c-0.1,0.2-0.2,0.3-0.3,0.4c-0.1,0.1-0.2,0.1-0.4,0c-0.1,0-0.2-0.1-0.3-0.2c0-0.1,0-0.3,0-0.5l0.8-2.3l-10.5-3.5l-1.2,3.6
			l3,1c0.2,0.1,0.4,0.2,0.4,0.3s0.1,0.2,0,0.4c0,0.1-0.1,0.2-0.2,0.3c-0.1,0.1-0.3,0-0.5,0l-3.9-1.3l3.3-9.8l3.9,1.3
			c0.2,0.1,0.4,0.2,0.4,0.3s0.1,0.2,0,0.4c0,0.1-0.1,0.2-0.2,0.3s-0.3,0-0.5,0l-3-1L372.2,264.6z"/>
	</g>
</g>
</svg>
