<?xml version="1.0" encoding="utf-8"?>
<!-- Generator: Adobe Illustrator 26.0.1, SVG Export Plug-In . SVG Version: 6.00 Build 0)  -->
<svg version="1.1" xmlns="http://www.w3.org/2000/svg" xmlns:xlink="http://www.w3.org/1999/xlink" x="0px" y="0px"
	 viewBox="0 0 430 430" style="enable-background:new 0 0 430 430;" xml:space="preserve">
<style type="text/css">
	.st0{fill:none;stroke:#000000;stroke-width:5.06;stroke-linejoin:bevel;}
	.st1{font-family:'Moche-Bold';}
	.st2{font-size:36.2415px;}
	.st3{font-size:36.18px;}
	.st4{font-size:36.1818px;}
	.st5{font-size:36.2252px;}
	.st6{font-size:36.2089px;}
	.st7{font-size:36.3424px;}
</style>
<g id="Layer_1">
	<path class="st0" d="M349,215c0,74-60,134-134,134c-74,0-134-60-134-134c0-74,60-134,134-134c35.8,0,70.2,14.3,95.3,39.8
		C335.1,145.9,349.1,179.7,349,215z"/>
	<path class="st0" d="M215,349V81c0,0-71.3,43-71.3,134S215,349,215,349z"/>
	<path class="st0" d="M215,81v268c0,0,71.3-43,71.3-134S215,81,215,81z"/>
	<path class="st0" d="M310.3,309.2c-52,52.6-136.9,53.1-189.5,1.1c-0.3-0.3-0.6-0.6-0.9-0.9c27.5-20.4,60.8-31.4,95.1-31.2h0.2
		C249.4,278,282.8,288.9,310.3,309.2L310.3,309.2z"/>
	<path class="st0" d="M310.3,120.8c-12.5,9.2-26.3,16.6-41,21.8c-17.3,6.1-35.6,9.2-54,9.1H215c-18.5,0.1-36.8-3.1-54.2-9.3
		c-14.6-5.3-28.4-12.7-40.9-21.9c52.2-52.5,137-52.8,189.5-0.6C309.7,120.3,310,120.6,310.3,120.8z"/>
	<line class="st0" x1="349" y1="215" x2="81" y2="215"/>
	<text transform="matrix(0.2496 -0.9684 0.9684 0.2496 58.9096 194.1097)" class="st1 st2">W</text>
	<text transform="matrix(0.4776 -0.8786 0.8786 0.4776 71.2001 152.1702)" class="st1 st3">h</text>
	<text transform="matrix(0.65 -0.76 0.76 0.65 87.4503 123.7297)" class="st1 st4">a</text>
	<text transform="matrix(0.769 -0.6392 0.6392 0.769 108.1704 100.5394)" class="st1 st5">t</text>
	<text transform="matrix(0.9285 -0.3714 0.3714 0.9285 143.2301 75.31)" class="st1 st3">A</text>
	<text transform="matrix(0.9874 -0.158 0.158 0.9874 176.5699 62.83)" class="st1 st3">b</text>
	<text transform="matrix(0.9992 3.996804e-02 -3.996804e-02 0.9992 209.7797 58.3094)" class="st1 st6">o</text>
	<text transform="matrix(0.9699 0.2434 -0.2434 0.9699 240.14 60.11)" class="st1 st3">u</text>
	<text transform="matrix(0.9091 0.4166 -0.4166 0.9091 271.9102 69.1)" class="st1 st3">t</text>
	<text transform="matrix(0.7189 0.6952 -0.6952 0.7189 309.9904 89.4201)" class="st1 st3">W</text>
	<text transform="matrix(0.5397 0.8419 -0.8419 0.5397 340.4 120.95)" class="st1 st3">e</text>
	<text transform="matrix(0.3602 0.9329 -0.9329 0.3602 355.9404 145.9299)" class="st1 st3">b</text>
	<text transform="matrix(0.1692 0.9856 -0.9856 0.1692 367.1698 177.4691)" class="st1 st7">?</text>
</g>
<g id="Layer_2">
	<g>
		<path d="M57.2,263l-10.5,3.3l0.7,2.3c0.1,0.2,0.1,0.4,0,0.5c-0.1,0.1-0.1,0.2-0.3,0.2c-0.1,0-0.2,0-0.4,0
			c-0.1-0.1-0.2-0.2-0.3-0.4l-1.7-5.5c-0.1-0.2-0.1-0.4,0-0.5c0.1-0.1,0.1-0.2,0.3-0.2c0.1,0,0.3,0,0.4,0s0.2,0.2,0.3,0.4l0.7,2.3
			l10.5-3.3l-1.1-3.6l-3.1,1c-0.2,0.1-0.4,0.1-0.5,0c-0.1-0.1-0.2-0.1-0.2-0.3c0-0.1,0-0.2,0-0.4c0.1-0.1,0.2-0.2,0.4-0.3l3.9-1.3
			l3.1,9.9l-3.9,1.3c-0.2,0.1-0.4,0.1-0.5,0c-0.1-0.1-0.2-0.1-0.2-0.3c0-0.1,0-0.3,0-0.4c0.1-0.1,0.2-0.2,0.4-0.3l3.1-1L57.2,263z"
			/>
		<path d="M57.6,280.2l-2.3-5.7l-4.9,2l0.5,1.2c0.1,0.2,0.1,0.4,0.1,0.5s-0.1,0.2-0.3,0.3c-0.1,0-0.2,0-0.4,0
			c-0.1-0.1-0.2-0.2-0.3-0.4l-1.2-3c-0.1-0.2-0.1-0.4-0.1-0.5c0-0.1,0.1-0.2,0.3-0.3c0.1-0.1,0.3-0.1,0.4,0c0.1,0.1,0.2,0.2,0.3,0.4
			l0.4,1l10.2-4.2L60,271c-0.1-0.2-0.1-0.4-0.1-0.5c0-0.1,0.1-0.2,0.3-0.3c0.1-0.1,0.3-0.1,0.4,0c0.1,0.1,0.2,0.2,0.3,0.4l1,2.5
			c0.1,0.2,0.1,0.4,0.1,0.5c0,0.1-0.1,0.2-0.3,0.3s-0.3,0.1-0.4,0c-0.1-0.1-0.2-0.2-0.3-0.4l-0.5-1.2l-4.4,1.8l2.3,5.7l4.4-1.8
			l-0.5-1.1c-0.1-0.2-0.1-0.4-0.1-0.5c0-0.1,0.1-0.2,0.3-0.3s0.2-0.1,0.4,0c0.1,0.1,0.2,0.2,0.3,0.4l1,2.5c0.1,0.2,0.1,0.4,0.1,0.5
			c0,0.1-0.1,0.2-0.3,0.3c-0.1,0.1-0.3,0.1-0.4,0c-0.1-0.1-0.2-0.2-0.3-0.4l-0.2-0.5L53,283.1l0.4,1c0.1,0.2,0.1,0.4,0.1,0.5
			c0,0.1-0.1,0.2-0.3,0.3c-0.1,0.1-0.2,0-0.4,0s-0.2-0.2-0.3-0.4l-1.2-3c-0.1-0.2-0.1-0.4-0.1-0.5c0-0.1,0.1-0.2,0.3-0.3
			c0.1-0.1,0.2-0.1,0.4,0c0.1,0.1,0.2,0.2,0.3,0.4l0.5,1.1L57.6,280.2z"/>
		<path d="M60.8,287.2l-4.7,2.4l3.2,6.3l2.4-1.2c0.2-0.1,0.4-0.1,0.5-0.1c0.1,0,0.2,0.1,0.3,0.2c0.1,0.1,0.1,0.2,0,0.4
			c0,0.1-0.2,0.2-0.4,0.3l-3.3,1.7l-4.6-9.1c-0.1-0.2-0.1-0.4-0.1-0.5s0.1-0.2,0.2-0.3c0.1-0.1,0.2-0.1,0.4,0c0.1,0,0.2,0.2,0.3,0.4
			l0.6,1.1l9.8-5l-0.6-1.1c-0.1-0.2-0.1-0.4-0.1-0.5c0-0.1,0.1-0.2,0.2-0.3c0.1-0.1,0.2-0.1,0.4,0c0.1,0,0.2,0.2,0.3,0.4l4.4,8.7
			l-2.8,1.4c-0.2,0.1-0.4,0.1-0.5,0.1c-0.1,0-0.2-0.1-0.3-0.2c-0.1-0.1-0.1-0.2,0-0.4c0-0.1,0.2-0.2,0.4-0.3l2-1l-3-5.9l-4.3,2.2
			l1.5,3l0.9-0.5c0.2-0.1,0.4-0.1,0.5-0.1s0.2,0.1,0.3,0.2c0.1,0.1,0.1,0.2,0,0.4s-0.2,0.2-0.4,0.3l-2.7,1.4
			c-0.2,0.1-0.4,0.1-0.5,0.1s-0.2-0.1-0.3-0.2c-0.1-0.1-0.1-0.2,0-0.4c0-0.1,0.2-0.2,0.4-0.3l0.9-0.5L60.8,287.2z"/>
		<path d="M83.5,313.6l0.5-0.4c0.2-0.1,0.3-0.2,0.5-0.2s0.2,0.1,0.3,0.2s0.1,0.2,0.1,0.4c0,0.1-0.1,0.3-0.3,0.4l-2.1,1.5
			c-0.2,0.1-0.3,0.2-0.5,0.2c-0.1,0-0.2-0.1-0.3-0.2c-0.1-0.1-0.1-0.2-0.1-0.3c0-0.1,0.1-0.2,0.3-0.4c0.5-0.4,0.7-1,0.7-1.8
			c0-1.1-0.3-2-0.9-2.9c-0.4-0.6-0.9-1-1.6-1.3c-0.5-0.2-0.9-0.4-1.3-0.4c-0.7-0.1-1.5,0-2.2,0.2c-0.5,0.1-1.1,0.4-1.6,0.8l-1.3,1
			c-1.1,0.8-1.8,1.9-2,3.3c-0.2,1.4,0,2.6,0.8,3.7c0.5,0.6,1,1.1,1.7,1.4c0.6,0.3,1.4,0.5,2.3,0.5c0.2,0,0.3,0.1,0.4,0.2
			c0.1,0.1,0.1,0.2,0.1,0.3c0,0.1-0.1,0.2-0.2,0.3c-0.1,0.1-0.4,0.1-0.9,0.1c-0.9-0.1-1.7-0.3-2.4-0.7c-0.7-0.4-1.3-0.9-1.8-1.5
			c-0.4-0.5-0.7-1.2-0.9-1.9c-0.2-0.5-0.2-1-0.2-1.5s0.1-1,0.3-1.8s0.5-1.4,0.8-1.9c0.3-0.5,0.7-0.9,1.3-1.3l1.5-1.1
			c0.7-0.5,1.6-0.9,2.7-1.1c1.1-0.2,2-0.1,3,0.3c0.9,0.4,1.7,1,2.2,1.8C83.3,310.7,83.7,312.1,83.5,313.6z"/>
		<path d="M85.9,327.9l-4-4.6l-3.4,1.3l1.2,1.3c0.1,0.2,0.2,0.3,0.2,0.4c0,0.1-0.1,0.2-0.2,0.3c-0.1,0.1-0.2,0.1-0.3,0.1
			c-0.1,0-0.3-0.1-0.4-0.3l-2.3-2.6c-0.1-0.2-0.2-0.3-0.2-0.4c0-0.1,0.1-0.2,0.2-0.3c0.1-0.1,0.2-0.1,0.3-0.1c0.1,0,0.3,0.1,0.4,0.3
			l0.5,0.5l11-4.1l-1.8-2.1c-0.1-0.2-0.2-0.3-0.2-0.4c0-0.1,0.1-0.2,0.2-0.3c0.1-0.1,0.2-0.1,0.3-0.1c0.1,0,0.3,0.1,0.4,0.3l3,3.5
			l-6.1,11.2l0.5,0.5c0.1,0.2,0.2,0.3,0.2,0.4c0,0.1-0.1,0.2-0.2,0.3c-0.1,0.1-0.2,0.1-0.3,0.1c-0.1,0-0.3-0.1-0.4-0.3l-2.3-2.6
			c-0.1-0.2-0.2-0.3-0.2-0.5c0-0.1,0.1-0.2,0.2-0.3c0.1-0.1,0.2-0.1,0.3-0.1c0.1,0,0.3,0.1,0.4,0.3l1.2,1.3L85.9,327.9z M86.4,327
			l3.4-6.3l-0.2-0.3l-6.7,2.5L86.4,327z"/>
		<path d="M92.4,332.7l-3.4,3.4l1.2,1.2c0.2,0.2,0.2,0.3,0.3,0.4s0,0.2-0.1,0.3c-0.1,0.1-0.2,0.1-0.3,0.1c-0.1,0-0.3-0.1-0.4-0.2
			l-2.8-2.7c-0.2-0.2-0.2-0.3-0.2-0.4c0-0.1,0-0.2,0.1-0.3c0.1-0.1,0.2-0.1,0.3-0.1c0.1,0,0.3,0.1,0.4,0.2l0.9,0.9l7.7-7.9l-0.9-0.9
			c-0.2-0.2-0.2-0.3-0.2-0.4c0-0.1,0-0.2,0.1-0.3c0.1-0.1,0.2-0.1,0.3-0.1s0.3,0.1,0.4,0.2l4,3.9c0.8,0.8,1.3,1.7,1.3,2.8
			c0.1,1.1-0.2,1.9-0.9,2.6c-0.5,0.5-1.1,0.7-1.8,0.8c-0.8,0.1-1.7-0.2-2.8-0.7c0.2,0.8,0.2,1.6,0.1,2.3s-0.4,2.1-0.9,4.1l0.5,0.5
			c0.2,0.2,0.2,0.3,0.2,0.4s0,0.2-0.1,0.3c-0.1,0.1-0.2,0.1-0.3,0.1s-0.3-0.1-0.4-0.2l-0.9-0.9c0.6-2.3,0.9-3.9,1-4.8
			c0-0.9-0.1-1.8-0.4-2.7L92.4,332.7z M93,332l1.8,1.8c0.6,0.6,1.2,1,1.9,1.2c0.7,0.3,1.3,0.3,1.7,0.3s0.9-0.3,1.2-0.6
			c0.4-0.4,0.6-1.1,0.6-1.9c-0.1-0.8-0.4-1.6-1-2.2l-2.4-2.4L93,332z"/>
		<path d="M98.7,345.3l7.1-8.5l-1-0.8c-0.2-0.1-0.3-0.3-0.3-0.4c0-0.1,0-0.2,0.1-0.3c0.1-0.1,0.2-0.2,0.3-0.2s0.3,0.1,0.4,0.2
			l4.5,3.7c0.9,0.7,1.4,1.6,1.5,2.6c0.1,1-0.1,1.8-0.7,2.5c-0.7,0.9-1.8,1.2-3.2,0.9c0.5,0.9,0.8,1.7,0.7,2.4c0,0.7-0.3,1.4-0.7,1.9
			c-0.4,0.5-0.9,0.8-1.4,1s-1.2,0.2-1.9,0.1c-0.7-0.1-1.3-0.4-1.9-0.9l-5.3-4.4c-0.2-0.1-0.3-0.3-0.3-0.4s0-0.2,0.1-0.3
			c0.1-0.1,0.2-0.2,0.3-0.2s0.3,0.1,0.4,0.2L98.7,345.3z M99.4,345.9l3.6,3c0.5,0.4,0.9,0.6,1.4,0.7c0.5,0.1,1,0,1.4-0.1
			c0.4-0.2,0.8-0.4,1-0.7c0.3-0.4,0.5-0.8,0.5-1.4c0-0.5-0.1-1.1-0.4-1.6s-0.8-1.1-1.6-1.8l-2.6-2.1L99.4,345.9z M103.4,341.1
			l2.5,2.1c0.5,0.4,1.1,0.8,1.7,0.9c0.5,0.1,0.9,0.1,1.4,0s0.8-0.4,1-0.7c0.4-0.4,0.5-1,0.4-1.8c-0.1-0.7-0.5-1.4-1.2-1.9l-2.8-2.4
			L103.4,341.1z"/>
		<path d="M120.9,355.4c-0.7,1-1.6,1.8-2.6,2.4c-1,0.6-2.1,0.8-3.1,0.8c-1.1,0-2-0.3-2.8-0.9c-1.2-0.9-1.9-2.1-2.1-3.8
			c-0.2-1.7,0.3-3.3,1.4-5c1.1-1.6,2.5-2.6,4.2-3s3.1-0.1,4.3,0.7c0.8,0.6,1.4,1.4,1.8,2.3c0.4,1,0.5,2,0.3,3.2
			C122,353.3,121.6,354.3,120.9,355.4z M120.1,354.8c0.9-1.2,1.3-2.6,1.3-4.1s-0.6-2.6-1.7-3.4c-1.1-0.8-2.3-0.9-3.7-0.5
			c-1.4,0.4-2.6,1.3-3.5,2.6c-1,1.4-1.4,2.8-1.2,4.3c0.2,1.4,0.7,2.5,1.7,3.2c1.1,0.8,2.4,1,3.8,0.5
			C118.1,356.9,119.2,356,120.1,354.8z"/>
		<path d="M128.5,367.4l-1-0.6l0-13.4l-5.4,9.1l1.5,0.9c0.2,0.1,0.3,0.2,0.4,0.4c0,0.1,0,0.2,0,0.4c-0.1,0.1-0.2,0.2-0.3,0.2
			c-0.1,0-0.3,0-0.5-0.1l-2.9-1.7c-0.2-0.1-0.3-0.2-0.3-0.4c0-0.1,0-0.2,0-0.4c0.1-0.1,0.2-0.2,0.3-0.2s0.3,0,0.5,0.1l0.7,0.4
			l5.6-9.5l-1.1-0.6c-0.2-0.1-0.3-0.2-0.3-0.3s0-0.2,0-0.4c0.1-0.1,0.2-0.2,0.3-0.2c0.1,0,0.3,0,0.5,0.1l2.1,1.2l0,13.4l5.4-9.1
			l-1.5-0.9c-0.2-0.1-0.3-0.2-0.3-0.3s0-0.2,0-0.4c0.1-0.1,0.2-0.2,0.3-0.2c0.1,0,0.3,0,0.5,0.1l2.9,1.7c0.2,0.1,0.3,0.2,0.3,0.3
			s0,0.2,0,0.4c-0.1,0.1-0.2,0.2-0.3,0.2c-0.1,0-0.3,0-0.5-0.1l-0.7-0.4L128.5,367.4z"/>
		<path d="M150.6,371.1l-1.9,4.9l3,1.2c0.2,0.1,0.3,0.2,0.4,0.3s0.1,0.2,0,0.4c0,0.1-0.1,0.2-0.3,0.3c-0.1,0-0.3,0-0.5,0l-5-1.9
			c-0.2-0.1-0.3-0.2-0.4-0.3c-0.1-0.1-0.1-0.2,0-0.4c0.1-0.1,0.1-0.2,0.3-0.3c0.1,0,0.3,0,0.5,0.1l1.2,0.5l4-10.3l-1.2-0.5
			c-0.2-0.1-0.3-0.2-0.4-0.3c-0.1-0.1-0.1-0.2,0-0.4c0.1-0.1,0.1-0.2,0.3-0.3c0.1,0,0.3,0,0.5,0.1l9.5,3.7l-1.2,3
			c-0.1,0.2-0.2,0.3-0.3,0.4s-0.2,0.1-0.4,0c-0.1-0.1-0.2-0.1-0.3-0.3s0-0.3,0-0.5l0.8-2.1l-6.6-2.6l-1.7,4.5l3.1,1.2l0.4-1
			c0.1-0.2,0.2-0.3,0.3-0.4s0.2-0.1,0.4,0c0.1,0,0.2,0.1,0.3,0.3s0,0.3,0,0.5l-1.1,2.8c-0.1,0.2-0.2,0.3-0.3,0.4s-0.2,0.1-0.4,0
			c-0.1-0.1-0.2-0.1-0.3-0.3c0-0.1,0-0.3,0-0.5l0.4-1L150.6,371.1z"/>
		<path d="M171.3,377.9c-0.4,1.2-0.9,2.2-1.7,3.1s-1.7,1.5-2.7,1.8s-2,0.3-3,0c-1.4-0.4-2.5-1.4-3.2-2.9s-0.8-3.3-0.2-5.2
			c0.6-1.9,1.6-3.3,3-4.2c1.4-0.9,2.9-1.1,4.3-0.7c1,0.3,1.8,0.8,2.4,1.7c0.7,0.8,1.1,1.8,1.3,2.9
			C171.7,375.5,171.6,376.7,171.3,377.9z M170.4,377.6c0.4-1.4,0.4-2.9-0.1-4.3s-1.4-2.3-2.7-2.7c-1.2-0.4-2.5-0.1-3.7,0.7
			c-1.2,0.8-2,2-2.5,3.6c-0.5,1.6-0.4,3.1,0.2,4.4s1.5,2.2,2.7,2.5c1.3,0.4,2.6,0.1,3.8-0.7S170,379.1,170.4,377.6z"/>
		<path d="M184.8,380.9c-0.3,1.2-0.7,2.3-1.4,3.2c-0.7,0.9-1.5,1.6-2.5,2c-1,0.4-2,0.5-2.9,0.3c-1.5-0.3-2.6-1.2-3.5-2.7
			s-1.1-3.2-0.7-5.1c0.4-1.9,1.3-3.4,2.7-4.4c1.4-1,2.8-1.3,4.2-1c1,0.2,1.8,0.7,2.6,1.4c0.7,0.8,1.2,1.7,1.5,2.8
			C185.1,378.5,185.1,379.7,184.8,380.9z M183.9,380.7c0.3-1.5,0.2-2.9-0.4-4.2c-0.6-1.4-1.6-2.2-2.9-2.5c-1.3-0.3-2.5,0.1-3.6,1
			s-1.9,2.2-2.2,3.8c-0.4,1.7-0.2,3.2,0.5,4.4c0.7,1.3,1.7,2,2.9,2.3c1.4,0.3,2.6-0.1,3.7-1C182.9,383.4,183.6,382.1,183.9,380.7z"
			/>
		<path d="M194.1,376.6l-1.4,10.9l2.4,0.3c0.2,0,0.4,0.1,0.5,0.2c0.1,0.1,0.1,0.2,0.1,0.4c0,0.1-0.1,0.2-0.2,0.3s-0.3,0.1-0.5,0.1
			l-5.7-0.7c-0.2,0-0.4-0.1-0.5-0.2c-0.1-0.1-0.1-0.2-0.1-0.3c0-0.1,0.1-0.2,0.2-0.3c0.1-0.1,0.3-0.1,0.5-0.1l2.4,0.3l1.4-10.9
			l-3.8-0.5l-0.4,3.2c0,0.2-0.1,0.4-0.2,0.5s-0.2,0.1-0.4,0.1c-0.1,0-0.2-0.1-0.3-0.2s-0.1-0.3-0.1-0.5l0.5-4.1l10.3,1.3l-0.5,4.1
			c0,0.2-0.1,0.4-0.2,0.5s-0.2,0.1-0.4,0.1c-0.1,0-0.2-0.1-0.3-0.2c-0.1-0.1-0.1-0.3-0.1-0.5l0.4-3.2L194.1,376.6z"/>
		<path d="M204.7,384.2l-0.2,4.4l3.2,0.1c0.2,0,0.4,0.1,0.5,0.1c0.1,0.1,0.1,0.2,0.1,0.3c0,0.1-0.1,0.2-0.2,0.3
			c-0.1,0.1-0.3,0.1-0.5,0.1l-5.3-0.3c-0.2,0-0.4-0.1-0.5-0.2c-0.1-0.1-0.1-0.2-0.1-0.3c0-0.1,0.1-0.2,0.2-0.3s0.3-0.1,0.5-0.1
			l1.2,0.1l0.5-11l-1.2-0.1c-0.2,0-0.4-0.1-0.5-0.1s-0.1-0.2-0.1-0.3c0-0.1,0.1-0.2,0.2-0.3c0.1-0.1,0.3-0.1,0.5-0.1l5.4,0.3
			c1.3,0.1,2.3,0.5,3.1,1.3c0.8,0.8,1.1,1.7,1.1,2.7c0,0.6-0.2,1.1-0.5,1.6c-0.3,0.5-0.6,0.8-1,1.1c-0.6,0.4-1.2,0.7-1.7,0.8
			c-0.4,0.1-1,0.2-1.6,0.1L204.7,384.2z M204.7,383.3l2.9,0.1c0.7,0,1.3-0.1,1.9-0.4c0.6-0.3,1.1-0.6,1.4-1.1
			c0.3-0.4,0.5-0.9,0.5-1.3c0-0.7-0.2-1.4-0.8-2c-0.6-0.6-1.4-0.9-2.3-1l-3.3-0.2L204.7,383.3z"/>
		<path d="M217.5,384.1l0.2,4.8l1.7-0.1c0.2,0,0.4,0,0.5,0.1c0.1,0.1,0.1,0.2,0.2,0.3c0,0.1,0,0.2-0.1,0.3c-0.1,0.1-0.3,0.1-0.5,0.1
			l-3.9,0.1c-0.2,0-0.4,0-0.5-0.1c-0.1-0.1-0.1-0.2-0.2-0.3c0-0.1,0-0.3,0.1-0.3c0.1-0.1,0.2-0.1,0.5-0.1l1.2,0l-0.3-11l-1.2,0
			c-0.2,0-0.4,0-0.5-0.1c-0.1-0.1-0.1-0.2-0.2-0.3c0-0.1,0-0.3,0.1-0.3c0.1-0.1,0.2-0.1,0.5-0.1l5.6-0.2c1.2,0,2.1,0.3,2.9,1
			s1.2,1.5,1.3,2.4c0,0.7-0.2,1.3-0.7,1.9c-0.5,0.6-1.3,1.1-2.4,1.5c0.7,0.4,1.3,0.9,1.7,1.5c0.5,0.6,1.3,1.7,2.4,3.5l0.7,0
			c0.2,0,0.4,0,0.5,0.1s0.1,0.2,0.2,0.3c0,0.1,0,0.2-0.1,0.3c-0.1,0.1-0.2,0.1-0.5,0.1l-1.2,0c-1.2-2-2.1-3.4-2.8-4
			c-0.6-0.7-1.4-1.2-2.2-1.6L217.5,384.1z M217.5,383.2l2.5-0.1c0.8,0,1.5-0.2,2.2-0.5s1.1-0.7,1.4-1.1c0.3-0.4,0.4-0.8,0.4-1.2
			c0-0.6-0.3-1.2-1-1.7s-1.4-0.8-2.3-0.8l-3.4,0.1L217.5,383.2z"/>
		<path d="M234.2,376.8l1.2,11l3.2-0.4c0.2,0,0.4,0,0.5,0.1s0.2,0.2,0.2,0.3c0,0.1,0,0.2-0.1,0.3c-0.1,0.1-0.2,0.2-0.5,0.2l-7.2,0.8
			c-0.2,0-0.4,0-0.5-0.1s-0.2-0.2-0.2-0.3c0-0.1,0-0.3,0.1-0.3c0.1-0.1,0.2-0.2,0.5-0.2l3.2-0.4l-1.2-11l-3.2,0.4
			c-0.2,0-0.4,0-0.5-0.1c-0.1-0.1-0.2-0.2-0.2-0.3c0-0.1,0-0.3,0.1-0.3c0.1-0.1,0.2-0.2,0.5-0.2l7.2-0.8c0.2,0,0.4,0,0.5,0.1
			c0.1,0.1,0.2,0.2,0.2,0.3c0,0.1,0,0.3-0.1,0.3c-0.1,0.1-0.2,0.2-0.5,0.2L234.2,376.8z"/>
		<path d="M253.7,385.7l-1.2,0.2l-8.9-10l2,10.4l1.7-0.3c0.2,0,0.4,0,0.5,0c0.1,0.1,0.2,0.2,0.2,0.3c0,0.1,0,0.2-0.1,0.4
			c-0.1,0.1-0.2,0.2-0.5,0.2l-3.3,0.7c-0.2,0-0.4,0-0.5,0c-0.1-0.1-0.2-0.2-0.2-0.3c0-0.1,0-0.3,0.1-0.4c0.1-0.1,0.2-0.2,0.5-0.2
			l0.8-0.1l-2.1-10.8l-1.2,0.2c-0.2,0-0.4,0-0.5,0c-0.1-0.1-0.2-0.2-0.2-0.3s0-0.3,0.1-0.4c0.1-0.1,0.2-0.2,0.4-0.2l2.4-0.5l8.9,10
			l-2-10.4l-1.7,0.3c-0.2,0-0.4,0-0.5,0c-0.1-0.1-0.2-0.2-0.2-0.3c0-0.1,0-0.3,0.1-0.4c0.1-0.1,0.2-0.2,0.4-0.2l3.3-0.7
			c0.2,0,0.4,0,0.5,0c0.1,0.1,0.2,0.2,0.2,0.3c0,0.1,0,0.3-0.1,0.4c-0.1,0.1-0.2,0.2-0.4,0.2l-0.8,0.2L253.7,385.7z"/>
		<path d="M260.5,371.6l3,10.6l2.3-0.7c0.2-0.1,0.4-0.1,0.5,0c0.1,0.1,0.2,0.2,0.2,0.3c0,0.1,0,0.2,0,0.4c-0.1,0.1-0.2,0.2-0.4,0.3
			l-5.5,1.6c-0.2,0.1-0.4,0.1-0.5,0c-0.1-0.1-0.2-0.2-0.2-0.3c0-0.1,0-0.3,0-0.4c0.1-0.1,0.2-0.2,0.4-0.2l2.3-0.7l-3-10.6l-3.6,1
			l0.9,3.1c0.1,0.2,0.1,0.4,0,0.5c-0.1,0.1-0.2,0.2-0.3,0.2c-0.1,0-0.2,0-0.4,0c-0.1-0.1-0.2-0.2-0.3-0.4l-1.1-4l10-2.8l1.1,4
			c0.1,0.2,0.1,0.4,0,0.5c-0.1,0.1-0.2,0.2-0.3,0.2c-0.1,0-0.3,0-0.4,0c-0.1-0.1-0.2-0.2-0.3-0.4l-0.9-3.1L260.5,371.6z"/>
		<path d="M292.6,365c0.5,1.1,0.8,2.3,0.8,3.4c0,1.2-0.3,2.2-0.8,3.1c-0.5,0.9-1.3,1.6-2.2,2c-1.3,0.6-2.8,0.6-4.4-0.1
			s-2.8-1.9-3.6-3.7c-0.8-1.8-1-3.5-0.5-5.1s1.4-2.8,2.8-3.4c0.9-0.4,1.9-0.6,2.9-0.4c1,0.2,2,0.6,2.9,1.3
			C291.3,362.9,292.1,363.9,292.6,365z M291.7,365.4c-0.6-1.4-1.6-2.4-2.9-3.1c-1.3-0.7-2.6-0.8-3.8-0.2c-1.2,0.5-1.9,1.5-2.3,3
			s-0.2,2.9,0.5,4.3c0.7,1.6,1.8,2.6,3.1,3.2s2.6,0.6,3.6,0.1c1.3-0.6,2-1.6,2.3-3.1C292.6,368.2,292.4,366.7,291.7,365.4z"/>
		<path d="M297.9,362.3l2.6,4.6l2.8-1.6c0.2-0.1,0.3-0.2,0.5-0.1c0.1,0,0.2,0.1,0.3,0.2c0.1,0.1,0.1,0.2,0,0.4
			c0,0.1-0.2,0.2-0.3,0.3l-4.6,2.6c-0.2,0.1-0.4,0.1-0.5,0.1c-0.1,0-0.2-0.1-0.3-0.2c-0.1-0.1-0.1-0.2,0-0.4s0.2-0.2,0.3-0.3
			l1.1-0.6l-5.5-9.6l-1.1,0.6c-0.2,0.1-0.3,0.2-0.5,0.1c-0.1,0-0.2-0.1-0.3-0.2s-0.1-0.3,0-0.4c0-0.1,0.1-0.2,0.3-0.3l8.8-5l1.6,2.8
			c0.1,0.2,0.1,0.4,0.1,0.5c0,0.1-0.1,0.2-0.2,0.3c-0.1,0.1-0.2,0.1-0.4,0c-0.1,0-0.2-0.2-0.3-0.3l-1.1-2l-6.1,3.5l2.4,4.2l2.9-1.6
			l-0.5-0.9c-0.1-0.2-0.1-0.3-0.1-0.5c0-0.1,0.1-0.2,0.2-0.3c0.1-0.1,0.2-0.1,0.4,0s0.2,0.2,0.3,0.3l1.5,2.6
			c0.1,0.2,0.1,0.4,0.1,0.5c0,0.1-0.1,0.2-0.2,0.3c-0.1,0.1-0.2,0.1-0.4,0c-0.1,0-0.2-0.2-0.3-0.3l-0.5-0.9L297.9,362.3z"/>
		<path d="M319.5,340.8l6.9,8.6l2.5-2c0.2-0.1,0.3-0.2,0.4-0.2s0.2,0.1,0.3,0.2c0.1,0.1,0.1,0.2,0.1,0.3s-0.1,0.3-0.3,0.4l-5.6,4.6
			c-0.2,0.1-0.3,0.2-0.5,0.2c-0.1,0-0.2-0.1-0.3-0.2c-0.1-0.1-0.1-0.2-0.1-0.4c0-0.1,0.1-0.3,0.3-0.4l2.5-2l-6.9-8.6l-2.5,2
			c-0.2,0.1-0.3,0.2-0.4,0.2s-0.2-0.1-0.3-0.2s-0.1-0.2-0.1-0.4c0-0.1,0.1-0.3,0.3-0.4l5.6-4.6c0.2-0.1,0.3-0.2,0.4-0.2
			c0.1,0,0.2,0.1,0.3,0.2c0.1,0.1,0.1,0.2,0.1,0.4c0,0.1-0.1,0.3-0.3,0.4L319.5,340.8z"/>
		<path d="M340.7,337.7l-0.9,0.8l-12.9-3.7l7.3,7.7l1.2-1.2c0.2-0.2,0.3-0.2,0.4-0.2c0.1,0,0.2,0,0.3,0.1c0.1,0.1,0.1,0.2,0.1,0.3
			c0,0.1-0.1,0.3-0.3,0.4l-2.5,2.3c-0.2,0.2-0.3,0.2-0.4,0.2s-0.2,0-0.3-0.1c-0.1-0.1-0.1-0.2-0.1-0.3s0.1-0.3,0.3-0.4l0.6-0.5
			l-7.6-8l-0.9,0.9c-0.2,0.2-0.3,0.2-0.4,0.2c-0.1,0-0.2,0-0.3-0.1c-0.1-0.1-0.1-0.2-0.1-0.3c0-0.1,0.1-0.3,0.3-0.4l1.8-1.7
			l12.9,3.7l-7.3-7.7l-1.2,1.2c-0.2,0.2-0.3,0.2-0.4,0.2c-0.1,0-0.2,0-0.3-0.1c-0.1-0.1-0.1-0.2-0.1-0.3c0-0.1,0.1-0.3,0.3-0.4
			l2.5-2.4c0.2-0.2,0.3-0.2,0.4-0.2c0.1,0,0.2,0,0.3,0.1c0.1,0.1,0.1,0.2,0.1,0.3s-0.1,0.3-0.3,0.4l-0.6,0.5L340.7,337.7z"/>
		<path d="M338.8,322.2l8.2,7.4l1.6-1.8c0.1-0.2,0.3-0.3,0.4-0.3c0.1,0,0.2,0,0.3,0.1c0.1,0.1,0.1,0.2,0.2,0.3s-0.1,0.3-0.2,0.4
			l-3.8,4.3c-0.1,0.2-0.3,0.3-0.4,0.3c-0.1,0-0.2,0-0.3-0.1c-0.1-0.1-0.2-0.2-0.2-0.3c0-0.1,0.1-0.3,0.2-0.4l1.6-1.8l-8.2-7.4
			l-2.5,2.8l2.4,2.1c0.2,0.2,0.3,0.3,0.3,0.4c0,0.1,0,0.2-0.1,0.3c-0.1,0.1-0.2,0.1-0.3,0.2c-0.1,0-0.3-0.1-0.4-0.2l-3.1-2.8
			l6.9-7.7l3.1,2.8c0.2,0.2,0.3,0.3,0.3,0.4c0,0.1,0,0.2-0.1,0.3c-0.1,0.1-0.2,0.2-0.3,0.2c-0.1,0-0.3-0.1-0.4-0.2l-2.4-2.1
			L338.8,322.2z"/>
		<path d="M349.8,318.1l4.2,3.2l4.3-5.7l-2.2-1.7c-0.2-0.1-0.3-0.3-0.3-0.4s0-0.2,0.1-0.4c0.1-0.1,0.2-0.2,0.3-0.2s0.3,0.1,0.5,0.2
			l2.9,2.2l-6.2,8.1c-0.1,0.2-0.3,0.3-0.4,0.3c-0.1,0-0.2,0-0.3-0.1c-0.1-0.1-0.2-0.2-0.2-0.3s0.1-0.3,0.2-0.5l0.8-1l-8.8-6.7
			l-0.8,1c-0.1,0.2-0.3,0.3-0.4,0.3c-0.1,0-0.2,0-0.4-0.1c-0.1-0.1-0.2-0.2-0.2-0.3c0-0.1,0.1-0.3,0.2-0.5l5.9-7.7l2.5,1.9
			c0.2,0.1,0.3,0.3,0.3,0.4c0,0.1,0,0.2-0.1,0.4c-0.1,0.1-0.2,0.2-0.3,0.2s-0.3-0.1-0.5-0.2l-1.8-1.4l-4,5.3l3.8,2.9l2-2.6l-0.8-0.6
			c-0.2-0.1-0.3-0.3-0.3-0.4c0-0.1,0-0.2,0.1-0.4c0.1-0.1,0.2-0.2,0.3-0.2c0.1,0,0.3,0,0.5,0.2l2.4,1.8c0.2,0.1,0.3,0.3,0.3,0.4
			c0,0.1,0,0.2-0.1,0.3c-0.1,0.1-0.2,0.2-0.3,0.2c-0.1,0-0.3,0-0.5-0.2l-0.8-0.6L349.8,318.1z"/>
		<path d="M358.4,307.1l4.1,2.6l0.9-1.4c0.1-0.2,0.2-0.3,0.4-0.3c0.1,0,0.2,0,0.4,0.1c0.1,0.1,0.2,0.2,0.2,0.3c0,0.1,0,0.3-0.1,0.5
			L362,312c-0.1,0.2-0.2,0.3-0.4,0.3c-0.1,0-0.2,0-0.4-0.1c-0.1-0.1-0.2-0.2-0.2-0.3c0-0.1,0-0.3,0.1-0.5l0.7-1l-9.3-5.9l-0.7,1
			c-0.1,0.2-0.2,0.3-0.4,0.3c-0.1,0-0.2,0-0.4-0.1c-0.1-0.1-0.2-0.2-0.2-0.3c0-0.1,0-0.3,0.1-0.5l3-4.7c0.6-1,1.5-1.6,2.5-1.9
			c1-0.3,1.9-0.2,2.7,0.3c0.6,0.4,0.9,0.9,1.2,1.6c0.2,0.7,0.2,1.7-0.1,2.8c0.7-0.3,1.5-0.5,2.2-0.6c0.7-0.1,2.1-0.1,4.2,0l0.4-0.6
			c0.1-0.2,0.2-0.3,0.4-0.3c0.1,0,0.2,0,0.4,0.1c0.1,0.1,0.2,0.2,0.2,0.3c0,0.1,0,0.3-0.1,0.5l-0.7,1c-2.3-0.1-4-0.1-4.9,0
			c-0.9,0.2-1.8,0.5-2.5,0.9L358.4,307.1z M357.6,306.6l1.4-2.1c0.4-0.7,0.7-1.4,0.8-2.1c0.1-0.7,0.1-1.3-0.1-1.8s-0.4-0.8-0.8-1
			c-0.5-0.3-1.2-0.4-2-0.2c-0.8,0.2-1.4,0.7-1.9,1.5l-1.8,2.9L357.6,306.6z"/>
		<path d="M374.2,291.2l-0.6,1.1l-13.4,0.6l9.4,5l0.8-1.5c0.1-0.2,0.2-0.3,0.3-0.4s0.2,0,0.4,0c0.1,0.1,0.2,0.2,0.2,0.3
			c0,0.1,0,0.3-0.1,0.5l-1.6,3c-0.1,0.2-0.2,0.3-0.3,0.4c-0.1,0-0.2,0-0.4,0c-0.1-0.1-0.2-0.2-0.2-0.3c0-0.1,0-0.3,0.1-0.5l0.4-0.7
			l-9.7-5.2l-0.6,1.1c-0.1,0.2-0.2,0.3-0.3,0.4s-0.2,0-0.4,0c-0.1-0.1-0.2-0.2-0.2-0.3c0-0.1,0-0.3,0.1-0.5l1.1-2.1l13.4-0.6l-9.4-5
			l-0.8,1.5c-0.1,0.2-0.2,0.3-0.3,0.4c-0.1,0-0.2,0-0.4,0s-0.2-0.2-0.2-0.3c0-0.1,0-0.3,0.1-0.5l1.6-3c0.1-0.2,0.2-0.3,0.3-0.4
			s0.2,0,0.4,0c0.1,0.1,0.2,0.2,0.2,0.3c0,0.1,0,0.3-0.1,0.5l-0.4,0.7L374.2,291.2z"/>
		<path d="M371.4,282.6l4.9,2.1l2.8-6.5l-2.5-1.1c-0.2-0.1-0.3-0.2-0.4-0.3c-0.1-0.1-0.1-0.2,0-0.4c0.1-0.1,0.1-0.2,0.3-0.3
			s0.3,0,0.5,0.1l3.4,1.4l-4,9.4c-0.1,0.2-0.2,0.3-0.3,0.4c-0.1,0.1-0.2,0.1-0.4,0c-0.1-0.1-0.2-0.1-0.3-0.3c0-0.1,0-0.3,0.1-0.5
			l0.5-1.1l-10.1-4.4l-0.5,1.1c-0.1,0.2-0.2,0.3-0.3,0.4c-0.1,0.1-0.2,0.1-0.4,0c-0.1-0.1-0.2-0.1-0.3-0.3s0-0.3,0.1-0.5l3.8-8.9
			l2.9,1.3c0.2,0.1,0.3,0.2,0.4,0.3c0.1,0.1,0.1,0.2,0,0.4s-0.1,0.2-0.3,0.3c-0.1,0-0.3,0-0.5-0.1l-2.1-0.9l-2.6,6.1l4.4,1.9l1.3-3
			l-1-0.4c-0.2-0.1-0.3-0.2-0.4-0.3c-0.1-0.1-0.1-0.2,0-0.4c0.1-0.1,0.1-0.2,0.3-0.2c0.1,0,0.3,0,0.5,0.1l2.8,1.2
			c0.2,0.1,0.3,0.2,0.4,0.3c0.1,0.1,0.1,0.2,0,0.4c-0.1,0.1-0.1,0.2-0.3,0.3c-0.1,0-0.3,0-0.5-0.1l-1-0.4L371.4,282.6z"/>
		<path d="M372.2,264.6l10.5,3.5l0.8-2.3c0.1-0.2,0.2-0.3,0.3-0.4c0.1-0.1,0.2-0.1,0.4,0c0.1,0,0.2,0.1,0.3,0.2c0.1,0.1,0,0.3,0,0.5
			l-1.8,5.4c-0.1,0.2-0.2,0.3-0.3,0.4c-0.1,0.1-0.2,0.1-0.4,0c-0.1,0-0.2-0.1-0.3-0.2c0-0.1,0-0.3,0-0.5l0.8-2.3l-10.5-3.5l-1.2,3.6
			l3,1c0.2,0.1,0.4,0.2,0.4,0.3s0.1,0.2,0,0.4c0,0.1-0.1,0.2-0.2,0.3c-0.1,0.1-0.3,0-0.5,0l-3.9-1.3l3.3-9.8l3.9,1.3
			c0.2,0.1,0.4,0.2,0.4,0.3s0.1,0.2,0,0.4c0,0.1-0.1,0.2-0.2,0.3s-0.3,0-0.5,0l-3-1L372.2,264.6z"/>
	</g>
</g>
</svg>
