<?xml version="1.0" encoding="utf-8"?>
<!-- Generator: Adobe Illustrator 26.0.1, SVG Export Plug-In . SVG Version: 6.00 Build 0)  -->
<svg version="1.1" id="Layer_1" xmlns="http://www.w3.org/2000/svg" xmlns:xlink="http://www.w3.org/1999/xlink" x="0px" y="0px"
	 viewBox="0 0 1920 731.1" style="enable-background:new 0 0 1920 731.1;" xml:space="preserve">
<style type="text/css">
	.st0{fill:#8FE9A0;}
	.st1{fill:#DD595F;}
	.st2{fill:#FFF9E8;stroke:#000000;stroke-width:4.49;stroke-miterlimit:10;}
	.st3{enable-background:new    ;}
	.st4{fill:none;stroke:#000000;stroke-width:3;stroke-miterlimit:10;}
</style>
<rect x="-0.9" class="st0" width="971.3" height="731.1"/>
<rect x="970.4" class="st1" width="948.7" height="731.1"/>
<circle class="st2" cx="1261.8" cy="412.4" r="68.9"/>
<circle class="st2" cx="1359.2" cy="315.1" r="68.9"/>
<circle class="st2" cx="1395.8" cy="448.2" r="68.9"/>
<circle class="st2" cx="341.9" cy="379.8" r="68.9"/>
<circle class="st2" cx="439.3" cy="282.4" r="68.9"/>
<circle class="st2" cx="574" cy="316.2" r="68.9"/>
<circle class="st2" cx="613.1" cy="448.7" r="68.9"/>
<circle class="st2" cx="475.9" cy="415.5" r="68.9"/>
<circle class="st2" cx="1493.6" cy="350.4" r="68.9"/>
<circle class="st2" cx="1591" cy="253" r="68.9"/>
<circle class="st2" cx="1627.6" cy="386.1" r="68.9"/>
<g id="he9QYG">
	<path d="M341.9,362.7c3-0.1,6-0.2,8.9-0.2c5.6,0,11.1-0.1,16.7-0.1c2.6,0,5.2,0.1,7.8,0.2c1.3,0,2.7,0.1,4,0.4
		c2.4,0.5,4.3,2.2,5.1,4.5c0.4,1.1,0.6,2.3,0.5,3.5c0.1,1.2,0.1,2.3,0.1,3.5c0.1,2.9,0.1,5.7,0.1,8.6c0,1.9-0.2,3.8-0.3,5.7
		c0,1.3-0.3,2.7-0.9,3.9c-1,2-2.9,3.4-5.1,3.8c-1,0.2-2,0.2-3,0.2c-3,0.1-5.9,0.1-8.9,0.2c-3.2,0.1-6.4,0.1-9.7,0.1
		c-1.5,0-3.1,0-4.6,0l-7.5-0.2c-1.5,0-3.1-0.1-4.6-0.2c-1.1-0.1-2.2-0.5-3.1-1.1c-2-1.2-3.2-3.3-3.4-5.6c-0.2-1.7-0.2-3.4-0.3-5.2
		c-0.1-2.3-0.1-4.5-0.1-6.8c0-1.7,0.1-3.4,0.2-5.1c0-1,0.1-1.9,0.1-2.9c0-1.8,0.7-3.5,1.9-4.8c1.2-1.3,2.8-2.2,4.6-2.4L341.9,362.7z
		 M360.4,367.8v23h3.2v-1.1c0.4,0.3,0.9,0.7,1.3,1c1.3,0.8,3.1,0.4,3.9-0.9c0.1-0.1,0.1-0.2,0.2-0.3c0.2-0.5,0.3-1,0.4-1.5
		c0-3.9,0-7.8-0.1-11.6c0-1.5-1.2-2.8-2.7-2.8c-0.4,0-0.9,0.1-1.3,0.3c-0.6,0.3-1.1,0.7-1.6,1.1v-7.1L360.4,367.8z M381,382.8
		c-0.1-2-0.1-3.9-0.2-5.9c0-0.8-0.4-1.7-0.9-2.3c-1.3-1.6-4.5-1.8-6.2-0.5c-1.3,1-2,2.6-1.9,4.2c0,2.7,0,5.4,0,8.1
		c0,1.1,0.3,2.1,0.9,3c1,1.4,2.6,2,4.3,1.7c1.3,0,2.5-0.7,3.2-1.7c1-1.5,0.9-3.2,0.8-4.9h-3.2c0,0.9,0,1.7-0.1,2.6s-0.4,1.1-1.1,1.1
		c-0.9,0-1.4-0.2-1.4-1.1c-0.1-1.4-0.1-2.9-0.2-4.4L381,382.8z M357.3,390.8v-17h-3.1v0.6c0,3.8,0,7.5,0,11.3c0,0.7-0.3,1.4-0.9,1.7
		c-0.1,0.1-0.3,0.2-0.4,0.3c-0.8,0.4-1.3,0-1.3-0.8v-13h-3.2v0.5c0,4.7,0,9.3,0,13.9c0,0.4,0.1,0.9,0.2,1.3c0.2,0.9,1.1,1.6,2,1.5
		c0.7,0,1.4-0.2,1.9-0.6c0.6-0.4,1.1-0.9,1.7-1.3v1.7L357.3,390.8z M344.9,390.8v-19.4h3.6v-3.6h-10.7v3.6h3.6v19.4L344.9,390.8z"/>
	<path d="M310.4,382.3v-4.5c-0.1-1.9,1.2-3.6,3.1-4c1.3-0.4,2.7-0.2,3.9,0.4c1.1,0.6,1.9,1.7,2,3c0.1,1.3,0.1,2.6,0.1,4
		c0,1.8,0,3.7,0,5.5c0.2,2.3-1.5,4.3-3.8,4.5c-0.2,0-0.3,0-0.5,0c-1.1,0.1-2.2-0.3-3.1-0.9c-0.8-0.6-1.3-1.5-1.4-2.5
		c-0.1-0.7-0.1-1.4-0.1-2.1C310.4,384.6,310.4,383.5,310.4,382.3z M316.2,382.4L316.2,382.4v-4.9c0-0.1,0-0.3-0.1-0.4
		c-0.4-0.6-1.1-0.8-1.7-0.6c-0.5,0.1-0.9,0.6-0.9,1.2c0,3.2,0,6.4,0,9.6c0,0.6,0.5,1.1,1.1,1.1c0.1,0,0.1,0,0.2,0
		c0.7,0.1,1.3-0.5,1.4-1.2c0,0,0,0,0,0L316.2,382.4z"/>
	<path d="M298.8,368c1.1,0,2.1,0,3.2,0c0.2,0.1,0.3,0.2,0.4,0.4c0.7,2.8,1.4,5.5,2.1,8.3c0.1,0.2,0.1,0.3,0.2,0.5h0.2
		c0.1-0.5,0.3-1.1,0.4-1.6c0.4-1.9,0.9-3.8,1.3-5.6c0.1-0.5,0.3-1.1,0.4-1.6c0.1-0.2,0.2-0.3,0.4-0.3c1,0,2,0,3.1,0
		c-0.3,1-0.6,1.9-0.9,2.8c-0.8,2.6-1.6,5.3-2.4,8c-0.1,0.3-0.2,0.6-0.3,0.8c-0.7,1.4-0.5,3-0.5,4.5c0,2,0,4,0,6v0.6h-3.2
		c-0.4,0-0.3-0.3-0.3-0.5v-5c0.1-1.1,0.1-2.1,0-3.2c-0.2-1-0.4-1.9-0.7-2.8c-0.7-2.4-1.4-4.8-2.1-7.1
		C299.6,370.8,299.2,369.4,298.8,368z"/>
	<path d="M327.9,374.1h3v16.6h-3V389c-0.6,0.5-1.2,1-1.8,1.5c-0.9,0.7-2.1,0.7-3,0.1c-0.3-0.2-0.5-0.5-0.6-0.8
		c-0.2-0.5-0.3-1.1-0.3-1.6c0-4.7,0-9.3,0-14c0,0,0-0.1,0-0.2h3c0,0.2,0,0.4,0,0.5v11.6c0,0.3,0,0.7,0,1c0,0.9,0.6,1.2,1.4,0.8
		c0.4-0.2,0.8-0.5,1.1-0.8c0.1-0.1,0.2-0.3,0.2-0.5c0-4,0-8,0-12.1C327.8,374.4,327.9,374.2,327.9,374.1z"/>
	<path d="M366.1,382.5v4.5c0,0.7-0.2,1.1-0.7,1.3c-0.7,0.1-1.3-0.1-1.8-0.6c-0.1-0.1-0.1-0.3-0.1-0.4v-9.7c0-0.5,0.4-1,0.9-1.1
		c0.5-0.2,1.1,0,1.4,0.5c0.2,0.3,0.2,0.7,0.2,1.1C366.1,379.6,366.1,381.1,366.1,382.5z"/>
	<path d="M374.9,379.9c0.1-0.9,0.1-1.7,0.2-2.5c0.1-0.5,0.6-0.9,1.1-0.9c0,0,0,0,0,0c0.7,0,1.1,0.2,1.3,0.9c0.1,0.8,0.2,1.6,0.2,2.5
		H374.9z"/>
</g>
<g class="st3">
	<path d="M54.8,49l2.6,9l-4.9-0.1l-3.3,0.1l1.2-10l-1.2-16l6.6,0.1L65.7,32c7.3-0.1,10.6,2.2,10.6,8.2c0,6.1-3.3,8.8-10.6,8.8H54.8z
		 M55.3,38.6L54.8,45h10.9c4.3,0,6.2-1.3,6.2-3.2s-2-3.1-6.2-3.1H55.3z"/>
</g>
<g class="st3">
	<path d="M95.1,51.7H82.3l-1.8,6.4h-8l13.8-26l2.4,0.2l2.4-0.2l13.9,26h-8L95.1,51.7z M93.4,47.6l-4.9-8.9l-4.6,8.9H93.4z"/>
	<path d="M108,47.5c3.7,2.8,8.8,4.5,14.4,4.5c4.3,0,6.3-1.4,6.3-2.8c0-4.5-21.2,1.2-21.4-9.9c-0.1-5.8,5.3-8,12.8-8
		c4.9,0,8.8,0.8,12.5,2.4l-1.6,6.6c-4.2-1.8-8.5-2.5-12.9-2.5c-2.9,0-6.6,0.7-6.6,2.4c0,4.6,22.7-0.7,22.5,10.1
		c-0.1,5.3-5.2,8.2-12.4,8.3c-6.3,0-11.3-1.8-15.2-4.3L108,47.5z"/>
	<path d="M138,47.5c3.7,2.8,8.8,4.5,14.4,4.5c4.3,0,6.3-1.4,6.3-2.8c0-4.5-21.2,1.2-21.4-9.9c-0.1-5.8,5.3-8,12.8-8
		c4.9,0,8.8,0.8,12.5,2.4l-1.6,6.6c-4.2-1.8-8.5-2.5-12.9-2.5c-2.9,0-6.6,0.7-6.6,2.4c0,4.6,22.7-0.7,22.5,10.1
		c-0.1,5.3-5.2,8.2-12.4,8.3c-6.3,0-11.3-1.8-15.2-4.3L138,47.5z"/>
</g>
<g class="st3">
	<path d="M1029.2,66.5l-4.9-0.1l-3.3,0.1l1.2-10l-1.2-16l6.7,0.1l18.1-0.1l-0.1,3.3l0.1,3.3h-18.5l-0.4,5h16.3V56h-16.7l0,0.4
		L1029.2,66.5z"/>
</g>
<g class="st3">
	<path d="M1064.8,60.1H1052l-1.8,6.4h-8l13.8-26l2.4,0.2l2.4-0.2l13.9,26h-8L1064.8,60.1z M1063.1,56l-4.9-8.9l-4.6,8.9H1063.1z"/>
	<path d="M1079.4,56.5l-2-16l4.1,0.1l4.1-0.1l-2,16l2,10l-4.1-0.1l-4.1,0.1L1079.4,56.5z"/>
	<path d="M1115,66.5l-17.9-0.1l-6.7,0.1l1.2-10l-1.2-16l3.3,0.1l4.9-0.1l-3,19.5l19.4-0.2l-0.1,3.4L1115,66.5z"/>
</g>
<g id="j9Cxd5">
	<path d="M439,313.8c-3.3,0-6.6,0-9.9,0c-2.8,0-5.5-0.2-8.2-0.8c-4.5-1-8.4-3.8-10.7-7.8c-1.2-2.2-2-4.7-2.3-7.2
		c-0.3-3.8-0.5-7.7-0.4-11.6c0-4.2,0-8.5,0-12.7c0-2.7,0.1-5.4,0.5-8.1c0.6-4.8,3.3-9,7.3-11.6c2.4-1.6,5.1-2.5,7.9-2.7
		c3.3-0.2,6.7-0.4,10-0.4c4.9-0.1,9.7,0,14.6,0c2.8,0,5.6,0.2,8.3,0.6c4.9,0.8,9.2,3.8,11.6,8.1c1.3,2.4,2.1,5.1,2.3,7.9
		c0.4,4.2,0.3,8.5,0.3,12.8c0,3.9,0,7.9-0.1,11.8c0.1,2.7-0.2,5.5-0.8,8.1c-1.6,6.6-5.6,10.9-12.2,12.7c-2.3,0.6-4.7,0.8-7.1,0.8
		C446.5,313.8,442.7,313.8,439,313.8L439,313.8z M438.9,308.2v-0.1c3.3,0,6.6,0,9.8,0c2.3,0.1,4.6-0.1,6.8-0.6
		c4.3-0.8,7.7-4.1,8.5-8.4c0.5-2.6,0.7-5.2,0.6-7.8c0.1-5.2,0-10.3,0-15.5c0.1-3.1-0.1-6.1-0.5-9.2c-0.5-4.8-4.2-8.7-8.9-9.5
		c-2.4-0.4-4.9-0.6-7.4-0.6c-4.4-0.1-8.8,0-13.2,0c-3.6-0.1-7.2,0-10.8,0.4c-2,0.2-3.9,0.8-5.6,1.9c-2.5,1.7-4.1,4.3-4.6,7.3
		c-0.4,2.3-0.6,4.6-0.5,6.9c0,6.7,0,13.3,0,20c0,2,0.2,3.9,0.5,5.8c0.7,3.8,3.3,6.9,6.9,8.1c2,0.7,4.1,1,6.2,1
		C430.9,308.1,434.9,308.2,438.9,308.2L438.9,308.2z"/>
	<path d="M455.1,282.4c0,8.9-7.2,16.2-16.2,16.2c-8.9,0-16.2-7.2-16.2-16.2c0-8.9,7.2-16.1,16.1-16.2
		C447.8,266.2,455.1,273.4,455.1,282.4z M438.9,292.9c5.8,0,10.5-4.7,10.5-10.5c0-5.8-4.7-10.5-10.5-10.5c-5.8,0-10.5,4.7-10.5,10.5
		c0,0,0,0.1,0,0.1C428.5,288.2,433.2,292.8,438.9,292.9z"/>
	<path d="M452,265.5c0.1-2.1,1.9-3.7,4-3.6c1.9,0.1,3.5,1.6,3.6,3.6c0.1,2.1-1.5,3.9-3.6,4c-2.1,0.1-3.9-1.5-4-3.6
		C452,265.8,452,265.7,452,265.5z"/>
</g>
<g id="BJ4bEr.tif">
	<path d="M487.5,445.8v-23.4h0.7c2,0,4.1,0,6.1,0c0.7,0,1-0.1,1-0.9c0.3-2.6,0.7-5.2,1-7.9c0-0.1,0-0.2,0-0.4h-8.9
		c0-0.3,0-0.5,0-0.7c0-1.7,0-3.4,0-5.1c0-0.6,0.1-1.1,0.2-1.7c0.1-1.5,1.3-2.6,2.8-2.6c1.7-0.2,3.4-0.1,5.1-0.2h1.2v-7.6
		c0-0.3,0.1-0.6-0.4-0.7c-3.1-0.4-6.3-0.4-9.5,0c-4.8,0.7-8.5,4.7-8.8,9.6c-0.2,2.7-0.1,5.5-0.2,8.2v0.7h-7.8v9.2h7.8v23.4
		c-0.2,0-0.3,0-0.5,0.1c-6.8,0-13.6,0-20.5,0c-5.3,0-9.8-3.7-11-8.8c-0.2-0.7-0.3-1.5-0.3-2.2c0-12.8,0-25.6,0-38.4
		c0-5.2,3.7-9.7,8.8-10.8c0.9-0.2,1.9-0.3,2.8-0.2c12.4,0,24.8,0,37.2,0c5.3-0.2,10,3.4,11.3,8.6c0.2,1,0.3,1.9,0.3,2.9
		c0,12.5,0,25,0,37.5c0.1,5.6-3.8,10.4-9.3,11.3c-1,0.1-2.1,0.2-3.1,0.2c-1.8,0-3.6,0-5.4,0L487.5,445.8z"/>
</g>
<g id="jomKMa.tif">
	<path d="M573.1,281.6h3.1c0.3,0.1,0.7,0.1,1,0.2c4,0.2,7.9,1.2,11.5,2.9c16.8,7.8,24.1,27.8,16.2,44.7
		c-7.6,16.3-26.8,23.7-43.4,16.8c-1.1-0.5-2.1-1.3-3.2-1.4s-2.3,0.6-3.4,1l-15.1,4.9v-0.2c0.1-0.1,0.1-0.2,0.2-0.3
		c1.9-5.5,3.7-11.1,5.6-16.7c0.2-0.6,0.2-1.2-0.1-1.8c-5.6-10.4-6-21-0.8-31.6c4.9-9.8,13-15.8,23.7-17.9
		C569.9,282,571.5,281.9,573.1,281.6z M548.5,342l0.9-0.2c3-1,6.1-1.9,9.1-2.9c0.5-0.2,1-0.1,1.4,0.2c9.8,5.7,19.8,5.8,29.5-0.1
		c13.1-8.2,17.2-25.4,9-38.6s-25.4-17.2-38.6-9c-13.1,8.2-17.2,25.4-9,38.6c0.2,0.3,0.4,0.7,0.7,1c0.3,0.4,0.4,0.9,0.2,1.4
		c-0.5,1.3-0.9,2.6-1.3,3.9C549.8,338.2,549.2,340,548.5,342z"/>
	<path d="M564.2,298.9c0.4,0,0.7,0.1,1,0c0.7-0.1,1.4,0.4,1.6,1.1c0.9,2.4,1.8,4.8,2.7,7.3c0.1,0.4,0,0.9-0.2,1.3
		c-0.6,0.9-1.4,1.8-2.2,2.7c-0.6,0.5-0.8,1.4-0.3,2.1c2.5,4.6,6.5,8.3,11.3,10.4c0.6,0.4,1.4,0.2,1.8-0.4c0.9-1,1.8-2,2.7-3.1
		c0.3-0.6,1.1-0.8,1.7-0.5c2.4,1.2,4.8,2.5,7.2,3.8c0.6,0.3,0.6,0.9,0.5,1.5c-0.3,3.7-2.2,5.6-6.4,6.8c-2.8,0.7-5.2-0.4-7.7-1.3
		c-7.4-2.6-12.6-7.7-16.7-14.2c-1.6-2.2-2.7-4.6-3.3-7.2c-0.8-3.5,0.5-7.2,3.3-9.5C562.1,298.9,563.2,298.7,564.2,298.9z"/>
</g>
<g id="Gi8Me7">
	<path d="M608.7,436.7h10.9v4.2l0.3,0.1c0.4-0.5,0.8-1,1.2-1.5c3.6-3.9,9.7-5.1,15.2-3c4.7,1.9,7.8,6.6,7.7,11.7
		c0.1,8.1,0.1,16.2,0.1,24.4c0,0.3,0,0.5-0.1,0.9h-11.2c0-2.5,0-5,0-7.5c0-4.5-0.1-8.9-0.2-13.4c-0.1-4.2-2.4-6.6-6.1-6.6
		c-3.5-0.2-6.5,2.5-6.7,6c0,0.2,0,0.4,0,0.7c-0.1,6.5-0.2,13-0.2,19.4v1.4h-10.9V436.7z"/>
	<path d="M590,436.7h11.2v36.7H590V436.7z"/>
	<path d="M602.2,425c0,3.7-3,6.7-6.7,6.7c0,0-0.1,0-0.1,0c-3.7-0.1-6.7-3.3-6.5-7c0.1-3.5,3-6.4,6.5-6.5c3.6-0.1,6.7,2.8,6.8,6.5
		C602.2,424.7,602.2,424.9,602.2,425z"/>
</g>
<g id="v8VwRN.tif">
	<path d="M1316.3,303.5c1.1,0,2.2,0,3.3,0c0.2,0,0.4,0.1,0.5,0.4c1.4,4.1,2.9,8.2,4.3,12.4c0,0.1,0.1,0.2,0.2,0.3v-13h3.5v21.8
		l-1.7,0.2c-0.7,0.1-1.3,0.1-2,0.2c-0.2,0-0.3,0-0.4-0.3c-1.3-3.8-2.7-7.6-4-11.3c0-0.1-0.1-0.3-0.2-0.4v12.5l-2,0.3
		c-0.4,0-0.8,0.1-1.2,0.2h-0.3L1316.3,303.5z"/>
	<path d="M1401.8,326.7l-2.1-0.3c-0.4,0-0.7-0.1-1.1-0.1c-0.2,0-0.4-0.2-0.5-0.4c-0.7-2.1-1.5-4.2-2.2-6.3l-0.2-0.4l-0.2,0.4
		c-0.8,1.9-1.6,3.8-2.3,5.7c-0.1,0.2-0.3,0.4-0.5,0.3c0,0,0,0,0,0c-0.9-0.1-1.8-0.2-2.8-0.3l-0.4-0.1l0.2-0.5
		c1.4-3.4,2.8-6.8,4.1-10.2c0.1-0.2,0.1-0.4,0-0.6c-1.2-3.4-2.4-6.7-3.5-10c0-0.1-0.1-0.2-0.1-0.3h3.7l2.1,5.8l0.2-0.4l2.1-5.1
		c0-0.2,0.3-0.4,0.5-0.3h3.4c0,0.1-0.1,0.2-0.1,0.4l-4.1,10.2c-0.1,0.2-0.1,0.4,0,0.5c1.4,4,2.8,8,4.3,12.1c0,0,0,0.1,0,0.1
		L1401.8,326.7z"/>
	<path d="M1332.2,303.5h8.7v3.3h-5v5.7h4.3v3.4h-4.4v5.4l5-0.3v3.4l-8.7,0.6L1332.2,303.5z"/>
	<path d="M1358.6,303.5h8.7v3.3h-5v5.7h4.3v3.4h-4.4v7.9h-3.7L1358.6,303.5z"/>
	<path d="M1351.6,323.8l-3.7,0.1v-17.1h-3.4v-3.4h10.5v3.3h-3.4L1351.6,323.8z"/>
	<path d="M1374.5,320.8l5.1,0.3v3.4l-8.7-0.4v-20.4h3.7L1374.5,320.8z"/>
	<path d="M1383.1,303.5h3.7v21.4l-2.1-0.2c-0.4,0-0.8-0.1-1.2-0.1s-0.3-0.1-0.3-0.4c0-3.2,0-6.5,0-9.7L1383.1,303.5L1383.1,303.5z"
		/>
</g>
<g id="_0MqMqr.tif">
	<path d="M1285.1,427.9h-2.3c-0.1,0-0.2-0.1-0.3-0.1c-5.6-0.5-10.5-4-12.7-9.1c-0.1-0.1-0.1-0.3-0.2-0.5c-0.1,0.9-0.1,1.6-0.2,2.4
		c-0.4,4-3.8,7.1-7.8,6.9h-13.4v-30.3h0.4h12.3c1.5,0,3,0.3,4.4,0.9c2.3,0.8,4,2.8,4.5,5.1c0.1,0.8,0.2,1.6,0.2,2.5
		c0.1-0.1,0.2-0.3,0.2-0.4c3.9-7.6,13.3-10.6,20.9-6.7c4,2,6.9,5.7,8,10.1c0.2,0.9,0.3,1.7,0.5,2.6v2.2c0,0.1-0.1,0.3-0.1,0.4
		c-0.6,6.4-5.1,11.7-11.3,13.4C1287.1,427.6,1286.1,427.8,1285.1,427.9z M1291.6,412.4c0-4.2-3.4-7.7-7.7-7.7
		c-4.2,0-7.7,3.4-7.7,7.7c0,4.2,3.4,7.7,7.6,7.7C1288.2,420.1,1291.6,416.7,1291.6,412.4C1291.6,412.5,1291.6,412.4,1291.6,412.4z
		 M1255.6,420.4h3.8c1.2,0.1,2.2-0.7,2.4-1.9c0-0.1,0-0.3,0-0.4c0.2-1.1-0.5-2.1-1.6-2.3c-0.2,0-0.4,0-0.6,0c-1,0-2,0-3,0h-1
		L1255.6,420.4z M1255.6,404.6v4.6c1.5,0,2.9,0,4.4,0c0.6,0,1.2-0.4,1.5-1c0.4-0.8,0.5-1.7,0.1-2.5c-0.3-0.6-0.9-1-1.5-1
		C1258.6,404.6,1257.2,404.6,1255.6,404.6L1255.6,404.6z M1268.5,410.2c-0.8,1.1-2,1.8-3.3,2c1.3,0.4,2.5,1.3,3.3,2.5V410.2z"/>
	<path d="M1246.3,427.5h-8.3v-11.1h-5.4v11.1h-8.4v-30.3h8.3v11.4h5.3v-11.4h8.4V427.5z"/>
	<path d="M1290.2,412.4c0,3.4-2.8,6.3-6.2,6.3c-3.4,0-6.3-2.8-6.3-6.2c0-3.4,2.8-6.3,6.2-6.3c0,0,0,0,0,0
		C1287.4,406.2,1290.2,408.9,1290.2,412.4C1290.2,412.4,1290.2,412.4,1290.2,412.4z"/>
</g>
<g id="J9JHVB.tif">
	<path d="M1513.1,324.7h1.7h0.3c0.8,0,1.6,0.2,2.4,0.4c1.9,0.5,3.6,1.8,4.5,3.6c0.4,0.7,0.7,1.5,0.9,2.4c0.3,1.2,0.4,2.4,0.4,3.7
		c0,0.1,0,0.2,0,0.3v1c0,0.1,0,0.3,0,0.4c0,0.8-0.1,1.6-0.3,2.4c-0.4,1.8-0.9,3.5-1.6,5.1c-1.2,2.8-2.7,5.5-4.3,8
		c-2.2,3.4-4.6,6.8-7.2,10c-1.8,2.3-3.8,4.5-5.8,6.6c-1.6,1.6-3.3,3.1-5.2,4.4c-1.4,1-2.9,1.8-4.5,2.4c-0.8,0.3-1.7,0.5-2.5,0.6
		l-0.7,0.1h-0.8h-0.1c-1.1-0.1-2.1-0.5-2.9-1.2c-1-0.7-1.8-1.6-2.5-2.6c-0.9-1.3-1.6-2.7-2.2-4.1c-0.3-0.6-0.5-1.2-0.7-1.8
		c-1.4-5.3-2.9-10.5-4.3-15.8c-0.5-1.9-1-3.8-1.8-5.7c-0.4-1.2-0.9-2.3-1.6-3.3c-0.3-0.6-0.8-1.1-1.3-1.5c-0.3-0.3-0.6-0.4-1-0.5
		c-0.3-0.1-0.7-0.1-1.1,0c-0.3,0.2-0.7,0.3-1,0.5c-1,0.6-2,1.3-3,2l-0.2,0.1l-2.8-3.6l0.2-0.2c2.5-2.2,4.9-4.4,7.4-6.6
		c1.5-1.4,3-2.6,4.6-3.8c1-0.7,2.1-1.4,3.2-1.9c1.2-0.6,2.6-0.7,3.9-0.5c1.5,0.2,2.8,0.9,3.7,2.1c0.7,0.9,1.3,1.8,1.7,2.9
		c0.6,1.5,1,3,1.2,4.6c0.2,1.4,0.4,2.8,0.7,4.3s0.5,3.1,0.8,4.7s0.6,3.1,0.9,4.6s0.7,3.1,1.2,4.6c0.3,1,0.7,1.9,1.2,2.9
		c0.2,0.4,0.5,0.8,0.8,1.1c0.3,0.4,0.8,0.5,1.3,0.5c0.3,0,0.5-0.2,0.8-0.3c0.4-0.3,0.9-0.6,1.2-1c0.6-0.6,1.1-1.2,1.5-1.8
		c1.3-1.8,2.5-3.6,3.6-5.6c0.6-1.1,1.2-2.3,1.7-3.5c0.6-1.4,0.8-2.9,0.6-4.4c0-0.5-0.2-0.9-0.3-1.3c-0.4-0.9-1.3-1.6-2.3-1.8
		c-0.9-0.2-1.9-0.2-2.8,0c-0.9,0.1-1.8,0.4-2.7,0.7l-0.2,0.1c0-0.1,0-0.2,0.1-0.3c0.4-1.4,1-2.7,1.6-4c0.9-1.9,2.1-3.6,3.6-5.2
		c2.4-2.5,5.7-4,9.2-4.2L1513.1,324.7z"/>
</g>
<path d="M1559.2,252.2c-0.1-8.7,2-15.5,6.3-21.5c4.6-6.5,11.4-11.1,19.2-13.1c2.5-0.7,5.2-1,7.8-1.1c7.4-0.2,14.8,2,20.8,6.3
	c7.2,5,12.2,12.7,13.7,21.3c1.4,7.2,0.4,14.7-2.8,21.3c-4.1,8.8-11.9,15.4-21.4,17.8c-10.2,2.8-20,1.4-28.9-4.6
	c-6.8-4.5-11.7-11.5-13.6-19.5C1559.7,256.9,1559.3,254.5,1559.2,252.2z M1591.8,259.3c0.2,0.2,0.4,0.4,0.6,0.5
	c1.9,1.9,4.7,2.7,7.3,2.1c3.5-0.5,6.6-2.5,8.5-5.5c1.7-2.5,2.8-5.5,3.2-8.5c0.3-1.7,0.3-3.5,0-5.3c-1.3-5.6-4.5-9.6-10.1-11.3
	c-4.9-1.7-10.4-1.3-15,1.1c-3.1,1.5-5.6,3.9-7.3,6.9c-1.8,3.4-2.2,7.3-1.1,10.9c0.5,2.4,2.2,4.3,4.4,5.4c0.6,0.4,1.4,0.3,1.8-0.3
	c0.1-0.1,0.2-0.3,0.2-0.4c0.7-1.2,0.6-2.7-0.1-3.8c-1-1.6-1.5-3.5-1.3-5.3c0.2-5.3,4.4-9.1,8-10.2c2.5-0.7,5.2-0.7,7.7,0
	c3.2,0.7,5.7,3.3,6.2,6.6c0.3,1.6,0.3,3.3,0.1,4.9c-0.2,2.7-1.2,5.4-2.8,7.6c-1.3,2-3.8,2.9-6.1,2.1c-1.6-0.3-2.7-1.9-2.3-3.5
	c0-0.2,0.1-0.3,0.1-0.5c0.5-1.9,1-3.8,1.5-5.7c0.4-1.4,0.6-2.9,0.4-4.4c-0.1-1.2-1-2.2-2.2-2.5c-1.9-0.5-4,0.3-5,2
	c-1.3,2.3-1.6,5.1-0.8,7.6c0.1,0.4,0.2,0.9,0.1,1.4c-1,4.2-1.9,8.4-3,12.6c-0.8,3.1-0.8,6.2-0.1,9.3c0.1,0.4,0.3,0.7,0.5,1h0.2
	c0.8-1,1.6-1.9,2.3-2.9c1.6-2.4,2.7-5.2,3.3-8C1591.3,261.9,1591.5,260.6,1591.8,259.3L1591.8,259.3z"/>
<g id="F2BwwP">
	<path d="M1601.5,404.5c6.2,0.7,12.5-1.1,17.5-4.9c-5.1-0.2-9.5-3.6-11.2-8.4c1.8,0.3,3.6,0.2,5.3-0.2c-2.7-0.6-5.1-2.1-6.8-4.3
		c-1.7-2.2-2.6-4.8-2.6-7.6c1.6,0.9,3.4,1.4,5.3,1.5c-2.5-1.7-4.3-4.4-4.9-7.4c-0.7-2.9-0.2-6,1.3-8.6c6.1,7.5,15.1,12,24.7,12.5
		l-0.2-1.3c-0.8-6.6,3.8-12.6,10.4-13.4c3.6-0.5,7.2,0.7,9.8,3.2c0.3,0.3,0.8,0.5,1.2,0.3c2.2-0.5,4.3-1.3,6.3-2.4l0.7-0.3
		c-0.9,2.6-2.6,4.9-4.8,6.5c2.2-0.2,4.4-0.8,6.4-1.7c-0.2,0.4-0.4,0.6-0.5,0.8c-1.4,1.9-3.1,3.7-5,5.1c-0.2,0.2-0.4,0.5-0.4,0.8
		c0.2,5.6-1,11.1-3.5,16.1c-4.4,9.1-11.4,15.2-21.2,17.9c-9.1,2.6-18.8,1.3-26.9-3.5l-0.7-0.4
		C1601.6,404.7,1601.6,404.6,1601.5,404.5z"/>
</g>
<g id="b5FQOU.tif">
	<path d="M1355.4,448.5c0.2-0.7,0.3-1.4,0.5-2.1c1.4-4.8,5.6-8.2,10.6-8.4c2.2-0.1,4.5,0.5,6.3,1.8c2.8-1.1,5.3-2.3,8-3.2
		c3.5-1.2,7.1-1.8,10.8-2c0.5,0,0.9-0.3,0.9-0.8c1.8-5.2,3.6-10.3,5.4-15.5c0.1-0.3,0.2-0.6,0.3-0.9l8.5,2c1.2,0.3,2.4,0.5,3.6,0.9
		c0.4,0.2,0.8,0,1-0.4c1.9-2.8,5.3-4.2,8.7-3.6c4.8,0.8,8.1,5.4,7.2,10.3s-5.4,8.1-10.3,7.2c-0.8-0.1-1.5-0.4-2.2-0.7
		c-3.3-1.4-5.3-4.7-5.1-8.3c0-0.2,0-0.4,0-0.6l-8.9-2.1c-1.4,4.1-2.8,8.2-4.3,12.3c1.7,0.2,3.3,0.3,5,0.5c4.9,0.6,9.7,2.2,14.1,4.6
		c0.4,0.3,0.9,0.3,1.3,0c5.5-3,12.3-1,15.3,4.4c0.7,1.2,1.1,2.6,1.3,4c0.8,4.4-1,8.9-4.7,11.5c-0.3,0.2-0.4,0.5-0.5,0.8
		c-0.6,3.9-2.3,7.5-5,10.4c-3.8,4-8.5,7-13.8,8.7c-4.2,1.4-8.6,2.2-13,2.4c-0.3,0-0.5,0.1-0.8,0.1h-2c-0.3-0.1-0.6-0.1-0.8-0.1
		c-3.1-0.1-6.2-0.5-9.3-1.3c-6.6-1.7-12.6-4.6-17.3-9.7c-2.6-2.7-4.3-6.1-5-9.9c-0.1-0.6-0.4-1.2-1-1.5c-1.5-1-2.7-2.4-3.5-4
		c-0.6-1.4-1-2.9-1.4-4.4L1355.4,448.5z M1394.6,477.8c5.7,0.1,11.3-1.1,16.6-3.3c4.2-1.7,7.9-4.6,10.7-8.3c3.5-4.9,3.5-11.4,0-16.3
		c-2.8-3.8-6.6-6.7-11-8.4c-5.7-2.4-11.8-3.4-17.9-3.1c-5.8,0.1-11.6,1.6-16.8,4.3c-4.1,2.1-7.5,5-9.7,9.1c-2.1,3.9-2.1,8.6,0,12.5
		c2.1,4.2,5.6,7,9.7,9.1C1381.9,476.4,1388.2,477.9,1394.6,477.8L1394.6,477.8z M1413.6,425.1c0,2.7,2.3,4.9,5,4.9s4.9-2.3,4.9-5
		c0-2.7-2.2-4.9-4.9-4.9C1415.8,420.2,1413.6,422.4,1413.6,425.1L1413.6,425.1z M1361.4,455c1.1-5.2,4-9.2,8-12.5
		c-3.2-1.2-6.7-0.1-8.6,2.8C1358.8,448.3,1359,452.3,1361.4,455z M1428.1,454.6c2.3-3,2.1-7.3-0.4-10.1c-1.9-2.2-5.2-3.1-7.3-2.1
		c1.6,1.8,3.3,3.5,4.8,5.5C1426.6,449.8,1427.6,452.1,1428.1,454.6L1428.1,454.6z"/>
	<path d="M1394.5,473.2c-4.5,0-8.8-1.4-12.5-3.9c-1-0.5-1.3-1.7-0.8-2.7c0-0.1,0.1-0.1,0.1-0.2c0.6-0.9,1.9-1.1,2.8-0.5
		c0,0,0.1,0.1,0.1,0.1c6.3,4.1,12.7,4.2,19.2,0.6c0.5-0.3,0.9-0.6,1.4-0.8c1-0.4,2.2,0.1,2.6,1.2c0.3,0.7,0.1,1.6-0.5,2.1
		c-3,2.1-6.5,3.4-10.2,3.9C1396,473.1,1395.2,473.1,1394.5,473.2z"/>
	<path d="M1388.2,454.1c0,2.9-2.3,5.3-5.2,5.3c-2.9,0-5.3-2.3-5.3-5.2c0-2.9,2.3-5.3,5.2-5.3
		C1385.8,448.9,1388.1,451.2,1388.2,454.1z"/>
	<path d="M1400.3,454.1c0-2.9,2.4-5.3,5.3-5.3s5.3,2.4,5.3,5.3c0,2.9-2.4,5.3-5.3,5.3C1402.6,459.3,1400.3,457,1400.3,454.1z"/>
</g>
<g class="st3">
	<path d="M54.1,677.8v6.2h1.4c0.4,0,0.6,0.1,0.8,0.2c0.2,0.1,0.2,0.4,0.2,0.7c0,0.3-0.1,0.6-0.2,0.7s-0.4,0.2-0.8,0.2h-4.9
		c-0.4,0-0.6-0.1-0.8-0.2c-0.2-0.1-0.2-0.4-0.2-0.7c0-0.3,0.1-0.5,0.2-0.7s0.4-0.2,0.8-0.2h1.4v-6.2h-1.4c-0.4,0-0.6-0.1-0.8-0.2
		c-0.2-0.1-0.2-0.4-0.2-0.7c0-0.3,0.1-0.6,0.2-0.7c0.2-0.1,0.4-0.2,0.8-0.2h4.9c0.4,0,0.7,0.1,0.8,0.2c0.2,0.1,0.2,0.4,0.2,0.7
		c0,0.3-0.1,0.6-0.2,0.7c-0.2,0.1-0.4,0.2-0.8,0.2H54.1z"/>
	<path d="M66.7,684h0.1c0.3,0,0.5,0.1,0.7,0.2s0.2,0.4,0.2,0.7c0,0.3-0.1,0.6-0.2,0.7c-0.2,0.1-0.4,0.2-0.8,0.2h-2
		c-0.4,0-0.6-0.1-0.8-0.2c-0.2-0.1-0.2-0.4-0.2-0.7c0-0.3,0.1-0.5,0.2-0.7c0.2-0.2,0.4-0.2,0.7-0.2h0.1v-2.4c0-0.7-0.1-1.1-0.3-1.4
		c-0.2-0.3-0.5-0.4-0.9-0.4c-0.5,0-0.8,0.2-1.1,0.5c-0.3,0.3-0.4,0.8-0.4,1.3v2.4H62c0.3,0,0.6,0.1,0.7,0.2s0.2,0.4,0.2,0.7
		c0,0.3-0.1,0.6-0.2,0.7s-0.4,0.2-0.8,0.2h-2.1c-0.4,0-0.6-0.1-0.8-0.2s-0.2-0.4-0.2-0.7c0-0.3,0.1-0.5,0.2-0.7s0.4-0.2,0.7-0.2h0.1
		v-4h-0.1c-0.3,0-0.5-0.1-0.7-0.2s-0.2-0.4-0.2-0.7c0-0.3,0.1-0.6,0.2-0.7s0.4-0.2,0.8-0.2h1.4c0.2,0,0.3,0,0.4,0.1
		c0.1,0.1,0.1,0.1,0.1,0.3v0.6c0.3-0.4,0.6-0.7,1-0.9c0.4-0.2,0.9-0.3,1.4-0.3c0.9,0,1.5,0.3,2,0.8c0.4,0.5,0.7,1.4,0.7,2.5V684z"/>
	<path d="M71.2,685.7c-0.1,0.1-0.3,0.2-0.4,0.3c-0.2,0.1-0.3,0.1-0.5,0.1c-0.2,0-0.4-0.1-0.5-0.2c-0.1-0.1-0.1-0.4-0.1-0.7V684
		c0-0.4,0.1-0.6,0.2-0.8s0.3-0.2,0.6-0.2c0.3,0,0.6,0.2,0.8,0.5c0.1,0.2,0.2,0.3,0.3,0.4c0.3,0.2,0.6,0.4,0.9,0.5
		c0.4,0.1,0.8,0.2,1.2,0.2c0.4,0,0.7-0.1,1-0.2c0.2-0.2,0.4-0.4,0.4-0.6c0-0.4-0.6-0.8-1.9-0.9c-0.3,0-0.5-0.1-0.7-0.1
		c-1-0.1-1.7-0.4-2.1-0.8c-0.5-0.4-0.7-0.9-0.7-1.6c0-0.8,0.3-1.4,0.8-1.8c0.6-0.4,1.4-0.6,2.4-0.6c0.4,0,0.7,0,1.1,0.1
		c0.4,0.1,0.8,0.1,1.2,0.3c0.1-0.1,0.2-0.2,0.4-0.3c0.1-0.1,0.3-0.1,0.4-0.1c0.2,0,0.4,0.1,0.5,0.2c0.1,0.1,0.2,0.4,0.2,0.6v1
		c0,0.2-0.1,0.4-0.2,0.6s-0.3,0.2-0.5,0.2c-0.2,0-0.6-0.2-1.2-0.6c-0.6-0.4-1.1-0.6-1.7-0.6c-0.4,0-0.8,0.1-1,0.2
		c-0.2,0.1-0.4,0.3-0.4,0.6c0,0.4,0.5,0.6,1.5,0.8c0.3,0,0.5,0.1,0.7,0.1c1.3,0.2,2.1,0.5,2.6,0.8c0.5,0.4,0.7,0.9,0.7,1.6
		c0,0.8-0.3,1.5-0.9,1.9c-0.6,0.5-1.5,0.7-2.6,0.7c-0.4,0-0.9,0-1.3-0.1C72,685.9,71.6,685.8,71.2,685.7z"/>
	<path d="M83,678.6h2.5c0.4,0,0.7,0.1,0.8,0.2c0.2,0.1,0.2,0.4,0.2,0.7c0,0.3-0.1,0.6-0.2,0.7c-0.2,0.1-0.4,0.2-0.8,0.2H83v2.1
		c0,0.6,0.1,1,0.3,1.2c0.2,0.2,0.5,0.3,1,0.3c0.4,0,0.9-0.1,1.5-0.4s1-0.4,1.2-0.4c0.2,0,0.4,0.1,0.6,0.3c0.2,0.2,0.2,0.4,0.2,0.7
		c0,0.4-0.4,0.8-1.2,1.2c-0.8,0.4-1.6,0.5-2.6,0.5c-0.6,0-1.1-0.1-1.5-0.2s-0.8-0.4-1-0.7c-0.2-0.2-0.3-0.5-0.4-0.8
		s-0.1-0.8-0.1-1.6v-0.2v-2.1h-0.8c-0.4,0-0.6-0.1-0.8-0.2c-0.2-0.1-0.2-0.4-0.2-0.7s0.1-0.6,0.2-0.7s0.4-0.2,0.8-0.2H81v-1.9
		c0-0.4,0.1-0.7,0.2-0.8c0.2-0.2,0.4-0.2,0.8-0.2s0.6,0.1,0.8,0.2c0.2,0.2,0.2,0.4,0.2,0.8V678.6z"/>
	<path d="M97.2,684h0.1c0.3,0,0.5,0.1,0.7,0.2c0.2,0.2,0.2,0.4,0.2,0.7c0,0.3-0.1,0.6-0.2,0.7c-0.2,0.1-0.4,0.2-0.8,0.2h-0.8
		c-0.3,0-0.5-0.1-0.6-0.2c-0.1-0.1-0.2-0.3-0.3-0.6c-0.5,0.3-0.9,0.5-1.5,0.7s-1,0.2-1.6,0.2c-0.9,0-1.6-0.2-2.1-0.7
		c-0.5-0.4-0.8-1-0.8-1.8c0-0.8,0.3-1.5,1-1.9c0.7-0.5,1.6-0.7,2.8-0.7c0.3,0,0.5,0,0.8,0c0.3,0,0.6,0.1,1,0.1v-0.2
		c0-0.5-0.1-0.9-0.4-1.1c-0.2-0.3-0.6-0.4-1.1-0.4c-0.4,0-0.8,0.1-1.4,0.4c-0.6,0.3-1,0.4-1.2,0.4c-0.3,0-0.5-0.1-0.6-0.2
		s-0.2-0.4-0.2-0.6c0-0.4,0.3-0.8,1-1.1c0.7-0.3,1.5-0.4,2.7-0.4c1.2,0,2,0.2,2.5,0.7s0.8,1.2,0.8,2.3V684z M95.2,682.4
		c-0.3-0.1-0.5-0.1-0.8-0.1s-0.4,0-0.6,0c-0.6,0-1.1,0.1-1.4,0.3c-0.3,0.2-0.5,0.5-0.5,0.8c0,0.3,0.1,0.6,0.3,0.7s0.5,0.3,1,0.3
		c0.4,0,0.7-0.1,1.1-0.2s0.7-0.3,1-0.5V682.4z"/>
	<path d="M105.7,678.9v-0.4c0-0.1,0-0.2,0.1-0.3c0.1-0.1,0.2-0.1,0.4-0.1h1.4c0.4,0,0.7,0.1,0.8,0.2c0.2,0.1,0.2,0.4,0.2,0.7
		c0,0.3-0.1,0.5-0.2,0.7c-0.2,0.2-0.4,0.2-0.7,0.2h-0.1v5.7c0,1.2-0.3,2.1-1,2.6s-1.7,0.8-3.2,0.8c-0.9,0-1.6-0.1-2-0.3
		c-0.4-0.2-0.6-0.5-0.6-0.8c0-0.3,0.1-0.5,0.3-0.6s0.4-0.2,0.7-0.2c0.1,0,0.3,0,0.7,0.1c0.4,0.1,0.8,0.1,1.1,0.1
		c0.8,0,1.3-0.1,1.6-0.4c0.3-0.3,0.5-0.8,0.5-1.6v-0.4c-0.4,0.2-0.8,0.4-1.2,0.5c-0.4,0.1-0.8,0.2-1.2,0.2c-1.1,0-2-0.3-2.7-1
		c-0.7-0.7-1.1-1.6-1.1-2.7c0-1.1,0.4-2,1.1-2.8c0.7-0.7,1.7-1.1,2.8-1.1c0.5,0,0.9,0.1,1.3,0.2
		C105.1,678.3,105.4,678.6,105.7,678.9z M103.6,679.7c-0.5,0-1,0.2-1.3,0.6c-0.4,0.4-0.5,0.9-0.5,1.5c0,0.6,0.2,1.1,0.5,1.5
		c0.4,0.4,0.8,0.6,1.3,0.6c0.5,0,1-0.2,1.4-0.6c0.4-0.4,0.5-0.9,0.5-1.5c0-0.6-0.2-1.1-0.5-1.5C104.6,679.9,104.2,679.7,103.6,679.7
		z"/>
	<path d="M113.8,681.3v2.7h2c0.4,0,0.6,0.1,0.8,0.2c0.2,0.1,0.2,0.4,0.2,0.7c0,0.3-0.1,0.6-0.2,0.7c-0.2,0.1-0.4,0.2-0.8,0.2h-4.6
		c-0.4,0-0.7-0.1-0.8-0.2s-0.2-0.4-0.2-0.7c0-0.3,0.1-0.5,0.2-0.7c0.2-0.1,0.4-0.2,0.8-0.2h0.6v-4h-0.4c-0.4,0-0.6-0.1-0.8-0.2
		c-0.2-0.1-0.2-0.4-0.2-0.7c0-0.3,0.1-0.6,0.2-0.7c0.2-0.1,0.4-0.2,0.8-0.2h1.8c0.1,0,0.3,0,0.3,0.1s0.1,0.2,0.1,0.3v1.2
		c0.6-0.6,1.2-1.1,1.7-1.4c0.5-0.3,1.1-0.4,1.7-0.4c0.5,0,1,0.1,1.3,0.4s0.5,0.6,0.5,1c0,0.3-0.1,0.6-0.3,0.8
		c-0.2,0.2-0.5,0.3-0.9,0.3c-0.2,0-0.5-0.1-0.9-0.3c-0.3-0.2-0.6-0.3-0.7-0.3c-0.3,0-0.6,0.1-0.9,0.4S114.3,680.8,113.8,681.3z"/>
	<path d="M127.8,684h0.1c0.3,0,0.5,0.1,0.7,0.2c0.2,0.2,0.2,0.4,0.2,0.7c0,0.3-0.1,0.6-0.2,0.7c-0.2,0.1-0.4,0.2-0.8,0.2H127
		c-0.3,0-0.5-0.1-0.6-0.2c-0.1-0.1-0.2-0.3-0.3-0.6c-0.5,0.3-0.9,0.5-1.5,0.7s-1,0.2-1.6,0.2c-0.9,0-1.6-0.2-2.1-0.7
		c-0.5-0.4-0.8-1-0.8-1.8c0-0.8,0.3-1.5,1-1.9c0.7-0.5,1.6-0.7,2.8-0.7c0.3,0,0.5,0,0.8,0c0.3,0,0.6,0.1,1,0.1v-0.2
		c0-0.5-0.1-0.9-0.4-1.1c-0.2-0.3-0.6-0.4-1.1-0.4c-0.4,0-0.8,0.1-1.4,0.4c-0.6,0.3-1,0.4-1.2,0.4c-0.3,0-0.5-0.1-0.6-0.2
		s-0.2-0.4-0.2-0.6c0-0.4,0.3-0.8,1-1.1c0.7-0.3,1.5-0.4,2.7-0.4c1.2,0,2,0.2,2.5,0.7s0.8,1.2,0.8,2.3V684z M125.8,682.4
		c-0.3-0.1-0.5-0.1-0.8-0.1s-0.4,0-0.6,0c-0.6,0-1.1,0.1-1.4,0.3c-0.3,0.2-0.5,0.5-0.5,0.8c0,0.3,0.1,0.6,0.3,0.7s0.5,0.3,1,0.3
		c0.4,0,0.7-0.1,1.1-0.2s0.7-0.3,1-0.5V682.4z"/>
	<path d="M135.1,678.7c0.2-0.2,0.5-0.4,0.8-0.6s0.6-0.2,1-0.2c0.8,0,1.3,0.2,1.6,0.7s0.5,1.2,0.5,2.2v3.1h0.1c0.3,0,0.5,0.1,0.6,0.2
		c0.1,0.2,0.2,0.4,0.2,0.7c0,0.3-0.1,0.6-0.2,0.7c-0.1,0.1-0.4,0.2-0.7,0.2h-1.4c-0.1,0-0.3,0-0.3-0.1s-0.1-0.2-0.1-0.3v-4.7
		c0-0.4-0.1-0.6-0.2-0.8s-0.3-0.3-0.5-0.3c-0.3,0-0.5,0.1-0.6,0.4c-0.2,0.2-0.2,0.6-0.2,1.1v2.9h0.1c0.3,0,0.4,0.1,0.6,0.2
		s0.2,0.4,0.2,0.7c0,0.3-0.1,0.6-0.2,0.7c-0.1,0.1-0.4,0.2-0.7,0.2h-1.4c-0.1,0-0.3,0-0.4-0.1s-0.1-0.2-0.1-0.3v-4.7
		c0-0.4-0.1-0.6-0.2-0.8s-0.3-0.3-0.5-0.3c-0.3,0-0.5,0.1-0.7,0.4c-0.2,0.2-0.2,0.6-0.2,1.1v2.9h0.1c0.3,0,0.5,0.1,0.6,0.2
		c0.1,0.1,0.2,0.4,0.2,0.7c0,0.3-0.1,0.6-0.2,0.7c-0.1,0.1-0.4,0.2-0.7,0.2h-1.9c-0.3,0-0.6-0.1-0.7-0.2s-0.2-0.4-0.2-0.7
		c0-0.3,0.1-0.5,0.2-0.7c0.1-0.2,0.3-0.2,0.6-0.2h0.1v-4h-0.1c-0.3,0-0.5-0.1-0.6-0.2c-0.1-0.2-0.2-0.4-0.2-0.7
		c0-0.3,0.1-0.6,0.2-0.7c0.1-0.1,0.4-0.2,0.7-0.2h1.1c0.2,0,0.4,0,0.5,0.1c0.1,0.1,0.1,0.3,0.1,0.5c0.2-0.3,0.5-0.5,0.7-0.6
		s0.6-0.2,1-0.2c0.3,0,0.6,0.1,0.8,0.2C134.8,678.3,135,678.5,135.1,678.7z"/>
	<path d="M144.4,682.9h2c0.1,0,0.2,0,0.2,0c0.1,0,0.1,0.1,0.1,0.1c0,0,0,0.1,0,0.1c0,0,0,0.1-0.1,0.1l-2.5,4.9
		c0,0.1-0.1,0.2-0.2,0.2s-0.2,0.1-0.2,0.1c0,0,0,0-0.1,0c0,0-0.1,0-0.1,0l-0.6-0.2c-0.1,0-0.2-0.1-0.2-0.1c0-0.1-0.1-0.1-0.1-0.2
		c0-0.1,0-0.1,0-0.1c0,0,0-0.1,0-0.1l1.2-4.3c0-0.2,0.1-0.3,0.2-0.4C144.1,683,144.2,682.9,144.4,682.9z"/>
	<path d="M164,677.8l1.3,2.7l1.2-2.7h0c-0.2,0-0.4-0.1-0.6-0.2c-0.1-0.2-0.2-0.4-0.2-0.7c0-0.3,0.1-0.6,0.2-0.7
		c0.1-0.1,0.4-0.2,0.7-0.2h1.9c0.4,0,0.6,0.1,0.8,0.2c0.2,0.1,0.2,0.4,0.2,0.7c0,0.3-0.1,0.5-0.2,0.7c-0.2,0.2-0.4,0.2-0.7,0.2h-0.1
		l-2.2,4.2v2h1.1c0.4,0,0.6,0.1,0.8,0.2c0.2,0.1,0.2,0.4,0.2,0.7c0,0.3-0.1,0.6-0.2,0.7s-0.4,0.2-0.8,0.2h-4.3
		c-0.4,0-0.6-0.1-0.8-0.2s-0.2-0.4-0.2-0.7c0-0.3,0.1-0.6,0.2-0.7s0.4-0.2,0.8-0.2h1.1v-1.8l-2.4-4.4h-0.1c-0.3,0-0.5-0.1-0.7-0.2
		c-0.1-0.2-0.2-0.4-0.2-0.7c0-0.3,0.1-0.6,0.2-0.7c0.2-0.1,0.4-0.2,0.8-0.2h2.2c0.3,0,0.6,0.1,0.7,0.2c0.1,0.1,0.2,0.4,0.2,0.7
		c0,0.3-0.1,0.5-0.2,0.7c-0.1,0.2-0.3,0.2-0.6,0.2H164z"/>
	<path d="M175.4,678c1.3,0,2.4,0.4,3.3,1.1s1.3,1.7,1.3,2.9c0,1.2-0.4,2.2-1.3,2.9c-0.8,0.8-1.9,1.1-3.3,1.1c-1.3,0-2.4-0.4-3.3-1.1
		c-0.8-0.8-1.3-1.7-1.3-2.9c0-1.2,0.4-2.1,1.3-2.9C173,678.3,174.1,678,175.4,678z M175.4,679.7c-0.6,0-1.2,0.2-1.6,0.6
		c-0.4,0.4-0.6,1-0.6,1.6c0,0.7,0.2,1.2,0.6,1.6c0.4,0.4,1,0.7,1.6,0.7s1.2-0.2,1.6-0.7s0.6-1,0.6-1.6c0-0.7-0.2-1.2-0.6-1.6
		C176.6,679.9,176.1,679.7,175.4,679.7z"/>
	<path d="M186.9,680h-0.1c-0.3,0-0.5-0.1-0.7-0.2c-0.2-0.2-0.2-0.4-0.2-0.7c0-0.3,0.1-0.6,0.2-0.7c0.2-0.1,0.4-0.2,0.8-0.2h1.6
		c0.1,0,0.3,0,0.3,0.1s0.1,0.2,0.1,0.3v5.5h0.1c0.3,0,0.5,0.1,0.7,0.2c0.2,0.2,0.2,0.4,0.2,0.7c0,0.3-0.1,0.6-0.2,0.7
		c-0.2,0.1-0.4,0.2-0.8,0.2h-1.4c-0.2,0-0.3,0-0.4-0.1c-0.1-0.1-0.1-0.2-0.1-0.3v-0.6c-0.3,0.4-0.6,0.7-1,0.9
		c-0.4,0.2-0.8,0.3-1.4,0.3c-0.9,0-1.6-0.3-2-0.8s-0.6-1.4-0.6-2.5V680H182c-0.3,0-0.5-0.1-0.7-0.2c-0.2-0.2-0.2-0.4-0.2-0.7
		c0-0.3,0.1-0.6,0.2-0.7c0.2-0.1,0.4-0.2,0.8-0.2h1.6c0.1,0,0.3,0,0.3,0.1s0.1,0.2,0.1,0.3v3.9c0,0.7,0.1,1.2,0.3,1.4
		c0.2,0.3,0.5,0.4,0.9,0.4c0.5,0,0.8-0.2,1.1-0.5c0.3-0.3,0.4-0.8,0.4-1.3V680z"/>
	<path d="M198.6,677.8h-1.7v6.2h1.4c0.4,0,0.6,0.1,0.8,0.2c0.2,0.1,0.2,0.4,0.2,0.7c0,0.3-0.1,0.6-0.2,0.7s-0.4,0.2-0.8,0.2h-4.9
		c-0.4,0-0.6-0.1-0.8-0.2s-0.2-0.4-0.2-0.7c0-0.3,0.1-0.6,0.2-0.7c0.2-0.1,0.4-0.2,0.8-0.2h1.4v-6.2H193l0,1.7v0.2
		c0,0.3-0.1,0.5-0.2,0.6c-0.1,0.1-0.4,0.2-0.6,0.2c-0.3,0-0.5-0.1-0.7-0.2c-0.1-0.2-0.2-0.4-0.2-0.8v-0.1l0.1-2.5
		c0-0.5,0.1-0.8,0.2-0.9c0.1-0.1,0.4-0.1,0.7-0.1h7.1c0.4,0,0.6,0,0.7,0.1c0.1,0.1,0.2,0.4,0.2,0.9l0.1,2.5v0.1
		c0,0.3-0.1,0.6-0.2,0.8c-0.1,0.2-0.4,0.2-0.7,0.2c-0.3,0-0.5-0.1-0.6-0.2c-0.1-0.2-0.2-0.4-0.2-0.8L198.6,677.8z"/>
	<path d="M207.3,680h-0.1c-0.3,0-0.5-0.1-0.7-0.2c-0.2-0.2-0.2-0.4-0.2-0.7c0-0.3,0.1-0.6,0.2-0.7c0.2-0.1,0.4-0.2,0.8-0.2h1.6
		c0.1,0,0.3,0,0.3,0.1s0.1,0.2,0.1,0.3v5.5h0.1c0.3,0,0.5,0.1,0.7,0.2c0.2,0.2,0.2,0.4,0.2,0.7c0,0.3-0.1,0.6-0.2,0.7
		c-0.2,0.1-0.4,0.2-0.8,0.2H208c-0.2,0-0.3,0-0.4-0.1c-0.1-0.1-0.1-0.2-0.1-0.3v-0.6c-0.3,0.4-0.6,0.7-1,0.9
		c-0.4,0.2-0.8,0.3-1.4,0.3c-0.9,0-1.6-0.3-2-0.8s-0.6-1.4-0.6-2.5V680h-0.1c-0.3,0-0.5-0.1-0.7-0.2c-0.2-0.2-0.2-0.4-0.2-0.7
		c0-0.3,0.1-0.6,0.2-0.7c0.2-0.1,0.4-0.2,0.8-0.2h1.6c0.1,0,0.3,0,0.3,0.1s0.1,0.2,0.1,0.3v3.9c0,0.7,0.1,1.2,0.3,1.4
		c0.2,0.3,0.5,0.4,0.9,0.4c0.5,0,0.8-0.2,1.1-0.5c0.3-0.3,0.4-0.8,0.4-1.3V680z"/>
	<path d="M214.7,678.9c0.3-0.2,0.6-0.4,0.9-0.5s0.7-0.2,1.1-0.2c1.2,0,2.1,0.4,2.8,1.1c0.7,0.8,1.1,1.7,1.1,2.9c0,1.1-0.4,2-1.1,2.7
		s-1.7,1.1-2.8,1.1c-0.5,0-1-0.1-1.4-0.3c-0.4-0.2-0.7-0.5-1-0.8v0.5c0,0.1,0,0.2-0.1,0.3c-0.1,0.1-0.2,0.1-0.4,0.1h-1.3
		c-0.4,0-0.6-0.1-0.8-0.2c-0.2-0.1-0.2-0.4-0.2-0.7c0-0.3,0.1-0.5,0.2-0.7c0.2-0.2,0.4-0.2,0.7-0.2h0.1v-7.2h-0.1
		c-0.3,0-0.5-0.1-0.7-0.2c-0.2-0.2-0.2-0.4-0.2-0.7c0-0.3,0.1-0.6,0.2-0.7c0.2-0.1,0.4-0.2,0.8-0.2h1.6c0.2,0,0.3,0,0.4,0.1
		c0.1,0.1,0.1,0.2,0.1,0.4V678.9z M216.6,679.9c-0.5,0-1,0.2-1.3,0.6c-0.4,0.4-0.5,0.9-0.5,1.5c0,0.6,0.2,1.2,0.5,1.6
		c0.4,0.4,0.8,0.6,1.4,0.6s1-0.2,1.4-0.6c0.4-0.4,0.5-0.9,0.5-1.6c0-0.6-0.2-1.1-0.5-1.5C217.6,680.1,217.1,679.9,216.6,679.9z"/>
	<path d="M224.2,682.5c0.1,0.6,0.4,1.1,0.8,1.4c0.4,0.3,1,0.5,1.6,0.5s1.4-0.2,2-0.5s1.1-0.5,1.2-0.5c0.2,0,0.4,0.1,0.5,0.2
		c0.1,0.2,0.2,0.3,0.2,0.6c0,0.5-0.4,1-1.2,1.3c-0.8,0.4-1.7,0.6-2.9,0.6c-1.3,0-2.4-0.4-3.3-1.1c-0.8-0.8-1.3-1.7-1.3-2.9
		c0-1.2,0.4-2.1,1.3-2.9c0.8-0.8,1.9-1.1,3.3-1.1c1.2,0,2.2,0.4,3,1.1c0.8,0.7,1.2,1.6,1.2,2.6c0,0.3-0.1,0.6-0.2,0.7
		c-0.2,0.1-0.5,0.2-1,0.2H224.2z M228.6,681.2c-0.1-0.5-0.3-0.9-0.7-1.2c-0.4-0.3-0.9-0.4-1.5-0.4c-0.6,0-1.1,0.1-1.5,0.4
		c-0.4,0.3-0.6,0.7-0.8,1.2H228.6z"/>
	<path d="M236.2,682.9h2c0.1,0,0.2,0,0.2,0c0.1,0,0.1,0.1,0.1,0.1c0,0,0,0.1,0,0.1c0,0,0,0.1-0.1,0.1l-2.5,4.9
		c0,0.1-0.1,0.2-0.2,0.2s-0.2,0.1-0.2,0.1c0,0,0,0-0.1,0c0,0-0.1,0-0.1,0l-0.6-0.2c-0.1,0-0.2-0.1-0.2-0.1c0-0.1-0.1-0.1-0.1-0.2
		c0-0.1,0-0.1,0-0.1c0,0,0-0.1,0-0.1l1.2-4.3c0-0.2,0.1-0.3,0.2-0.4C235.9,683,236,682.9,236.2,682.9z"/>
	<path d="M259.5,677.7h-3.9v2.1h1.5v-0.1c0-0.3,0.1-0.5,0.2-0.7c0.1-0.2,0.4-0.2,0.6-0.2c0.2,0,0.5,0.1,0.6,0.2
		c0.2,0.1,0.2,0.3,0.2,0.5v0.3v1.7c0,0.4-0.1,0.6-0.2,0.8s-0.3,0.2-0.6,0.2c-0.3,0-0.5-0.1-0.6-0.2c-0.1-0.1-0.2-0.4-0.2-0.7v-0.1
		h-1.5v2.4h0.5c0.4,0,0.6,0.1,0.8,0.2c0.2,0.1,0.2,0.4,0.2,0.7c0,0.3-0.1,0.6-0.2,0.7s-0.4,0.2-0.8,0.2h-2.5c-0.4,0-0.6-0.1-0.8-0.2
		s-0.2-0.4-0.2-0.7c0-0.3,0.1-0.5,0.2-0.7s0.4-0.2,0.7-0.2h0.1v-6.2h-0.1c-0.3,0-0.5-0.1-0.7-0.2c-0.2-0.2-0.2-0.4-0.2-0.7
		c0-0.3,0.1-0.6,0.2-0.7c0.2-0.1,0.4-0.2,0.8-0.2h6.8c0.3,0,0.6,0.1,0.7,0.2c0.1,0.1,0.2,0.3,0.2,0.6v1.9c0,0.4-0.1,0.6-0.2,0.8
		c-0.1,0.2-0.4,0.2-0.7,0.2s-0.5-0.1-0.7-0.2s-0.2-0.4-0.2-0.8V677.7z"/>
	<path d="M270.6,684h0.1c0.3,0,0.5,0.1,0.7,0.2c0.2,0.2,0.2,0.4,0.2,0.7c0,0.3-0.1,0.6-0.2,0.7c-0.2,0.1-0.4,0.2-0.8,0.2h-0.8
		c-0.3,0-0.5-0.1-0.6-0.2c-0.1-0.1-0.2-0.3-0.3-0.6c-0.5,0.3-0.9,0.5-1.5,0.7s-1,0.2-1.6,0.2c-0.9,0-1.6-0.2-2.1-0.7
		c-0.5-0.4-0.8-1-0.8-1.8c0-0.8,0.3-1.5,1-1.9c0.7-0.5,1.6-0.7,2.8-0.7c0.3,0,0.5,0,0.8,0c0.3,0,0.6,0.1,1,0.1v-0.2
		c0-0.5-0.1-0.9-0.4-1.1c-0.2-0.3-0.6-0.4-1.1-0.4c-0.4,0-0.8,0.1-1.4,0.4c-0.6,0.3-1,0.4-1.2,0.4c-0.3,0-0.5-0.1-0.6-0.2
		s-0.2-0.4-0.2-0.6c0-0.4,0.3-0.8,1-1.1c0.7-0.3,1.5-0.4,2.7-0.4c1.2,0,2,0.2,2.5,0.7s0.8,1.2,0.8,2.3V684z M268.6,682.4
		c-0.3-0.1-0.5-0.1-0.8-0.1s-0.4,0-0.6,0c-0.6,0-1.1,0.1-1.4,0.3c-0.3,0.2-0.5,0.5-0.5,0.8c0,0.3,0.1,0.6,0.3,0.7s0.5,0.3,1,0.3
		c0.4,0,0.7-0.1,1.1-0.2s0.7-0.3,1-0.5V682.4z"/>
	<path d="M279.9,678.6c0.1-0.2,0.2-0.4,0.3-0.5c0.1-0.1,0.3-0.2,0.5-0.2c0.3,0,0.5,0.1,0.6,0.3s0.2,0.5,0.2,0.9v1.4
		c0,0.3-0.1,0.6-0.2,0.7c-0.1,0.2-0.4,0.2-0.6,0.2c-0.2,0-0.4,0-0.5-0.1c-0.1-0.1-0.3-0.3-0.4-0.5c-0.2-0.4-0.5-0.7-0.9-0.8
		s-0.8-0.3-1.3-0.3c-0.6,0-1.2,0.2-1.6,0.6c-0.4,0.4-0.6,1-0.6,1.6c0,0.7,0.2,1.2,0.6,1.7s1,0.6,1.7,0.6c0.7,0,1.3-0.2,1.9-0.5
		c0.6-0.4,1-0.5,1.2-0.5c0.2,0,0.4,0.1,0.5,0.2c0.1,0.2,0.2,0.4,0.2,0.6c0,0.5-0.4,1-1.2,1.4c-0.8,0.4-1.7,0.6-2.8,0.6
		c-1.3,0-2.4-0.4-3.3-1.1c-0.8-0.8-1.3-1.7-1.3-2.9c0-1.2,0.4-2.1,1.2-2.9c0.8-0.8,1.9-1.2,3.1-1.2c0.4,0,0.8,0.1,1.2,0.2
		C279.1,678.2,279.5,678.4,279.9,678.6z"/>
	<path d="M285.4,682.5c0.1,0.6,0.4,1.1,0.8,1.4c0.4,0.3,1,0.5,1.6,0.5s1.4-0.2,2-0.5s1.1-0.5,1.2-0.5c0.2,0,0.4,0.1,0.5,0.2
		c0.1,0.2,0.2,0.3,0.2,0.6c0,0.5-0.4,1-1.2,1.3c-0.8,0.4-1.7,0.6-2.9,0.6c-1.3,0-2.4-0.4-3.3-1.1c-0.8-0.8-1.3-1.7-1.3-2.9
		c0-1.2,0.4-2.1,1.3-2.9c0.8-0.8,1.9-1.1,3.3-1.1c1.2,0,2.2,0.4,3,1.1c0.8,0.7,1.2,1.6,1.2,2.6c0,0.3-0.1,0.6-0.2,0.7
		c-0.2,0.1-0.5,0.2-1,0.2H285.4z M289.9,681.2c-0.1-0.5-0.3-0.9-0.7-1.2c-0.4-0.3-0.9-0.4-1.5-0.4c-0.6,0-1.1,0.1-1.5,0.4
		c-0.4,0.3-0.6,0.7-0.8,1.2H289.9z"/>
	<path d="M296.3,678.9c0.3-0.2,0.6-0.4,0.9-0.5s0.7-0.2,1.1-0.2c1.2,0,2.1,0.4,2.8,1.1c0.7,0.8,1.1,1.7,1.1,2.9c0,1.1-0.4,2-1.1,2.7
		s-1.7,1.1-2.8,1.1c-0.5,0-1-0.1-1.4-0.3c-0.4-0.2-0.7-0.5-1-0.8v0.5c0,0.1,0,0.2-0.1,0.3c-0.1,0.1-0.2,0.1-0.4,0.1h-1.3
		c-0.4,0-0.6-0.1-0.8-0.2c-0.2-0.1-0.2-0.4-0.2-0.7c0-0.3,0.1-0.5,0.2-0.7c0.2-0.2,0.4-0.2,0.7-0.2h0.1v-7.2h-0.1
		c-0.3,0-0.5-0.1-0.7-0.2c-0.2-0.2-0.2-0.4-0.2-0.7c0-0.3,0.1-0.6,0.2-0.7c0.2-0.1,0.4-0.2,0.8-0.2h1.6c0.2,0,0.3,0,0.4,0.1
		c0.1,0.1,0.1,0.2,0.1,0.4V678.9z M298.2,679.9c-0.5,0-1,0.2-1.3,0.6c-0.4,0.4-0.5,0.9-0.5,1.5c0,0.6,0.2,1.2,0.5,1.6
		c0.4,0.4,0.8,0.6,1.4,0.6s1-0.2,1.4-0.6c0.4-0.4,0.5-0.9,0.5-1.6c0-0.6-0.2-1.1-0.5-1.5C299.2,680.1,298.7,679.9,298.2,679.9z"/>
	<path d="M308,678c1.3,0,2.4,0.4,3.3,1.1s1.3,1.7,1.3,2.9c0,1.2-0.4,2.2-1.3,2.9c-0.8,0.8-1.9,1.1-3.3,1.1c-1.3,0-2.4-0.4-3.3-1.1
		c-0.8-0.8-1.3-1.7-1.3-2.9c0-1.2,0.4-2.1,1.3-2.9C305.6,678.3,306.7,678,308,678z M308,679.7c-0.6,0-1.2,0.2-1.6,0.6
		c-0.4,0.4-0.6,1-0.6,1.6c0,0.7,0.2,1.2,0.6,1.6c0.4,0.4,1,0.7,1.6,0.7s1.2-0.2,1.6-0.7s0.6-1,0.6-1.6c0-0.7-0.2-1.2-0.6-1.6
		C309.2,679.9,308.7,679.7,308,679.7z"/>
	<path d="M318.2,678c1.3,0,2.4,0.4,3.3,1.1s1.3,1.7,1.3,2.9c0,1.2-0.4,2.2-1.3,2.9c-0.8,0.8-1.9,1.1-3.3,1.1c-1.3,0-2.4-0.4-3.3-1.1
		c-0.8-0.8-1.3-1.7-1.3-2.9c0-1.2,0.4-2.1,1.3-2.9C315.8,678.3,316.9,678,318.2,678z M318.2,679.7c-0.6,0-1.2,0.2-1.6,0.6
		c-0.4,0.4-0.6,1-0.6,1.6c0,0.7,0.2,1.2,0.6,1.6c0.4,0.4,1,0.7,1.6,0.7s1.2-0.2,1.6-0.7s0.6-1,0.6-1.6c0-0.7-0.2-1.2-0.6-1.6
		C319.4,679.9,318.9,679.7,318.2,679.7z"/>
	<path d="M327.1,681.3l1.8-1.6c-0.2-0.1-0.3-0.1-0.4-0.2c-0.1-0.1-0.1-0.2-0.1-0.4c0-0.3,0.1-0.6,0.2-0.7c0.1-0.1,0.4-0.2,0.8-0.2
		h1.8c0.4,0,0.6,0.1,0.8,0.2c0.2,0.1,0.2,0.4,0.2,0.7c0,0.2,0,0.4-0.1,0.5c-0.1,0.1-0.3,0.2-0.6,0.2c-0.3,0-0.5,0.1-0.7,0.2
		c-0.2,0.1-0.4,0.3-0.7,0.6l-0.6,0.6l2.2,2.7h0.2c0.3,0,0.6,0.1,0.7,0.2s0.2,0.4,0.2,0.7c0,0.3-0.1,0.6-0.2,0.7s-0.4,0.2-0.8,0.2h-2
		c-0.4,0-0.6-0.1-0.8-0.2s-0.2-0.3-0.2-0.6c0-0.2,0-0.4,0.1-0.5s0.2-0.2,0.5-0.3l-1.4-1.7l-1,0.9v1.7c0,0.2,0,0.4-0.1,0.4
		s-0.2,0.1-0.4,0.1h-1.5c-0.4,0-0.6-0.1-0.8-0.2c-0.2-0.1-0.2-0.4-0.2-0.7c0-0.3,0.1-0.5,0.2-0.7s0.4-0.2,0.7-0.2h0.1v-7.2H325
		c-0.3,0-0.5-0.1-0.7-0.2s-0.2-0.4-0.2-0.7c0-0.3,0.1-0.6,0.2-0.7s0.4-0.2,0.8-0.2h1.5c0.2,0,0.3,0,0.4,0.1c0.1,0.1,0.1,0.2,0.1,0.4
		V681.3z"/>
	<path d="M338.2,682.9h2c0.1,0,0.2,0,0.2,0c0.1,0,0.1,0.1,0.1,0.1c0,0,0,0.1,0,0.1c0,0,0,0.1-0.1,0.1l-2.5,4.9
		c0,0.1-0.1,0.2-0.2,0.2s-0.2,0.1-0.2,0.1c0,0,0,0-0.1,0c0,0-0.1,0-0.1,0l-0.6-0.2c-0.1,0-0.2-0.1-0.2-0.1c0-0.1-0.1-0.1-0.1-0.2
		c0-0.1,0-0.1,0-0.1c0,0,0-0.1,0-0.1l1.2-4.3c0-0.2,0.1-0.3,0.2-0.4C337.9,683,338,682.9,338.2,682.9z"/>
	<path d="M356.7,677.8l0.3,4.9l1-3.6c0.1-0.3,0.2-0.5,0.4-0.6s0.4-0.2,0.7-0.2s0.5,0.1,0.7,0.2c0.2,0.1,0.3,0.3,0.4,0.6l1,3.6
		l0.3-4.9h-0.2c-0.3,0-0.6-0.1-0.7-0.2s-0.2-0.4-0.2-0.7c0-0.3,0.1-0.6,0.2-0.7c0.2-0.1,0.4-0.2,0.8-0.2h2c0.4,0,0.6,0.1,0.8,0.2
		c0.2,0.1,0.2,0.4,0.2,0.7c0,0.3-0.1,0.5-0.2,0.7c-0.2,0.2-0.4,0.2-0.7,0.2h-0.1l-0.8,7.3c0,0.3-0.1,0.5-0.2,0.6s-0.3,0.1-0.6,0.1
		h-0.4c-0.2,0-0.4,0-0.5-0.1c-0.1-0.1-0.2-0.3-0.3-0.7l-1.5-4.9l-1.5,4.9c-0.1,0.3-0.2,0.6-0.3,0.7c-0.1,0.1-0.3,0.1-0.5,0.1h-0.4
		c-0.3,0-0.5,0-0.6-0.1c-0.1-0.1-0.1-0.3-0.2-0.6l-0.8-7.3h-0.1c-0.3,0-0.5-0.1-0.7-0.2c-0.2-0.2-0.2-0.4-0.2-0.7
		c0-0.3,0.1-0.6,0.2-0.7s0.4-0.2,0.8-0.2h2c0.4,0,0.6,0.1,0.8,0.2c0.2,0.1,0.2,0.4,0.2,0.7c0,0.3-0.1,0.5-0.2,0.7s-0.4,0.2-0.7,0.2
		H356.7z"/>
	<path d="M367.9,679c0.2-0.3,0.5-0.6,0.8-0.8s0.8-0.3,1.3-0.3c0.9,0,1.5,0.3,2,0.8c0.5,0.5,0.7,1.2,0.7,2.2v3.1h0.1
		c0.3,0,0.5,0.1,0.7,0.2c0.2,0.2,0.2,0.4,0.2,0.7c0,0.3-0.1,0.6-0.2,0.7c-0.2,0.1-0.4,0.2-0.8,0.2h-2.1c-0.4,0-0.6-0.1-0.8-0.2
		c-0.2-0.1-0.2-0.4-0.2-0.7c0-0.3,0.1-0.5,0.2-0.7s0.4-0.2,0.7-0.2h0.1v-2.4c0-0.7-0.1-1.2-0.3-1.5c-0.2-0.3-0.5-0.4-0.9-0.4
		c-0.4,0-0.8,0.2-1.1,0.5c-0.3,0.4-0.5,0.8-0.5,1.3v2.4h0.1c0.3,0,0.5,0.1,0.7,0.2c0.2,0.2,0.2,0.4,0.2,0.7c0,0.3-0.1,0.6-0.2,0.7
		s-0.4,0.2-0.8,0.2h-2.1c-0.4,0-0.7-0.1-0.8-0.2c-0.2-0.1-0.2-0.4-0.2-0.7c0-0.3,0.1-0.5,0.2-0.7c0.2-0.2,0.4-0.2,0.7-0.2h0.1v-7.2
		h-0.1c-0.3,0-0.5-0.1-0.7-0.2c-0.2-0.2-0.2-0.4-0.2-0.7c0-0.3,0.1-0.6,0.2-0.7c0.2-0.1,0.4-0.2,0.8-0.2h1.6c0.2,0,0.3,0,0.4,0.1
		c0.1,0.1,0.1,0.2,0.1,0.4V679z"/>
	<path d="M382.8,684h0.1c0.3,0,0.5,0.1,0.7,0.2c0.2,0.2,0.2,0.4,0.2,0.7c0,0.3-0.1,0.6-0.2,0.7c-0.2,0.1-0.4,0.2-0.8,0.2h-0.8
		c-0.3,0-0.5-0.1-0.6-0.2c-0.1-0.1-0.2-0.3-0.3-0.6c-0.5,0.3-0.9,0.5-1.5,0.7s-1,0.2-1.6,0.2c-0.9,0-1.6-0.2-2.1-0.7
		c-0.5-0.4-0.8-1-0.8-1.8c0-0.8,0.3-1.5,1-1.9c0.7-0.5,1.6-0.7,2.8-0.7c0.3,0,0.5,0,0.8,0c0.3,0,0.6,0.1,1,0.1v-0.2
		c0-0.5-0.1-0.9-0.4-1.1c-0.2-0.3-0.6-0.4-1.1-0.4c-0.4,0-0.8,0.1-1.4,0.4c-0.6,0.3-1,0.4-1.2,0.4c-0.3,0-0.5-0.1-0.6-0.2
		s-0.2-0.4-0.2-0.6c0-0.4,0.3-0.8,1-1.1c0.7-0.3,1.5-0.4,2.7-0.4c1.2,0,2,0.2,2.5,0.7s0.8,1.2,0.8,2.3V684z M380.8,682.4
		c-0.3-0.1-0.5-0.1-0.8-0.1s-0.4,0-0.6,0c-0.6,0-1.1,0.1-1.4,0.3c-0.3,0.2-0.5,0.5-0.5,0.8c0,0.3,0.1,0.6,0.3,0.7s0.5,0.3,1,0.3
		c0.4,0,0.7-0.1,1.1-0.2s0.7-0.3,1-0.5V682.4z"/>
	<path d="M389.1,678.6h2.5c0.4,0,0.7,0.1,0.8,0.2c0.2,0.1,0.2,0.4,0.2,0.7c0,0.3-0.1,0.6-0.2,0.7c-0.2,0.1-0.4,0.2-0.8,0.2h-2.5v2.1
		c0,0.6,0.1,1,0.3,1.2c0.2,0.2,0.5,0.3,1,0.3c0.4,0,0.9-0.1,1.5-0.4s1-0.4,1.2-0.4c0.2,0,0.4,0.1,0.6,0.3c0.2,0.2,0.2,0.4,0.2,0.7
		c0,0.4-0.4,0.8-1.2,1.2c-0.8,0.4-1.6,0.5-2.6,0.5c-0.6,0-1.1-0.1-1.5-0.2s-0.8-0.4-1-0.7c-0.2-0.2-0.3-0.5-0.4-0.8
		s-0.1-0.8-0.1-1.6v-0.2v-2.1h-0.8c-0.4,0-0.6-0.1-0.8-0.2c-0.2-0.1-0.2-0.4-0.2-0.7s0.1-0.6,0.2-0.7s0.4-0.2,0.8-0.2h0.8v-1.9
		c0-0.4,0.1-0.7,0.2-0.8c0.2-0.2,0.4-0.2,0.8-0.2s0.6,0.1,0.8,0.2c0.2,0.2,0.2,0.4,0.2,0.8V678.6z"/>
	<path d="M397.7,685.7c-0.1,0.1-0.3,0.2-0.4,0.3c-0.2,0.1-0.3,0.1-0.5,0.1c-0.2,0-0.4-0.1-0.5-0.2c-0.1-0.1-0.1-0.4-0.1-0.7V684
		c0-0.4,0.1-0.6,0.2-0.8s0.3-0.2,0.6-0.2c0.3,0,0.6,0.2,0.8,0.5c0.1,0.2,0.2,0.3,0.3,0.4c0.3,0.2,0.6,0.4,0.9,0.5
		c0.4,0.1,0.8,0.2,1.2,0.2c0.4,0,0.7-0.1,1-0.2c0.2-0.2,0.4-0.4,0.4-0.6c0-0.4-0.6-0.8-1.9-0.9c-0.3,0-0.5-0.1-0.7-0.1
		c-1-0.1-1.7-0.4-2.1-0.8c-0.5-0.4-0.7-0.9-0.7-1.6c0-0.8,0.3-1.4,0.8-1.8c0.6-0.4,1.4-0.6,2.4-0.6c0.4,0,0.7,0,1.1,0.1
		c0.4,0.1,0.8,0.1,1.2,0.3c0.1-0.1,0.2-0.2,0.4-0.3c0.1-0.1,0.3-0.1,0.4-0.1c0.2,0,0.4,0.1,0.5,0.2c0.1,0.1,0.2,0.4,0.2,0.6v1
		c0,0.2-0.1,0.4-0.2,0.6s-0.3,0.2-0.5,0.2c-0.2,0-0.6-0.2-1.2-0.6c-0.6-0.4-1.1-0.6-1.7-0.6c-0.4,0-0.8,0.1-1,0.2
		c-0.2,0.1-0.4,0.3-0.4,0.6c0,0.4,0.5,0.6,1.5,0.8c0.3,0,0.5,0.1,0.7,0.1c1.3,0.2,2.1,0.5,2.6,0.8c0.5,0.4,0.7,0.9,0.7,1.6
		c0,0.8-0.3,1.5-0.9,1.9c-0.6,0.5-1.5,0.7-2.6,0.7c-0.4,0-0.9,0-1.3-0.1C398.4,685.9,398,685.8,397.7,685.7z"/>
	<path d="M414.2,684h0.1c0.3,0,0.5,0.1,0.7,0.2s0.2,0.4,0.2,0.7c0,0.3-0.1,0.6-0.2,0.7c-0.2,0.1-0.4,0.2-0.8,0.2h-2.5
		c-0.4,0-0.7-0.1-0.8-0.2c-0.2-0.1-0.2-0.4-0.2-0.7c0-0.3,0.1-0.5,0.2-0.7s0.4-0.2,0.8-0.2h0.3l-0.3-1h-3.6l-0.4,1h0.3
		c0.4,0,0.6,0.1,0.8,0.2c0.2,0.1,0.2,0.4,0.2,0.7c0,0.3-0.1,0.6-0.2,0.7c-0.2,0.1-0.4,0.2-0.8,0.2h-2.1c-0.4,0-0.7-0.1-0.8-0.2
		s-0.2-0.4-0.2-0.7c0-0.3,0.1-0.5,0.2-0.7s0.4-0.2,0.7-0.2h0.1l2.2-6.2h-0.7c-0.4,0-0.6-0.1-0.8-0.2c-0.2-0.1-0.2-0.4-0.2-0.7
		c0-0.3,0.1-0.6,0.2-0.7c0.2-0.1,0.4-0.2,0.8-0.2h3.1c0.5,0,0.8,0.3,1,0.8v0L414.2,684z M409.9,677.8l-1.2,3.5h2.4L409.9,677.8z"/>
	<path d="M418.7,685v2.3h1.1c0.4,0,0.6,0.1,0.8,0.2c0.2,0.1,0.2,0.4,0.2,0.7c0,0.3-0.1,0.6-0.2,0.7s-0.4,0.2-0.8,0.2h-3.5
		c-0.4,0-0.7-0.1-0.8-0.2s-0.2-0.4-0.2-0.7c0-0.3,0.1-0.6,0.2-0.7c0.2-0.1,0.4-0.2,0.8-0.2h0.5V680h-0.1c-0.3,0-0.5-0.1-0.7-0.2
		c-0.2-0.2-0.2-0.4-0.2-0.7c0-0.3,0.1-0.6,0.2-0.7c0.2-0.1,0.4-0.2,0.8-0.2h1.3c0.2,0,0.3,0,0.4,0.1c0.1,0.1,0.1,0.1,0.1,0.3v0.6
		c0.3-0.4,0.6-0.7,1-0.9c0.4-0.2,0.9-0.3,1.4-0.3c1.1,0,2.1,0.4,2.8,1.1c0.7,0.7,1.1,1.6,1.1,2.7c0,1.2-0.4,2.1-1.1,2.9
		c-0.7,0.8-1.6,1.1-2.7,1.1c-0.4,0-0.9-0.1-1.3-0.2C419.3,685.5,419,685.3,418.7,685z M420.6,679.7c-0.5,0-1,0.2-1.4,0.6
		s-0.5,0.9-0.5,1.6s0.2,1.1,0.5,1.6s0.8,0.6,1.4,0.6s1-0.2,1.4-0.6c0.4-0.4,0.5-0.9,0.5-1.5c0-0.6-0.2-1.1-0.5-1.6
		S421.1,679.7,420.6,679.7z"/>
	<path d="M428.9,685v2.3h1.1c0.4,0,0.6,0.1,0.8,0.2c0.2,0.1,0.2,0.4,0.2,0.7c0,0.3-0.1,0.6-0.2,0.7s-0.4,0.2-0.8,0.2h-3.5
		c-0.4,0-0.7-0.1-0.8-0.2s-0.2-0.4-0.2-0.7c0-0.3,0.1-0.6,0.2-0.7c0.2-0.1,0.4-0.2,0.8-0.2h0.5V680h-0.1c-0.3,0-0.5-0.1-0.7-0.2
		c-0.2-0.2-0.2-0.4-0.2-0.7c0-0.3,0.1-0.6,0.2-0.7c0.2-0.1,0.4-0.2,0.8-0.2h1.3c0.2,0,0.3,0,0.4,0.1c0.1,0.1,0.1,0.1,0.1,0.3v0.6
		c0.3-0.4,0.6-0.7,1-0.9c0.4-0.2,0.9-0.3,1.4-0.3c1.1,0,2.1,0.4,2.8,1.1c0.7,0.7,1.1,1.6,1.1,2.7c0,1.2-0.4,2.1-1.1,2.9
		c-0.7,0.8-1.6,1.1-2.7,1.1c-0.4,0-0.9-0.1-1.3-0.2C429.5,685.5,429.2,685.3,428.9,685z M430.8,679.7c-0.5,0-1,0.2-1.4,0.6
		s-0.5,0.9-0.5,1.6s0.2,1.1,0.5,1.6s0.8,0.6,1.4,0.6s1-0.2,1.4-0.6c0.4-0.4,0.5-0.9,0.5-1.5c0-0.6-0.2-1.1-0.5-1.6
		S431.4,679.7,430.8,679.7z"/>
	<path d="M440.2,682.9h2c0.1,0,0.2,0,0.2,0c0.1,0,0.1,0.1,0.1,0.1c0,0,0,0.1,0,0.1c0,0,0,0.1-0.1,0.1l-2.5,4.9
		c0,0.1-0.1,0.2-0.2,0.2s-0.2,0.1-0.2,0.1c0,0,0,0-0.1,0c0,0-0.1,0-0.1,0l-0.6-0.2c-0.1,0-0.2-0.1-0.2-0.1c0-0.1-0.1-0.1-0.1-0.2
		c0-0.1,0-0.1,0-0.1c0,0,0-0.1,0-0.1l1.2-4.3c0-0.2,0.1-0.3,0.2-0.4C439.9,683,440.1,682.9,440.2,682.9z"/>
	<path d="M460.2,677.8v6.2h3.8v-1.5c0-0.4,0.1-0.7,0.2-0.8c0.1-0.2,0.4-0.2,0.7-0.2s0.5,0.1,0.7,0.2s0.2,0.4,0.2,0.8v2.5
		c0,0.3-0.1,0.5-0.2,0.6s-0.3,0.1-0.7,0.1h-7.5c-0.4,0-0.6-0.1-0.8-0.2s-0.2-0.4-0.2-0.7c0-0.3,0.1-0.5,0.2-0.7
		c0.2-0.1,0.4-0.2,0.8-0.2h0.7v-6.2h-0.7c-0.4,0-0.6-0.1-0.8-0.2c-0.2-0.1-0.2-0.4-0.2-0.7c0-0.3,0.1-0.6,0.2-0.7
		c0.2-0.1,0.4-0.2,0.8-0.2h3.5c0.4,0,0.6,0.1,0.8,0.2c0.2,0.1,0.2,0.4,0.2,0.7c0,0.3-0.1,0.6-0.2,0.7c-0.2,0.1-0.4,0.2-0.8,0.2
		H460.2z"/>
	<path d="M472.4,684h1.8c0.4,0,0.7,0.1,0.8,0.2s0.2,0.4,0.2,0.7c0,0.3-0.1,0.6-0.2,0.7c-0.2,0.1-0.4,0.2-0.8,0.2h-5.6
		c-0.4,0-0.6-0.1-0.8-0.2c-0.2-0.1-0.2-0.4-0.2-0.7c0-0.3,0.1-0.5,0.2-0.7c0.2-0.1,0.4-0.2,0.8-0.2h1.8v-4h-0.9
		c-0.4,0-0.6-0.1-0.8-0.2c-0.2-0.1-0.2-0.4-0.2-0.7c0-0.3,0.1-0.6,0.2-0.7c0.2-0.1,0.4-0.2,0.8-0.2h2.5c0.2,0,0.3,0,0.4,0.1
		s0.1,0.2,0.1,0.3V684z M471.2,674.4c0.4,0,0.7,0.1,0.8,0.2s0.2,0.5,0.2,1.1c0,0.6-0.1,0.9-0.2,1c-0.1,0.1-0.4,0.2-0.8,0.2
		c-0.4,0-0.7-0.1-0.8-0.2c-0.1-0.1-0.2-0.4-0.2-0.8c0-0.7,0.1-1.2,0.2-1.4C470.5,674.5,470.8,674.4,471.2,674.4z"/>
	<path d="M485,684h0.1c0.3,0,0.5,0.1,0.7,0.2s0.2,0.4,0.2,0.7c0,0.3-0.1,0.6-0.2,0.7c-0.2,0.1-0.4,0.2-0.8,0.2h-2
		c-0.4,0-0.6-0.1-0.8-0.2c-0.2-0.1-0.2-0.4-0.2-0.7c0-0.3,0.1-0.5,0.2-0.7c0.2-0.2,0.4-0.2,0.7-0.2h0.1v-2.4c0-0.7-0.1-1.1-0.3-1.4
		c-0.2-0.3-0.5-0.4-0.9-0.4c-0.5,0-0.8,0.2-1.1,0.5c-0.3,0.3-0.4,0.8-0.4,1.3v2.4h0.1c0.3,0,0.6,0.1,0.7,0.2s0.2,0.4,0.2,0.7
		c0,0.3-0.1,0.6-0.2,0.7s-0.4,0.2-0.8,0.2h-2.1c-0.4,0-0.6-0.1-0.8-0.2s-0.2-0.4-0.2-0.7c0-0.3,0.1-0.5,0.2-0.7s0.4-0.2,0.7-0.2h0.1
		v-4h-0.1c-0.3,0-0.5-0.1-0.7-0.2s-0.2-0.4-0.2-0.7c0-0.3,0.1-0.6,0.2-0.7s0.4-0.2,0.8-0.2h1.4c0.2,0,0.3,0,0.4,0.1
		c0.1,0.1,0.1,0.1,0.1,0.3v0.6c0.3-0.4,0.6-0.7,1-0.9c0.4-0.2,0.9-0.3,1.4-0.3c0.9,0,1.5,0.3,2,0.8c0.4,0.5,0.7,1.4,0.7,2.5V684z"/>
	<path d="M490.3,681.3l1.8-1.6c-0.2-0.1-0.3-0.1-0.4-0.2c-0.1-0.1-0.1-0.2-0.1-0.4c0-0.3,0.1-0.6,0.2-0.7c0.1-0.1,0.4-0.2,0.8-0.2
		h1.8c0.4,0,0.6,0.1,0.8,0.2c0.2,0.1,0.2,0.4,0.2,0.7c0,0.2,0,0.4-0.1,0.5c-0.1,0.1-0.3,0.2-0.6,0.2c-0.3,0-0.5,0.1-0.7,0.2
		c-0.2,0.1-0.4,0.3-0.7,0.6l-0.6,0.6l2.2,2.7h0.2c0.3,0,0.6,0.1,0.7,0.2s0.2,0.4,0.2,0.7c0,0.3-0.1,0.6-0.2,0.7s-0.4,0.2-0.8,0.2h-2
		c-0.4,0-0.6-0.1-0.8-0.2s-0.2-0.3-0.2-0.6c0-0.2,0-0.4,0.1-0.5s0.2-0.2,0.5-0.3l-1.4-1.7l-1,0.9v1.7c0,0.2,0,0.4-0.1,0.4
		s-0.2,0.1-0.4,0.1h-1.5c-0.4,0-0.6-0.1-0.8-0.2c-0.2-0.1-0.2-0.4-0.2-0.7c0-0.3,0.1-0.5,0.2-0.7s0.4-0.2,0.7-0.2h0.1v-7.2h-0.1
		c-0.3,0-0.5-0.1-0.7-0.2s-0.2-0.4-0.2-0.7c0-0.3,0.1-0.6,0.2-0.7s0.4-0.2,0.8-0.2h1.5c0.2,0,0.3,0,0.4,0.1c0.1,0.1,0.1,0.2,0.1,0.4
		V681.3z"/>
	<path d="M499.6,682.5c0.1,0.6,0.4,1.1,0.8,1.4c0.4,0.3,1,0.5,1.6,0.5s1.4-0.2,2-0.5s1.1-0.5,1.2-0.5c0.2,0,0.4,0.1,0.5,0.2
		c0.1,0.2,0.2,0.3,0.2,0.6c0,0.5-0.4,1-1.2,1.3c-0.8,0.4-1.7,0.6-2.9,0.6c-1.3,0-2.4-0.4-3.3-1.1c-0.8-0.8-1.3-1.7-1.3-2.9
		c0-1.2,0.4-2.1,1.3-2.9c0.8-0.8,1.9-1.1,3.3-1.1c1.2,0,2.2,0.4,3,1.1c0.8,0.7,1.2,1.6,1.2,2.6c0,0.3-0.1,0.6-0.2,0.7
		c-0.2,0.1-0.5,0.2-1,0.2H499.6z M504.1,681.2c-0.1-0.5-0.3-0.9-0.7-1.2c-0.4-0.3-0.9-0.4-1.5-0.4c-0.6,0-1.1,0.1-1.5,0.4
		c-0.4,0.3-0.6,0.7-0.8,1.2H504.1z"/>
	<path d="M515.6,684h0.1c0.3,0,0.5,0.1,0.7,0.2s0.2,0.4,0.2,0.7c0,0.3-0.1,0.6-0.2,0.7c-0.2,0.1-0.4,0.2-0.8,0.2h-1.3
		c-0.2,0-0.3,0-0.4-0.1c-0.1-0.1-0.1-0.2-0.1-0.3v-0.6c-0.3,0.4-0.6,0.7-1,0.9s-0.9,0.3-1.4,0.3c-1.1,0-2-0.4-2.7-1.1
		c-0.7-0.7-1.1-1.7-1.1-2.8c0-1.2,0.4-2.1,1.1-2.9c0.7-0.8,1.7-1.1,2.8-1.1c0.4,0,0.8,0.1,1.1,0.2c0.4,0.1,0.7,0.3,1,0.6v-2.1h-1.1
		c-0.4,0-0.7-0.1-0.8-0.2s-0.2-0.4-0.2-0.7c0-0.3,0.1-0.6,0.2-0.7c0.2-0.1,0.4-0.2,0.8-0.2h2.6c0.2,0,0.3,0,0.4,0.1
		c0.1,0.1,0.1,0.2,0.1,0.4V684z M511.7,679.9c-0.5,0-1,0.2-1.3,0.6c-0.4,0.4-0.5,0.9-0.5,1.5c0,0.6,0.2,1.2,0.5,1.6
		c0.4,0.4,0.8,0.6,1.4,0.6s1-0.2,1.4-0.6c0.4-0.4,0.5-0.9,0.5-1.6c0-0.6-0.2-1.1-0.5-1.5C512.7,680.1,512.3,679.9,511.7,679.9z"/>
	<path d="M523.3,677.8v6.2h1.4c0.4,0,0.6,0.1,0.8,0.2c0.2,0.1,0.2,0.4,0.2,0.7c0,0.3-0.1,0.6-0.2,0.7s-0.4,0.2-0.8,0.2h-4.9
		c-0.4,0-0.6-0.1-0.8-0.2c-0.2-0.1-0.2-0.4-0.2-0.7c0-0.3,0.1-0.5,0.2-0.7s0.4-0.2,0.8-0.2h1.4v-6.2h-1.4c-0.4,0-0.6-0.1-0.8-0.2
		c-0.2-0.1-0.2-0.4-0.2-0.7c0-0.3,0.1-0.6,0.2-0.7c0.2-0.1,0.4-0.2,0.8-0.2h4.9c0.4,0,0.7,0.1,0.8,0.2c0.2,0.1,0.2,0.4,0.2,0.7
		c0,0.3-0.1,0.6-0.2,0.7c-0.2,0.1-0.4,0.2-0.8,0.2H523.3z"/>
	<path d="M536,684h0.1c0.3,0,0.5,0.1,0.7,0.2s0.2,0.4,0.2,0.7c0,0.3-0.1,0.6-0.2,0.7c-0.2,0.1-0.4,0.2-0.8,0.2h-2
		c-0.4,0-0.6-0.1-0.8-0.2c-0.2-0.1-0.2-0.4-0.2-0.7c0-0.3,0.1-0.5,0.2-0.7c0.2-0.2,0.4-0.2,0.7-0.2h0.1v-2.4c0-0.7-0.1-1.1-0.3-1.4
		c-0.2-0.3-0.5-0.4-0.9-0.4c-0.5,0-0.8,0.2-1.1,0.5c-0.3,0.3-0.4,0.8-0.4,1.3v2.4h0.1c0.3,0,0.6,0.1,0.7,0.2s0.2,0.4,0.2,0.7
		c0,0.3-0.1,0.6-0.2,0.7s-0.4,0.2-0.8,0.2h-2.1c-0.4,0-0.6-0.1-0.8-0.2s-0.2-0.4-0.2-0.7c0-0.3,0.1-0.5,0.2-0.7s0.4-0.2,0.7-0.2h0.1
		v-4H529c-0.3,0-0.5-0.1-0.7-0.2s-0.2-0.4-0.2-0.7c0-0.3,0.1-0.6,0.2-0.7s0.4-0.2,0.8-0.2h1.4c0.2,0,0.3,0,0.4,0.1
		c0.1,0.1,0.1,0.1,0.1,0.3v0.6c0.3-0.4,0.6-0.7,1-0.9c0.4-0.2,0.9-0.3,1.4-0.3c0.9,0,1.5,0.3,2,0.8c0.4,0.5,0.7,1.4,0.7,2.5V684z"/>
</g>
<g class="st3">
	<path d="M1025.5,682.4v-4.6h-0.5c-0.4,0-0.6-0.1-0.8-0.2c-0.2-0.1-0.2-0.4-0.2-0.7c0-0.3,0.1-0.6,0.2-0.7c0.2-0.1,0.4-0.2,0.8-0.2
		h2.4c0.4,0,0.6,0.1,0.8,0.2s0.2,0.4,0.2,0.7c0,0.3-0.1,0.5-0.2,0.7c-0.2,0.2-0.4,0.2-0.7,0.2h-0.1v7.5c0,0.3,0,0.4-0.1,0.5
		s-0.2,0.1-0.4,0.1h-0.8c-0.3,0-0.5,0-0.6-0.1c-0.1-0.1-0.2-0.2-0.3-0.3l-3.5-6.1v4.5h0.5c0.4,0,0.6,0.1,0.8,0.2
		c0.2,0.1,0.2,0.4,0.2,0.7c0,0.3-0.1,0.6-0.2,0.7c-0.2,0.1-0.4,0.2-0.8,0.2h-2.4c-0.4,0-0.6-0.1-0.8-0.2c-0.2-0.1-0.2-0.4-0.2-0.7
		c0-0.3,0.1-0.5,0.2-0.7c0.1-0.2,0.4-0.2,0.7-0.2h0.1v-6.2h-0.1c-0.3,0-0.5-0.1-0.7-0.2c-0.2-0.2-0.2-0.4-0.2-0.7
		c0-0.3,0.1-0.6,0.2-0.7c0.2-0.1,0.4-0.2,0.8-0.2h1.4c0.3,0,0.5,0,0.7,0.1c0.1,0.1,0.2,0.3,0.4,0.5L1025.5,682.4z"/>
	<path d="M1031.6,682.5c0.1,0.6,0.4,1.1,0.8,1.4c0.4,0.3,1,0.5,1.6,0.5c0.7,0,1.4-0.2,2-0.5s1.1-0.5,1.2-0.5c0.2,0,0.4,0.1,0.5,0.2
		s0.2,0.3,0.2,0.6c0,0.5-0.4,1-1.2,1.3c-0.8,0.4-1.7,0.6-2.9,0.6c-1.3,0-2.4-0.4-3.3-1.1c-0.8-0.8-1.3-1.7-1.3-2.9
		c0-1.2,0.4-2.1,1.3-2.9c0.8-0.8,1.9-1.1,3.3-1.1c1.2,0,2.2,0.4,3,1.1c0.8,0.7,1.2,1.6,1.2,2.6c0,0.3-0.1,0.6-0.2,0.7
		c-0.2,0.1-0.5,0.2-1,0.2H1031.6z M1036,681.2c-0.1-0.5-0.3-0.9-0.7-1.2c-0.4-0.3-0.9-0.4-1.5-0.4c-0.6,0-1.1,0.1-1.5,0.4
		c-0.4,0.3-0.6,0.7-0.8,1.2H1036z"/>
	<path d="M1043.4,678.6h2.5c0.4,0,0.7,0.1,0.8,0.2c0.2,0.1,0.2,0.4,0.2,0.7c0,0.3-0.1,0.6-0.2,0.7c-0.2,0.1-0.4,0.2-0.8,0.2h-2.5
		v2.1c0,0.6,0.1,1,0.3,1.2c0.2,0.2,0.5,0.3,1,0.3c0.4,0,0.9-0.1,1.5-0.4c0.6-0.2,1-0.4,1.2-0.4c0.2,0,0.4,0.1,0.6,0.3
		c0.2,0.2,0.2,0.4,0.2,0.7c0,0.4-0.4,0.8-1.2,1.2s-1.6,0.5-2.6,0.5c-0.6,0-1.1-0.1-1.5-0.2s-0.8-0.4-1-0.7c-0.2-0.2-0.3-0.5-0.4-0.8
		s-0.1-0.8-0.1-1.6v-0.2v-2.1h-0.8c-0.4,0-0.6-0.1-0.8-0.2c-0.2-0.1-0.2-0.4-0.2-0.7s0.1-0.6,0.2-0.7c0.2-0.1,0.4-0.2,0.8-0.2h0.8
		v-1.9c0-0.4,0.1-0.7,0.2-0.8c0.2-0.2,0.4-0.2,0.8-0.2s0.6,0.1,0.8,0.2c0.2,0.2,0.2,0.4,0.2,0.8V678.6z"/>
	<path d="M1054.8,678.4h1.8c0.4,0,0.7,0.1,0.8,0.2c0.2,0.1,0.2,0.4,0.2,0.7s-0.1,0.6-0.2,0.7s-0.4,0.2-0.8,0.2h-1.8v3.8h1.7
		c0.4,0,0.7,0.1,0.8,0.2c0.2,0.1,0.2,0.4,0.2,0.7c0,0.3-0.1,0.6-0.2,0.7s-0.4,0.2-0.8,0.2h-4.6c-0.4,0-0.7-0.1-0.8-0.2
		s-0.2-0.4-0.2-0.7c0-0.3,0.1-0.5,0.2-0.7c0.2-0.1,0.4-0.2,0.8-0.2h0.9v-3.8h-0.9c-0.4,0-0.7-0.1-0.8-0.2s-0.2-0.4-0.2-0.7
		c0-0.3,0.1-0.6,0.2-0.7c0.2-0.1,0.4-0.2,0.8-0.2h0.9v-0.5c0-1.1,0.3-1.9,0.8-2.3c0.6-0.5,1.5-0.7,2.9-0.7c0.7,0,1.2,0.1,1.5,0.2
		s0.5,0.4,0.5,0.8c0,0.2-0.1,0.4-0.2,0.6c-0.1,0.1-0.3,0.2-0.6,0.2c-0.2,0-0.4,0-0.8-0.1c-0.3,0-0.6-0.1-0.7-0.1
		c-0.5,0-0.9,0.1-1.1,0.3c-0.2,0.2-0.3,0.6-0.3,1.2V678.4z"/>
	<path d="M1065.4,684h1.8c0.4,0,0.7,0.1,0.8,0.2s0.2,0.4,0.2,0.7c0,0.3-0.1,0.6-0.2,0.7c-0.2,0.1-0.4,0.2-0.8,0.2h-5.6
		c-0.4,0-0.6-0.1-0.8-0.2s-0.2-0.4-0.2-0.7c0-0.3,0.1-0.6,0.2-0.7c0.2-0.1,0.4-0.2,0.8-0.2h1.8v-7.2h-0.9c-0.4,0-0.6-0.1-0.8-0.2
		c-0.2-0.1-0.2-0.4-0.2-0.7c0-0.3,0.1-0.6,0.2-0.7c0.2-0.1,0.4-0.2,0.8-0.2h2.5c0.2,0,0.3,0,0.4,0.1c0.1,0.1,0.1,0.2,0.1,0.3V684z"
		/>
	<path d="M1075.8,684h1.8c0.4,0,0.7,0.1,0.8,0.2c0.2,0.1,0.2,0.4,0.2,0.7c0,0.3-0.1,0.6-0.2,0.7c-0.2,0.1-0.4,0.2-0.8,0.2h-5.6
		c-0.4,0-0.6-0.1-0.8-0.2s-0.2-0.4-0.2-0.7c0-0.3,0.1-0.5,0.2-0.7c0.2-0.1,0.4-0.2,0.8-0.2h1.8v-4h-0.9c-0.4,0-0.6-0.1-0.8-0.2
		c-0.2-0.1-0.2-0.4-0.2-0.7c0-0.3,0.1-0.6,0.2-0.7c0.2-0.1,0.4-0.2,0.8-0.2h2.5c0.2,0,0.3,0,0.4,0.1c0.1,0.1,0.1,0.2,0.1,0.3V684z
		 M1074.6,674.4c0.4,0,0.7,0.1,0.8,0.2s0.2,0.5,0.2,1.1c0,0.6-0.1,0.9-0.2,1s-0.4,0.2-0.8,0.2c-0.4,0-0.7-0.1-0.8-0.2
		c-0.1-0.1-0.2-0.4-0.2-0.8c0-0.7,0.1-1.2,0.2-1.4C1073.9,674.5,1074.2,674.4,1074.6,674.4z"/>
	<path d="M1084,679.8l0.9,1l1-1c-0.2,0-0.3-0.1-0.4-0.2s-0.1-0.3-0.1-0.6c0-0.3,0.1-0.5,0.2-0.6c0.1-0.1,0.3-0.2,0.6-0.2h1.8
		c0.4,0,0.6,0.1,0.8,0.2s0.2,0.4,0.2,0.7c0,0.3-0.1,0.5-0.2,0.7c-0.2,0.1-0.4,0.2-0.7,0.2h-0.3l-1.7,1.9l2.1,2.1h0.2
		c0.3,0,0.6,0.1,0.7,0.2c0.2,0.2,0.2,0.4,0.2,0.7c0,0.3-0.1,0.6-0.3,0.7c-0.2,0.1-0.4,0.2-0.8,0.2h-2c-0.3,0-0.5-0.1-0.6-0.2
		c-0.1-0.1-0.2-0.4-0.2-0.6c0-0.3,0-0.5,0.1-0.6s0.2-0.2,0.4-0.2h0.1l-1.1-1.2l-1,1.2h0c0.2,0,0.3,0.1,0.4,0.2
		c0.1,0.1,0.1,0.3,0.1,0.6c0,0.3-0.1,0.5-0.2,0.7c-0.1,0.1-0.3,0.2-0.6,0.2h-1.8c-0.4,0-0.6-0.1-0.8-0.2c-0.2-0.1-0.2-0.4-0.2-0.7
		c0-0.3,0.1-0.5,0.2-0.7c0.2-0.2,0.4-0.2,0.7-0.2h0.2l2-2l-1.9-2h-0.3c-0.3,0-0.6-0.1-0.7-0.2s-0.2-0.4-0.2-0.7
		c0-0.3,0.1-0.6,0.2-0.7s0.4-0.2,0.8-0.2h2c0.3,0,0.5,0.1,0.6,0.2c0.1,0.1,0.2,0.4,0.2,0.7c0,0.3,0,0.4-0.1,0.6
		C1084.3,679.8,1084.2,679.8,1084,679.8z"/>
	<path d="M1094.6,682.9h2c0.1,0,0.2,0,0.2,0c0.1,0,0.1,0.1,0.1,0.1c0,0,0,0.1,0,0.1c0,0,0,0.1-0.1,0.1l-2.5,4.9
		c0,0.1-0.1,0.2-0.2,0.2s-0.2,0.1-0.2,0.1c0,0,0,0-0.1,0c0,0-0.1,0-0.1,0l-0.6-0.2c-0.1,0-0.2-0.1-0.2-0.1c0-0.1-0.1-0.1-0.1-0.2
		c0-0.1,0-0.1,0-0.1c0,0,0-0.1,0-0.1l1.2-4.3c0-0.2,0.1-0.3,0.2-0.4C1094.3,683,1094.4,682.9,1094.6,682.9z"/>
	<path d="M1114.1,677.8v1.9h2.7v-1.9h-0.1c-0.3,0-0.5-0.1-0.7-0.2c-0.2-0.2-0.2-0.4-0.2-0.7c0-0.3,0.1-0.6,0.2-0.7s0.4-0.2,0.8-0.2
		h2.1c0.4,0,0.6,0.1,0.8,0.2c0.2,0.1,0.2,0.4,0.2,0.7c0,0.3-0.1,0.5-0.2,0.7c-0.2,0.2-0.4,0.2-0.7,0.2h-0.1v6.2h0.1
		c0.3,0,0.5,0.1,0.7,0.2c0.2,0.2,0.2,0.4,0.2,0.7c0,0.3-0.1,0.6-0.2,0.7s-0.4,0.2-0.8,0.2h-2.1c-0.4,0-0.7-0.1-0.8-0.2
		c-0.2-0.1-0.2-0.4-0.2-0.7c0-0.3,0.1-0.5,0.2-0.7c0.2-0.2,0.4-0.2,0.7-0.2h0.1v-2.4h-2.7v2.4h0.1c0.3,0,0.5,0.1,0.7,0.2
		c0.2,0.2,0.2,0.4,0.2,0.7c0,0.3-0.1,0.6-0.2,0.7s-0.4,0.2-0.8,0.2h-2.1c-0.4,0-0.7-0.1-0.8-0.2c-0.2-0.1-0.2-0.4-0.2-0.7
		c0-0.3,0.1-0.5,0.2-0.7s0.4-0.2,0.7-0.2h0.1v-6.2h-0.1c-0.3,0-0.5-0.1-0.7-0.2c-0.2-0.2-0.2-0.4-0.2-0.7c0-0.3,0.1-0.6,0.2-0.7
		c0.2-0.1,0.4-0.2,0.8-0.2h2.1c0.4,0,0.6,0.1,0.8,0.2s0.2,0.4,0.2,0.7c0,0.3-0.1,0.5-0.2,0.7c-0.2,0.2-0.4,0.2-0.7,0.2H1114.1z"/>
	<path d="M1128.4,680.6c0.6,0.2,1,0.5,1.3,0.9c0.3,0.4,0.4,0.9,0.4,1.5c0,0.5-0.1,1-0.4,1.4s-0.6,0.8-1,1c-0.3,0.2-0.6,0.3-0.9,0.3
		c-0.3,0.1-0.8,0.1-1.4,0.1h-0.7h-3.6c-0.4,0-0.6-0.1-0.8-0.2c-0.2-0.1-0.2-0.4-0.2-0.7c0-0.3,0.1-0.5,0.2-0.7s0.4-0.2,0.7-0.2h0.1
		v-6.2h-0.1c-0.3,0-0.5-0.1-0.7-0.2c-0.2-0.2-0.2-0.4-0.2-0.7c0-0.3,0.1-0.6,0.2-0.7s0.4-0.2,0.8-0.2h3.8c1.2,0,2.1,0.2,2.7,0.7
		s0.9,1.1,0.9,2c0,0.4-0.1,0.8-0.3,1.1S1128.8,680.4,1128.4,680.6z M1124.2,677.8v2.1h1.1c0.7,0,1.2-0.1,1.4-0.2s0.4-0.4,0.4-0.8
		c0-0.4-0.1-0.6-0.4-0.8s-0.7-0.2-1.2-0.2H1124.2z M1124.2,681.5v2.5h1.2c0.9,0,1.5-0.1,1.9-0.3c0.4-0.2,0.5-0.5,0.5-1
		c0-0.5-0.2-0.8-0.5-1c-0.3-0.2-0.9-0.3-1.8-0.3H1124.2z"/>
	<path d="M1135.8,675.7c1.4,0,2.5,0.5,3.4,1.5c0.9,1,1.3,2.2,1.3,3.7c0,1.5-0.4,2.8-1.3,3.7s-2,1.5-3.4,1.5c-1.4,0-2.5-0.5-3.4-1.5
		c-0.9-1-1.3-2.2-1.3-3.7c0-1.5,0.4-2.8,1.3-3.7C1133.3,676.2,1134.5,675.7,1135.8,675.7z M1135.8,677.6c-0.7,0-1.3,0.3-1.7,0.9
		c-0.4,0.6-0.6,1.4-0.6,2.4s0.2,1.8,0.6,2.4s1,0.9,1.7,0.9c0.7,0,1.3-0.3,1.7-0.9c0.4-0.6,0.6-1.4,0.6-2.4c0-1-0.2-1.8-0.6-2.4
		C1137.1,677.9,1136.6,677.6,1135.8,677.6z"/>
	<path d="M1145.6,682.9h2c0.1,0,0.2,0,0.2,0s0.1,0.1,0.1,0.1c0,0,0,0.1,0,0.1c0,0,0,0.1-0.1,0.1l-2.5,4.9c0,0.1-0.1,0.2-0.2,0.2
		c-0.1,0.1-0.2,0.1-0.2,0.1c0,0,0,0-0.1,0c0,0-0.1,0-0.1,0l-0.6-0.2c-0.1,0-0.2-0.1-0.2-0.1c0-0.1-0.1-0.1-0.1-0.2
		c0-0.1,0-0.1,0-0.1c0,0,0-0.1,0-0.1l1.2-4.3c0.1-0.2,0.1-0.3,0.2-0.4C1145.3,683,1145.4,682.9,1145.6,682.9z"/>
	<path d="M1168.5,681.3c0.1,0.1,0.3,0.2,0.4,0.5c0,0,0,0.1,0.1,0.1l1.4,2.1h0.1h0.2c0.3,0,0.6,0.1,0.7,0.2c0.2,0.1,0.2,0.4,0.2,0.7
		c0,0.3-0.1,0.6-0.2,0.7c-0.2,0.1-0.4,0.2-0.8,0.2h-1c-0.4,0-0.7-0.2-0.9-0.5l0,0l-2-3.1c-0.1-0.1-0.2-0.2-0.3-0.3s-0.2-0.1-0.3-0.1
		h-0.8v2.2h0.1c0.3,0,0.5,0.1,0.7,0.2c0.2,0.2,0.2,0.4,0.2,0.7c0,0.3-0.1,0.6-0.2,0.7s-0.4,0.2-0.8,0.2h-2.1c-0.4,0-0.6-0.1-0.8-0.2
		s-0.2-0.4-0.2-0.7c0-0.3,0.1-0.5,0.2-0.7s0.4-0.2,0.7-0.2h0.1v-6.2h-0.1c-0.3,0-0.5-0.1-0.7-0.2c-0.2-0.2-0.2-0.4-0.2-0.7
		c0-0.3,0.1-0.6,0.2-0.7c0.2-0.1,0.4-0.2,0.8-0.2h3.8c1.2,0,2.1,0.2,2.7,0.7c0.6,0.5,0.9,1.1,0.9,2c0,0.6-0.2,1.2-0.5,1.6
		C1169.6,680.7,1169.1,681.1,1168.5,681.3z M1165.1,677.8v2.3h1.1c0.7,0,1.2-0.1,1.5-0.3s0.4-0.5,0.4-0.9c0-0.4-0.1-0.7-0.4-0.9
		c-0.3-0.2-0.7-0.3-1.2-0.3H1165.1z"/>
	<path d="M1174.4,682.5c0.1,0.6,0.4,1.1,0.8,1.4c0.4,0.3,1,0.5,1.6,0.5c0.7,0,1.4-0.2,2-0.5s1.1-0.5,1.2-0.5c0.2,0,0.4,0.1,0.5,0.2
		c0.1,0.2,0.2,0.3,0.2,0.6c0,0.5-0.4,1-1.2,1.3c-0.8,0.4-1.7,0.6-2.9,0.6c-1.3,0-2.4-0.4-3.3-1.1c-0.8-0.8-1.3-1.7-1.3-2.9
		c0-1.2,0.4-2.1,1.3-2.9c0.8-0.8,1.9-1.1,3.3-1.1c1.2,0,2.2,0.4,3,1.1c0.8,0.7,1.2,1.6,1.2,2.6c0,0.3-0.1,0.6-0.2,0.7
		c-0.2,0.1-0.5,0.2-1,0.2H1174.4z M1178.9,681.2c-0.1-0.5-0.3-0.9-0.7-1.2c-0.4-0.3-0.9-0.4-1.5-0.4c-0.6,0-1.1,0.1-1.5,0.4
		s-0.6,0.7-0.8,1.2H1178.9z"/>
	<path d="M1190.4,684h0.1c0.3,0,0.5,0.1,0.7,0.2c0.1,0.2,0.2,0.4,0.2,0.7c0,0.3-0.1,0.6-0.2,0.7c-0.2,0.1-0.4,0.2-0.8,0.2h-1.3
		c-0.2,0-0.3,0-0.4-0.1s-0.1-0.2-0.1-0.3v-0.6c-0.3,0.4-0.6,0.7-1,0.9s-0.9,0.3-1.4,0.3c-1.1,0-2-0.4-2.7-1.1
		c-0.7-0.7-1.1-1.7-1.1-2.8c0-1.2,0.4-2.1,1.1-2.9c0.7-0.8,1.7-1.1,2.8-1.1c0.4,0,0.8,0.1,1.1,0.2s0.7,0.3,1,0.6v-2.1h-1.1
		c-0.4,0-0.7-0.1-0.8-0.2c-0.2-0.1-0.2-0.4-0.2-0.7c0-0.3,0.1-0.6,0.2-0.7c0.2-0.1,0.4-0.2,0.8-0.2h2.6c0.2,0,0.3,0,0.4,0.1
		c0.1,0.1,0.1,0.2,0.1,0.4V684z M1186.5,679.9c-0.5,0-1,0.2-1.3,0.6c-0.4,0.4-0.5,0.9-0.5,1.5c0,0.6,0.2,1.2,0.5,1.6
		c0.4,0.4,0.8,0.6,1.4,0.6s1-0.2,1.4-0.6s0.5-0.9,0.5-1.6c0-0.6-0.2-1.1-0.5-1.5C1187.5,680.1,1187,679.9,1186.5,679.9z"/>
	<path d="M1200.6,684h0.1c0.3,0,0.5,0.1,0.7,0.2s0.2,0.4,0.2,0.7c0,0.3-0.1,0.6-0.2,0.7c-0.2,0.1-0.4,0.2-0.8,0.2h-1.3
		c-0.2,0-0.3,0-0.4-0.1s-0.1-0.2-0.1-0.3v-0.6c-0.3,0.4-0.6,0.7-1,0.9c-0.4,0.2-0.9,0.3-1.4,0.3c-1.1,0-2-0.4-2.7-1.1
		c-0.7-0.7-1.1-1.7-1.1-2.8c0-1.2,0.4-2.1,1.1-2.9c0.7-0.8,1.7-1.1,2.8-1.1c0.4,0,0.8,0.1,1.1,0.2c0.4,0.1,0.7,0.3,1,0.6v-2.1h-1.1
		c-0.4,0-0.7-0.1-0.8-0.2s-0.2-0.4-0.2-0.7c0-0.3,0.1-0.6,0.2-0.7c0.2-0.1,0.4-0.2,0.8-0.2h2.6c0.2,0,0.3,0,0.4,0.1
		c0.1,0.1,0.1,0.2,0.1,0.4V684z M1196.7,679.9c-0.5,0-1,0.2-1.3,0.6c-0.4,0.4-0.5,0.9-0.5,1.5c0,0.6,0.2,1.2,0.5,1.6
		c0.4,0.4,0.8,0.6,1.4,0.6c0.5,0,1-0.2,1.4-0.6c0.4-0.4,0.5-0.9,0.5-1.6c0-0.6-0.2-1.1-0.5-1.5
		C1197.7,680.1,1197.2,679.9,1196.7,679.9z"/>
	<path d="M1208.4,684h1.8c0.4,0,0.7,0.1,0.8,0.2s0.2,0.4,0.2,0.7c0,0.3-0.1,0.6-0.2,0.7c-0.2,0.1-0.4,0.2-0.8,0.2h-5.6
		c-0.4,0-0.6-0.1-0.8-0.2c-0.2-0.1-0.2-0.4-0.2-0.7c0-0.3,0.1-0.5,0.2-0.7c0.2-0.1,0.4-0.2,0.8-0.2h1.8v-4h-0.9
		c-0.4,0-0.6-0.1-0.8-0.2c-0.2-0.1-0.2-0.4-0.2-0.7c0-0.3,0.1-0.6,0.2-0.7c0.2-0.1,0.4-0.2,0.8-0.2h2.5c0.2,0,0.3,0,0.4,0.1
		s0.1,0.2,0.1,0.3V684z M1207.2,674.4c0.4,0,0.7,0.1,0.8,0.2s0.2,0.5,0.2,1.1c0,0.6-0.1,0.9-0.2,1s-0.4,0.2-0.8,0.2
		c-0.4,0-0.7-0.1-0.8-0.2c-0.1-0.1-0.2-0.4-0.2-0.8c0-0.7,0.1-1.2,0.2-1.4C1206.5,674.5,1206.8,674.4,1207.2,674.4z"/>
	<path d="M1216.9,678.6h2.5c0.4,0,0.7,0.1,0.8,0.2c0.2,0.1,0.2,0.4,0.2,0.7c0,0.3-0.1,0.6-0.2,0.7c-0.2,0.1-0.4,0.2-0.8,0.2h-2.5
		v2.1c0,0.6,0.1,1,0.3,1.2c0.2,0.2,0.5,0.3,1,0.3c0.4,0,0.9-0.1,1.5-0.4s1-0.4,1.2-0.4c0.2,0,0.4,0.1,0.6,0.3s0.2,0.4,0.2,0.7
		c0,0.4-0.4,0.8-1.2,1.2c-0.8,0.4-1.6,0.5-2.6,0.5c-0.6,0-1.1-0.1-1.5-0.2s-0.8-0.4-1-0.7c-0.2-0.2-0.3-0.5-0.4-0.8
		c-0.1-0.3-0.1-0.8-0.1-1.6v-0.2v-2.1h-0.8c-0.4,0-0.6-0.1-0.8-0.2c-0.2-0.1-0.2-0.4-0.2-0.7s0.1-0.6,0.2-0.7s0.4-0.2,0.8-0.2h0.8
		v-1.9c0-0.4,0.1-0.7,0.2-0.8c0.2-0.2,0.4-0.2,0.8-0.2s0.6,0.1,0.8,0.2c0.2,0.2,0.2,0.4,0.2,0.8V678.6z"/>
	<path d="M1227.2,682.9h2c0.1,0,0.2,0,0.2,0s0.1,0.1,0.1,0.1c0,0,0,0.1,0,0.1c0,0,0,0.1-0.1,0.1l-2.5,4.9c0,0.1-0.1,0.2-0.2,0.2
		c-0.1,0.1-0.2,0.1-0.2,0.1c0,0,0,0-0.1,0c0,0-0.1,0-0.1,0l-0.6-0.2c-0.1,0-0.2-0.1-0.2-0.1c0-0.1-0.1-0.1-0.1-0.2
		c0-0.1,0-0.1,0-0.1c0,0,0-0.1,0-0.1l1.2-4.3c0.1-0.2,0.1-0.3,0.2-0.4C1226.9,683,1227,682.9,1227.2,682.9z"/>
	<path d="M1246.2,677.8l2,5.9l2.1-5.9h-0.2c-0.4,0-0.6-0.1-0.8-0.2c-0.2-0.1-0.2-0.4-0.2-0.7c0-0.3,0.1-0.6,0.2-0.7
		c0.2-0.1,0.4-0.2,0.8-0.2h2.1c0.4,0,0.6,0.1,0.8,0.2s0.2,0.4,0.2,0.7c0,0.3-0.1,0.5-0.2,0.7c-0.2,0.2-0.4,0.2-0.7,0.2h-0.1
		l-2.5,7.2c-0.1,0.4-0.3,0.6-0.4,0.7c-0.1,0.1-0.3,0.1-0.6,0.1h-1c-0.5,0-0.8-0.3-1-0.8l0,0l-2.6-7.2h-0.1c-0.3,0-0.5-0.1-0.6-0.2
		c-0.1-0.2-0.2-0.4-0.2-0.7c0-0.3,0.1-0.6,0.2-0.7c0.2-0.1,0.4-0.2,0.8-0.2h2.5c0.4,0,0.6,0.1,0.8,0.2c0.2,0.1,0.2,0.4,0.2,0.7
		c0,0.3-0.1,0.6-0.2,0.7c-0.2,0.1-0.4,0.2-0.8,0.2H1246.2z"/>
	<path d="M1259.4,684h1.8c0.4,0,0.7,0.1,0.8,0.2c0.2,0.1,0.2,0.4,0.2,0.7c0,0.3-0.1,0.6-0.2,0.7s-0.4,0.2-0.8,0.2h-5.6
		c-0.4,0-0.6-0.1-0.8-0.2c-0.2-0.1-0.2-0.4-0.2-0.7c0-0.3,0.1-0.5,0.2-0.7c0.2-0.1,0.4-0.2,0.8-0.2h1.8v-4h-0.9
		c-0.4,0-0.6-0.1-0.8-0.2c-0.2-0.1-0.2-0.4-0.2-0.7c0-0.3,0.1-0.6,0.2-0.7c0.2-0.1,0.4-0.2,0.8-0.2h2.5c0.2,0,0.3,0,0.4,0.1
		c0.1,0.1,0.1,0.2,0.1,0.3V684z M1258.2,674.4c0.4,0,0.7,0.1,0.8,0.2s0.2,0.5,0.2,1.1c0,0.6-0.1,0.9-0.2,1c-0.1,0.1-0.4,0.2-0.8,0.2
		c-0.4,0-0.7-0.1-0.8-0.2c-0.1-0.1-0.2-0.4-0.2-0.8c0-0.7,0.1-1.2,0.2-1.4C1257.5,674.5,1257.8,674.4,1258.2,674.4z"/>
	<path d="M1269,678.7c0.2-0.2,0.5-0.4,0.8-0.6s0.6-0.2,1-0.2c0.8,0,1.3,0.2,1.6,0.7s0.5,1.2,0.5,2.2v3.1h0.1c0.3,0,0.5,0.1,0.6,0.2
		c0.1,0.2,0.2,0.4,0.2,0.7c0,0.3-0.1,0.6-0.2,0.7c-0.1,0.1-0.4,0.2-0.7,0.2h-1.4c-0.1,0-0.3,0-0.3-0.1s-0.1-0.2-0.1-0.3v-4.7
		c0-0.4-0.1-0.6-0.2-0.8s-0.3-0.3-0.5-0.3c-0.3,0-0.5,0.1-0.6,0.4s-0.2,0.6-0.2,1.1v2.9h0.1c0.3,0,0.4,0.1,0.6,0.2s0.2,0.4,0.2,0.7
		c0,0.3-0.1,0.6-0.2,0.7c-0.1,0.1-0.4,0.2-0.7,0.2h-1.4c-0.1,0-0.3,0-0.4-0.1c-0.1-0.1-0.1-0.2-0.1-0.3v-4.7c0-0.4-0.1-0.6-0.2-0.8
		c-0.1-0.2-0.3-0.3-0.5-0.3c-0.3,0-0.5,0.1-0.7,0.4s-0.2,0.6-0.2,1.1v2.9h0.1c0.3,0,0.5,0.1,0.6,0.2c0.1,0.1,0.2,0.4,0.2,0.7
		c0,0.3-0.1,0.6-0.2,0.7c-0.1,0.1-0.4,0.2-0.7,0.2h-1.9c-0.3,0-0.6-0.1-0.7-0.2s-0.2-0.4-0.2-0.7c0-0.3,0.1-0.5,0.2-0.7
		c0.1-0.2,0.3-0.2,0.6-0.2h0.1v-4h-0.1c-0.3,0-0.5-0.1-0.6-0.2c-0.1-0.2-0.2-0.4-0.2-0.7c0-0.3,0.1-0.6,0.2-0.7
		c0.1-0.1,0.4-0.2,0.7-0.2h1.1c0.2,0,0.4,0,0.5,0.1c0.1,0.1,0.1,0.3,0.1,0.5c0.2-0.3,0.5-0.5,0.7-0.6c0.3-0.1,0.6-0.2,1-0.2
		c0.3,0,0.6,0.1,0.8,0.2C1268.6,678.3,1268.8,678.5,1269,678.7z"/>
	<path d="M1276.4,682.5c0.1,0.6,0.4,1.1,0.8,1.4c0.4,0.3,1,0.5,1.6,0.5c0.7,0,1.4-0.2,2-0.5s1.1-0.5,1.2-0.5c0.2,0,0.4,0.1,0.5,0.2
		s0.2,0.3,0.2,0.6c0,0.5-0.4,1-1.2,1.3c-0.8,0.4-1.7,0.6-2.9,0.6c-1.3,0-2.4-0.4-3.3-1.1c-0.8-0.8-1.3-1.7-1.3-2.9
		c0-1.2,0.4-2.1,1.3-2.9c0.8-0.8,1.9-1.1,3.3-1.1c1.2,0,2.2,0.4,3,1.1c0.8,0.7,1.2,1.6,1.2,2.6c0,0.3-0.1,0.6-0.2,0.7
		c-0.2,0.1-0.5,0.2-1,0.2H1276.4z M1280.9,681.2c-0.1-0.5-0.3-0.9-0.7-1.2c-0.4-0.3-0.9-0.4-1.5-0.4c-0.6,0-1.1,0.1-1.5,0.4
		c-0.4,0.3-0.6,0.7-0.8,1.2H1280.9z"/>
	<path d="M1288.9,678c1.3,0,2.4,0.4,3.3,1.1c0.8,0.8,1.3,1.7,1.3,2.9c0,1.2-0.4,2.2-1.3,2.9c-0.8,0.8-1.9,1.1-3.3,1.1
		c-1.3,0-2.4-0.4-3.3-1.1c-0.8-0.8-1.3-1.7-1.3-2.9c0-1.2,0.4-2.1,1.3-2.9S1287.5,678,1288.9,678z M1288.9,679.7
		c-0.6,0-1.2,0.2-1.6,0.6c-0.4,0.4-0.6,1-0.6,1.6c0,0.7,0.2,1.2,0.6,1.6s1,0.7,1.6,0.7c0.6,0,1.2-0.2,1.6-0.7s0.6-1,0.6-1.6
		c0-0.7-0.2-1.2-0.6-1.6C1290,679.9,1289.5,679.7,1288.9,679.7z"/>
	<path d="M1298.6,682.9h2c0.1,0,0.2,0,0.2,0c0.1,0,0.1,0.1,0.1,0.1c0,0,0,0.1,0,0.1c0,0,0,0.1-0.1,0.1l-2.5,4.9
		c0,0.1-0.1,0.2-0.2,0.2s-0.2,0.1-0.2,0.1c0,0,0,0-0.1,0c0,0-0.1,0-0.1,0l-0.6-0.2c-0.1,0-0.2-0.1-0.2-0.1c0-0.1-0.1-0.1-0.1-0.2
		c0-0.1,0-0.1,0-0.1c0,0,0-0.1,0-0.1l1.2-4.3c0-0.2,0.1-0.3,0.2-0.4C1298.3,683,1298.5,682.9,1298.6,682.9z"/>
	<path d="M1318.3,682.3v1.7h0.9c0.4,0,0.6,0.1,0.8,0.2s0.2,0.4,0.2,0.7c0,0.3-0.1,0.6-0.2,0.7s-0.4,0.2-0.8,0.2h-2.9
		c-0.4,0-0.6-0.1-0.8-0.2c-0.2-0.1-0.2-0.4-0.2-0.7c0-0.3,0.1-0.5,0.2-0.7s0.4-0.2,0.7-0.2h0.1v-6.2h-0.1c-0.3,0-0.5-0.1-0.7-0.2
		c-0.2-0.2-0.2-0.4-0.2-0.7c0-0.3,0.1-0.6,0.2-0.7s0.4-0.2,0.8-0.2h3.4c1.4,0,2.4,0.3,3.1,0.8s1,1.3,1,2.3c0,1.1-0.3,1.9-1,2.4
		c-0.7,0.5-1.7,0.8-3.1,0.8H1318.3z M1318.3,677.8v2.6h1.2c0.7,0,1.1-0.1,1.5-0.3c0.3-0.2,0.5-0.6,0.5-1c0-0.4-0.2-0.7-0.5-1
		c-0.3-0.2-0.8-0.3-1.5-0.3H1318.3z"/>
	<path d="M1330.8,684h1.8c0.4,0,0.7,0.1,0.8,0.2s0.2,0.4,0.2,0.7c0,0.3-0.1,0.6-0.2,0.7c-0.2,0.1-0.4,0.2-0.8,0.2h-5.6
		c-0.4,0-0.6-0.1-0.8-0.2c-0.2-0.1-0.2-0.4-0.2-0.7c0-0.3,0.1-0.5,0.2-0.7c0.2-0.1,0.4-0.2,0.8-0.2h1.8v-4h-0.9
		c-0.4,0-0.6-0.1-0.8-0.2c-0.2-0.1-0.2-0.4-0.2-0.7c0-0.3,0.1-0.6,0.2-0.7c0.2-0.1,0.4-0.2,0.8-0.2h2.5c0.2,0,0.3,0,0.4,0.1
		s0.1,0.2,0.1,0.3V684z M1329.6,674.4c0.4,0,0.7,0.1,0.8,0.2s0.2,0.5,0.2,1.1c0,0.6-0.1,0.9-0.2,1s-0.4,0.2-0.8,0.2
		c-0.4,0-0.7-0.1-0.8-0.2c-0.1-0.1-0.2-0.4-0.2-0.8c0-0.7,0.1-1.2,0.2-1.4C1328.9,674.5,1329.2,674.4,1329.6,674.4z"/>
	<path d="M1343.4,684h0.1c0.3,0,0.5,0.1,0.7,0.2c0.2,0.2,0.2,0.4,0.2,0.7c0,0.3-0.1,0.6-0.2,0.7c-0.2,0.1-0.4,0.2-0.8,0.2h-2
		c-0.4,0-0.6-0.1-0.8-0.2c-0.2-0.1-0.2-0.4-0.2-0.7c0-0.3,0.1-0.5,0.2-0.7c0.2-0.2,0.4-0.2,0.7-0.2h0.1v-2.4c0-0.7-0.1-1.1-0.3-1.4
		c-0.2-0.3-0.5-0.4-0.9-0.4c-0.5,0-0.8,0.2-1.1,0.5c-0.3,0.3-0.4,0.8-0.4,1.3v2.4h0.1c0.3,0,0.6,0.1,0.7,0.2s0.2,0.4,0.2,0.7
		c0,0.3-0.1,0.6-0.2,0.7c-0.2,0.1-0.4,0.2-0.8,0.2h-2.1c-0.4,0-0.6-0.1-0.8-0.2c-0.2-0.1-0.2-0.4-0.2-0.7c0-0.3,0.1-0.5,0.2-0.7
		s0.4-0.2,0.7-0.2h0.1v-4h-0.1c-0.3,0-0.5-0.1-0.7-0.2s-0.2-0.4-0.2-0.7c0-0.3,0.1-0.6,0.2-0.7c0.2-0.1,0.4-0.2,0.8-0.2h1.4
		c0.2,0,0.3,0,0.4,0.1c0.1,0.1,0.1,0.1,0.1,0.3v0.6c0.3-0.4,0.6-0.7,1-0.9c0.4-0.2,0.9-0.3,1.4-0.3c0.9,0,1.5,0.3,2,0.8
		c0.4,0.5,0.7,1.4,0.7,2.5V684z"/>
	<path d="M1349.5,678.6h2.5c0.4,0,0.7,0.1,0.8,0.2c0.2,0.1,0.2,0.4,0.2,0.7c0,0.3-0.1,0.6-0.2,0.7c-0.2,0.1-0.4,0.2-0.8,0.2h-2.5
		v2.1c0,0.6,0.1,1,0.3,1.2c0.2,0.2,0.5,0.3,1,0.3c0.4,0,0.9-0.1,1.5-0.4c0.6-0.2,1-0.4,1.2-0.4c0.2,0,0.4,0.1,0.6,0.3
		c0.2,0.2,0.2,0.4,0.2,0.7c0,0.4-0.4,0.8-1.2,1.2c-0.8,0.4-1.6,0.5-2.6,0.5c-0.6,0-1.1-0.1-1.5-0.2s-0.8-0.4-1-0.7
		c-0.2-0.2-0.3-0.5-0.4-0.8s-0.1-0.8-0.1-1.6v-0.2v-2.1h-0.8c-0.4,0-0.6-0.1-0.8-0.2c-0.2-0.1-0.2-0.4-0.2-0.7s0.1-0.6,0.2-0.7
		c0.2-0.1,0.4-0.2,0.8-0.2h0.8v-1.9c0-0.4,0.1-0.7,0.2-0.8c0.2-0.2,0.4-0.2,0.8-0.2s0.6,0.1,0.8,0.2c0.2,0.2,0.2,0.4,0.2,0.8V678.6z
		"/>
	<path d="M1358,682.5c0.1,0.6,0.4,1.1,0.8,1.4c0.4,0.3,1,0.5,1.6,0.5c0.7,0,1.4-0.2,2-0.5s1.1-0.5,1.2-0.5c0.2,0,0.4,0.1,0.5,0.2
		s0.2,0.3,0.2,0.6c0,0.5-0.4,1-1.2,1.3c-0.8,0.4-1.7,0.6-2.9,0.6c-1.3,0-2.4-0.4-3.3-1.1c-0.8-0.8-1.3-1.7-1.3-2.9
		c0-1.2,0.4-2.1,1.3-2.9c0.8-0.8,1.9-1.1,3.3-1.1c1.2,0,2.2,0.4,3,1.1c0.8,0.7,1.2,1.6,1.2,2.6c0,0.3-0.1,0.6-0.2,0.7
		c-0.2,0.1-0.5,0.2-1,0.2H1358z M1362.5,681.2c-0.1-0.5-0.3-0.9-0.7-1.2c-0.4-0.3-0.9-0.4-1.5-0.4c-0.6,0-1.1,0.1-1.5,0.4
		c-0.4,0.3-0.6,0.7-0.8,1.2H1362.5z"/>
	<path d="M1370.1,681.3v2.7h2c0.4,0,0.6,0.1,0.8,0.2s0.2,0.4,0.2,0.7c0,0.3-0.1,0.6-0.2,0.7s-0.4,0.2-0.8,0.2h-4.6
		c-0.4,0-0.7-0.1-0.8-0.2c-0.2-0.1-0.2-0.4-0.2-0.7c0-0.3,0.1-0.5,0.2-0.7s0.4-0.2,0.8-0.2h0.6v-4h-0.4c-0.4,0-0.6-0.1-0.8-0.2
		c-0.2-0.1-0.2-0.4-0.2-0.7c0-0.3,0.1-0.6,0.2-0.7c0.2-0.1,0.4-0.2,0.8-0.2h1.8c0.1,0,0.3,0,0.3,0.1c0.1,0.1,0.1,0.2,0.1,0.3v1.2
		c0.6-0.6,1.2-1.1,1.7-1.4s1.1-0.4,1.7-0.4c0.5,0,1,0.1,1.3,0.4s0.5,0.6,0.5,1c0,0.3-0.1,0.6-0.3,0.8c-0.2,0.2-0.5,0.3-0.9,0.3
		c-0.2,0-0.5-0.1-0.9-0.3s-0.6-0.3-0.7-0.3c-0.3,0-0.6,0.1-0.9,0.4S1370.6,680.8,1370.1,681.3z"/>
	<path d="M1378.4,682.5c0.1,0.6,0.4,1.1,0.8,1.4c0.4,0.3,1,0.5,1.6,0.5c0.7,0,1.4-0.2,2-0.5s1.1-0.5,1.2-0.5c0.2,0,0.4,0.1,0.5,0.2
		c0.1,0.2,0.2,0.3,0.2,0.6c0,0.5-0.4,1-1.2,1.3c-0.8,0.4-1.7,0.6-2.9,0.6c-1.3,0-2.4-0.4-3.3-1.1c-0.8-0.8-1.3-1.7-1.3-2.9
		c0-1.2,0.4-2.1,1.3-2.9c0.8-0.8,1.9-1.1,3.3-1.1c1.2,0,2.2,0.4,3,1.1c0.8,0.7,1.2,1.6,1.2,2.6c0,0.3-0.1,0.6-0.2,0.7
		c-0.2,0.1-0.5,0.2-1,0.2H1378.4z M1382.9,681.2c-0.1-0.5-0.3-0.9-0.7-1.2c-0.4-0.3-0.9-0.4-1.5-0.4c-0.6,0-1.1,0.1-1.5,0.4
		s-0.6,0.7-0.8,1.2H1382.9z"/>
	<path d="M1388.7,685.7c-0.1,0.1-0.3,0.2-0.4,0.3c-0.2,0.1-0.3,0.1-0.5,0.1c-0.2,0-0.4-0.1-0.5-0.2c-0.1-0.1-0.1-0.4-0.1-0.7V684
		c0-0.4,0.1-0.6,0.2-0.8c0.1-0.2,0.3-0.2,0.6-0.2c0.3,0,0.6,0.2,0.8,0.5c0.1,0.2,0.2,0.3,0.3,0.4c0.3,0.2,0.6,0.4,0.9,0.5
		c0.4,0.1,0.8,0.2,1.2,0.2c0.4,0,0.7-0.1,1-0.2c0.2-0.2,0.4-0.4,0.4-0.6c0-0.4-0.6-0.8-1.9-0.9c-0.3,0-0.5-0.1-0.7-0.1
		c-1-0.1-1.7-0.4-2.2-0.8c-0.5-0.4-0.7-0.9-0.7-1.6c0-0.8,0.3-1.4,0.8-1.8c0.6-0.4,1.4-0.6,2.4-0.6c0.4,0,0.7,0,1.1,0.1
		c0.4,0.1,0.8,0.1,1.2,0.3c0.1-0.1,0.2-0.2,0.4-0.3c0.1-0.1,0.3-0.1,0.4-0.1c0.2,0,0.4,0.1,0.5,0.2c0.1,0.1,0.2,0.4,0.2,0.6v1
		c0,0.2-0.1,0.4-0.2,0.6c-0.1,0.1-0.3,0.2-0.5,0.2c-0.2,0-0.6-0.2-1.2-0.6c-0.6-0.4-1.1-0.6-1.7-0.6c-0.4,0-0.8,0.1-1,0.2
		c-0.2,0.1-0.4,0.3-0.4,0.6c0,0.4,0.5,0.6,1.5,0.8c0.3,0,0.5,0.1,0.7,0.1c1.3,0.2,2.1,0.5,2.6,0.8c0.5,0.4,0.7,0.9,0.7,1.6
		c0,0.8-0.3,1.5-0.9,1.9c-0.6,0.5-1.5,0.7-2.6,0.7c-0.4,0-0.9,0-1.3-0.1C1389.5,685.9,1389.1,685.8,1388.7,685.7z"/>
	<path d="M1400.5,678.6h2.5c0.4,0,0.7,0.1,0.8,0.2c0.2,0.1,0.2,0.4,0.2,0.7c0,0.3-0.1,0.6-0.2,0.7c-0.2,0.1-0.4,0.2-0.8,0.2h-2.5
		v2.1c0,0.6,0.1,1,0.3,1.2c0.2,0.2,0.5,0.3,1,0.3c0.4,0,0.9-0.1,1.5-0.4s1-0.4,1.2-0.4c0.2,0,0.4,0.1,0.6,0.3
		c0.2,0.2,0.2,0.4,0.2,0.7c0,0.4-0.4,0.8-1.2,1.2c-0.8,0.4-1.6,0.5-2.6,0.5c-0.6,0-1.1-0.1-1.5-0.2s-0.8-0.4-1-0.7
		c-0.2-0.2-0.3-0.5-0.4-0.8c-0.1-0.3-0.1-0.8-0.1-1.6v-0.2v-2.1h-0.8c-0.4,0-0.6-0.1-0.8-0.2c-0.2-0.1-0.2-0.4-0.2-0.7
		s0.1-0.6,0.2-0.7s0.4-0.2,0.8-0.2h0.8v-1.9c0-0.4,0.1-0.7,0.2-0.8c0.2-0.2,0.4-0.2,0.8-0.2s0.6,0.1,0.8,0.2
		c0.2,0.2,0.2,0.4,0.2,0.8V678.6z"/>
	<path d="M1410.9,682.9h2c0.1,0,0.2,0,0.2,0c0.1,0,0.1,0.1,0.1,0.1c0,0,0,0.1,0,0.1c0,0,0,0.1-0.1,0.1l-2.5,4.9
		c0,0.1-0.1,0.2-0.2,0.2c-0.1,0.1-0.2,0.1-0.2,0.1c0,0,0,0-0.1,0c0,0-0.1,0-0.1,0l-0.6-0.2c-0.1,0-0.2-0.1-0.2-0.1
		c0-0.1-0.1-0.1-0.1-0.2c0-0.1,0-0.1,0-0.1c0,0,0-0.1,0-0.1l1.2-4.3c0-0.2,0.1-0.3,0.2-0.4C1410.5,683,1410.7,682.9,1410.9,682.9z"
		/>
	<path d="M1434.5,677.8h-1.7v6.2h1.4c0.4,0,0.6,0.1,0.8,0.2c0.2,0.1,0.2,0.4,0.2,0.7c0,0.3-0.1,0.6-0.2,0.7s-0.4,0.2-0.8,0.2h-4.9
		c-0.4,0-0.6-0.1-0.8-0.2c-0.2-0.1-0.2-0.4-0.2-0.7c0-0.3,0.1-0.6,0.2-0.7c0.2-0.1,0.4-0.2,0.8-0.2h1.4v-6.2h-1.7l0,1.7v0.2
		c0,0.3-0.1,0.5-0.2,0.6s-0.3,0.2-0.6,0.2c-0.3,0-0.5-0.1-0.7-0.2c-0.1-0.2-0.2-0.4-0.2-0.8v-0.1l0.1-2.5c0-0.5,0.1-0.8,0.2-0.9
		c0.1-0.1,0.4-0.1,0.7-0.1h7.1c0.4,0,0.6,0,0.7,0.1s0.2,0.4,0.2,0.9l0.1,2.5v0.1c0,0.3-0.1,0.6-0.2,0.8c-0.1,0.2-0.4,0.2-0.7,0.2
		c-0.3,0-0.5-0.1-0.6-0.2c-0.1-0.2-0.2-0.4-0.2-0.8L1434.5,677.8z"/>
	<path d="M1439.3,680l0.7,4.1l0.9-3.2c0.1-0.3,0.2-0.6,0.4-0.7c0.1-0.1,0.4-0.2,0.6-0.2s0.5,0,0.6,0.1c0.1,0.1,0.3,0.3,0.4,0.7
		l0.9,3.2l0.6-4.1h-0.1c-0.3,0-0.5-0.1-0.7-0.2c-0.2-0.2-0.2-0.4-0.2-0.7c0-0.3,0.1-0.6,0.2-0.7c0.2-0.1,0.4-0.2,0.8-0.2h2
		c0.4,0,0.7,0.1,0.8,0.2c0.2,0.1,0.2,0.4,0.2,0.7c0,0.3-0.1,0.5-0.2,0.7c-0.2,0.2-0.4,0.2-0.7,0.2h-0.1l-1,5.2
		c-0.1,0.3-0.2,0.5-0.4,0.6s-0.5,0.2-0.9,0.2c-0.4,0-0.7-0.1-0.9-0.2s-0.3-0.3-0.4-0.6l-1-3.2l-0.9,3.2c-0.1,0.3-0.2,0.5-0.4,0.6
		s-0.5,0.2-0.9,0.2c-0.4,0-0.7-0.1-0.9-0.2s-0.3-0.3-0.4-0.6l-1.1-5.2h-0.1c-0.3,0-0.5-0.1-0.7-0.2c-0.2-0.2-0.2-0.4-0.2-0.7
		c0-0.3,0.1-0.6,0.2-0.7c0.2-0.1,0.4-0.2,0.8-0.2h2c0.4,0,0.7,0.1,0.8,0.2c0.2,0.1,0.2,0.4,0.2,0.7c0,0.3-0.1,0.5-0.2,0.7
		c-0.2,0.2-0.4,0.2-0.7,0.2H1439.3z"/>
	<path d="M1453.2,684h1.8c0.4,0,0.7,0.1,0.8,0.2s0.2,0.4,0.2,0.7c0,0.3-0.1,0.6-0.2,0.7c-0.2,0.1-0.4,0.2-0.8,0.2h-5.6
		c-0.4,0-0.6-0.1-0.8-0.2c-0.2-0.1-0.2-0.4-0.2-0.7c0-0.3,0.1-0.5,0.2-0.7c0.2-0.1,0.4-0.2,0.8-0.2h1.8v-4h-0.9
		c-0.4,0-0.6-0.1-0.8-0.2c-0.2-0.1-0.2-0.4-0.2-0.7c0-0.3,0.1-0.6,0.2-0.7c0.2-0.1,0.4-0.2,0.8-0.2h2.5c0.2,0,0.3,0,0.4,0.1
		s0.1,0.2,0.1,0.3V684z M1452.1,674.4c0.4,0,0.7,0.1,0.8,0.2s0.2,0.5,0.2,1.1c0,0.6-0.1,0.9-0.2,1s-0.4,0.2-0.8,0.2
		c-0.4,0-0.7-0.1-0.8-0.2c-0.1-0.1-0.2-0.4-0.2-0.8c0-0.7,0.1-1.2,0.2-1.4C1451.3,674.5,1451.6,674.4,1452.1,674.4z"/>
	<path d="M1461.7,678.6h2.5c0.4,0,0.7,0.1,0.8,0.2c0.2,0.1,0.2,0.4,0.2,0.7c0,0.3-0.1,0.6-0.2,0.7c-0.2,0.1-0.4,0.2-0.8,0.2h-2.5
		v2.1c0,0.6,0.1,1,0.3,1.2c0.2,0.2,0.5,0.3,1,0.3c0.4,0,0.9-0.1,1.5-0.4s1-0.4,1.2-0.4c0.2,0,0.4,0.1,0.6,0.3s0.2,0.4,0.2,0.7
		c0,0.4-0.4,0.8-1.2,1.2c-0.8,0.4-1.6,0.5-2.6,0.5c-0.6,0-1.1-0.1-1.5-0.2s-0.8-0.4-1-0.7c-0.2-0.2-0.3-0.5-0.4-0.8
		c-0.1-0.3-0.1-0.8-0.1-1.6v-0.2v-2.1h-0.8c-0.4,0-0.6-0.1-0.8-0.2c-0.2-0.1-0.2-0.4-0.2-0.7s0.1-0.6,0.2-0.7s0.4-0.2,0.8-0.2h0.8
		v-1.9c0-0.4,0.1-0.7,0.2-0.8c0.2-0.2,0.4-0.2,0.8-0.2s0.6,0.1,0.8,0.2c0.2,0.2,0.2,0.4,0.2,0.8V678.6z"/>
	<path d="M1471.9,678.6h2.5c0.4,0,0.7,0.1,0.8,0.2c0.2,0.1,0.2,0.4,0.2,0.7c0,0.3-0.1,0.6-0.2,0.7c-0.2,0.1-0.4,0.2-0.8,0.2h-2.5
		v2.1c0,0.6,0.1,1,0.3,1.2c0.2,0.2,0.5,0.3,1,0.3c0.4,0,0.9-0.1,1.5-0.4c0.6-0.2,1-0.4,1.2-0.4c0.2,0,0.4,0.1,0.6,0.3
		c0.2,0.2,0.2,0.4,0.2,0.7c0,0.4-0.4,0.8-1.2,1.2c-0.8,0.4-1.6,0.5-2.6,0.5c-0.6,0-1.1-0.1-1.5-0.2s-0.8-0.4-1-0.7
		c-0.2-0.2-0.3-0.5-0.4-0.8s-0.1-0.8-0.1-1.6v-0.2v-2.1h-0.8c-0.4,0-0.6-0.1-0.8-0.2c-0.2-0.1-0.2-0.4-0.2-0.7s0.1-0.6,0.2-0.7
		c0.2-0.1,0.4-0.2,0.8-0.2h0.8v-1.9c0-0.4,0.1-0.7,0.2-0.8c0.2-0.2,0.4-0.2,0.8-0.2s0.6,0.1,0.8,0.2c0.2,0.2,0.2,0.4,0.2,0.8V678.6z
		"/>
	<path d="M1480.4,682.5c0.1,0.6,0.4,1.1,0.8,1.4c0.4,0.3,1,0.5,1.6,0.5c0.7,0,1.4-0.2,2-0.5s1.1-0.5,1.2-0.5c0.2,0,0.4,0.1,0.5,0.2
		s0.2,0.3,0.2,0.6c0,0.5-0.4,1-1.2,1.3c-0.8,0.4-1.7,0.6-2.9,0.6c-1.3,0-2.4-0.4-3.3-1.1c-0.8-0.8-1.3-1.7-1.3-2.9
		c0-1.2,0.4-2.1,1.3-2.9c0.8-0.8,1.9-1.1,3.3-1.1c1.2,0,2.2,0.4,3,1.1c0.8,0.7,1.2,1.6,1.2,2.6c0,0.3-0.1,0.6-0.2,0.7
		c-0.2,0.1-0.5,0.2-1,0.2H1480.4z M1484.9,681.2c-0.1-0.5-0.3-0.9-0.7-1.2c-0.4-0.3-0.9-0.4-1.5-0.4c-0.6,0-1.1,0.1-1.5,0.4
		c-0.4,0.3-0.6,0.7-0.8,1.2H1484.9z"/>
	<path d="M1492.5,681.3v2.7h2c0.4,0,0.6,0.1,0.8,0.2s0.2,0.4,0.2,0.7c0,0.3-0.1,0.6-0.2,0.7s-0.4,0.2-0.8,0.2h-4.6
		c-0.4,0-0.7-0.1-0.8-0.2c-0.2-0.1-0.2-0.4-0.2-0.7c0-0.3,0.1-0.5,0.2-0.7s0.4-0.2,0.8-0.2h0.6v-4h-0.4c-0.4,0-0.6-0.1-0.8-0.2
		c-0.2-0.1-0.2-0.4-0.2-0.7c0-0.3,0.1-0.6,0.2-0.7c0.2-0.1,0.4-0.2,0.8-0.2h1.8c0.1,0,0.3,0,0.3,0.1c0.1,0.1,0.1,0.2,0.1,0.3v1.2
		c0.6-0.6,1.2-1.1,1.7-1.4s1.1-0.4,1.7-0.4c0.5,0,1,0.1,1.3,0.4s0.5,0.6,0.5,1c0,0.3-0.1,0.6-0.3,0.8c-0.2,0.2-0.5,0.3-0.9,0.3
		c-0.2,0-0.5-0.1-0.9-0.3s-0.6-0.3-0.7-0.3c-0.3,0-0.6,0.1-0.9,0.4S1493,680.8,1492.5,681.3z"/>
</g>
<line class="st4" x1="970.4" y1="-11.6" x2="970.4" y2="747.8"/>
</svg>
