<?xml version="1.0" encoding="utf-8"?>
<!-- Generator: Adobe Illustrator 26.0.1, SVG Export Plug-In . SVG Version: 6.00 Build 0)  -->
<svg version="1.1" id="Layer_1" xmlns="http://www.w3.org/2000/svg" xmlns:xlink="http://www.w3.org/1999/xlink" x="0px" y="0px"
	 viewBox="0 0 547.8 552.4" style="enable-background:new 0 0 547.8 552.4;" xml:space="preserve">
<style type="text/css">
	.st0{fill:#FFE255;}
	.st1{enable-background:new    ;}
</style>
<path class="st0" d="M269.8,486.6c-13.9,0-26.8-6.9-34.5-18.5c-11.2-16.9-32.3-24.4-51.6-18.2c-15.1,4.9-31.6,0.6-42.5-10.9
	c-7.8-8.1-11.9-19.1-11.4-30.3c0.8-20.2-11.8-38.6-31.1-45c-21.7-7.2-33.4-30.5-26.3-52.2c1.5-4.6,3.9-8.9,6.9-12.8
	c12.6-15.9,13.1-38.2,1.3-54.7c-13.3-18.5-9.1-44.3,9.4-57.6c4-2.9,8.4-5,13.1-6.3c19.5-5.5,33.1-23.2,33.2-43.4
	c0-22.8,18.5-41.2,41.3-41.1c4.9,0,9.9,0.9,14.5,2.7c5.1,1.9,10.5,2.9,15.9,2.9c14.4,0,28-6.9,36.5-18.5
	c13.5-18.4,39.4-22.4,57.7-8.8c3.9,2.9,7.3,6.4,10,10.5c11.2,16.9,32.3,24.4,51.6,18.2c15.1-4.9,31.6-0.7,42.5,10.8
	c7.8,8.1,11.9,19.1,11.4,30.3c-0.8,20.2,11.8,38.6,31,45c21.7,7.1,33.4,30.5,26.3,52.2c-1.5,4.7-3.9,9-6.9,12.8
	c-12.6,15.9-13.1,38.2-1.4,54.6c13.3,18.5,9.1,44.3-9.4,57.7c-4,2.8-8.4,5-13.1,6.3c-19.5,5.5-33.1,23.2-33.2,43.4
	c0,22.8-18.5,41.2-41.3,41.1c-5,0-9.9-0.9-14.5-2.7c-19-7.1-40.4-0.7-52.5,15.6C295.3,480.4,282.9,486.7,269.8,486.6z"/>
<path d="M278.1,67.8c13.2,0,25.5,6.6,32.8,17.6c11.7,17.7,33.7,25.5,53.9,19c14.3-4.6,30.1-0.6,40.4,10.3
	c7.4,7.7,11.3,18.1,10.8,28.8c-0.9,21.1,12.3,40.3,32.4,47c20.6,6.8,31.8,29,25,49.7c-1.5,4.4-3.7,8.5-6.6,12.2
	c-13.1,16.6-13.7,39.9-1.4,57.1c12.7,17.6,8.7,42.2-9,54.9c-3.8,2.7-8,4.7-12.4,6c-20.4,5.7-34.5,24.2-34.7,45.4
	c0,21.7-17.6,39.2-39.3,39.1c-4.7,0-9.4-0.9-13.8-2.5c-19.8-7.4-42.2-0.8-54.7,16.3c-12.8,17.5-37.4,21.3-54.9,8.5
	c-3.8-2.8-7-6.1-9.5-10c-11.7-17.7-33.7-25.4-53.9-19c-14.3,4.6-30.1,0.6-40.4-10.3c-7.4-7.7-11.3-18.2-10.8-28.9
	c0.9-21.1-12.3-40.3-32.4-47c-20.6-6.8-31.9-29-25.1-49.6c1.5-4.4,3.7-8.6,6.6-12.2c13.1-16.6,13.7-39.9,1.4-57.1
	c-12.7-17.6-8.7-42.2,9-54.9c3.8-2.7,8-4.7,12.5-6c20.4-5.7,34.5-24.2,34.7-45.3c0-21.7,17.6-39.2,39.3-39.1c4.7,0,9.4,0.9,13.8,2.5
	c19.9,7.4,42.2,0.8,54.8-16.3C253.8,73.7,265.6,67.7,278.1,67.8 M278.1,63.8c-13.8,0-26.8,6.5-34.9,17.7l0,0
	c-11.5,15.6-31.9,21.7-50.1,14.9l0,0c-22.3-8.4-47.3,2.8-55.7,25.1c-1.8,4.9-2.8,10-2.8,15.2l0,0c-0.1,19.4-13.1,36.3-31.8,41.5l0,0
	c-23.1,6.4-36.6,30.2-30.2,53.3c1.4,4.9,3.6,9.6,6.6,13.7l0,0c11.3,15.7,10.8,37.1-1.3,52.3l0,0c-14.9,18.7-11.8,46,6.9,60.8
	c4,3.2,8.5,5.6,13.4,7.2l0,0c18.4,6.1,30.5,23.6,29.7,43l0,0c-1.1,23.8,17.3,44.1,41.1,45.2c5.2,0.2,10.4-0.4,15.3-2l0,0
	c18.5-5.9,38.6,1.2,49.3,17.4l0,0c13.2,19.9,40.1,25.4,60,12.2c4.3-2.8,8-6.4,11-10.5l0,0c11.5-15.6,32-21.7,50.1-14.9
	c22.3,8.4,47.3-2.8,55.7-25.1c1.8-4.9,2.8-10,2.8-15.2l0,0c0.1-19.4,13.1-36.3,31.7-41.5l0,0c23.1-6.4,36.6-30.2,30.2-53.3
	c-1.4-4.9-3.6-9.6-6.6-13.7l0,0c-11.3-15.7-10.8-37.1,1.3-52.3l0,0c14.9-18.7,11.8-46-6.9-60.9c-4-3.2-8.5-5.6-13.4-7.2l0,0
	c-18.4-6.1-30.5-23.6-29.7-43l0,0c1.1-23.8-17.3-44.1-41.1-45.2c-5.2-0.2-10.4,0.4-15.3,2c-18.5,5.9-38.6-1.2-49.3-17.4l0,0
	C306.2,71.1,292.6,63.8,278.1,63.8L278.1,63.8z"/>
<g class="st1">
	<path d="M234.1,195.1l-0.9-10.1h-11l-0.4-7.1h28.9l-0.4,7.1h-10.9l-0.9,10.1l2.2,10.8l-4.4-0.1l-4.4,0.1L234.1,195.1z"/>
	<path d="M277.7,204.2c-3.7,1.6-7.4,2.3-11.1,2.3c-8.1,0-14-3.7-14-11.1c0-6.7,5-11.7,13.2-11.7c6.4,0,12,2.9,12,10.2
		c0,0.9-0.1,2-0.3,3.2l-20.3,0.1c0,2.6,4.4,3.4,8.3,3.4c3.7,0,7.3-0.6,10.3-2.1L277.7,204.2z M273.2,194.1c0-2.7-3.1-4.5-7.8-4.5
		c-4.9,0-8.1,1.8-8.1,4.5H273.2z"/>
	<path d="M281.6,197c3.3,1.9,8.3,3.6,13.2,3.6c3.3,0,4.3-0.7,4.3-1.7c0-4-17.8,0.5-17.8-8.4c0-4.8,5.5-6.6,12-6.6
		c3.3,0,6.5,0.7,9.4,2.2l-1.7,5.8c-2.8-1-6.8-1.8-10.8-1.8c-1.7,0-4.2,0.2-4.2,1.5c0,3.6,17.8-0.9,17.8,8.3c0,4.9-5.1,6.9-10.4,6.9
		c-4.8,0-10-1.5-13.1-3.8L281.6,197z"/>
	<path d="M321,199.3c1.5,0,2.8-0.3,4.3-0.7l0.7,6.5c-2.4,0.9-5,1.5-8.1,1.5c-7.5,0-8.5-3.5-7.6-7.1l1.1-4.3v-5.1h-5l0.2-2.7
		l-0.2-2.9h4.2l-1.8-7.5l4.6,0.1l4.4-0.1l-1.6,7.5h7.6l-0.2,2.9l0.1,2.8h-8.4v5.1C315.4,197.9,317.8,199.3,321,199.3z"/>
</g>
<g class="st1">
	<path d="M188.8,236v0.7l-8,13.8l-5.1,9.8c-2,3.6-7.6,6.1-14.1,4.1l0.6-7.1c3.7,1.1,7.8,1.4,9.2-1.5l-2.7-5.3l-8-13.7V236h8.4
		l5.3,16.6L180,236H188.8z"/>
	<path d="M190.1,246.8c0-6.5,5.2-11.4,13.2-11.4s13.2,4.8,13.2,11.4c0,7.2-5.4,11.4-13.2,11.4S190.1,254,190.1,246.8z M211.8,247
		c0-2.1-2.5-4.5-8.6-4.5c-6.1,0-8.6,2.4-8.6,4.5c0,2.4,3.3,4,8.6,4C208.5,251.1,211.8,249.4,211.8,247z"/>
	<path d="M244.9,246.8l2.2,10.7l-4.4-0.1l-2.6,0.1l0.1-5.1c-2.9,3.4-6.1,5.7-10.4,5.7c-4.8,0-9.6-2.7-8.3-7.9l0.9-3.4l-2.1-10.7
		l4.3,0.1l4.3-0.1l-2.1,10.7c-0.5,2.4,1.6,4.2,5.3,4.2c2.8,0,5.5-1,8.2-2.9l-2-12l4.4,0.1l4.4-0.1L244.9,246.8z"/>
	<path d="M254.4,246.8l-2.2-10.7l4.4,0.1l2.7-0.1l-0.3,5.1c2.7-3.2,6.4-5.6,10.2-5.6v7.1c-0.3,0-0.7-0.1-1.2-0.1
		c-2.9,0-6.3,1.1-9.2,3.1l2.2,11.9l-4.4-0.1l-4.4,0.1L254.4,246.8z"/>
	<path d="M286.5,246.8c0-6.5,5.2-11.4,13.2-11.4s13.2,4.8,13.2,11.4c0,7.2-5.4,11.4-13.2,11.4C291.9,258.1,286.5,254,286.5,246.8z
		 M308.3,247c0-2.1-2.5-4.5-8.6-4.5c-6.1,0-8.6,2.4-8.6,4.5c0,2.4,3.3,4,8.6,4C305,251.1,308.3,249.4,308.3,247z"/>
	<path d="M344.9,257.5l-2.9-0.1l-3.1,0.1l-2.2-7l-2.9-7.9l-3,7.9l-2.2,7l-3-0.2l-2.9,0.2l-2.5-7l-6.1-14.5h8.9l2.3,17.2l6.5-17.1
		l2,0.1l2-0.1l6.1,17.2l2.5-17.2h8.9l-6,14.5L344.9,257.5z"/>
	<path d="M358.2,246.8L356,236l4.4,0.1l4.4-0.1l-0.9,4c2.7-2.9,6.4-4.6,10.3-4.6c4.8,0,9.6,2.7,8.3,7.9l-0.9,3.4l2.1,10.7l-4.3-0.1
		l-4.3,0.1l2.1-10.7c0.5-2.4-1.6-4.2-5.3-4.2c-2.9,0-6.3,1.1-9.2,3.1l2.2,11.9l-4.4-0.1l-4.4,0.1L358.2,246.8z"/>
</g>
<g class="st1">
	<path d="M210.3,309.1l-2.9-0.1l-3.1,0.1l-2.1-7l-2.9-7.9l-3,7.9l-2.2,7l-3-0.2l-2.9,0.2l-2.5-7l-6.1-14.5h8.9l2.3,17.2l6.5-17.1
		l2,0.1l2-0.1l6.1,17.2l2.5-17.2h8.9l-6,14.5L210.3,309.1z"/>
	<path d="M245.2,307.4c-3.7,1.6-7.4,2.3-11.1,2.3c-8.1,0-14-3.7-14-11.1c0-6.7,5-11.7,13.2-11.7c6.4,0,12,2.9,12,10.2
		c0,0.9-0.1,2-0.3,3.2l-20.3,0.1c0,2.6,4.4,3.4,8.3,3.4c3.7,0,7.3-0.6,10.3-2.1L245.2,307.4z M240.7,297.3c0-2.7-3.1-4.5-7.8-4.5
		c-4.9,0-8.1,1.8-8.1,4.5H240.7z"/>
	<path d="M256.7,291.4c2.6-2.6,5.9-4.4,9.5-4.4c6.6,0,11.6,5.7,11.6,11.4c0,6-4.9,11.4-11.3,11.4c-4.1,0-8.3-2-10.5-5.2l0.2,4.5
		l-2.7-0.1l-4.4,0.1l2.2-10.7l-2.2-19.3l4.4,0.1l4.4-0.1L256.7,291.4z M255.8,299.9c3.2,2.3,7,2.6,9,2.6c4.6,0,8.3-1.7,8.3-4.1
		s-3.8-4.3-8.7-4.3c-2.5,0-5.5,0.4-8.3,2.5l-0.3,3V299.9z"/>
	<path d="M281.7,300.2c3.3,1.9,8.3,3.6,13.2,3.6c3.3,0,4.3-0.7,4.3-1.7c0-4-17.8,0.5-17.8-8.4c0-4.8,5.5-6.6,12-6.6
		c3.3,0,6.5,0.7,9.4,2.2l-1.7,5.8c-2.8-1-6.8-1.8-10.8-1.8c-1.7,0-4.2,0.2-4.2,1.5c0,3.6,17.8-0.9,17.8,8.3c0,4.9-5.1,6.9-10.4,6.9
		c-4.8,0-10-1.5-13.1-3.8L281.7,300.2z"/>
	<path d="M307.8,275.9l4.6,0.1l4.4-0.1v7.2h-8.9V275.9z M310,298.4l-2.2-10.7l4.4,0.1l4.4-0.1l-2.2,10.7l2.2,10.7l-4.4-0.1l-4.4,0.1
		L310,298.4z"/>
	<path d="M335.2,302.5c1.5,0,2.8-0.3,4.3-0.7l0.7,6.5c-2.4,0.9-5,1.5-8.1,1.5c-7.5,0-8.5-3.5-7.6-7.1l1.1-4.3v-5.1h-5l0.2-2.7
		l-0.2-2.9h4.2l-1.8-7.5l4.6,0.1l4.4-0.1l-1.6,7.5h7.6l-0.2,2.9l0.1,2.8h-8.4v5.1C329.6,301.1,332,302.5,335.2,302.5z"/>
	<path d="M367,307.4c-3.7,1.6-7.4,2.3-11.1,2.3c-8.1,0-14-3.7-14-11.1c0-6.7,5-11.7,13.2-11.7c6.4,0,12,2.9,12,10.2
		c0,0.9-0.1,2-0.3,3.2l-20.3,0.1c0,2.6,4.4,3.4,8.3,3.4c3.7,0,7.3-0.6,10.3-2.1L367,307.4z M362.6,297.3c0-2.7-3.1-4.5-7.8-4.5
		c-4.9,0-8.1,1.8-8.1,4.5H362.6z"/>
</g>
<g class="st1">
	<path d="M223.1,342.7c2.6-2.6,6.1-4.1,9.8-4.1c4.8,0,9.6,2.7,8.3,7.9l-0.9,3.4l2.1,10.7l-4.3-0.1l-4.3,0.1l2.1-10.7
		c0.5-2.4-1.6-4.2-5.3-4.2c-2.5,0-5.5,0.9-8.2,2.4l2.2,12.5l-4.4-0.1l-4.4,0.1l2.2-10.7l-2.2-19.3l4.4,0.1l4.4-0.1L223.1,342.7z"/>
	<path d="M271.3,359c-3.7,1.6-7.4,2.3-11.1,2.3c-8.1,0-14-3.7-14-11.1c0-6.7,5-11.7,13.2-11.7c6.4,0,12,2.9,12,10.2
		c0,0.9-0.1,2-0.3,3.2l-20.3,0.1c0,2.6,4.4,3.4,8.3,3.4c3.7,0,7.3-0.6,10.3-2.1L271.3,359z M266.8,348.9c0-2.7-3.1-4.5-7.8-4.5
		c-4.9,0-8.1,1.8-8.1,4.5H266.8z"/>
	<path d="M277.4,350l-2.2-10.7l4.4,0.1l2.7-0.1l-0.3,5.1c2.7-3.2,6.4-5.6,10.2-5.6v7.1c-0.3,0-0.7-0.1-1.2-0.1
		c-2.9,0-6.3,1.1-9.2,3.1l2.2,11.9l-4.4-0.1l-4.4,0.1L277.4,350z"/>
	<path d="M319.5,359c-3.7,1.6-7.4,2.3-11.1,2.3c-8.1,0-14-3.7-14-11.1c0-6.7,5-11.7,13.2-11.7c6.4,0,12,2.9,12,10.2
		c0,0.9-0.1,2-0.3,3.2l-20.3,0.1c0,2.6,4.4,3.4,8.3,3.4c3.7,0,7.3-0.6,10.3-2.1L319.5,359z M315.1,348.9c0-2.7-3.1-4.5-7.8-4.5
		c-4.9,0-8.1,1.8-8.1,4.5H315.1z"/>
	<path d="M324.1,344.5l-2-14.6l5,0.1l5-0.1l-2,14.6v6.3h-6V344.5z M322.6,353.4l4.6,0.1l4.4-0.1v7.2h-8.9V353.4z"/>
</g>
</svg>
