<?xml version="1.0" encoding="utf-8"?>
<!-- Generator: Adobe Illustrator 26.0.1, SVG Export Plug-In . SVG Version: 6.00 Build 0)  -->
<svg version="1.1" xmlns="http://www.w3.org/2000/svg" xmlns:xlink="http://www.w3.org/1999/xlink" x="0px" y="0px"
	 viewBox="0 0 1920 1451.9" style="enable-background:new 0 0 1920 1451.9;" xml:space="preserve">
<style type="text/css">
	.st0{fill:none;stroke:#1A1A1A;stroke-width:4;stroke-linejoin:bevel;}
	.st1{fill:#FFFFFF;stroke:#000000;stroke-width:4;stroke-miterlimit:10;}
	.st2{fill:none;stroke:#000000;stroke-width:2;stroke-miterlimit:10;}
	.st3{fill:#141414;}
	.st4{fill:#272727;}
	.st5{fill:#3B3B3B;}
	.st6{fill:#4E4E4E;}
	.st7{fill:#626262;}
	.st8{fill:#767676;}
	.st9{fill:#898989;}
	.st10{fill:#9D9D9D;}
	.st11{fill:#B1B1B1;}
	.st12{fill:#C4C4C4;}
	.st13{fill:#D8D8D8;}
	.st14{fill:#EBEBEB;}
	.st15{fill:#FFFFFF;}
	.st16{fill:none;stroke:#1A1A1A;stroke-width:9.69;stroke-linecap:round;stroke-linejoin:round;}
	.st17{fill:#1A1A1A;}
	.st18{fill:#FFFFFF;stroke:#000000;stroke-width:3.99;stroke-miterlimit:10;}
</style>
<g id="Layer_1">
	<circle class="st0" cx="960" cy="723.1" r="636.6"/>
	<path class="st0" d="M960,723.1V86.5c0,0-188.8,116.7-188.8,636.6"/>
	<path class="st0" d="M593.7,723.1C593.7,188,960,86.5,960,86.5s-505.7,76.1-505.7,636.6"/>
	<path class="st0" d="M727.2,130.4c0.6-0.2,33.8,103.7,232.8,103.7"/>
	<path class="st0" d="M510.4,272.5c0,0,55.5,156.8,449.6,156.8"/>
	<path class="st0" d="M395.1,429.3c0,0,71.8,180,564.8,180"/>
	<path class="st0" d="M960,723.1V86.5c0,0,188.8,116.7,188.8,636.6"/>
	<path class="st0" d="M1326.3,723.1C1326.3,188,960,86.5,960,86.5s505.7,76.1,505.7,636.6"/>
	<path class="st0" d="M1192.8,130.4c-0.6-0.2-33.8,103.7-232.8,103.7"/>
	<path class="st0" d="M1409.6,272.5c0,0-55.4,156.8-449.6,156.8"/>
	<path class="st0" d="M1524.8,429.3c0,0-71.8,180-564.8,180"/>
	<line class="st0" x1="323.4" y1="723.1" x2="1596.6" y2="723.1"/>
	<path class="st0" d="M960,723.4v636.6c0,0,188.8-116.7,188.8-636.6"/>
	<path class="st0" d="M1326.3,723.4c0,535.1-366.3,636.6-366.3,636.6s505.7-76.1,505.7-636.6"/>
	<path class="st0" d="M1192.8,1316c-0.6,0.2-33.8-103.7-232.8-103.7"/>
	<path class="st0" d="M1409.6,1174c0,0-55.4-156.9-449.6-156.9"/>
	<path class="st0" d="M1524.8,1017.1c0,0-71.8-180-564.8-180"/>
	<path class="st0" d="M960,723.4v636.6c0,0-188.8-116.7-188.8-636.6"/>
	<path class="st0" d="M593.7,723.4c0,535.1,366.3,636.6,366.3,636.6s-505.7-76.1-505.7-636.6"/>
	<path class="st0" d="M727.2,1316c0.6,0.2,33.8-103.7,232.8-103.7"/>
	<path class="st0" d="M510.4,1174c0,0,55.5-156.9,449.6-156.9"/>
	<path class="st0" d="M395.1,1017.1c0,0,71.8-180,564.8-180"/>
	<path class="st1" d="M1659.5,612c-5,0-9.9,0.8-14.6,2.2c-13.5-35.2-41.8-59.4-74.6-59.4c-25.5,0-48.4,14.7-63.6,37.8
		c-37.4-16.7-81.3,0.1-98,37.6c-4.2,9.5-6.4,19.8-6.4,30.2h305.6C1707.9,633.7,1686.3,612,1659.5,612L1659.5,612z"/>
	<path class="st1" d="M1493.2,308.2l62.9,18.1c5.2,1.5,8.3,7,6.7,12.2l-36.6,126.8c-1.5,5.2-7,8.3-12.2,6.7l-62.9-18.1
		c-5.2-1.5-8.3-7-6.7-12.2l36.6-126.8C1482.5,309.7,1487.9,306.6,1493.2,308.2z"/>
	<rect x="1447" y="350.4" transform="matrix(0.2771 -0.9608 0.9608 0.2771 719.5875 1723.7828)" width="116.8" height="66.4"/>
	<circle class="st2" cx="1486" cy="450.9" r="6.4"/>
	<path class="st1" d="M703.9,354.3l171.3-35.2c5.5-1.1,10.8,2.4,12,7.9l21.1,102.7c1.1,5.5-2.4,10.8-7.9,12l-171.3,35.2
		c-5.5,1.1-10.8-2.4-12-7.9L696,366.3C694.9,360.8,698.4,355.4,703.9,354.3z"/>
	
		<rect x="792.7" y="458.9" transform="matrix(0.9796 -0.2011 0.2011 0.9796 -78.725 174.1481)" class="st1" width="50.3" height="31.3"/>
	
		<rect x="772" y="489.9" transform="matrix(0.9796 -0.2011 0.2011 0.9796 -82.7011 175.3973)" class="st1" width="100" height="9.8"/>
	<rect x="711.9" y="343.4" transform="matrix(0.9796 -0.2011 0.2011 0.9796 -62.2797 168.9955)" width="177.7" height="95.3"/>
	<circle cx="821" cy="387.6" r="2.9"/>
	<circle class="st3" cx="817.1" cy="379" r="2.9"/>
	<circle class="st4" cx="810.2" cy="373.2" r="2.9"/>
	<circle class="st5" cx="801.5" cy="371.4" r="2.9"/>
	<circle class="st6" cx="792.5" cy="374.3" r="2.9"/>
	<circle class="st7" cx="786.2" cy="380.7" r="2.9"/>
	<circle class="st8" cx="783.5" cy="389.3" r="2.9"/>
	<circle class="st9" cx="785.2" cy="398.6" r="2.9"/>
	<circle class="st10" cx="790.8" cy="405.7" r="2.9"/>
	<circle class="st11" cx="798.9" cy="409.5" r="2.9"/>
	<circle class="st12" cx="808.3" cy="409.1" r="2.9"/>
	<circle class="st13" cx="816.3" cy="404.5" r="2.9"/>
	<circle class="st14" cx="820.8" cy="397" r="2.9"/>
	<circle class="st15" cx="821.1" cy="387.6" r="2.9"/>
	<path class="st16" d="M1017,535.1c20.4-24.7,54.3-33.7,84.3-22.4"/>
	<path class="st16" d="M1031.8,547.7c15.2-18.6,40.6-25.4,63-16.8"/>
	<path class="st16" d="M1046.5,560.2c10-12.5,26.9-17,41.7-11.1"/>
	<circle class="st17" cx="1071.8" cy="571.4" r="8.5"/>
	<circle cx="1279.9" cy="273.9" r="46.7"/>
	<path class="st15" d="M1301.8,271.9c0.9,0.5,1.2,1.6,0.7,2.5c-0.2,0.3-0.4,0.5-0.7,0.7l-16.4,9.5l-16.4,9.4c-0.9,0.5-2,0.2-2.5-0.7
		c-0.2-0.3-0.2-0.6-0.2-0.9v-37.9c0-1,0.8-1.8,1.8-1.8c0.3,0,0.6,0.1,0.9,0.2l16.4,9.5L1301.8,271.9z"/>
	<path d="M1139.6,326.6c-2.1,21.1-47.8,73.8-47.8,73.8S1061,340.2,1063,319c2.3-21.1,21.3-36.3,42.4-34
		C1126.2,287.3,1141.4,305.8,1139.6,326.6L1139.6,326.6z"/>
	<circle class="st15" cx="1101.5" cy="320.8" r="18.3"/>
	<g id="v8VwRN.tif">
		<path d="M1230.1,478.4c2.2,0.5,4.5,0.9,6.7,1.4c0.5,0,0.9,0.4,0.9,0.9c1.2,9,2.5,17.9,3.7,26.9c0,0.3,0.1,0.5,0.2,0.7l5.4-26.3
			l7.1,1.5l-9,44.2l-3.4-0.3c-1.4-0.1-2.8-0.3-4.2-0.4c-0.5,0-0.7-0.2-0.8-0.7c-1.1-8.2-2.3-16.5-3.4-24.7c0-0.3-0.1-0.6-0.2-0.8
			l-5.2,25.4c-1.4-0.1-2.8-0.2-4.2-0.3c-0.8-0.1-1.7-0.1-2.6-0.1l-0.7-0.1L1230.1,478.4z"/>
		<path d="M1393.9,561l-4.2-1.5c-0.7-0.2-1.4-0.5-2.2-0.7c-0.5-0.1-0.8-0.5-0.8-0.9c-0.6-4.6-1.3-9.2-1.9-13.8
			c0-0.2-0.1-0.4-0.1-0.8c-0.2,0.3-0.4,0.5-0.5,0.7c-2.4,3.5-4.7,7.1-7.1,10.6c-0.2,0.5-0.7,0.7-1.2,0.5c0,0,0,0-0.1,0
			c-1.8-0.6-3.7-1.2-5.5-1.7l-0.8-0.3l0.6-1c4.2-6.3,8.4-12.7,12.6-19c0.2-0.4,0.3-0.8,0.3-1.2c-1-7.3-2-14.6-3-21.9
			c0-0.2,0-0.5-0.1-0.7l7.4,1.5c0.6,4.2,1.2,8.4,1.8,12.7c0.2-0.3,0.4-0.5,0.5-0.7c2.1-3.2,4.2-6.4,6.3-9.6c0.2-0.4,0.7-0.6,1.1-0.5
			c2,0.5,4.1,0.8,6.1,1.3l0.7,0.2c-0.2,0.3-0.3,0.5-0.4,0.7c-4.2,6.3-8.4,12.6-12.5,18.8c-0.2,0.3-0.3,0.7-0.3,1.1
			c1.2,8.8,2.4,17.5,3.6,26.3c0,0.1,0,0.1,0.1,0.2L1393.9,561z"/>
		<path d="M1262.2,485l17.7,3.6l-1.4,6.8l-10.2-2.1l-2.4,11.5l8.8,1.8l-1.4,6.9l-8.8-1.8l-2.2,10.9l10.3,1.4l-1.4,6.8l-17.9-2.3
			L1262.2,485z"/>
		<path d="M1315.7,496l17.7,3.6l-1.4,6.8l-10.2-2.1l-2.3,11.5l8.8,1.8l-1.4,6.8l-8.9-1.8l-3.3,16l-7.4-1.5L1315.7,496z"/>
		<path d="M1293.1,534.4l-7.5-1.3l7.1-34.7l-6.9-1.4l1.4-6.8l21.2,4.3l-1.4,6.8l-6.9-1.4L1293.1,534.4z"/>
		<path d="M1341,537.6l10.1,2.7l-1.4,6.8l-17.5-4.5l8.5-41.5l7.4,1.5L1341,537.6z"/>
		<path d="M1365.5,506.2l7.4,1.5l-8.9,43.5l-4.1-1.2c-0.8-0.2-1.6-0.5-2.5-0.7c-0.6-0.1-0.7-0.4-0.6-0.9c1.3-6.5,2.7-13.1,4-19.7
			l4.4-21.7L1365.5,506.2z"/>
	</g>
	<path class="st18" d="M550.1,506.9c-8,0-15.9,1.2-23.5,3.6c-21.6-57-67.3-96.3-120.1-96.3c-41.1,0-77.8,23.8-102.3,61.2
		c-15.3-6.9-31.9-10.4-48.6-10.4c-66,0-119.4,53.8-119.4,120.2H628C628,542,593.1,506.9,550.1,506.9z"/>
	<path d="M996.6,174.9l-81.4,16.8c-5.5,1.1-9.1,6.5-7.9,12.1l8.2,39.7c1.1,5.5,6.5,9,12,7.9l27.3-5.6l17.3,16.2l9.5-21.7l27.3-5.6
		c5.5-1.1,9.1-6.5,7.9-12.1l-8.2-39.7C1007.5,177.3,1002.1,173.8,996.6,174.9z"/>
	<path class="st15" d="M950.5,201.2c-5.5,1.1-5.7,7.9-5.7,7.9s-2.8-6.1-8.3-5s-7.2,7.1-5.9,10.7c3,8.3,18.3,14,18.3,14
		s11.8-11.3,11.3-20.1C960,204.9,956.1,200.1,950.5,201.2z"/>
	<path class="st15" d="M978.7,215.9l4.6-0.9l-2.8-13.4l-3.8,0.8l-0.5-2.3c1.6-0.6,3.1-1.5,4.4-2.7l2.8-0.6l3.6,17.5l4-0.8l0.6,3
		l-12.3,2.6L978.7,215.9z"/>
	<g id="he9QYG">
		<path class="st15" d="M642.4,230.8l73.4-6.9c3.9-0.4,7.3,2.5,7.6,6.3l4.1,43.5c0.4,3.9-2.5,7.3-6.3,7.6l-73.4,6.9
			c-3.9,0.4-7.3-2.5-7.6-6.3l-4.1-43.5C635.7,234.6,638.5,231.2,642.4,230.8z"/>
		<path d="M645.5,225.8c6-0.7,11.7-1.4,17.3-1.9c10.9-1,21.8-2,32.7-3c5.1-0.4,10.2-0.7,15.3-0.9c2.6-0.2,5.3-0.2,7.9,0.1
			c5,0.7,8.5,3.6,10.8,8c1.1,2.2,1.3,4.5,1.7,6.9s0.6,4.6,0.8,6.8c0.6,5.6,1.2,11.2,1.7,16.8c0.3,3.7,0.3,7.4,0.4,11.1
			c0.2,2.6-0.2,5.3-1.1,7.7c-1.7,4.1-5.1,7.1-9.3,8.4c-1.9,0.5-3.9,0.8-5.8,0.9c-5.8,0.7-11.6,1.3-17.3,1.9
			c-6.3,0.7-12.6,1.3-18.9,1.9c-3,0.3-6,0.5-9,0.7c-4.9,0.3-9.8,0.6-14.7,0.9c-3,0.2-6.1,0.3-9.1,0.3c-2.2,0-4.3-0.6-6.2-1.6
			c-4.1-2.1-6.9-6-7.6-10.5c-0.6-3.3-1-6.7-1.4-10.1c-0.5-4.4-1-8.8-1.4-13.3c-0.3-3.3-0.3-6.7-0.5-10c-0.1-1.9-0.1-3.8-0.2-5.7
			c-0.2-3.5,0.8-6.9,2.9-9.7c2.1-2.8,5.2-4.8,8.7-5.4C643.9,226,644.8,225.9,645.5,225.8z M682.6,232.6l3.9,45.1l6.2-0.5l-0.2-2.1
			c0.9,0.6,1.8,1.2,2.7,1.6c3.2,1.4,6.8,0,7.8-3c0.3-1,0.5-2,0.4-3.1c-0.7-7.6-1.2-15.2-2.2-22.8c-0.2-3-2.8-5.2-5.8-5
			c-0.9,0.1-1.8,0.4-2.6,0.9c-1,0.7-2,1.5-2.9,2.4l-1.2-14L682.6,232.6z M725.4,258.6c-0.5-3.9-0.9-7.7-1.4-11.4
			c-0.2-1.7-1-3.2-2.2-4.4c-2.9-3-9.1-2.8-12.3,0.1c-2.6,2.3-3.2,5.2-3,8.5c0.5,5.3,0.9,10.6,1.4,15.8c0.1,2.1,0.9,4.2,2.3,5.8
			c2.3,2.8,5.3,3.3,8.7,2.7c2.5-0.3,4.7-1.7,6-3.9c1.6-3.1,1.2-6.5,0.8-9.8l-6.2,0.5c0.1,1.8,0.2,3.4,0.2,5s-0.7,2.3-2,2.4
			c-1.8,0.2-2.7-0.2-3-1.8c-0.5-2.8-0.8-5.6-1.1-8.5L725.4,258.6z M680.4,278.2l-2.9-33.4l-6.1,0.5l0.1,1.2c0.6,7.4,1.2,14.7,2,22.1
			c0.2,1.4-0.4,2.7-1.5,3.5c-0.2,0.2-0.5,0.4-0.8,0.6c-1.4,0.9-2.6,0.3-2.8-1.3l-2-23.6c-0.1-0.6-0.1-1.3-0.2-1.9l-6.2,0.5
			c0,0.4,0.1,0.7,0.1,1c0.8,9.1,1.6,18.2,2.4,27.3c0.1,0.8,0.3,1.7,0.6,2.5c0.6,1.8,2.4,3,4.2,2.7c1.4-0.1,2.7-0.7,3.7-1.6
			c1-0.9,2-1.9,3-2.9l0.3,3.4L680.4,278.2z M656,280.3l-3.3-38.1l7-0.6l-0.6-7l-21,1.8l0.6,7.1l7.1-0.6l3.3,38.1L656,280.3z"/>
		<path d="M587,269.6c-0.3-3-0.5-5.9-0.8-8.9c-0.3-4,1.5-6.9,5.3-8.3c2.5-1,5.2-0.9,7.6,0.1c2.3,1,4,3.1,4.3,5.6
			c0.5,2.5,0.7,5.1,0.9,7.7c0.3,3.6,0.7,7.2,0.9,10.8c0.3,2.6-0.5,5.2-2.3,7.2c-1.5,1.4-3.4,2.3-5.4,2.4c-2.2,0.3-4.4-0.1-6.3-1.2
			c-1.6-1.1-2.8-2.7-3.2-4.6c-0.3-1.3-0.5-2.7-0.6-4C587.4,274.1,587.2,271.8,587,269.6z M598.4,268.7L598.4,268.7
			c-0.3-3.2-0.5-6.4-0.8-9.5c0-0.3-0.1-0.5-0.2-0.7c-0.8-1-2.2-1.4-3.4-0.9c-1.1,0.3-1.7,1.3-1.5,2.4c0.5,6.3,1.1,12.6,1.7,18.9
			c0.1,1.2,1.1,2.1,2.3,2c0.1,0,0.2,0,0.3-0.1c1.4,0,2.5-1.1,2.5-2.5c0,0,0-0.1,0-0.1C599,275,598.7,271.8,598.4,268.7L598.4,268.7z
			"/>
		<path d="M561.8,243.5c2.2-0.2,4.2-0.4,6.2-0.5c0.3,0,0.7,0.4,0.8,0.7c1.8,5.3,3.7,10.6,5.5,15.9c0.1,0.3,0.3,0.6,0.5,0.9h0.3
			c0.2-1.1,0.4-2.2,0.5-3.2c0.5-3.8,1.1-7.5,1.6-11.2c0.2-1.1,0.3-2.2,0.6-3.2c0.1-0.4,0.4-0.6,0.8-0.7c2-0.2,4-0.4,6.1-0.6
			c-0.4,1.9-0.8,3.8-1.2,5.7l-3.3,16c-0.1,0.6-0.3,1.1-0.5,1.7c-1,2.9-0.4,5.9-0.2,8.9c0.3,3.9,0.7,7.9,1,11.8l0.1,1.2l-6.3,0.5
			c-0.7,0.1-0.6-0.5-0.6-0.9c-0.3-3.2-0.6-6.5-0.8-9.7c-0.1-2.1-0.3-4.2-0.6-6.3c-0.5-1.9-1.1-3.7-1.9-5.4
			c-1.8-4.6-3.6-9.1-5.4-13.6C564,248.8,562.9,246.2,561.8,243.5z"/>
		<path d="M619.8,250.4l5.9-0.5l2.8,32.6l-5.9,0.5l-0.3-3.2c-1.1,1.1-2.2,2.2-3.4,3.2c-1.5,1.2-3.9,2-5.9,0.8
			c-0.6-0.3-1-0.8-1.3-1.4c-0.4-1-0.7-2.1-0.9-3.1c-0.8-9.1-1.6-18.3-2.4-27.4c0-0.1,0-0.2,0-0.4l5.9-0.5c0,0.3,0.1,0.7,0.1,1
			c0.7,7.5,1.3,15,2,22.6c0.1,0.6,0.1,1.3,0.2,1.9c0.2,1.7,1.4,2.2,2.8,1.3c0.7-0.5,1.4-1.1,2-1.8c0.2-0.3,0.3-0.6,0.3-1
			c-0.7-7.9-1.3-15.8-2-23.6C619.8,251,619.8,250.8,619.8,250.4z"/>
		<path d="M696.3,260.6c0.2,2.9,0.5,5.8,0.8,8.7c0.1,1.4-0.3,2.3-1.2,2.7c-1.3,0.4-2.6,0-3.6-0.9c-0.1-0.3-0.2-0.5-0.2-0.8
			l-1.7-18.9c-0.1-1,0.6-2,1.6-2.2c1-0.5,2.2-0.2,2.8,0.7c0.4,0.6,0.6,1.4,0.7,2.1C695.8,254.7,696,257.6,696.3,260.6z"/>
		<path d="M713,253.9c0-1.7-0.1-3.3,0-5c0.1-1.1,1-1.9,2.1-1.9c0,0,0,0,0,0c1.4-0.1,2.3,0.2,2.6,1.5c0.4,1.6,0.6,3.2,0.9,4.9
			L713,253.9z"/>
	</g>
	<path class="st15" d="M752.1,576.6l46.8,12.7c4.5,1.2,7.2,5.9,6,10.4l-12.7,46.8c-1.2,4.5-5.9,7.2-10.4,6L735,639.7
		c-4.5-1.2-7.2-5.9-6-10.4l12.7-46.8C742.9,578,747.6,575.3,752.1,576.6z"/>
	<g id="j9Cxd5">
		<path d="M758.5,651.9c-4-0.9-8-1.8-12-2.8c-3.3-0.7-6.6-1.8-9.7-3.2c-5.2-2.4-9.1-6.9-10.7-12.4c-0.9-3-1.1-6.2-0.7-9.3
			c0.7-4.7,1.6-9.4,2.7-14c1.2-5.1,2.3-10.2,3.6-15.3c0.7-3.3,1.7-6.5,2.9-9.6c2.4-5.6,6.2-9.8,12.1-11.9c3.3-1.2,6.8-1.6,10.3-1.1
			c4.1,0.6,8.1,1.4,12.2,2.3c5.9,1.3,11.7,2.7,17.6,4.1c3.4,0.7,6.6,1.7,9.8,3.1c5.8,2.6,9.9,6.8,11.7,13c0.9,3.3,1.1,6.8,0.6,10.2
			c-0.7,5.2-2,10.3-3.2,15.4c-1.1,4.7-2.2,9.5-3.4,14.2c-0.7,3.3-1.7,6.5-3.2,9.6c-3.8,7.5-9.8,11.5-18.2,11.8c-3,0-5.9-0.3-8.8-1
			c-4.6-1-9.1-2-13.7-2.9L758.5,651.9z M760,645.2V645c4,0.9,7.9,1.9,11.8,2.7c2.7,0.7,5.5,1.1,8.3,1.2c5.8,0,10-2.5,12.6-7.7
			c1.3-2.9,2.3-6,2.9-9.1c1.5-6.2,2.9-12.4,4.3-18.7c0.9-3.7,1.6-7.4,2-11.2c0.7-6-2.6-11.7-8.1-14c-2.8-1.2-5.7-2.1-8.7-2.7
			c-5.3-1.3-10.6-2.5-15.9-3.7c-4.3-1.1-8.7-1.9-13.2-2.5c-2.4-0.3-4.9-0.1-7.3,0.8c-3.4,1.3-6.2,4-7.6,7.5c-1.1,2.7-2,5.4-2.5,8.2
			c-1.9,8-3.7,16.1-5.5,24.1c-0.6,2.4-0.9,4.8-1,7.2c0,5,1.9,9,6.1,11.7c2.2,1.3,4.6,2.3,7.2,2.9C750.4,642.8,755.2,644,760,645.2
			L760,645.2z"/>
		<path d="M786.7,618.5c-2.5,10.8-13.2,17.5-24,15c-10.8-2.5-17.5-13.2-15-24c2.5-10.7,13.1-17.4,23.9-15
			c10.8,2.4,17.6,13.1,15.1,23.9C786.7,618.4,786.7,618.5,786.7,618.5z M764.3,626.7c7,1.6,14-2.7,15.6-9.7c1.6-7-2.7-14-9.7-15.6
			c-7-1.6-14,2.7-15.6,9.7c0,0.1,0,0.2-0.1,0.3C753.1,618.2,757.4,625.1,764.3,626.7z"/>
		<path d="M787.6,597.4c0.6-2.5,3.1-4.1,5.6-3.4c2.5,0.6,4.1,3.1,3.4,5.6s-3.1,4.1-5.6,3.4c0,0,0,0,0,0
			C788.5,602.4,787,599.9,787.6,597.4z"/>
	</g>
</g>
<g id="Layer_2">
	<g>
		<path d="M449.5,222.2l18,18.4l4-3.9c0.4-0.4,0.7-0.5,1-0.6c0.3,0,0.6,0.1,0.8,0.3c0.2,0.2,0.3,0.5,0.3,0.8c0,0.3-0.2,0.6-0.6,1
			l-9.6,9.4c-0.4,0.4-0.7,0.5-1,0.6c-0.3,0-0.6-0.1-0.8-0.3c-0.2-0.2-0.3-0.5-0.3-0.8s0.2-0.6,0.6-1l4-3.9l-18-18.4l-6.3,6.2
			l5.2,5.3c0.4,0.4,0.6,0.7,0.6,1c0,0.3-0.1,0.6-0.3,0.8c-0.2,0.2-0.5,0.3-0.8,0.3c-0.3,0-0.6-0.2-1-0.6l-6.7-6.9l17.3-16.9l6.7,6.9
			c0.4,0.4,0.6,0.7,0.6,1c0,0.3-0.1,0.6-0.3,0.8c-0.2,0.2-0.5,0.3-0.8,0.3s-0.6-0.2-1-0.6l-5.2-5.3L449.5,222.2z"/>
		<path d="M489.8,203.2l-10.7,9.5l8.2,9.3l2.2-1.9c0.4-0.3,0.7-0.5,1-0.5c0.3,0,0.6,0.1,0.8,0.4c0.2,0.2,0.3,0.5,0.3,0.8
			c0,0.3-0.2,0.6-0.6,1l-5.6,5c-0.4,0.3-0.7,0.5-1,0.5c-0.3,0-0.6-0.1-0.8-0.4c-0.2-0.2-0.3-0.5-0.3-0.8s0.2-0.6,0.6-1l1.8-1.6
			l-17.1-19.3l-1,0.9c-0.4,0.4-0.7,0.5-1,0.5c-0.3,0-0.6-0.1-0.8-0.4s-0.3-0.5-0.3-0.8c0-0.3,0.3-0.6,0.7-1l4.8-4.2
			c0.4-0.3,0.7-0.5,1-0.5c0.3,0,0.6,0.1,0.8,0.4c0.2,0.2,0.3,0.5,0.3,0.8s-0.2,0.6-0.6,1l-2.2,1.9l7.4,8.4l10.7-9.5l-7.4-8.4
			l-2.2,1.9c-0.4,0.3-0.7,0.5-1,0.5c-0.3,0-0.6-0.1-0.8-0.4c-0.2-0.2-0.3-0.5-0.3-0.8c0-0.3,0.2-0.6,0.6-1l4.8-4.2
			c0.4-0.4,0.7-0.5,1-0.5c0.3,0,0.6,0.1,0.8,0.4c0.2,0.2,0.3,0.5,0.3,0.8c0,0.3-0.3,0.6-0.7,1l-1,0.9l17.1,19.3l1.8-1.6
			c0.4-0.3,0.7-0.5,1-0.5c0.3,0,0.6,0.1,0.8,0.4c0.2,0.2,0.3,0.5,0.3,0.8c0,0.3-0.2,0.6-0.6,1l-5.6,5c-0.4,0.3-0.7,0.5-1,0.5
			s-0.6-0.1-0.8-0.4c-0.2-0.2-0.3-0.5-0.3-0.8c0-0.3,0.2-0.6,0.6-1l2.2-1.9L489.8,203.2z"/>
		<path d="M506.3,189.4l7.7,9.6l13-10.4l-4-5c-0.3-0.4-0.5-0.8-0.5-1c0-0.3,0.1-0.5,0.4-0.8c0.3-0.2,0.5-0.3,0.8-0.2
			s0.6,0.3,0.9,0.7l5.3,6.7l-18.6,14.9c-0.4,0.3-0.8,0.5-1.1,0.4c-0.3,0-0.5-0.2-0.7-0.4c-0.2-0.3-0.3-0.5-0.2-0.8
			c0.1-0.3,0.3-0.6,0.7-0.9l2.3-1.8l-16.1-20.1l-2.3,1.8c-0.4,0.3-0.8,0.5-1,0.5c-0.3,0-0.5-0.1-0.8-0.4c-0.2-0.3-0.3-0.5-0.2-0.8
			c0.1-0.3,0.3-0.6,0.7-0.9l17.7-14.2l4.6,5.8c0.3,0.4,0.5,0.8,0.5,1c0,0.3-0.1,0.5-0.4,0.8c-0.3,0.2-0.5,0.3-0.8,0.2
			c-0.3-0.1-0.6-0.3-0.9-0.7l-3.3-4.1l-12.1,9.7l7,8.8l6-4.8l-1.5-1.9c-0.3-0.4-0.5-0.8-0.4-1.1c0-0.3,0.2-0.6,0.4-0.8
			c0.2-0.2,0.5-0.3,0.8-0.2c0.3,0,0.6,0.3,0.9,0.7l4.4,5.5c0.3,0.4,0.5,0.8,0.4,1.1c0,0.3-0.2,0.5-0.4,0.7c-0.3,0.2-0.5,0.3-0.8,0.2
			c-0.3,0-0.6-0.3-0.9-0.7l-1.5-1.9L506.3,189.4z"/>
		<path d="M570.9,127.4l-0.8-1.3c-0.3-0.4-0.4-0.8-0.4-1.1c0-0.3,0.2-0.5,0.5-0.7c0.3-0.2,0.6-0.2,0.8-0.1c0.3,0.1,0.6,0.3,0.8,0.8
			l3.3,5c0.3,0.4,0.4,0.8,0.4,1.1c0,0.3-0.2,0.5-0.5,0.7c-0.2,0.2-0.5,0.2-0.8,0.1c-0.3-0.1-0.6-0.3-0.8-0.7c-0.9-1.2-2.2-1.8-4-1.9
			c-2.5-0.2-4.8,0.4-6.9,1.8c-1.4,0.9-2.5,2.1-3.3,3.5c-0.6,1-1,2.1-1.1,3.1c-0.2,1.7-0.2,3.5,0.2,5.2c0.3,1.3,0.8,2.5,1.6,3.8
			l2.1,3.2c1.8,2.7,4.3,4.4,7.5,5.1c3.2,0.7,6.2,0.2,8.7-1.4c1.6-1,2.7-2.2,3.5-3.7c0.8-1.5,1.3-3.3,1.6-5.4c0-0.5,0.2-0.8,0.5-1
			c0.3-0.2,0.5-0.2,0.8-0.2c0.3,0.1,0.5,0.2,0.6,0.4c0.2,0.3,0.2,1,0.1,2.1c-0.3,2.1-1,3.9-2,5.6c-1,1.6-2.3,2.9-3.8,3.9
			c-1.3,0.8-2.8,1.5-4.5,1.8c-1.3,0.3-2.4,0.4-3.4,0.3c-1-0.1-2.4-0.4-4.2-1c-1.8-0.6-3.2-1.3-4.2-2.1c-1-0.8-2-1.8-2.8-3.1
			l-2.4-3.7c-1.2-1.8-1.9-3.9-2.1-6.4c-0.3-2.5,0.1-4.8,1.1-6.8c1-2.1,2.5-3.7,4.4-5C564.2,127.4,567.4,126.7,570.9,127.4z"/>
		<path d="M608.7,124.6l-12.3,7.1l1.4,8.3l3.6-2.1c0.4-0.3,0.8-0.4,1.1-0.3c0.3,0.1,0.5,0.2,0.7,0.5c0.2,0.3,0.2,0.5,0.1,0.8
			c-0.1,0.3-0.4,0.6-0.8,0.8l-7,4c-0.4,0.3-0.8,0.4-1.1,0.3c-0.3-0.1-0.5-0.2-0.7-0.5c-0.2-0.3-0.2-0.6-0.1-0.8
			c0.1-0.3,0.4-0.6,0.8-0.8l1.4-0.8l-4.7-27l-5.5,3.2c-0.4,0.3-0.8,0.4-1.1,0.3c-0.3-0.1-0.5-0.2-0.7-0.5c-0.2-0.3-0.2-0.6-0.1-0.8
			c0.1-0.3,0.4-0.6,0.8-0.8l9.4-5.5l23.1,18.8l1.4-0.8c0.4-0.3,0.8-0.4,1.1-0.3c0.3,0.1,0.5,0.2,0.7,0.5c0.2,0.3,0.2,0.5,0.1,0.8
			s-0.4,0.6-0.8,0.8l-7,4c-0.5,0.3-0.8,0.4-1.1,0.3c-0.3-0.1-0.5-0.2-0.7-0.5c-0.2-0.3-0.2-0.6-0.1-0.8c0.1-0.3,0.4-0.6,0.8-0.8
			l3.6-2.1L608.7,124.6z M606.9,123.2l-13-10.6l-0.7,0.4l2.9,16.5L606.9,123.2z"/>
		<path d="M626,111.3l5.2,10l3.5-1.8c0.5-0.2,0.9-0.3,1.1-0.3c0.3,0.1,0.5,0.3,0.7,0.5c0.1,0.3,0.2,0.6,0.1,0.8
			c-0.1,0.3-0.4,0.5-0.9,0.8l-8,4.1c-0.5,0.2-0.8,0.3-1.1,0.2s-0.5-0.3-0.6-0.5c-0.1-0.3-0.2-0.6-0.1-0.8c0.1-0.3,0.4-0.5,0.8-0.8
			l2.6-1.3l-11.8-22.9l-2.6,1.3c-0.5,0.2-0.8,0.3-1.1,0.2c-0.3-0.1-0.5-0.3-0.7-0.5s-0.2-0.6-0.1-0.8c0.1-0.3,0.4-0.5,0.8-0.8
			l11.6-6c2.4-1.2,4.8-1.5,7.2-0.8c2.4,0.7,4.1,2,5.1,3.9c0.7,1.4,0.9,2.9,0.5,4.7s-1.6,3.6-3.5,5.6c1.9,0.2,3.6,0.7,5.2,1.4
			c1.6,0.7,4.4,2.3,8.4,4.9l1.5-0.8c0.5-0.2,0.8-0.3,1.1-0.2c0.3,0.1,0.5,0.3,0.7,0.5c0.1,0.3,0.2,0.6,0.1,0.8
			c-0.1,0.3-0.4,0.5-0.8,0.8l-2.6,1.3c-4.6-3-7.9-4.9-9.9-5.7c-2-0.8-4.1-1.1-6.2-1.1L626,111.3z M625,109.4l5.2-2.7
			c1.7-0.9,3-2,4.1-3.3c1-1.3,1.7-2.5,1.9-3.7s0.1-2.1-0.4-3c-0.7-1.3-1.9-2.2-3.8-2.7c-1.9-0.5-3.7-0.3-5.6,0.7l-7.1,3.6L625,109.4
			z"/>
		<path d="M660.7,106.6l-10.6-23.4l-2.6,1.2c-0.5,0.2-0.8,0.3-1.1,0.2c-0.3-0.1-0.5-0.3-0.6-0.6c-0.1-0.3-0.1-0.6,0-0.9
			c0.1-0.3,0.4-0.5,0.9-0.7l12.3-5.6c2.4-1.1,4.8-1.3,6.9-0.6c2.2,0.7,3.7,2,4.6,3.9c1.1,2.4,0.7,4.9-1.2,7.6
			c2.4-0.2,4.3,0.1,5.8,0.9c1.5,0.8,2.6,1.9,3.3,3.4c0.6,1.3,0.8,2.6,0.7,4c-0.1,1.4-0.7,2.7-1.6,4.1c-0.9,1.3-2.2,2.4-3.7,3.1
			l-14.7,6.7c-0.5,0.2-0.8,0.3-1.1,0.2c-0.3-0.1-0.5-0.3-0.6-0.6c-0.1-0.3-0.1-0.6,0-0.9c0.1-0.3,0.4-0.5,0.9-0.7L660.7,106.6z
			 M656.7,92.4l6.9-3.2c1.5-0.7,2.7-1.6,3.7-2.7c0.8-0.9,1.2-1.8,1.4-2.9s0-2-0.4-2.9c-0.6-1.2-1.7-2.1-3.3-2.6
			c-1.6-0.5-3.4-0.3-5.2,0.5l-7.8,3.5L656.7,92.4z M662.7,105.7l9.9-4.5c1.3-0.6,2.2-1.4,2.9-2.3s1.1-2,1.2-3c0.1-1,0-2-0.4-2.9
			c-0.5-1-1.2-1.8-2.4-2.4c-1.1-0.6-2.4-0.9-3.9-0.8c-1.5,0.1-3.3,0.6-5.4,1.6l-7.1,3.2L662.7,105.7z"/>
		<path d="M709,72.3c1.1,2.7,1.5,5.4,1.3,8.1c-0.2,2.7-1,5.1-2.4,7.1c-1.4,2-3.2,3.5-5.4,4.3c-3.2,1.3-6.6,1-10.2-0.7
			c-3.5-1.8-6.2-4.8-7.9-9.1c-1.7-4.3-1.9-8.3-0.5-12c1.4-3.7,3.7-6.2,6.9-7.5c2.2-0.9,4.5-1,6.9-0.5c2.4,0.5,4.6,1.7,6.6,3.6
			C706.5,67.3,708,69.6,709,72.3z M707,73.1c-1.3-3.3-3.4-5.8-6.3-7.7c-2.9-1.8-5.9-2.2-8.9-1c-2.8,1.1-4.7,3.3-5.8,6.6
			c-1,3.3-0.8,6.7,0.5,10.2c1.5,3.7,3.7,6.4,6.7,7.9c3,1.5,5.9,1.8,8.5,0.8c3-1.2,5-3.5,5.8-6.8C708.5,79.7,708.3,76.4,707,73.1z"/>
		<path d="M745.2,75.6l-2.6,0.9l-23.7-20.4l7.9,23.4l3.8-1.3c0.5-0.2,0.9-0.2,1.2-0.1c0.3,0.1,0.5,0.3,0.6,0.6
			c0.1,0.3,0.1,0.6-0.1,0.8c-0.1,0.3-0.5,0.5-1,0.7l-7.5,2.5c-0.5,0.2-0.9,0.2-1.2,0.1c-0.3-0.1-0.5-0.3-0.6-0.6
			c-0.1-0.3-0.1-0.6,0.1-0.8c0.1-0.3,0.5-0.5,1-0.6l1.7-0.6l-8.2-24.4l-2.7,0.9c-0.5,0.2-0.9,0.2-1.1,0.1s-0.5-0.3-0.6-0.6
			s-0.1-0.6,0.1-0.8c0.1-0.3,0.5-0.5,1-0.6l5.4-1.8l23.7,20.4l-7.9-23.5l-3.8,1.3c-0.5,0.2-0.9,0.2-1.1,0.1s-0.5-0.3-0.6-0.6
			s-0.1-0.6,0.1-0.8s0.5-0.5,1-0.6l7.5-2.5c0.5-0.2,0.9-0.2,1.1-0.1c0.3,0.1,0.5,0.3,0.6,0.6c0.1,0.3,0.1,0.6-0.1,0.8
			c-0.1,0.3-0.5,0.5-1,0.6l-1.7,0.6L745.2,75.6z"/>
		<path d="M794.4,46.9l2.8,12l7.2-1.7c0.5-0.1,0.9-0.1,1.1,0c0.3,0.1,0.4,0.4,0.5,0.7c0.1,0.3,0,0.6-0.2,0.8c-0.2,0.2-0.5,0.4-1,0.5
			l-12.1,2.8c-0.5,0.1-0.9,0.1-1.1-0.1c-0.3-0.2-0.4-0.4-0.5-0.7c-0.1-0.3,0-0.6,0.2-0.8c0.2-0.2,0.5-0.4,1-0.5l2.8-0.6l-5.8-25.1
			l-2.8,0.6c-0.5,0.1-0.9,0.1-1.1,0s-0.4-0.4-0.5-0.7c-0.1-0.3,0-0.6,0.2-0.9c0.1-0.2,0.5-0.4,1-0.5l23.2-5.3l1.7,7.2
			c0.1,0.5,0.1,0.9-0.1,1.1c-0.2,0.3-0.4,0.4-0.7,0.5c-0.3,0.1-0.6,0-0.9-0.1s-0.4-0.5-0.5-1l-1.2-5.1l-16.1,3.7l2.5,10.9l7.5-1.7
			l-0.5-2.4c-0.1-0.5-0.1-0.9,0.1-1.1s0.4-0.4,0.7-0.5c0.3-0.1,0.6,0,0.8,0.2c0.2,0.2,0.4,0.5,0.5,1l1.6,6.9
			c0.1,0.5,0.1,0.9-0.1,1.1c-0.2,0.3-0.4,0.4-0.7,0.5c-0.3,0.1-0.6,0-0.9-0.1c-0.2-0.2-0.4-0.5-0.5-1l-0.5-2.4L794.4,46.9z"/>
		<path d="M847.5,35.9c0.5,2.8,0.4,5.6-0.3,8.2c-0.7,2.6-2,4.8-3.7,6.5c-1.8,1.7-3.8,2.8-6.1,3.2c-3.4,0.6-6.7-0.3-9.8-2.8
			c-3.1-2.4-5.1-5.9-5.9-10.5c-0.8-4.6-0.2-8.5,1.9-11.9c2.1-3.4,4.8-5.3,8.3-6c2.3-0.4,4.6-0.1,6.8,0.9c2.2,1,4.2,2.6,5.7,4.8
			C846,30.5,847,33,847.5,35.9z M845.4,36.2c-0.6-3.5-2.2-6.4-4.7-8.8c-2.5-2.4-5.3-3.3-8.5-2.7c-3,0.5-5.3,2.3-7,5.3
			c-1.7,3-2.1,6.4-1.5,10.1c0.7,3.9,2.4,7,5,9.1s5.4,2.9,8.2,2.4c3.2-0.6,5.5-2.4,7.1-5.5C845.5,43,846,39.7,845.4,36.2z"/>
		<path d="M883.1,31.1c0.4,2.9,0.1,5.6-0.7,8.2c-0.8,2.6-2.2,4.7-4.1,6.3c-1.9,1.6-4,2.6-6.3,2.9c-3.4,0.4-6.7-0.6-9.7-3.2
			c-3-2.6-4.8-6.2-5.4-10.8c-0.6-4.6,0.3-8.5,2.5-11.8c2.3-3.3,5.1-5.1,8.6-5.5c2.3-0.3,4.6,0.1,6.8,1.2c2.2,1.1,4,2.8,5.5,5.1
			C881.8,25.7,882.7,28.3,883.1,31.1z M880.9,31.4c-0.4-3.5-1.8-6.5-4.2-9c-2.4-2.5-5.2-3.6-8.4-3.2c-3,0.4-5.4,2-7.2,4.9
			c-1.8,2.9-2.5,6.2-2,10c0.5,4,2,7.1,4.6,9.3s5.2,3.2,8,2.8c3.2-0.4,5.7-2.1,7.3-5.1C880.7,38.2,881.4,34.9,880.9,31.4z"/>
		<path d="M905.7,16.2l2,25.7l5.6-0.4c0.5,0,0.9,0,1.1,0.2c0.2,0.2,0.4,0.4,0.4,0.8c0,0.3-0.1,0.6-0.3,0.8c-0.2,0.2-0.6,0.4-1.1,0.4
			l-13.3,1c-0.5,0-0.9,0-1.1-0.2c-0.2-0.2-0.4-0.4-0.4-0.7c0-0.3,0.1-0.6,0.3-0.8c0.2-0.2,0.6-0.3,1.1-0.4l5.6-0.4l-2-25.7l-8.8,0.7
			l0.6,7.5c0,0.5,0,0.9-0.2,1.1c-0.2,0.2-0.4,0.4-0.8,0.4c-0.3,0-0.6-0.1-0.8-0.3c-0.2-0.2-0.4-0.6-0.4-1.1l-0.7-9.6l24.1-1.8
			l0.7,9.6c0,0.5,0,0.9-0.2,1.1c-0.2,0.2-0.4,0.4-0.8,0.4c-0.3,0-0.6-0.1-0.8-0.3c-0.2-0.2-0.3-0.6-0.4-1.1l-0.6-7.5L905.7,16.2z"/>
		<path d="M936.8,30.1l0.3,10.2l7.4-0.2c0.5,0,0.9,0.1,1.1,0.3s0.3,0.4,0.4,0.8c0,0.3-0.1,0.6-0.3,0.8s-0.6,0.3-1.1,0.3l-12.5,0.3
			c-0.5,0-0.9-0.1-1.1-0.3c-0.2-0.2-0.3-0.5-0.4-0.8c0-0.3,0.1-0.6,0.3-0.8c0.2-0.2,0.6-0.3,1.1-0.3l2.9-0.1l-0.7-25.7l-2.9,0.1
			c-0.5,0-0.9-0.1-1.1-0.3c-0.2-0.2-0.3-0.4-0.4-0.8c0-0.3,0.1-0.6,0.3-0.8c0.2-0.2,0.6-0.3,1.1-0.3l12.5-0.3c3-0.1,5.4,0.7,7.3,2.4
			s2.9,3.7,3,6.1c0,1.4-0.2,2.6-0.8,3.8s-1.3,2-2.1,2.7c-1.3,1-2.6,1.7-3.9,2.2c-1,0.4-2.2,0.5-3.7,0.6L936.8,30.1z M936.8,27.9
			l6.9-0.2c1.6,0,3.1-0.4,4.5-1.2c1.4-0.7,2.4-1.6,3-2.7c0.6-1,0.9-2.1,0.9-3.2c0-1.7-0.8-3.2-2.3-4.5c-1.5-1.3-3.3-1.9-5.6-1.9
			l-7.7,0.2L936.8,27.9z"/>
		<path d="M970.2,28.6L970,39.9l4,0.1c0.5,0,0.9,0.1,1.1,0.3c0.2,0.2,0.3,0.5,0.3,0.8c0,0.3-0.1,0.6-0.4,0.8
			c-0.2,0.2-0.6,0.3-1.1,0.3l-9-0.2c-0.5,0-0.9-0.1-1.1-0.3c-0.2-0.2-0.3-0.5-0.3-0.8c0-0.3,0.1-0.6,0.4-0.8
			c0.2-0.2,0.6-0.3,1.1-0.3l2.9,0.1l0.6-25.7l-2.9-0.1c-0.5,0-0.9-0.1-1.1-0.3s-0.3-0.5-0.3-0.8c0-0.3,0.1-0.6,0.4-0.8
			c0.2-0.2,0.6-0.3,1.1-0.3l13,0.3c2.7,0.1,4.9,1,6.7,2.7c1.8,1.7,2.7,3.7,2.6,5.8c0,1.5-0.6,3-1.8,4.3c-1.2,1.3-3.1,2.4-5.8,3.3
			c1.5,1.1,2.8,2.3,3.9,3.7c1.1,1.4,2.8,4.1,5.1,8.3l1.6,0c0.5,0,0.9,0.1,1.1,0.3c0.2,0.2,0.3,0.5,0.3,0.8c0,0.3-0.1,0.6-0.4,0.8
			c-0.2,0.2-0.6,0.3-1.1,0.3l-2.9-0.1c-2.6-4.8-4.6-8.1-6-9.7c-1.4-1.7-3.1-3-5-3.9L970.2,28.6z M970.3,26.5l5.9,0.1
			c1.9,0,3.6-0.3,5.1-0.9c1.5-0.7,2.7-1.4,3.4-2.3c0.7-0.9,1.1-1.8,1.1-2.8c0-1.4-0.7-2.8-2.1-4.2s-3.2-2-5.2-2.1l-7.9-0.2
			L970.3,26.5z"/>
		<path d="M1015.1,16.1l-1.8,25.7l7.4,0.5c0.5,0,0.9,0.2,1.1,0.4c0.2,0.2,0.3,0.5,0.3,0.8c0,0.3-0.2,0.6-0.4,0.7s-0.6,0.3-1.1,0.2
			l-16.9-1.2c-0.5,0-0.9-0.2-1.1-0.4c-0.2-0.2-0.3-0.5-0.3-0.8c0-0.3,0.2-0.6,0.4-0.8c0.2-0.2,0.6-0.3,1.1-0.2l7.4,0.5l1.8-25.7
			l-7.4-0.5c-0.5,0-0.9-0.2-1.1-0.4c-0.2-0.2-0.3-0.5-0.3-0.8c0-0.3,0.2-0.6,0.4-0.8c0.2-0.2,0.6-0.3,1.1-0.2l16.9,1.2
			c0.5,0,0.9,0.2,1.1,0.4c0.2,0.2,0.3,0.5,0.3,0.8c0,0.3-0.2,0.6-0.4,0.8s-0.6,0.3-1.1,0.2L1015.1,16.1z"/>
		<path d="M1057.4,48.5l-2.8-0.3l-12.5-28.6l-3,24.6l4,0.5c0.5,0.1,0.9,0.2,1.1,0.4c0.2,0.2,0.3,0.5,0.2,0.8c0,0.3-0.2,0.5-0.4,0.7
			c-0.2,0.2-0.6,0.2-1.2,0.2l-7.9-1c-0.5-0.1-0.9-0.2-1.1-0.4c-0.2-0.2-0.3-0.5-0.2-0.8c0-0.3,0.2-0.6,0.4-0.7
			c0.2-0.2,0.6-0.2,1.2-0.2l1.8,0.2l3.1-25.5l-2.9-0.4c-0.5-0.1-0.9-0.2-1.1-0.4s-0.3-0.5-0.2-0.8c0-0.3,0.2-0.6,0.4-0.7
			c0.2-0.2,0.6-0.2,1.1-0.2l5.6,0.7l12.6,28.7l3-24.6l-4-0.5c-0.5-0.1-0.9-0.2-1.1-0.4c-0.2-0.2-0.3-0.5-0.2-0.8
			c0-0.3,0.2-0.6,0.4-0.7c0.2-0.2,0.6-0.2,1.1-0.2l7.9,1c0.5,0.1,0.9,0.2,1.1,0.4c0.2,0.2,0.3,0.5,0.2,0.8c0,0.3-0.2,0.6-0.4,0.7
			c-0.2,0.2-0.6,0.2-1.1,0.2l-1.8-0.2L1057.4,48.5z"/>
		<path d="M1087.5,25l-4.4,25.4l5.5,1c0.5,0.1,0.9,0.2,1,0.5c0.2,0.2,0.3,0.5,0.2,0.8c-0.1,0.3-0.2,0.5-0.5,0.7s-0.6,0.2-1.1,0.1
			l-13.2-2.3c-0.5-0.1-0.9-0.3-1-0.5s-0.2-0.5-0.2-0.8c0.1-0.3,0.2-0.6,0.5-0.7c0.3-0.2,0.6-0.2,1.1-0.1l5.5,1l4.4-25.4l-8.7-1.5
			l-1.3,7.4c-0.1,0.5-0.3,0.9-0.5,1.1c-0.2,0.2-0.5,0.3-0.8,0.2c-0.3-0.1-0.5-0.2-0.7-0.5c-0.2-0.3-0.2-0.6-0.1-1.2l1.6-9.5
			l23.8,4.1l-1.6,9.5c-0.1,0.5-0.3,0.9-0.5,1.1c-0.2,0.2-0.5,0.3-0.8,0.2c-0.3-0.1-0.6-0.2-0.7-0.5c-0.2-0.3-0.2-0.6-0.1-1.2
			l1.3-7.4L1087.5,25z"/>
		<path d="M1166.9,56.8c-0.8,2.8-2,5.2-3.8,7.2s-3.8,3.5-6.2,4.2s-4.6,0.8-6.9,0.2c-3.3-0.9-5.9-3.2-7.7-6.7c-1.8-3.6-2-7.6-0.8-12
			c1.2-4.5,3.5-7.8,6.9-9.9c3.3-2.1,6.7-2.7,10-1.8c2.3,0.6,4.2,1.9,5.8,3.7c1.6,1.9,2.6,4.1,3.1,6.8
			C1167.8,51.3,1167.6,54,1166.9,56.8z M1164.8,56.2c0.9-3.4,0.8-6.7-0.4-9.9c-1.2-3.2-3.4-5.3-6.5-6.2c-2.9-0.8-5.8-0.2-8.6,1.8
			c-2.8,2-4.7,4.8-5.7,8.4c-1.1,3.9-0.9,7.3,0.6,10.4c1.5,3.1,3.6,5,6.3,5.7c3.1,0.9,6,0.2,8.7-1.9
			C1162,62.4,1163.8,59.6,1164.8,56.2z"/>
		<path d="M1183.4,62.5l-3.9,11.7l7,2.3c0.5,0.2,0.8,0.4,1,0.6c0.1,0.3,0.2,0.5,0.1,0.8c-0.1,0.3-0.3,0.5-0.6,0.6
			c-0.3,0.1-0.7,0.1-1.1-0.1l-11.8-3.9c-0.5-0.2-0.8-0.4-1-0.6s-0.2-0.5-0.1-0.8c0.1-0.3,0.3-0.5,0.6-0.6s0.7-0.1,1.1,0.1l2.8,0.9
			l8.1-24.4l-2.8-0.9c-0.5-0.2-0.8-0.4-1-0.6c-0.1-0.3-0.2-0.5-0.1-0.8c0.1-0.3,0.3-0.5,0.6-0.7c0.2-0.1,0.6-0.1,1.1,0.1l22.5,7.5
			l-2.3,7c-0.2,0.5-0.4,0.8-0.6,1c-0.3,0.1-0.5,0.2-0.8,0.1c-0.3-0.1-0.5-0.3-0.7-0.6c-0.1-0.3-0.1-0.7,0.1-1.1l1.7-5l-15.7-5.2
			l-3.5,10.6l7.3,2.4l0.8-2.3c0.2-0.5,0.4-0.8,0.6-1c0.3-0.1,0.6-0.2,0.9-0.1c0.3,0.1,0.5,0.3,0.6,0.6c0.1,0.3,0.1,0.7-0.1,1.1
			L1192,68c-0.2,0.5-0.4,0.8-0.6,1c-0.3,0.1-0.5,0.2-0.8,0.1c-0.3-0.1-0.5-0.3-0.7-0.6c-0.1-0.3-0.1-0.7,0.1-1.1l0.8-2.3
			L1183.4,62.5z"/>
		<path d="M1261.5,78.4l-10.5,23.5l6.8,3c0.5,0.2,0.8,0.5,0.9,0.7c0.1,0.3,0.1,0.6,0,0.9c-0.1,0.3-0.3,0.5-0.6,0.6
			c-0.3,0.1-0.7,0-1.1-0.2l-15.5-6.9c-0.5-0.2-0.8-0.5-0.9-0.7c-0.1-0.3-0.1-0.6,0-0.8c0.1-0.3,0.3-0.5,0.6-0.6
			c0.3-0.1,0.7,0,1.1,0.2l6.8,3l10.5-23.5l-6.8-3c-0.5-0.2-0.8-0.5-0.9-0.7c-0.1-0.3-0.1-0.6,0-0.9c0.1-0.3,0.3-0.5,0.6-0.6
			c0.3-0.1,0.7,0,1.1,0.2l15.5,6.9c0.5,0.2,0.8,0.5,0.9,0.7c0.1,0.3,0.1,0.6,0,0.9c-0.1,0.3-0.3,0.5-0.6,0.6c-0.3,0.1-0.7,0-1.1-0.2
			L1261.5,78.4z"/>
		<path d="M1290.2,123.3l-2.5-1.3l-2-31.2l-11.2,22l3.5,1.8c0.5,0.2,0.8,0.5,0.9,0.8c0.1,0.3,0.1,0.6-0.1,0.8
			c-0.1,0.3-0.4,0.5-0.6,0.5c-0.3,0.1-0.7,0-1.1-0.2l-7.1-3.6c-0.5-0.2-0.8-0.5-0.9-0.8c-0.1-0.3-0.1-0.6,0.1-0.8
			c0.1-0.3,0.4-0.5,0.7-0.5c0.3-0.1,0.7,0,1.1,0.3l1.6,0.8l11.7-22.9l-2.6-1.3c-0.5-0.2-0.7-0.5-0.9-0.8c-0.1-0.3-0.1-0.6,0.1-0.8
			s0.4-0.5,0.7-0.5c0.3-0.1,0.7,0,1.1,0.2l5,2.6l1.9,31.2l11.3-22.1l-3.5-1.8c-0.5-0.2-0.7-0.5-0.8-0.8c-0.1-0.3-0.1-0.6,0.1-0.8
			s0.4-0.5,0.6-0.6c0.3-0.1,0.7,0,1.1,0.2l7.1,3.6c0.5,0.2,0.7,0.5,0.8,0.8c0.1,0.3,0.1,0.6-0.1,0.8c-0.1,0.3-0.4,0.5-0.7,0.5
			s-0.7,0-1.1-0.2l-1.6-0.8L1290.2,123.3z"/>
		<path d="M1326.4,111.6l-12.8,22.3l4.9,2.8c0.4,0.3,0.7,0.5,0.8,0.8c0.1,0.3,0.1,0.6-0.1,0.8c-0.2,0.3-0.4,0.4-0.7,0.5
			s-0.7,0-1.1-0.3l-11.6-6.7c-0.4-0.3-0.7-0.5-0.8-0.8s-0.1-0.6,0.1-0.8c0.2-0.3,0.4-0.5,0.7-0.5c0.3-0.1,0.7,0,1.1,0.3l4.9,2.8
			l12.8-22.3l-7.7-4.4l-3.7,6.5c-0.3,0.5-0.5,0.7-0.8,0.8c-0.3,0.1-0.6,0.1-0.8-0.1c-0.3-0.2-0.4-0.4-0.5-0.7
			c-0.1-0.3,0-0.7,0.3-1.1l4.8-8.4l21,12l-4.8,8.4c-0.3,0.5-0.5,0.7-0.8,0.8c-0.3,0.1-0.6,0.1-0.8-0.1c-0.3-0.2-0.5-0.4-0.5-0.7
			c-0.1-0.3,0-0.7,0.3-1.1l3.7-6.5L1326.4,111.6z"/>
		<path d="M1343.5,137.5l-6.7,10.4l14,9l3.4-5.4c0.3-0.4,0.6-0.7,0.8-0.8c0.3-0.1,0.6,0,0.8,0.1c0.3,0.2,0.4,0.4,0.5,0.7
			c0,0.3-0.1,0.7-0.3,1.1l-4.6,7.2l-20-12.9c-0.4-0.3-0.7-0.6-0.8-0.9s0-0.6,0.1-0.8c0.2-0.3,0.4-0.4,0.7-0.5c0.3,0,0.7,0.1,1.1,0.3
			l2.4,1.6l13.9-21.6l-2.4-1.6c-0.4-0.3-0.7-0.6-0.8-0.8c-0.1-0.3,0-0.6,0.1-0.8c0.2-0.3,0.4-0.4,0.7-0.5c0.3,0,0.7,0.1,1.1,0.3
			l19.1,12.3l-4,6.2c-0.3,0.4-0.6,0.7-0.8,0.8c-0.3,0.1-0.6,0-0.8-0.1c-0.3-0.2-0.4-0.4-0.5-0.7c0-0.3,0.1-0.7,0.3-1.1l2.8-4.4
			l-13-8.4l-6.1,9.4l6.5,4.2l1.3-2.1c0.3-0.4,0.6-0.7,0.9-0.8s0.6,0,0.9,0.1c0.3,0.2,0.4,0.4,0.5,0.7c0.1,0.3-0.1,0.7-0.3,1.1
			l-3.8,5.9c-0.3,0.4-0.6,0.7-0.9,0.8s-0.6,0-0.8-0.1c-0.3-0.2-0.4-0.4-0.5-0.7s0.1-0.7,0.3-1.1l1.3-2.1L1343.5,137.5z"/>
		<path d="M1372.7,158.2l-6.5,9.1l3.2,2.3c0.4,0.3,0.7,0.6,0.7,0.9c0.1,0.3,0,0.6-0.2,0.8c-0.2,0.3-0.4,0.4-0.7,0.4
			c-0.3,0-0.7-0.1-1.1-0.4l-7.4-5.3c-0.4-0.3-0.7-0.6-0.7-0.9s0-0.6,0.2-0.8c0.2-0.3,0.4-0.4,0.7-0.4c0.3,0,0.7,0.1,1.1,0.4l2.4,1.7
			l15-20.9l-2.4-1.7c-0.4-0.3-0.7-0.6-0.7-0.9s0-0.6,0.2-0.8c0.2-0.3,0.4-0.4,0.7-0.4c0.3,0,0.7,0.1,1.1,0.4l10.6,7.6
			c2.2,1.6,3.5,3.6,4,6s0.1,4.6-1.1,6.3c-0.9,1.3-2.2,2.1-3.9,2.5c-1.7,0.4-3.9,0.3-6.6-0.6c0.6,1.8,1,3.5,1.1,5.2
			c0.1,1.7-0.1,5-0.5,9.7l1.3,1c0.4,0.3,0.7,0.6,0.7,0.9c0.1,0.3,0,0.6-0.2,0.8c-0.2,0.3-0.4,0.4-0.7,0.4s-0.7-0.1-1.1-0.4l-2.3-1.7
			c0.6-5.4,0.8-9.2,0.5-11.4s-0.9-4.2-1.9-6L1372.7,158.2z M1374,156.5l4.8,3.4c1.5,1.1,3.1,1.8,4.8,2.1c1.6,0.3,3,0.3,4.1,0
			s1.9-0.9,2.5-1.7c0.8-1.2,1-2.7,0.6-4.6c-0.4-1.9-1.5-3.5-3.2-4.7l-6.5-4.6L1374,156.5z"/>
		<path d="M1407,200.9l-2.2-1.7l4.3-30.9l-15.4,19.4l3.1,2.5c0.4,0.3,0.7,0.6,0.7,0.9s0,0.6-0.2,0.8c-0.2,0.2-0.4,0.4-0.7,0.4
			c-0.3,0-0.7-0.1-1.1-0.5l-6.2-4.9c-0.4-0.3-0.6-0.6-0.7-0.9s0-0.6,0.2-0.8c0.2-0.3,0.5-0.4,0.7-0.4s0.7,0.1,1.1,0.5l1.4,1.1
			l16-20.2l-2.3-1.8c-0.4-0.3-0.6-0.6-0.7-0.9s0-0.6,0.2-0.8c0.2-0.3,0.5-0.4,0.7-0.4c0.3,0,0.6,0.1,1,0.5l4.4,3.5l-4.3,31
			l15.4-19.4l-3.1-2.5c-0.4-0.3-0.6-0.6-0.7-0.9s0-0.6,0.2-0.8s0.4-0.4,0.7-0.4c0.3,0,0.6,0.1,1.1,0.5l6.2,4.9
			c0.4,0.3,0.6,0.6,0.7,0.9c0.1,0.3,0,0.6-0.2,0.8s-0.5,0.4-0.7,0.4c-0.3,0-0.6-0.1-1-0.5l-1.4-1.1L1407,200.9z"/>
		<path d="M1429.9,201.2l-8.1,9.3l12.5,10.9l4.2-4.8c0.3-0.4,0.7-0.6,1-0.6s0.6,0.1,0.8,0.3c0.2,0.2,0.4,0.5,0.4,0.8
			c0,0.3-0.2,0.6-0.5,1l-5.6,6.4l-17.9-15.7c-0.4-0.3-0.6-0.7-0.6-1c0-0.3,0.1-0.6,0.3-0.8c0.2-0.2,0.5-0.4,0.8-0.4s0.6,0.2,1,0.5
			l2.2,1.9l17-19.3l-2.2-1.9c-0.4-0.3-0.6-0.7-0.6-1c0-0.3,0.1-0.6,0.3-0.8c0.2-0.2,0.5-0.4,0.8-0.4c0.3,0,0.6,0.2,1,0.5l17.1,15
			l-4.9,5.6c-0.3,0.4-0.7,0.6-1,0.6c-0.3,0-0.6-0.1-0.8-0.3c-0.2-0.2-0.4-0.5-0.4-0.8c0-0.3,0.2-0.6,0.5-1l3.5-4l-11.6-10.2
			l-7.4,8.4l5.8,5.1l1.6-1.8c0.3-0.4,0.7-0.6,1-0.6c0.3,0,0.6,0.1,0.8,0.3c0.2,0.2,0.4,0.5,0.4,0.8c0,0.3-0.2,0.6-0.5,1l-4.6,5.3
			c-0.3,0.4-0.7,0.6-1,0.6c-0.3,0-0.6-0.1-0.8-0.3c-0.2-0.2-0.4-0.5-0.4-0.8c0-0.3,0.2-0.6,0.5-1l1.6-1.8L1429.9,201.2z"/>
		<path d="M1471.6,221.3l-17.9,18.5l4,3.9c0.4,0.4,0.6,0.7,0.6,1c0,0.3-0.1,0.6-0.3,0.8c-0.2,0.2-0.5,0.3-0.8,0.3
			c-0.3,0-0.6-0.2-1-0.5l-9.6-9.3c-0.4-0.4-0.6-0.7-0.6-1c0-0.3,0.1-0.6,0.3-0.8c0.2-0.2,0.5-0.3,0.8-0.3c0.3,0,0.6,0.2,1,0.6l4,3.9
			l17.9-18.5l-6.3-6.1l-5.2,5.4c-0.4,0.4-0.7,0.6-1,0.6c-0.3,0-0.6-0.1-0.8-0.3c-0.2-0.2-0.3-0.5-0.3-0.8c0-0.3,0.2-0.6,0.6-1
			l6.7-6.9l17.4,16.8l-6.7,6.9c-0.4,0.4-0.7,0.6-1,0.6c-0.3,0-0.6-0.1-0.8-0.3c-0.2-0.2-0.3-0.5-0.3-0.8s0.2-0.6,0.6-1l5.2-5.4
			L1471.6,221.3z"/>
	</g>
	<path id="SVGID_x5F_1_x5F_" style="fill:none;" d="M136.1,1947.6c389.3,0,704.9,315.6,704.9,704.9s-315.6,704.9-704.9,704.9
		s-704.9-315.6-704.9-704.9S-253.2,1947.6,136.1,1947.6z"/>
	<text>	<textPath  xlink:href="#SVGID_x5F_1_x5F_" startOffset="116.4327%">
<tspan  style="font-family:'CourierNewPSMT'; font-size:52.6004px; letter-spacing:75;">the carbon footprint of internet</tspan>	</textPath>
</text>
</g>
</svg>
